%FSLAX45Y45*%
G04 Gerber Fmt 4.5, Leading zero omitted, Abs format (unit mm)*
G04 Created by KiCad (PCBNEW (5.1.5)-3) date 2021-10-17 15:34:26*
%MOMM*%
%LPD*%
G04 APERTURE LIST*
%TA.AperFunction,Profile*%
%ADD10C,0.050000*%
%TD*%
%ADD11C,0.200000*%
%ADD12C,0.300000*%
G04 APERTURE END LIST*
D10*
X17550000Y-6925000D02*
G75*
G02X17625000Y-6850000I75000J0D01*
G01*
X17625000Y-8150000D02*
G75*
G02X17550000Y-8075000I0J75000D01*
G01*
X21375000Y-8075000D02*
G75*
G02X21300000Y-8150000I-75000J0D01*
G01*
X21300000Y-6850000D02*
G75*
G02X21375000Y-6925000I0J-75000D01*
G01*
X21300000Y-6850000D02*
X17625000Y-6850000D01*
X21375000Y-8075000D02*
X21375000Y-6925000D01*
X17625000Y-8150000D02*
X21300000Y-8150000D01*
X17550000Y-6925000D02*
X17550000Y-8075000D01*
D11*
D12*
X17833928Y-8618214D02*
X17833928Y-8318214D01*
X17905357Y-8318214D01*
X17948214Y-8332500D01*
X17976786Y-8361071D01*
X17991071Y-8389643D01*
X18005357Y-8446786D01*
X18005357Y-8489643D01*
X17991071Y-8546786D01*
X17976786Y-8575357D01*
X17948214Y-8603929D01*
X17905357Y-8618214D01*
X17833928Y-8618214D01*
X18133928Y-8618214D02*
X18133928Y-8418214D01*
X18133928Y-8475357D02*
X18148214Y-8446786D01*
X18162500Y-8432500D01*
X18191071Y-8418214D01*
X18219643Y-8418214D01*
X18319643Y-8618214D02*
X18319643Y-8418214D01*
X18319643Y-8318214D02*
X18305357Y-8332500D01*
X18319643Y-8346786D01*
X18333928Y-8332500D01*
X18319643Y-8318214D01*
X18319643Y-8346786D01*
X18505357Y-8618214D02*
X18476786Y-8603929D01*
X18462500Y-8575357D01*
X18462500Y-8318214D01*
X18662500Y-8618214D02*
X18633928Y-8603929D01*
X18619643Y-8575357D01*
X18619643Y-8318214D01*
X19005357Y-8618214D02*
X19005357Y-8318214D01*
X19105357Y-8532500D01*
X19205357Y-8318214D01*
X19205357Y-8618214D01*
X19476786Y-8618214D02*
X19476786Y-8461072D01*
X19462500Y-8432500D01*
X19433928Y-8418214D01*
X19376786Y-8418214D01*
X19348214Y-8432500D01*
X19476786Y-8603929D02*
X19448214Y-8618214D01*
X19376786Y-8618214D01*
X19348214Y-8603929D01*
X19333928Y-8575357D01*
X19333928Y-8546786D01*
X19348214Y-8518214D01*
X19376786Y-8503929D01*
X19448214Y-8503929D01*
X19476786Y-8489643D01*
X19619643Y-8418214D02*
X19619643Y-8718214D01*
X19619643Y-8432500D02*
X19648214Y-8418214D01*
X19705357Y-8418214D01*
X19733928Y-8432500D01*
X19748214Y-8446786D01*
X19762500Y-8475357D01*
X19762500Y-8561072D01*
X19748214Y-8589643D01*
X19733928Y-8603929D01*
X19705357Y-8618214D01*
X19648214Y-8618214D01*
X19619643Y-8603929D01*
X19891071Y-8589643D02*
X19905357Y-8603929D01*
X19891071Y-8618214D01*
X19876786Y-8603929D01*
X19891071Y-8589643D01*
X19891071Y-8618214D01*
X19891071Y-8432500D02*
X19905357Y-8446786D01*
X19891071Y-8461072D01*
X19876786Y-8446786D01*
X19891071Y-8432500D01*
X19891071Y-8461072D01*
M02*
