%FSLAX45Y45*%
G04 Gerber Fmt 4.5, Leading zero omitted, Abs format (unit mm)*
G04 Created by KiCad (PCBNEW (5.1.5)-3) date 2021-10-17 15:34:26*
%MOMM*%
%LPD*%
G04 APERTURE LIST*
%TA.AperFunction,Profile*%
%ADD10C,0.050000*%
%TD*%
%ADD11C,0.200000*%
%ADD12C,0.300000*%
G04 APERTURE END LIST*
D10*
X17550000Y-6925000D02*
G75*
G02X17625000Y-6850000I75000J0D01*
G01*
X17625000Y-8150000D02*
G75*
G02X17550000Y-8075000I0J75000D01*
G01*
X21375000Y-8075000D02*
G75*
G02X21300000Y-8150000I-75000J0D01*
G01*
X21300000Y-6850000D02*
G75*
G02X21375000Y-6925000I0J-75000D01*
G01*
X21300000Y-6850000D02*
X17625000Y-6850000D01*
X21375000Y-8075000D02*
X21375000Y-6925000D01*
X17625000Y-8150000D02*
X21300000Y-8150000D01*
X17550000Y-6925000D02*
X17550000Y-8075000D01*
D11*
X20880000Y-7430000D02*
X20920000Y-7470000D01*
X20920000Y-7430000D02*
X20880000Y-7470000D01*
X20980000Y-7530000D02*
X21020000Y-7570000D01*
X21020000Y-7530000D02*
X20980000Y-7570000D01*
D12*
X17833928Y-8618214D02*
X17833928Y-8318214D01*
X17905357Y-8318214D01*
X17948214Y-8332500D01*
X17976786Y-8361071D01*
X17991071Y-8389643D01*
X18005357Y-8446786D01*
X18005357Y-8489643D01*
X17991071Y-8546786D01*
X17976786Y-8575357D01*
X17948214Y-8603929D01*
X17905357Y-8618214D01*
X17833928Y-8618214D01*
X18133928Y-8618214D02*
X18133928Y-8418214D01*
X18133928Y-8475357D02*
X18148214Y-8446786D01*
X18162500Y-8432500D01*
X18191071Y-8418214D01*
X18219643Y-8418214D01*
X18319643Y-8618214D02*
X18319643Y-8418214D01*
X18319643Y-8318214D02*
X18305357Y-8332500D01*
X18319643Y-8346786D01*
X18333928Y-8332500D01*
X18319643Y-8318214D01*
X18319643Y-8346786D01*
X18505357Y-8618214D02*
X18476786Y-8603929D01*
X18462500Y-8575357D01*
X18462500Y-8318214D01*
X18662500Y-8618214D02*
X18633928Y-8603929D01*
X18619643Y-8575357D01*
X18619643Y-8318214D01*
X19005357Y-8618214D02*
X19005357Y-8318214D01*
X19105357Y-8532500D01*
X19205357Y-8318214D01*
X19205357Y-8618214D01*
X19476786Y-8618214D02*
X19476786Y-8461072D01*
X19462500Y-8432500D01*
X19433928Y-8418214D01*
X19376786Y-8418214D01*
X19348214Y-8432500D01*
X19476786Y-8603929D02*
X19448214Y-8618214D01*
X19376786Y-8618214D01*
X19348214Y-8603929D01*
X19333928Y-8575357D01*
X19333928Y-8546786D01*
X19348214Y-8518214D01*
X19376786Y-8503929D01*
X19448214Y-8503929D01*
X19476786Y-8489643D01*
X19619643Y-8418214D02*
X19619643Y-8718214D01*
X19619643Y-8432500D02*
X19648214Y-8418214D01*
X19705357Y-8418214D01*
X19733928Y-8432500D01*
X19748214Y-8446786D01*
X19762500Y-8475357D01*
X19762500Y-8561072D01*
X19748214Y-8589643D01*
X19733928Y-8603929D01*
X19705357Y-8618214D01*
X19648214Y-8618214D01*
X19619643Y-8603929D01*
X19891071Y-8589643D02*
X19905357Y-8603929D01*
X19891071Y-8618214D01*
X19876786Y-8603929D01*
X19891071Y-8589643D01*
X19891071Y-8618214D01*
X19891071Y-8432500D02*
X19905357Y-8446786D01*
X19891071Y-8461072D01*
X19876786Y-8446786D01*
X19891071Y-8432500D01*
X19891071Y-8461072D01*
X17507500Y-9092500D02*
X17547500Y-9132500D01*
X17547500Y-9092500D02*
X17507500Y-9132500D01*
X17891071Y-8948214D02*
X17919643Y-8948214D01*
X17948214Y-8962500D01*
X17962500Y-8976786D01*
X17976786Y-9005357D01*
X17991071Y-9062500D01*
X17991071Y-9133929D01*
X17976786Y-9191072D01*
X17962500Y-9219643D01*
X17948214Y-9233929D01*
X17919643Y-9248214D01*
X17891071Y-9248214D01*
X17862500Y-9233929D01*
X17848214Y-9219643D01*
X17833928Y-9191072D01*
X17819643Y-9133929D01*
X17819643Y-9062500D01*
X17833928Y-9005357D01*
X17848214Y-8976786D01*
X17862500Y-8962500D01*
X17891071Y-8948214D01*
X18119643Y-9219643D02*
X18133928Y-9233929D01*
X18119643Y-9248214D01*
X18105357Y-9233929D01*
X18119643Y-9219643D01*
X18119643Y-9248214D01*
X18391071Y-9048214D02*
X18391071Y-9248214D01*
X18319643Y-8933929D02*
X18248214Y-9148214D01*
X18433928Y-9148214D01*
X18605357Y-8948214D02*
X18633928Y-8948214D01*
X18662500Y-8962500D01*
X18676786Y-8976786D01*
X18691071Y-9005357D01*
X18705357Y-9062500D01*
X18705357Y-9133929D01*
X18691071Y-9191072D01*
X18676786Y-9219643D01*
X18662500Y-9233929D01*
X18633928Y-9248214D01*
X18605357Y-9248214D01*
X18576786Y-9233929D01*
X18562500Y-9219643D01*
X18548214Y-9191072D01*
X18533928Y-9133929D01*
X18533928Y-9062500D01*
X18548214Y-9005357D01*
X18562500Y-8976786D01*
X18576786Y-8962500D01*
X18605357Y-8948214D01*
X18833928Y-9248214D02*
X18833928Y-9048214D01*
X18833928Y-9076786D02*
X18848214Y-9062500D01*
X18876786Y-9048214D01*
X18919643Y-9048214D01*
X18948214Y-9062500D01*
X18962500Y-9091072D01*
X18962500Y-9248214D01*
X18962500Y-9091072D02*
X18976786Y-9062500D01*
X19005357Y-9048214D01*
X19048214Y-9048214D01*
X19076786Y-9062500D01*
X19091071Y-9091072D01*
X19091071Y-9248214D01*
X19233928Y-9248214D02*
X19233928Y-9048214D01*
X19233928Y-9076786D02*
X19248214Y-9062500D01*
X19276786Y-9048214D01*
X19319643Y-9048214D01*
X19348214Y-9062500D01*
X19362500Y-9091072D01*
X19362500Y-9248214D01*
X19362500Y-9091072D02*
X19376786Y-9062500D01*
X19405357Y-9048214D01*
X19448214Y-9048214D01*
X19476786Y-9062500D01*
X19491071Y-9091072D01*
X19491071Y-9248214D01*
X20076786Y-8933929D02*
X19819643Y-9319643D01*
X20462500Y-8948214D02*
X20491071Y-8948214D01*
X20519643Y-8962500D01*
X20533928Y-8976786D01*
X20548214Y-9005357D01*
X20562500Y-9062500D01*
X20562500Y-9133929D01*
X20548214Y-9191072D01*
X20533928Y-9219643D01*
X20519643Y-9233929D01*
X20491071Y-9248214D01*
X20462500Y-9248214D01*
X20433928Y-9233929D01*
X20419643Y-9219643D01*
X20405357Y-9191072D01*
X20391071Y-9133929D01*
X20391071Y-9062500D01*
X20405357Y-9005357D01*
X20419643Y-8976786D01*
X20433928Y-8962500D01*
X20462500Y-8948214D01*
X20691071Y-9219643D02*
X20705357Y-9233929D01*
X20691071Y-9248214D01*
X20676786Y-9233929D01*
X20691071Y-9219643D01*
X20691071Y-9248214D01*
X20891071Y-8948214D02*
X20919643Y-8948214D01*
X20948214Y-8962500D01*
X20962500Y-8976786D01*
X20976786Y-9005357D01*
X20991071Y-9062500D01*
X20991071Y-9133929D01*
X20976786Y-9191072D01*
X20962500Y-9219643D01*
X20948214Y-9233929D01*
X20919643Y-9248214D01*
X20891071Y-9248214D01*
X20862500Y-9233929D01*
X20848214Y-9219643D01*
X20833928Y-9191072D01*
X20819643Y-9133929D01*
X20819643Y-9062500D01*
X20833928Y-9005357D01*
X20848214Y-8976786D01*
X20862500Y-8962500D01*
X20891071Y-8948214D01*
X21276786Y-9248214D02*
X21105357Y-9248214D01*
X21191071Y-9248214D02*
X21191071Y-8948214D01*
X21162500Y-8991072D01*
X21133928Y-9019643D01*
X21105357Y-9033929D01*
X21533928Y-8948214D02*
X21476786Y-8948214D01*
X21448214Y-8962500D01*
X21433928Y-8976786D01*
X21405357Y-9019643D01*
X21391071Y-9076786D01*
X21391071Y-9191072D01*
X21405357Y-9219643D01*
X21419643Y-9233929D01*
X21448214Y-9248214D01*
X21505357Y-9248214D01*
X21533928Y-9233929D01*
X21548214Y-9219643D01*
X21562500Y-9191072D01*
X21562500Y-9119643D01*
X21548214Y-9091072D01*
X21533928Y-9076786D01*
X21505357Y-9062500D01*
X21448214Y-9062500D01*
X21419643Y-9076786D01*
X21405357Y-9091072D01*
X21391071Y-9119643D01*
X21676786Y-8948214D02*
X21676786Y-9005357D01*
X21791071Y-8948214D02*
X21791071Y-9005357D01*
X22233928Y-9362500D02*
X22219643Y-9348214D01*
X22191071Y-9305357D01*
X22176786Y-9276786D01*
X22162500Y-9233929D01*
X22148214Y-9162500D01*
X22148214Y-9105357D01*
X22162500Y-9033929D01*
X22176786Y-8991072D01*
X22191071Y-8962500D01*
X22219643Y-8919643D01*
X22233928Y-8905357D01*
X22333928Y-8976786D02*
X22348214Y-8962500D01*
X22376786Y-8948214D01*
X22448214Y-8948214D01*
X22476786Y-8962500D01*
X22491071Y-8976786D01*
X22505357Y-9005357D01*
X22505357Y-9033929D01*
X22491071Y-9076786D01*
X22319643Y-9248214D01*
X22505357Y-9248214D01*
X22862500Y-9248214D02*
X22862500Y-8948214D01*
X22991071Y-9248214D02*
X22991071Y-9091072D01*
X22976786Y-9062500D01*
X22948214Y-9048214D01*
X22905357Y-9048214D01*
X22876786Y-9062500D01*
X22862500Y-9076786D01*
X23176786Y-9248214D02*
X23148214Y-9233929D01*
X23133928Y-9219643D01*
X23119643Y-9191072D01*
X23119643Y-9105357D01*
X23133928Y-9076786D01*
X23148214Y-9062500D01*
X23176786Y-9048214D01*
X23219643Y-9048214D01*
X23248214Y-9062500D01*
X23262500Y-9076786D01*
X23276786Y-9105357D01*
X23276786Y-9191072D01*
X23262500Y-9219643D01*
X23248214Y-9233929D01*
X23219643Y-9248214D01*
X23176786Y-9248214D01*
X23448214Y-9248214D02*
X23419643Y-9233929D01*
X23405357Y-9205357D01*
X23405357Y-8948214D01*
X23676786Y-9233929D02*
X23648214Y-9248214D01*
X23591071Y-9248214D01*
X23562500Y-9233929D01*
X23548214Y-9205357D01*
X23548214Y-9091072D01*
X23562500Y-9062500D01*
X23591071Y-9048214D01*
X23648214Y-9048214D01*
X23676786Y-9062500D01*
X23691071Y-9091072D01*
X23691071Y-9119643D01*
X23548214Y-9148214D01*
X23805357Y-9233929D02*
X23833928Y-9248214D01*
X23891071Y-9248214D01*
X23919643Y-9233929D01*
X23933928Y-9205357D01*
X23933928Y-9191072D01*
X23919643Y-9162500D01*
X23891071Y-9148214D01*
X23848214Y-9148214D01*
X23819643Y-9133929D01*
X23805357Y-9105357D01*
X23805357Y-9091072D01*
X23819643Y-9062500D01*
X23848214Y-9048214D01*
X23891071Y-9048214D01*
X23919643Y-9062500D01*
X24033928Y-9362500D02*
X24048214Y-9348214D01*
X24076786Y-9305357D01*
X24091071Y-9276786D01*
X24105357Y-9233929D01*
X24119643Y-9162500D01*
X24119643Y-9105357D01*
X24105357Y-9033929D01*
X24091071Y-8991072D01*
X24076786Y-8962500D01*
X24048214Y-8919643D01*
X24033928Y-8905357D01*
M02*
