G04 #@! TF.GenerationSoftware,KiCad,Pcbnew,(5.1.5)-3*
G04 #@! TF.CreationDate,2021-10-17T15:32:45-07:00*
G04 #@! TF.ProjectId,uav_gps_i2c_breakout,7561765f-6770-4735-9f69-32635f627265,rev?*
G04 #@! TF.SameCoordinates,Original*
G04 #@! TF.FileFunction,Soldermask,Top*
G04 #@! TF.FilePolarity,Negative*
%FSLAX46Y46*%
G04 Gerber Fmt 4.6, Leading zero omitted, Abs format (unit mm)*
G04 Created by KiCad (PCBNEW (5.1.5)-3) date 2021-10-17 15:32:45*
%MOMM*%
%LPD*%
G04 APERTURE LIST*
%ADD10C,0.100000*%
G04 APERTURE END LIST*
D10*
G36*
X186879434Y-79428686D02*
G01*
X186919284Y-79440774D01*
X186955999Y-79460399D01*
X186988186Y-79486814D01*
X187014601Y-79519001D01*
X187034226Y-79555716D01*
X187046314Y-79595566D01*
X187051000Y-79643141D01*
X187051000Y-80306859D01*
X187046314Y-80354434D01*
X187034226Y-80394284D01*
X187014601Y-80430999D01*
X186988186Y-80463186D01*
X186955999Y-80489601D01*
X186919284Y-80509226D01*
X186879434Y-80521314D01*
X186831859Y-80526000D01*
X184368141Y-80526000D01*
X184320566Y-80521314D01*
X184280716Y-80509226D01*
X184244001Y-80489601D01*
X184211814Y-80463186D01*
X184185399Y-80430999D01*
X184165774Y-80394284D01*
X184153686Y-80354434D01*
X184149000Y-80306859D01*
X184149000Y-79643141D01*
X184153686Y-79595566D01*
X184165774Y-79555716D01*
X184185399Y-79519001D01*
X184211814Y-79486814D01*
X184244001Y-79460399D01*
X184280716Y-79440774D01*
X184320566Y-79428686D01*
X184368141Y-79424000D01*
X186831859Y-79424000D01*
X186879434Y-79428686D01*
G37*
G36*
X179379434Y-79428686D02*
G01*
X179419284Y-79440774D01*
X179455999Y-79460399D01*
X179488186Y-79486814D01*
X179514601Y-79519001D01*
X179534226Y-79555716D01*
X179546314Y-79595566D01*
X179551000Y-79643141D01*
X179551000Y-80306859D01*
X179546314Y-80354434D01*
X179534226Y-80394284D01*
X179514601Y-80430999D01*
X179488186Y-80463186D01*
X179455999Y-80489601D01*
X179419284Y-80509226D01*
X179379434Y-80521314D01*
X179331859Y-80526000D01*
X176868141Y-80526000D01*
X176820566Y-80521314D01*
X176780716Y-80509226D01*
X176744001Y-80489601D01*
X176711814Y-80463186D01*
X176685399Y-80430999D01*
X176665774Y-80394284D01*
X176653686Y-80354434D01*
X176649000Y-80306859D01*
X176649000Y-79643141D01*
X176653686Y-79595566D01*
X176665774Y-79555716D01*
X176685399Y-79519001D01*
X176711814Y-79486814D01*
X176744001Y-79460399D01*
X176780716Y-79440774D01*
X176820566Y-79428686D01*
X176868141Y-79424000D01*
X179331859Y-79424000D01*
X179379434Y-79428686D01*
G37*
G36*
X201879434Y-78178686D02*
G01*
X201919284Y-78190774D01*
X201955999Y-78210399D01*
X201988186Y-78236814D01*
X202014601Y-78269001D01*
X202034226Y-78305716D01*
X202046314Y-78345566D01*
X202051000Y-78393141D01*
X202051000Y-79056859D01*
X202046314Y-79104434D01*
X202034226Y-79144284D01*
X202014601Y-79180999D01*
X201988186Y-79213186D01*
X201955999Y-79239601D01*
X201919284Y-79259226D01*
X201879434Y-79271314D01*
X201831859Y-79276000D01*
X199368141Y-79276000D01*
X199320566Y-79271314D01*
X199280716Y-79259226D01*
X199244001Y-79239601D01*
X199211814Y-79213186D01*
X199185399Y-79180999D01*
X199165774Y-79144284D01*
X199153686Y-79104434D01*
X199149000Y-79056859D01*
X199149000Y-78393141D01*
X199153686Y-78345566D01*
X199165774Y-78305716D01*
X199185399Y-78269001D01*
X199211814Y-78236814D01*
X199244001Y-78210399D01*
X199280716Y-78190774D01*
X199320566Y-78178686D01*
X199368141Y-78174000D01*
X201831859Y-78174000D01*
X201879434Y-78178686D01*
G37*
G36*
X194379434Y-78178686D02*
G01*
X194419284Y-78190774D01*
X194455999Y-78210399D01*
X194488186Y-78236814D01*
X194514601Y-78269001D01*
X194534226Y-78305716D01*
X194546314Y-78345566D01*
X194551000Y-78393141D01*
X194551000Y-79056859D01*
X194546314Y-79104434D01*
X194534226Y-79144284D01*
X194514601Y-79180999D01*
X194488186Y-79213186D01*
X194455999Y-79239601D01*
X194419284Y-79259226D01*
X194379434Y-79271314D01*
X194331859Y-79276000D01*
X191868141Y-79276000D01*
X191820566Y-79271314D01*
X191780716Y-79259226D01*
X191744001Y-79239601D01*
X191711814Y-79213186D01*
X191685399Y-79180999D01*
X191665774Y-79144284D01*
X191653686Y-79104434D01*
X191649000Y-79056859D01*
X191649000Y-78393141D01*
X191653686Y-78345566D01*
X191665774Y-78305716D01*
X191685399Y-78269001D01*
X191711814Y-78236814D01*
X191744001Y-78210399D01*
X191780716Y-78190774D01*
X191820566Y-78178686D01*
X191868141Y-78174000D01*
X194331859Y-78174000D01*
X194379434Y-78178686D01*
G37*
G36*
X182259928Y-77776764D02*
G01*
X182281009Y-77783160D01*
X182300445Y-77793548D01*
X182317476Y-77807524D01*
X182331452Y-77824555D01*
X182341840Y-77843991D01*
X182348236Y-77865072D01*
X182351000Y-77893140D01*
X182351000Y-78356860D01*
X182348236Y-78384928D01*
X182341840Y-78406009D01*
X182331452Y-78425445D01*
X182317476Y-78442476D01*
X182300445Y-78456452D01*
X182281009Y-78466840D01*
X182259928Y-78473236D01*
X182231860Y-78476000D01*
X180668140Y-78476000D01*
X180640072Y-78473236D01*
X180618991Y-78466840D01*
X180599555Y-78456452D01*
X180582524Y-78442476D01*
X180568548Y-78425445D01*
X180558160Y-78406009D01*
X180551764Y-78384928D01*
X180549000Y-78356860D01*
X180549000Y-77893140D01*
X180551764Y-77865072D01*
X180558160Y-77843991D01*
X180568548Y-77824555D01*
X180582524Y-77807524D01*
X180599555Y-77793548D01*
X180618991Y-77783160D01*
X180640072Y-77776764D01*
X180668140Y-77774000D01*
X182231860Y-77774000D01*
X182259928Y-77776764D01*
G37*
G36*
X189759928Y-77776764D02*
G01*
X189781009Y-77783160D01*
X189800445Y-77793548D01*
X189817476Y-77807524D01*
X189831452Y-77824555D01*
X189841840Y-77843991D01*
X189848236Y-77865072D01*
X189851000Y-77893140D01*
X189851000Y-78356860D01*
X189848236Y-78384928D01*
X189841840Y-78406009D01*
X189831452Y-78425445D01*
X189817476Y-78442476D01*
X189800445Y-78456452D01*
X189781009Y-78466840D01*
X189759928Y-78473236D01*
X189731860Y-78476000D01*
X188168140Y-78476000D01*
X188140072Y-78473236D01*
X188118991Y-78466840D01*
X188099555Y-78456452D01*
X188082524Y-78442476D01*
X188068548Y-78425445D01*
X188058160Y-78406009D01*
X188051764Y-78384928D01*
X188049000Y-78356860D01*
X188049000Y-77893140D01*
X188051764Y-77865072D01*
X188058160Y-77843991D01*
X188068548Y-77824555D01*
X188082524Y-77807524D01*
X188099555Y-77793548D01*
X188118991Y-77783160D01*
X188140072Y-77776764D01*
X188168140Y-77774000D01*
X189731860Y-77774000D01*
X189759928Y-77776764D01*
G37*
G36*
X209879434Y-76928686D02*
G01*
X209919284Y-76940774D01*
X209955999Y-76960399D01*
X209988186Y-76986814D01*
X210014601Y-77019001D01*
X210034226Y-77055716D01*
X210046314Y-77095566D01*
X210051000Y-77143141D01*
X210051000Y-77806859D01*
X210046314Y-77854434D01*
X210034226Y-77894284D01*
X210014601Y-77930999D01*
X209988186Y-77963186D01*
X209955999Y-77989601D01*
X209919284Y-78009226D01*
X209879434Y-78021314D01*
X209831859Y-78026000D01*
X207368141Y-78026000D01*
X207320566Y-78021314D01*
X207280716Y-78009226D01*
X207244001Y-77989601D01*
X207211814Y-77963186D01*
X207185399Y-77930999D01*
X207165774Y-77894284D01*
X207153686Y-77854434D01*
X207149000Y-77806859D01*
X207149000Y-77143141D01*
X207153686Y-77095566D01*
X207165774Y-77055716D01*
X207185399Y-77019001D01*
X207211814Y-76986814D01*
X207244001Y-76960399D01*
X207280716Y-76940774D01*
X207320566Y-76928686D01*
X207368141Y-76924000D01*
X209831859Y-76924000D01*
X209879434Y-76928686D01*
G37*
G36*
X189759928Y-76526764D02*
G01*
X189781009Y-76533160D01*
X189800445Y-76543548D01*
X189817476Y-76557524D01*
X189831452Y-76574555D01*
X189841840Y-76593991D01*
X189848236Y-76615072D01*
X189851000Y-76643140D01*
X189851000Y-77106860D01*
X189848236Y-77134928D01*
X189841840Y-77156009D01*
X189831452Y-77175445D01*
X189817476Y-77192476D01*
X189800445Y-77206452D01*
X189781009Y-77216840D01*
X189759928Y-77223236D01*
X189731860Y-77226000D01*
X188168140Y-77226000D01*
X188140072Y-77223236D01*
X188118991Y-77216840D01*
X188099555Y-77206452D01*
X188082524Y-77192476D01*
X188068548Y-77175445D01*
X188058160Y-77156009D01*
X188051764Y-77134928D01*
X188049000Y-77106860D01*
X188049000Y-76643140D01*
X188051764Y-76615072D01*
X188058160Y-76593991D01*
X188068548Y-76574555D01*
X188082524Y-76557524D01*
X188099555Y-76543548D01*
X188118991Y-76533160D01*
X188140072Y-76526764D01*
X188168140Y-76524000D01*
X189731860Y-76524000D01*
X189759928Y-76526764D01*
G37*
G36*
X204759928Y-76526764D02*
G01*
X204781009Y-76533160D01*
X204800445Y-76543548D01*
X204817476Y-76557524D01*
X204831452Y-76574555D01*
X204841840Y-76593991D01*
X204848236Y-76615072D01*
X204851000Y-76643140D01*
X204851000Y-77106860D01*
X204848236Y-77134928D01*
X204841840Y-77156009D01*
X204831452Y-77175445D01*
X204817476Y-77192476D01*
X204800445Y-77206452D01*
X204781009Y-77216840D01*
X204759928Y-77223236D01*
X204731860Y-77226000D01*
X203168140Y-77226000D01*
X203140072Y-77223236D01*
X203118991Y-77216840D01*
X203099555Y-77206452D01*
X203082524Y-77192476D01*
X203068548Y-77175445D01*
X203058160Y-77156009D01*
X203051764Y-77134928D01*
X203049000Y-77106860D01*
X203049000Y-76643140D01*
X203051764Y-76615072D01*
X203058160Y-76593991D01*
X203068548Y-76574555D01*
X203082524Y-76557524D01*
X203099555Y-76543548D01*
X203118991Y-76533160D01*
X203140072Y-76526764D01*
X203168140Y-76524000D01*
X204731860Y-76524000D01*
X204759928Y-76526764D01*
G37*
G36*
X197259928Y-76526764D02*
G01*
X197281009Y-76533160D01*
X197300445Y-76543548D01*
X197317476Y-76557524D01*
X197331452Y-76574555D01*
X197341840Y-76593991D01*
X197348236Y-76615072D01*
X197351000Y-76643140D01*
X197351000Y-77106860D01*
X197348236Y-77134928D01*
X197341840Y-77156009D01*
X197331452Y-77175445D01*
X197317476Y-77192476D01*
X197300445Y-77206452D01*
X197281009Y-77216840D01*
X197259928Y-77223236D01*
X197231860Y-77226000D01*
X195668140Y-77226000D01*
X195640072Y-77223236D01*
X195618991Y-77216840D01*
X195599555Y-77206452D01*
X195582524Y-77192476D01*
X195568548Y-77175445D01*
X195558160Y-77156009D01*
X195551764Y-77134928D01*
X195549000Y-77106860D01*
X195549000Y-76643140D01*
X195551764Y-76615072D01*
X195558160Y-76593991D01*
X195568548Y-76574555D01*
X195582524Y-76557524D01*
X195599555Y-76543548D01*
X195618991Y-76533160D01*
X195640072Y-76526764D01*
X195668140Y-76524000D01*
X197231860Y-76524000D01*
X197259928Y-76526764D01*
G37*
G36*
X182259928Y-76526764D02*
G01*
X182281009Y-76533160D01*
X182300445Y-76543548D01*
X182317476Y-76557524D01*
X182331452Y-76574555D01*
X182341840Y-76593991D01*
X182348236Y-76615072D01*
X182351000Y-76643140D01*
X182351000Y-77106860D01*
X182348236Y-77134928D01*
X182341840Y-77156009D01*
X182331452Y-77175445D01*
X182317476Y-77192476D01*
X182300445Y-77206452D01*
X182281009Y-77216840D01*
X182259928Y-77223236D01*
X182231860Y-77226000D01*
X180668140Y-77226000D01*
X180640072Y-77223236D01*
X180618991Y-77216840D01*
X180599555Y-77206452D01*
X180582524Y-77192476D01*
X180568548Y-77175445D01*
X180558160Y-77156009D01*
X180551764Y-77134928D01*
X180549000Y-77106860D01*
X180549000Y-76643140D01*
X180551764Y-76615072D01*
X180558160Y-76593991D01*
X180568548Y-76574555D01*
X180582524Y-76557524D01*
X180599555Y-76543548D01*
X180618991Y-76533160D01*
X180640072Y-76526764D01*
X180668140Y-76524000D01*
X182231860Y-76524000D01*
X182259928Y-76526764D01*
G37*
G36*
X197259928Y-75276764D02*
G01*
X197281009Y-75283160D01*
X197300445Y-75293548D01*
X197317476Y-75307524D01*
X197331452Y-75324555D01*
X197341840Y-75343991D01*
X197348236Y-75365072D01*
X197351000Y-75393140D01*
X197351000Y-75856860D01*
X197348236Y-75884928D01*
X197341840Y-75906009D01*
X197331452Y-75925445D01*
X197317476Y-75942476D01*
X197300445Y-75956452D01*
X197281009Y-75966840D01*
X197259928Y-75973236D01*
X197231860Y-75976000D01*
X195668140Y-75976000D01*
X195640072Y-75973236D01*
X195618991Y-75966840D01*
X195599555Y-75956452D01*
X195582524Y-75942476D01*
X195568548Y-75925445D01*
X195558160Y-75906009D01*
X195551764Y-75884928D01*
X195549000Y-75856860D01*
X195549000Y-75393140D01*
X195551764Y-75365072D01*
X195558160Y-75343991D01*
X195568548Y-75324555D01*
X195582524Y-75307524D01*
X195599555Y-75293548D01*
X195618991Y-75283160D01*
X195640072Y-75276764D01*
X195668140Y-75274000D01*
X197231860Y-75274000D01*
X197259928Y-75276764D01*
G37*
G36*
X204759928Y-75276764D02*
G01*
X204781009Y-75283160D01*
X204800445Y-75293548D01*
X204817476Y-75307524D01*
X204831452Y-75324555D01*
X204841840Y-75343991D01*
X204848236Y-75365072D01*
X204851000Y-75393140D01*
X204851000Y-75856860D01*
X204848236Y-75884928D01*
X204841840Y-75906009D01*
X204831452Y-75925445D01*
X204817476Y-75942476D01*
X204800445Y-75956452D01*
X204781009Y-75966840D01*
X204759928Y-75973236D01*
X204731860Y-75976000D01*
X203168140Y-75976000D01*
X203140072Y-75973236D01*
X203118991Y-75966840D01*
X203099555Y-75956452D01*
X203082524Y-75942476D01*
X203068548Y-75925445D01*
X203058160Y-75906009D01*
X203051764Y-75884928D01*
X203049000Y-75856860D01*
X203049000Y-75393140D01*
X203051764Y-75365072D01*
X203058160Y-75343991D01*
X203068548Y-75324555D01*
X203082524Y-75307524D01*
X203099555Y-75293548D01*
X203118991Y-75283160D01*
X203140072Y-75276764D01*
X203168140Y-75274000D01*
X204731860Y-75274000D01*
X204759928Y-75276764D01*
G37*
G36*
X182259928Y-75276764D02*
G01*
X182281009Y-75283160D01*
X182300445Y-75293548D01*
X182317476Y-75307524D01*
X182331452Y-75324555D01*
X182341840Y-75343991D01*
X182348236Y-75365072D01*
X182351000Y-75393140D01*
X182351000Y-75856860D01*
X182348236Y-75884928D01*
X182341840Y-75906009D01*
X182331452Y-75925445D01*
X182317476Y-75942476D01*
X182300445Y-75956452D01*
X182281009Y-75966840D01*
X182259928Y-75973236D01*
X182231860Y-75976000D01*
X180668140Y-75976000D01*
X180640072Y-75973236D01*
X180618991Y-75966840D01*
X180599555Y-75956452D01*
X180582524Y-75942476D01*
X180568548Y-75925445D01*
X180558160Y-75906009D01*
X180551764Y-75884928D01*
X180549000Y-75856860D01*
X180549000Y-75393140D01*
X180551764Y-75365072D01*
X180558160Y-75343991D01*
X180568548Y-75324555D01*
X180582524Y-75307524D01*
X180599555Y-75293548D01*
X180618991Y-75283160D01*
X180640072Y-75276764D01*
X180668140Y-75274000D01*
X182231860Y-75274000D01*
X182259928Y-75276764D01*
G37*
G36*
X189759928Y-75276764D02*
G01*
X189781009Y-75283160D01*
X189800445Y-75293548D01*
X189817476Y-75307524D01*
X189831452Y-75324555D01*
X189841840Y-75343991D01*
X189848236Y-75365072D01*
X189851000Y-75393140D01*
X189851000Y-75856860D01*
X189848236Y-75884928D01*
X189841840Y-75906009D01*
X189831452Y-75925445D01*
X189817476Y-75942476D01*
X189800445Y-75956452D01*
X189781009Y-75966840D01*
X189759928Y-75973236D01*
X189731860Y-75976000D01*
X188168140Y-75976000D01*
X188140072Y-75973236D01*
X188118991Y-75966840D01*
X188099555Y-75956452D01*
X188082524Y-75942476D01*
X188068548Y-75925445D01*
X188058160Y-75906009D01*
X188051764Y-75884928D01*
X188049000Y-75856860D01*
X188049000Y-75393140D01*
X188051764Y-75365072D01*
X188058160Y-75343991D01*
X188068548Y-75324555D01*
X188082524Y-75307524D01*
X188099555Y-75293548D01*
X188118991Y-75283160D01*
X188140072Y-75276764D01*
X188168140Y-75274000D01*
X189731860Y-75274000D01*
X189759928Y-75276764D01*
G37*
G36*
X212759928Y-75276764D02*
G01*
X212781009Y-75283160D01*
X212800445Y-75293548D01*
X212817476Y-75307524D01*
X212831452Y-75324555D01*
X212841840Y-75343991D01*
X212848236Y-75365072D01*
X212851000Y-75393140D01*
X212851000Y-75856860D01*
X212848236Y-75884928D01*
X212841840Y-75906009D01*
X212831452Y-75925445D01*
X212817476Y-75942476D01*
X212800445Y-75956452D01*
X212781009Y-75966840D01*
X212759928Y-75973236D01*
X212731860Y-75976000D01*
X211168140Y-75976000D01*
X211140072Y-75973236D01*
X211118991Y-75966840D01*
X211099555Y-75956452D01*
X211082524Y-75942476D01*
X211068548Y-75925445D01*
X211058160Y-75906009D01*
X211051764Y-75884928D01*
X211049000Y-75856860D01*
X211049000Y-75393140D01*
X211051764Y-75365072D01*
X211058160Y-75343991D01*
X211068548Y-75324555D01*
X211082524Y-75307524D01*
X211099555Y-75293548D01*
X211118991Y-75283160D01*
X211140072Y-75276764D01*
X211168140Y-75274000D01*
X212731860Y-75274000D01*
X212759928Y-75276764D01*
G37*
G36*
X182259928Y-74026764D02*
G01*
X182281009Y-74033160D01*
X182300445Y-74043548D01*
X182317476Y-74057524D01*
X182331452Y-74074555D01*
X182341840Y-74093991D01*
X182348236Y-74115072D01*
X182351000Y-74143140D01*
X182351000Y-74606860D01*
X182348236Y-74634928D01*
X182341840Y-74656009D01*
X182331452Y-74675445D01*
X182317476Y-74692476D01*
X182300445Y-74706452D01*
X182281009Y-74716840D01*
X182259928Y-74723236D01*
X182231860Y-74726000D01*
X180668140Y-74726000D01*
X180640072Y-74723236D01*
X180618991Y-74716840D01*
X180599555Y-74706452D01*
X180582524Y-74692476D01*
X180568548Y-74675445D01*
X180558160Y-74656009D01*
X180551764Y-74634928D01*
X180549000Y-74606860D01*
X180549000Y-74143140D01*
X180551764Y-74115072D01*
X180558160Y-74093991D01*
X180568548Y-74074555D01*
X180582524Y-74057524D01*
X180599555Y-74043548D01*
X180618991Y-74033160D01*
X180640072Y-74026764D01*
X180668140Y-74024000D01*
X182231860Y-74024000D01*
X182259928Y-74026764D01*
G37*
G36*
X212759928Y-74026764D02*
G01*
X212781009Y-74033160D01*
X212800445Y-74043548D01*
X212817476Y-74057524D01*
X212831452Y-74074555D01*
X212841840Y-74093991D01*
X212848236Y-74115072D01*
X212851000Y-74143140D01*
X212851000Y-74606860D01*
X212848236Y-74634928D01*
X212841840Y-74656009D01*
X212831452Y-74675445D01*
X212817476Y-74692476D01*
X212800445Y-74706452D01*
X212781009Y-74716840D01*
X212759928Y-74723236D01*
X212731860Y-74726000D01*
X211168140Y-74726000D01*
X211140072Y-74723236D01*
X211118991Y-74716840D01*
X211099555Y-74706452D01*
X211082524Y-74692476D01*
X211068548Y-74675445D01*
X211058160Y-74656009D01*
X211051764Y-74634928D01*
X211049000Y-74606860D01*
X211049000Y-74143140D01*
X211051764Y-74115072D01*
X211058160Y-74093991D01*
X211068548Y-74074555D01*
X211082524Y-74057524D01*
X211099555Y-74043548D01*
X211118991Y-74033160D01*
X211140072Y-74026764D01*
X211168140Y-74024000D01*
X212731860Y-74024000D01*
X212759928Y-74026764D01*
G37*
G36*
X204759928Y-74026764D02*
G01*
X204781009Y-74033160D01*
X204800445Y-74043548D01*
X204817476Y-74057524D01*
X204831452Y-74074555D01*
X204841840Y-74093991D01*
X204848236Y-74115072D01*
X204851000Y-74143140D01*
X204851000Y-74606860D01*
X204848236Y-74634928D01*
X204841840Y-74656009D01*
X204831452Y-74675445D01*
X204817476Y-74692476D01*
X204800445Y-74706452D01*
X204781009Y-74716840D01*
X204759928Y-74723236D01*
X204731860Y-74726000D01*
X203168140Y-74726000D01*
X203140072Y-74723236D01*
X203118991Y-74716840D01*
X203099555Y-74706452D01*
X203082524Y-74692476D01*
X203068548Y-74675445D01*
X203058160Y-74656009D01*
X203051764Y-74634928D01*
X203049000Y-74606860D01*
X203049000Y-74143140D01*
X203051764Y-74115072D01*
X203058160Y-74093991D01*
X203068548Y-74074555D01*
X203082524Y-74057524D01*
X203099555Y-74043548D01*
X203118991Y-74033160D01*
X203140072Y-74026764D01*
X203168140Y-74024000D01*
X204731860Y-74024000D01*
X204759928Y-74026764D01*
G37*
G36*
X197259928Y-74026764D02*
G01*
X197281009Y-74033160D01*
X197300445Y-74043548D01*
X197317476Y-74057524D01*
X197331452Y-74074555D01*
X197341840Y-74093991D01*
X197348236Y-74115072D01*
X197351000Y-74143140D01*
X197351000Y-74606860D01*
X197348236Y-74634928D01*
X197341840Y-74656009D01*
X197331452Y-74675445D01*
X197317476Y-74692476D01*
X197300445Y-74706452D01*
X197281009Y-74716840D01*
X197259928Y-74723236D01*
X197231860Y-74726000D01*
X195668140Y-74726000D01*
X195640072Y-74723236D01*
X195618991Y-74716840D01*
X195599555Y-74706452D01*
X195582524Y-74692476D01*
X195568548Y-74675445D01*
X195558160Y-74656009D01*
X195551764Y-74634928D01*
X195549000Y-74606860D01*
X195549000Y-74143140D01*
X195551764Y-74115072D01*
X195558160Y-74093991D01*
X195568548Y-74074555D01*
X195582524Y-74057524D01*
X195599555Y-74043548D01*
X195618991Y-74033160D01*
X195640072Y-74026764D01*
X195668140Y-74024000D01*
X197231860Y-74024000D01*
X197259928Y-74026764D01*
G37*
G36*
X189759928Y-74026764D02*
G01*
X189781009Y-74033160D01*
X189800445Y-74043548D01*
X189817476Y-74057524D01*
X189831452Y-74074555D01*
X189841840Y-74093991D01*
X189848236Y-74115072D01*
X189851000Y-74143140D01*
X189851000Y-74606860D01*
X189848236Y-74634928D01*
X189841840Y-74656009D01*
X189831452Y-74675445D01*
X189817476Y-74692476D01*
X189800445Y-74706452D01*
X189781009Y-74716840D01*
X189759928Y-74723236D01*
X189731860Y-74726000D01*
X188168140Y-74726000D01*
X188140072Y-74723236D01*
X188118991Y-74716840D01*
X188099555Y-74706452D01*
X188082524Y-74692476D01*
X188068548Y-74675445D01*
X188058160Y-74656009D01*
X188051764Y-74634928D01*
X188049000Y-74606860D01*
X188049000Y-74143140D01*
X188051764Y-74115072D01*
X188058160Y-74093991D01*
X188068548Y-74074555D01*
X188082524Y-74057524D01*
X188099555Y-74043548D01*
X188118991Y-74033160D01*
X188140072Y-74026764D01*
X188168140Y-74024000D01*
X189731860Y-74024000D01*
X189759928Y-74026764D01*
G37*
G36*
X204759928Y-72776764D02*
G01*
X204781009Y-72783160D01*
X204800445Y-72793548D01*
X204817476Y-72807524D01*
X204831452Y-72824555D01*
X204841840Y-72843991D01*
X204848236Y-72865072D01*
X204851000Y-72893140D01*
X204851000Y-73356860D01*
X204848236Y-73384928D01*
X204841840Y-73406009D01*
X204831452Y-73425445D01*
X204817476Y-73442476D01*
X204800445Y-73456452D01*
X204781009Y-73466840D01*
X204759928Y-73473236D01*
X204731860Y-73476000D01*
X203168140Y-73476000D01*
X203140072Y-73473236D01*
X203118991Y-73466840D01*
X203099555Y-73456452D01*
X203082524Y-73442476D01*
X203068548Y-73425445D01*
X203058160Y-73406009D01*
X203051764Y-73384928D01*
X203049000Y-73356860D01*
X203049000Y-72893140D01*
X203051764Y-72865072D01*
X203058160Y-72843991D01*
X203068548Y-72824555D01*
X203082524Y-72807524D01*
X203099555Y-72793548D01*
X203118991Y-72783160D01*
X203140072Y-72776764D01*
X203168140Y-72774000D01*
X204731860Y-72774000D01*
X204759928Y-72776764D01*
G37*
G36*
X197259928Y-72776764D02*
G01*
X197281009Y-72783160D01*
X197300445Y-72793548D01*
X197317476Y-72807524D01*
X197331452Y-72824555D01*
X197341840Y-72843991D01*
X197348236Y-72865072D01*
X197351000Y-72893140D01*
X197351000Y-73356860D01*
X197348236Y-73384928D01*
X197341840Y-73406009D01*
X197331452Y-73425445D01*
X197317476Y-73442476D01*
X197300445Y-73456452D01*
X197281009Y-73466840D01*
X197259928Y-73473236D01*
X197231860Y-73476000D01*
X195668140Y-73476000D01*
X195640072Y-73473236D01*
X195618991Y-73466840D01*
X195599555Y-73456452D01*
X195582524Y-73442476D01*
X195568548Y-73425445D01*
X195558160Y-73406009D01*
X195551764Y-73384928D01*
X195549000Y-73356860D01*
X195549000Y-72893140D01*
X195551764Y-72865072D01*
X195558160Y-72843991D01*
X195568548Y-72824555D01*
X195582524Y-72807524D01*
X195599555Y-72793548D01*
X195618991Y-72783160D01*
X195640072Y-72776764D01*
X195668140Y-72774000D01*
X197231860Y-72774000D01*
X197259928Y-72776764D01*
G37*
G36*
X182259928Y-72776764D02*
G01*
X182281009Y-72783160D01*
X182300445Y-72793548D01*
X182317476Y-72807524D01*
X182331452Y-72824555D01*
X182341840Y-72843991D01*
X182348236Y-72865072D01*
X182351000Y-72893140D01*
X182351000Y-73356860D01*
X182348236Y-73384928D01*
X182341840Y-73406009D01*
X182331452Y-73425445D01*
X182317476Y-73442476D01*
X182300445Y-73456452D01*
X182281009Y-73466840D01*
X182259928Y-73473236D01*
X182231860Y-73476000D01*
X180668140Y-73476000D01*
X180640072Y-73473236D01*
X180618991Y-73466840D01*
X180599555Y-73456452D01*
X180582524Y-73442476D01*
X180568548Y-73425445D01*
X180558160Y-73406009D01*
X180551764Y-73384928D01*
X180549000Y-73356860D01*
X180549000Y-72893140D01*
X180551764Y-72865072D01*
X180558160Y-72843991D01*
X180568548Y-72824555D01*
X180582524Y-72807524D01*
X180599555Y-72793548D01*
X180618991Y-72783160D01*
X180640072Y-72776764D01*
X180668140Y-72774000D01*
X182231860Y-72774000D01*
X182259928Y-72776764D01*
G37*
G36*
X189759928Y-72776764D02*
G01*
X189781009Y-72783160D01*
X189800445Y-72793548D01*
X189817476Y-72807524D01*
X189831452Y-72824555D01*
X189841840Y-72843991D01*
X189848236Y-72865072D01*
X189851000Y-72893140D01*
X189851000Y-73356860D01*
X189848236Y-73384928D01*
X189841840Y-73406009D01*
X189831452Y-73425445D01*
X189817476Y-73442476D01*
X189800445Y-73456452D01*
X189781009Y-73466840D01*
X189759928Y-73473236D01*
X189731860Y-73476000D01*
X188168140Y-73476000D01*
X188140072Y-73473236D01*
X188118991Y-73466840D01*
X188099555Y-73456452D01*
X188082524Y-73442476D01*
X188068548Y-73425445D01*
X188058160Y-73406009D01*
X188051764Y-73384928D01*
X188049000Y-73356860D01*
X188049000Y-72893140D01*
X188051764Y-72865072D01*
X188058160Y-72843991D01*
X188068548Y-72824555D01*
X188082524Y-72807524D01*
X188099555Y-72793548D01*
X188118991Y-72783160D01*
X188140072Y-72776764D01*
X188168140Y-72774000D01*
X189731860Y-72774000D01*
X189759928Y-72776764D01*
G37*
G36*
X209879434Y-71978686D02*
G01*
X209919284Y-71990774D01*
X209955999Y-72010399D01*
X209988186Y-72036814D01*
X210014601Y-72069001D01*
X210034226Y-72105716D01*
X210046314Y-72145566D01*
X210051000Y-72193141D01*
X210051000Y-72856859D01*
X210046314Y-72904434D01*
X210034226Y-72944284D01*
X210014601Y-72980999D01*
X209988186Y-73013186D01*
X209955999Y-73039601D01*
X209919284Y-73059226D01*
X209879434Y-73071314D01*
X209831859Y-73076000D01*
X207368141Y-73076000D01*
X207320566Y-73071314D01*
X207280716Y-73059226D01*
X207244001Y-73039601D01*
X207211814Y-73013186D01*
X207185399Y-72980999D01*
X207165774Y-72944284D01*
X207153686Y-72904434D01*
X207149000Y-72856859D01*
X207149000Y-72193141D01*
X207153686Y-72145566D01*
X207165774Y-72105716D01*
X207185399Y-72069001D01*
X207211814Y-72036814D01*
X207244001Y-72010399D01*
X207280716Y-71990774D01*
X207320566Y-71978686D01*
X207368141Y-71974000D01*
X209831859Y-71974000D01*
X209879434Y-71978686D01*
G37*
G36*
X182259928Y-71526764D02*
G01*
X182281009Y-71533160D01*
X182300445Y-71543548D01*
X182317476Y-71557524D01*
X182331452Y-71574555D01*
X182341840Y-71593991D01*
X182348236Y-71615072D01*
X182351000Y-71643140D01*
X182351000Y-72106860D01*
X182348236Y-72134928D01*
X182341840Y-72156009D01*
X182331452Y-72175445D01*
X182317476Y-72192476D01*
X182300445Y-72206452D01*
X182281009Y-72216840D01*
X182259928Y-72223236D01*
X182231860Y-72226000D01*
X180668140Y-72226000D01*
X180640072Y-72223236D01*
X180618991Y-72216840D01*
X180599555Y-72206452D01*
X180582524Y-72192476D01*
X180568548Y-72175445D01*
X180558160Y-72156009D01*
X180551764Y-72134928D01*
X180549000Y-72106860D01*
X180549000Y-71643140D01*
X180551764Y-71615072D01*
X180558160Y-71593991D01*
X180568548Y-71574555D01*
X180582524Y-71557524D01*
X180599555Y-71543548D01*
X180618991Y-71533160D01*
X180640072Y-71526764D01*
X180668140Y-71524000D01*
X182231860Y-71524000D01*
X182259928Y-71526764D01*
G37*
G36*
X189759928Y-71526764D02*
G01*
X189781009Y-71533160D01*
X189800445Y-71543548D01*
X189817476Y-71557524D01*
X189831452Y-71574555D01*
X189841840Y-71593991D01*
X189848236Y-71615072D01*
X189851000Y-71643140D01*
X189851000Y-72106860D01*
X189848236Y-72134928D01*
X189841840Y-72156009D01*
X189831452Y-72175445D01*
X189817476Y-72192476D01*
X189800445Y-72206452D01*
X189781009Y-72216840D01*
X189759928Y-72223236D01*
X189731860Y-72226000D01*
X188168140Y-72226000D01*
X188140072Y-72223236D01*
X188118991Y-72216840D01*
X188099555Y-72206452D01*
X188082524Y-72192476D01*
X188068548Y-72175445D01*
X188058160Y-72156009D01*
X188051764Y-72134928D01*
X188049000Y-72106860D01*
X188049000Y-71643140D01*
X188051764Y-71615072D01*
X188058160Y-71593991D01*
X188068548Y-71574555D01*
X188082524Y-71557524D01*
X188099555Y-71543548D01*
X188118991Y-71533160D01*
X188140072Y-71526764D01*
X188168140Y-71524000D01*
X189731860Y-71524000D01*
X189759928Y-71526764D01*
G37*
G36*
X201879434Y-70728686D02*
G01*
X201919284Y-70740774D01*
X201955999Y-70760399D01*
X201988186Y-70786814D01*
X202014601Y-70819001D01*
X202034226Y-70855716D01*
X202046314Y-70895566D01*
X202051000Y-70943141D01*
X202051000Y-71606859D01*
X202046314Y-71654434D01*
X202034226Y-71694284D01*
X202014601Y-71730999D01*
X201988186Y-71763186D01*
X201955999Y-71789601D01*
X201919284Y-71809226D01*
X201879434Y-71821314D01*
X201831859Y-71826000D01*
X199368141Y-71826000D01*
X199320566Y-71821314D01*
X199280716Y-71809226D01*
X199244001Y-71789601D01*
X199211814Y-71763186D01*
X199185399Y-71730999D01*
X199165774Y-71694284D01*
X199153686Y-71654434D01*
X199149000Y-71606859D01*
X199149000Y-70943141D01*
X199153686Y-70895566D01*
X199165774Y-70855716D01*
X199185399Y-70819001D01*
X199211814Y-70786814D01*
X199244001Y-70760399D01*
X199280716Y-70740774D01*
X199320566Y-70728686D01*
X199368141Y-70724000D01*
X201831859Y-70724000D01*
X201879434Y-70728686D01*
G37*
G36*
X194379434Y-70728686D02*
G01*
X194419284Y-70740774D01*
X194455999Y-70760399D01*
X194488186Y-70786814D01*
X194514601Y-70819001D01*
X194534226Y-70855716D01*
X194546314Y-70895566D01*
X194551000Y-70943141D01*
X194551000Y-71606859D01*
X194546314Y-71654434D01*
X194534226Y-71694284D01*
X194514601Y-71730999D01*
X194488186Y-71763186D01*
X194455999Y-71789601D01*
X194419284Y-71809226D01*
X194379434Y-71821314D01*
X194331859Y-71826000D01*
X191868141Y-71826000D01*
X191820566Y-71821314D01*
X191780716Y-71809226D01*
X191744001Y-71789601D01*
X191711814Y-71763186D01*
X191685399Y-71730999D01*
X191665774Y-71694284D01*
X191653686Y-71654434D01*
X191649000Y-71606859D01*
X191649000Y-70943141D01*
X191653686Y-70895566D01*
X191665774Y-70855716D01*
X191685399Y-70819001D01*
X191711814Y-70786814D01*
X191744001Y-70760399D01*
X191780716Y-70740774D01*
X191820566Y-70728686D01*
X191868141Y-70724000D01*
X194331859Y-70724000D01*
X194379434Y-70728686D01*
G37*
G36*
X186879434Y-69478686D02*
G01*
X186919284Y-69490774D01*
X186955999Y-69510399D01*
X186988186Y-69536814D01*
X187014601Y-69569001D01*
X187034226Y-69605716D01*
X187046314Y-69645566D01*
X187051000Y-69693141D01*
X187051000Y-70356859D01*
X187046314Y-70404434D01*
X187034226Y-70444284D01*
X187014601Y-70480999D01*
X186988186Y-70513186D01*
X186955999Y-70539601D01*
X186919284Y-70559226D01*
X186879434Y-70571314D01*
X186831859Y-70576000D01*
X184368141Y-70576000D01*
X184320566Y-70571314D01*
X184280716Y-70559226D01*
X184244001Y-70539601D01*
X184211814Y-70513186D01*
X184185399Y-70480999D01*
X184165774Y-70444284D01*
X184153686Y-70404434D01*
X184149000Y-70356859D01*
X184149000Y-69693141D01*
X184153686Y-69645566D01*
X184165774Y-69605716D01*
X184185399Y-69569001D01*
X184211814Y-69536814D01*
X184244001Y-69510399D01*
X184280716Y-69490774D01*
X184320566Y-69478686D01*
X184368141Y-69474000D01*
X186831859Y-69474000D01*
X186879434Y-69478686D01*
G37*
G36*
X179379434Y-69478686D02*
G01*
X179419284Y-69490774D01*
X179455999Y-69510399D01*
X179488186Y-69536814D01*
X179514601Y-69569001D01*
X179534226Y-69605716D01*
X179546314Y-69645566D01*
X179551000Y-69693141D01*
X179551000Y-70356859D01*
X179546314Y-70404434D01*
X179534226Y-70444284D01*
X179514601Y-70480999D01*
X179488186Y-70513186D01*
X179455999Y-70539601D01*
X179419284Y-70559226D01*
X179379434Y-70571314D01*
X179331859Y-70576000D01*
X176868141Y-70576000D01*
X176820566Y-70571314D01*
X176780716Y-70559226D01*
X176744001Y-70539601D01*
X176711814Y-70513186D01*
X176685399Y-70480999D01*
X176665774Y-70444284D01*
X176653686Y-70404434D01*
X176649000Y-70356859D01*
X176649000Y-69693141D01*
X176653686Y-69645566D01*
X176665774Y-69605716D01*
X176685399Y-69569001D01*
X176711814Y-69536814D01*
X176744001Y-69510399D01*
X176780716Y-69490774D01*
X176820566Y-69478686D01*
X176868141Y-69474000D01*
X179331859Y-69474000D01*
X179379434Y-69478686D01*
G37*
M02*
