G04 #@! TF.GenerationSoftware,KiCad,Pcbnew,(5.1.5)-3*
G04 #@! TF.CreationDate,2021-10-17T15:32:45-07:00*
G04 #@! TF.ProjectId,uav_gps_i2c_breakout,7561765f-6770-4735-9f69-32635f627265,rev?*
G04 #@! TF.SameCoordinates,Original*
G04 #@! TF.FileFunction,Legend,Bot*
G04 #@! TF.FilePolarity,Positive*
%FSLAX46Y46*%
G04 Gerber Fmt 4.6, Leading zero omitted, Abs format (unit mm)*
G04 Created by KiCad (PCBNEW (5.1.5)-3) date 2021-10-17 15:32:45*
%MOMM*%
%LPD*%
G04 APERTURE LIST*
%ADD10C,0.300000*%
%ADD11C,0.120000*%
%ADD12C,0.150000*%
%ADD13R,2.602000X2.602000*%
G04 APERTURE END LIST*
D10*
X204678571Y-73475000D02*
X204821428Y-73403571D01*
X205035714Y-73403571D01*
X205250000Y-73475000D01*
X205392857Y-73617857D01*
X205464285Y-73760714D01*
X205535714Y-74046428D01*
X205535714Y-74260714D01*
X205464285Y-74546428D01*
X205392857Y-74689285D01*
X205250000Y-74832142D01*
X205035714Y-74903571D01*
X204892857Y-74903571D01*
X204678571Y-74832142D01*
X204607142Y-74760714D01*
X204607142Y-74260714D01*
X204892857Y-74260714D01*
X203964285Y-74903571D02*
X203964285Y-73403571D01*
X203392857Y-73403571D01*
X203250000Y-73475000D01*
X203178571Y-73546428D01*
X203107142Y-73689285D01*
X203107142Y-73903571D01*
X203178571Y-74046428D01*
X203250000Y-74117857D01*
X203392857Y-74189285D01*
X203964285Y-74189285D01*
X202535714Y-74832142D02*
X202321428Y-74903571D01*
X201964285Y-74903571D01*
X201821428Y-74832142D01*
X201750000Y-74760714D01*
X201678571Y-74617857D01*
X201678571Y-74475000D01*
X201750000Y-74332142D01*
X201821428Y-74260714D01*
X201964285Y-74189285D01*
X202250000Y-74117857D01*
X202392857Y-74046428D01*
X202464285Y-73975000D01*
X202535714Y-73832142D01*
X202535714Y-73689285D01*
X202464285Y-73546428D01*
X202392857Y-73475000D01*
X202250000Y-73403571D01*
X201892857Y-73403571D01*
X201678571Y-73475000D01*
X198821428Y-73332142D02*
X200107142Y-75260714D01*
X197178571Y-74903571D02*
X197178571Y-73403571D01*
X196535714Y-73546428D02*
X196464285Y-73475000D01*
X196321428Y-73403571D01*
X195964285Y-73403571D01*
X195821428Y-73475000D01*
X195750000Y-73546428D01*
X195678571Y-73689285D01*
X195678571Y-73832142D01*
X195750000Y-74046428D01*
X196607142Y-74903571D01*
X195678571Y-74903571D01*
X194178571Y-74760714D02*
X194250000Y-74832142D01*
X194464285Y-74903571D01*
X194607142Y-74903571D01*
X194821428Y-74832142D01*
X194964285Y-74689285D01*
X195035714Y-74546428D01*
X195107142Y-74260714D01*
X195107142Y-74046428D01*
X195035714Y-73760714D01*
X194964285Y-73617857D01*
X194821428Y-73475000D01*
X194607142Y-73403571D01*
X194464285Y-73403571D01*
X194250000Y-73475000D01*
X194178571Y-73546428D01*
X191892857Y-74117857D02*
X191678571Y-74189285D01*
X191607142Y-74260714D01*
X191535714Y-74403571D01*
X191535714Y-74617857D01*
X191607142Y-74760714D01*
X191678571Y-74832142D01*
X191821428Y-74903571D01*
X192392857Y-74903571D01*
X192392857Y-73403571D01*
X191892857Y-73403571D01*
X191750000Y-73475000D01*
X191678571Y-73546428D01*
X191607142Y-73689285D01*
X191607142Y-73832142D01*
X191678571Y-73975000D01*
X191750000Y-74046428D01*
X191892857Y-74117857D01*
X192392857Y-74117857D01*
X190892857Y-74903571D02*
X190892857Y-73903571D01*
X190892857Y-74189285D02*
X190821428Y-74046428D01*
X190750000Y-73975000D01*
X190607142Y-73903571D01*
X190464285Y-73903571D01*
X189392857Y-74832142D02*
X189535714Y-74903571D01*
X189821428Y-74903571D01*
X189964285Y-74832142D01*
X190035714Y-74689285D01*
X190035714Y-74117857D01*
X189964285Y-73975000D01*
X189821428Y-73903571D01*
X189535714Y-73903571D01*
X189392857Y-73975000D01*
X189321428Y-74117857D01*
X189321428Y-74260714D01*
X190035714Y-74403571D01*
X188035714Y-74903571D02*
X188035714Y-74117857D01*
X188107142Y-73975000D01*
X188250000Y-73903571D01*
X188535714Y-73903571D01*
X188678571Y-73975000D01*
X188035714Y-74832142D02*
X188178571Y-74903571D01*
X188535714Y-74903571D01*
X188678571Y-74832142D01*
X188750000Y-74689285D01*
X188750000Y-74546428D01*
X188678571Y-74403571D01*
X188535714Y-74332142D01*
X188178571Y-74332142D01*
X188035714Y-74260714D01*
X187321428Y-74903571D02*
X187321428Y-73403571D01*
X187178571Y-74332142D02*
X186750000Y-74903571D01*
X186750000Y-73903571D02*
X187321428Y-74475000D01*
X185892857Y-74903571D02*
X186035714Y-74832142D01*
X186107142Y-74760714D01*
X186178571Y-74617857D01*
X186178571Y-74189285D01*
X186107142Y-74046428D01*
X186035714Y-73975000D01*
X185892857Y-73903571D01*
X185678571Y-73903571D01*
X185535714Y-73975000D01*
X185464285Y-74046428D01*
X185392857Y-74189285D01*
X185392857Y-74617857D01*
X185464285Y-74760714D01*
X185535714Y-74832142D01*
X185678571Y-74903571D01*
X185892857Y-74903571D01*
X184107142Y-73903571D02*
X184107142Y-74903571D01*
X184750000Y-73903571D02*
X184750000Y-74689285D01*
X184678571Y-74832142D01*
X184535714Y-74903571D01*
X184321428Y-74903571D01*
X184178571Y-74832142D01*
X184107142Y-74760714D01*
X183607142Y-73903571D02*
X183035714Y-73903571D01*
X183392857Y-73403571D02*
X183392857Y-74689285D01*
X183321428Y-74832142D01*
X183178571Y-74903571D01*
X183035714Y-74903571D01*
X181535714Y-73903571D02*
X181178571Y-74903571D01*
X180821428Y-73903571D01*
X179464285Y-74903571D02*
X180321428Y-74903571D01*
X179892857Y-74903571D02*
X179892857Y-73403571D01*
X180035714Y-73617857D01*
X180178571Y-73760714D01*
X180321428Y-73832142D01*
X198571428Y-77453571D02*
X198571428Y-75953571D01*
X198071428Y-77025000D01*
X197571428Y-75953571D01*
X197571428Y-77453571D01*
X196928571Y-77025000D02*
X196214285Y-77025000D01*
X197071428Y-77453571D02*
X196571428Y-75953571D01*
X196071428Y-77453571D01*
X194428571Y-76882142D02*
X193285714Y-76882142D01*
X191500000Y-76096428D02*
X191428571Y-76025000D01*
X191285714Y-75953571D01*
X190928571Y-75953571D01*
X190785714Y-76025000D01*
X190714285Y-76096428D01*
X190642857Y-76239285D01*
X190642857Y-76382142D01*
X190714285Y-76596428D01*
X191571428Y-77453571D01*
X190642857Y-77453571D01*
X189714285Y-75953571D02*
X189571428Y-75953571D01*
X189428571Y-76025000D01*
X189357142Y-76096428D01*
X189285714Y-76239285D01*
X189214285Y-76525000D01*
X189214285Y-76882142D01*
X189285714Y-77167857D01*
X189357142Y-77310714D01*
X189428571Y-77382142D01*
X189571428Y-77453571D01*
X189714285Y-77453571D01*
X189857142Y-77382142D01*
X189928571Y-77310714D01*
X190000000Y-77167857D01*
X190071428Y-76882142D01*
X190071428Y-76525000D01*
X190000000Y-76239285D01*
X189928571Y-76096428D01*
X189857142Y-76025000D01*
X189714285Y-75953571D01*
X188642857Y-76096428D02*
X188571428Y-76025000D01*
X188428571Y-75953571D01*
X188071428Y-75953571D01*
X187928571Y-76025000D01*
X187857142Y-76096428D01*
X187785714Y-76239285D01*
X187785714Y-76382142D01*
X187857142Y-76596428D01*
X188714285Y-77453571D01*
X187785714Y-77453571D01*
X186357142Y-77453571D02*
X187214285Y-77453571D01*
X186785714Y-77453571D02*
X186785714Y-75953571D01*
X186928571Y-76167857D01*
X187071428Y-76310714D01*
X187214285Y-76382142D01*
D11*
X208550000Y-70800000D02*
X208550000Y-73700000D01*
X211450000Y-70800000D02*
X208550000Y-70800000D01*
X211450000Y-73700000D02*
X211450000Y-70800000D01*
X208550000Y-73700000D02*
X211450000Y-73700000D01*
X208550000Y-76550000D02*
X208550000Y-79450000D01*
X211450000Y-76550000D02*
X208550000Y-76550000D01*
X211450000Y-79450000D02*
X211450000Y-76550000D01*
X208550000Y-79450000D02*
X211450000Y-79450000D01*
D12*
X212250000Y-71488095D02*
X212202380Y-71392857D01*
X212202380Y-71250000D01*
X212250000Y-71107142D01*
X212345238Y-71011904D01*
X212440476Y-70964285D01*
X212630952Y-70916666D01*
X212773809Y-70916666D01*
X212964285Y-70964285D01*
X213059523Y-71011904D01*
X213154761Y-71107142D01*
X213202380Y-71250000D01*
X213202380Y-71345238D01*
X213154761Y-71488095D01*
X213107142Y-71535714D01*
X212773809Y-71535714D01*
X212773809Y-71345238D01*
X213202380Y-71964285D02*
X212202380Y-71964285D01*
X213202380Y-72535714D01*
X212202380Y-72535714D01*
X213202380Y-73011904D02*
X212202380Y-73011904D01*
X212202380Y-73250000D01*
X212250000Y-73392857D01*
X212345238Y-73488095D01*
X212440476Y-73535714D01*
X212630952Y-73583333D01*
X212773809Y-73583333D01*
X212964285Y-73535714D01*
X213059523Y-73488095D01*
X213154761Y-73392857D01*
X213202380Y-73250000D01*
X213202380Y-73011904D01*
X212202380Y-77809523D02*
X212202380Y-77333333D01*
X212678571Y-77285714D01*
X212630952Y-77333333D01*
X212583333Y-77428571D01*
X212583333Y-77666666D01*
X212630952Y-77761904D01*
X212678571Y-77809523D01*
X212773809Y-77857142D01*
X213011904Y-77857142D01*
X213107142Y-77809523D01*
X213154761Y-77761904D01*
X213202380Y-77666666D01*
X213202380Y-77428571D01*
X213154761Y-77333333D01*
X213107142Y-77285714D01*
X212202380Y-78142857D02*
X213202380Y-78476190D01*
X212202380Y-78809523D01*
%LPC*%
D13*
X210000000Y-72250000D03*
X210000000Y-78000000D03*
M02*
