G04 #@! TF.GenerationSoftware,KiCad,Pcbnew,(5.1.5)-3*
G04 #@! TF.CreationDate,2021-10-17T15:32:45-07:00*
G04 #@! TF.ProjectId,uav_gps_i2c_breakout,7561765f-6770-4735-9f69-32635f627265,rev?*
G04 #@! TF.SameCoordinates,Original*
G04 #@! TF.FileFunction,Legend,Top*
G04 #@! TF.FilePolarity,Positive*
%FSLAX46Y46*%
G04 Gerber Fmt 4.6, Leading zero omitted, Abs format (unit mm)*
G04 Created by KiCad (PCBNEW (5.1.5)-3) date 2021-10-17 15:32:45*
%MOMM*%
%LPD*%
G04 APERTURE LIST*
%ADD10C,0.120000*%
%ADD11C,0.100000*%
G04 APERTURE END LIST*
D10*
X184390000Y-79215000D02*
X184390000Y-70785000D01*
X188860000Y-69515000D02*
X188860000Y-71315000D01*
X187260000Y-69515000D02*
X188860000Y-69515000D01*
X188860000Y-78685000D02*
X189800000Y-78685000D01*
X188860000Y-80485000D02*
X188860000Y-78685000D01*
X187260000Y-80485000D02*
X188860000Y-80485000D01*
X176890000Y-79215000D02*
X176890000Y-70785000D01*
X181360000Y-69515000D02*
X181360000Y-71315000D01*
X179760000Y-69515000D02*
X181360000Y-69515000D01*
X181360000Y-78685000D02*
X182300000Y-78685000D01*
X181360000Y-80485000D02*
X181360000Y-78685000D01*
X179760000Y-80485000D02*
X181360000Y-80485000D01*
X199390000Y-77965000D02*
X199390000Y-72035000D01*
X203860000Y-70765000D02*
X203860000Y-72565000D01*
X202260000Y-70765000D02*
X203860000Y-70765000D01*
X203860000Y-77435000D02*
X204800000Y-77435000D01*
X203860000Y-79235000D02*
X203860000Y-77435000D01*
X202260000Y-79235000D02*
X203860000Y-79235000D01*
X191890000Y-77965000D02*
X191890000Y-72035000D01*
X196360000Y-70765000D02*
X196360000Y-72565000D01*
X194760000Y-70765000D02*
X196360000Y-70765000D01*
X196360000Y-77435000D02*
X197300000Y-77435000D01*
X196360000Y-79235000D02*
X196360000Y-77435000D01*
X194760000Y-79235000D02*
X196360000Y-79235000D01*
X207390000Y-76715000D02*
X207390000Y-73285000D01*
X211860000Y-72015000D02*
X211860000Y-73815000D01*
X210260000Y-72015000D02*
X211860000Y-72015000D01*
X211860000Y-76185000D02*
X212800000Y-76185000D01*
X211860000Y-77985000D02*
X211860000Y-76185000D01*
X210260000Y-77985000D02*
X211860000Y-77985000D01*
%LPC*%
D11*
G36*
X186802504Y-69475327D02*
G01*
X186829247Y-69479294D01*
X186855473Y-69485863D01*
X186880929Y-69494971D01*
X186905370Y-69506531D01*
X186928560Y-69520430D01*
X186950275Y-69536536D01*
X186970308Y-69554692D01*
X186988464Y-69574725D01*
X187004570Y-69596440D01*
X187018469Y-69619630D01*
X187030029Y-69644071D01*
X187039137Y-69669527D01*
X187045706Y-69695753D01*
X187049673Y-69722496D01*
X187051000Y-69749500D01*
X187051000Y-70300500D01*
X187049673Y-70327504D01*
X187045706Y-70354247D01*
X187039137Y-70380473D01*
X187030029Y-70405929D01*
X187018469Y-70430370D01*
X187004570Y-70453560D01*
X186988464Y-70475275D01*
X186970308Y-70495308D01*
X186950275Y-70513464D01*
X186928560Y-70529570D01*
X186905370Y-70543469D01*
X186880929Y-70555029D01*
X186855473Y-70564137D01*
X186829247Y-70570706D01*
X186802504Y-70574673D01*
X186775500Y-70576000D01*
X184424500Y-70576000D01*
X184397496Y-70574673D01*
X184370753Y-70570706D01*
X184344527Y-70564137D01*
X184319071Y-70555029D01*
X184294630Y-70543469D01*
X184271440Y-70529570D01*
X184249725Y-70513464D01*
X184229692Y-70495308D01*
X184211536Y-70475275D01*
X184195430Y-70453560D01*
X184181531Y-70430370D01*
X184169971Y-70405929D01*
X184160863Y-70380473D01*
X184154294Y-70354247D01*
X184150327Y-70327504D01*
X184149000Y-70300500D01*
X184149000Y-69749500D01*
X184150327Y-69722496D01*
X184154294Y-69695753D01*
X184160863Y-69669527D01*
X184169971Y-69644071D01*
X184181531Y-69619630D01*
X184195430Y-69596440D01*
X184211536Y-69574725D01*
X184229692Y-69554692D01*
X184249725Y-69536536D01*
X184271440Y-69520430D01*
X184294630Y-69506531D01*
X184319071Y-69494971D01*
X184344527Y-69485863D01*
X184370753Y-69479294D01*
X184397496Y-69475327D01*
X184424500Y-69474000D01*
X186775500Y-69474000D01*
X186802504Y-69475327D01*
G37*
G36*
X186802504Y-79425327D02*
G01*
X186829247Y-79429294D01*
X186855473Y-79435863D01*
X186880929Y-79444971D01*
X186905370Y-79456531D01*
X186928560Y-79470430D01*
X186950275Y-79486536D01*
X186970308Y-79504692D01*
X186988464Y-79524725D01*
X187004570Y-79546440D01*
X187018469Y-79569630D01*
X187030029Y-79594071D01*
X187039137Y-79619527D01*
X187045706Y-79645753D01*
X187049673Y-79672496D01*
X187051000Y-79699500D01*
X187051000Y-80250500D01*
X187049673Y-80277504D01*
X187045706Y-80304247D01*
X187039137Y-80330473D01*
X187030029Y-80355929D01*
X187018469Y-80380370D01*
X187004570Y-80403560D01*
X186988464Y-80425275D01*
X186970308Y-80445308D01*
X186950275Y-80463464D01*
X186928560Y-80479570D01*
X186905370Y-80493469D01*
X186880929Y-80505029D01*
X186855473Y-80514137D01*
X186829247Y-80520706D01*
X186802504Y-80524673D01*
X186775500Y-80526000D01*
X184424500Y-80526000D01*
X184397496Y-80524673D01*
X184370753Y-80520706D01*
X184344527Y-80514137D01*
X184319071Y-80505029D01*
X184294630Y-80493469D01*
X184271440Y-80479570D01*
X184249725Y-80463464D01*
X184229692Y-80445308D01*
X184211536Y-80425275D01*
X184195430Y-80403560D01*
X184181531Y-80380370D01*
X184169971Y-80355929D01*
X184160863Y-80330473D01*
X184154294Y-80304247D01*
X184150327Y-80277504D01*
X184149000Y-80250500D01*
X184149000Y-79699500D01*
X184150327Y-79672496D01*
X184154294Y-79645753D01*
X184160863Y-79619527D01*
X184169971Y-79594071D01*
X184181531Y-79569630D01*
X184195430Y-79546440D01*
X184211536Y-79524725D01*
X184229692Y-79504692D01*
X184249725Y-79486536D01*
X184271440Y-79470430D01*
X184294630Y-79456531D01*
X184319071Y-79444971D01*
X184344527Y-79435863D01*
X184370753Y-79429294D01*
X184397496Y-79425327D01*
X184424500Y-79424000D01*
X186775500Y-79424000D01*
X186802504Y-79425327D01*
G37*
G36*
X189692702Y-71524845D02*
G01*
X189709738Y-71527372D01*
X189726445Y-71531557D01*
X189742661Y-71537359D01*
X189758230Y-71544723D01*
X189773003Y-71553577D01*
X189786836Y-71563837D01*
X189799597Y-71575403D01*
X189811163Y-71588164D01*
X189821423Y-71601997D01*
X189830277Y-71616770D01*
X189837641Y-71632339D01*
X189843443Y-71648555D01*
X189847628Y-71665262D01*
X189850155Y-71682298D01*
X189851000Y-71699500D01*
X189851000Y-72050500D01*
X189850155Y-72067702D01*
X189847628Y-72084738D01*
X189843443Y-72101445D01*
X189837641Y-72117661D01*
X189830277Y-72133230D01*
X189821423Y-72148003D01*
X189811163Y-72161836D01*
X189799597Y-72174597D01*
X189786836Y-72186163D01*
X189773003Y-72196423D01*
X189758230Y-72205277D01*
X189742661Y-72212641D01*
X189726445Y-72218443D01*
X189709738Y-72222628D01*
X189692702Y-72225155D01*
X189675500Y-72226000D01*
X188224500Y-72226000D01*
X188207298Y-72225155D01*
X188190262Y-72222628D01*
X188173555Y-72218443D01*
X188157339Y-72212641D01*
X188141770Y-72205277D01*
X188126997Y-72196423D01*
X188113164Y-72186163D01*
X188100403Y-72174597D01*
X188088837Y-72161836D01*
X188078577Y-72148003D01*
X188069723Y-72133230D01*
X188062359Y-72117661D01*
X188056557Y-72101445D01*
X188052372Y-72084738D01*
X188049845Y-72067702D01*
X188049000Y-72050500D01*
X188049000Y-71699500D01*
X188049845Y-71682298D01*
X188052372Y-71665262D01*
X188056557Y-71648555D01*
X188062359Y-71632339D01*
X188069723Y-71616770D01*
X188078577Y-71601997D01*
X188088837Y-71588164D01*
X188100403Y-71575403D01*
X188113164Y-71563837D01*
X188126997Y-71553577D01*
X188141770Y-71544723D01*
X188157339Y-71537359D01*
X188173555Y-71531557D01*
X188190262Y-71527372D01*
X188207298Y-71524845D01*
X188224500Y-71524000D01*
X189675500Y-71524000D01*
X189692702Y-71524845D01*
G37*
G36*
X189692702Y-72774845D02*
G01*
X189709738Y-72777372D01*
X189726445Y-72781557D01*
X189742661Y-72787359D01*
X189758230Y-72794723D01*
X189773003Y-72803577D01*
X189786836Y-72813837D01*
X189799597Y-72825403D01*
X189811163Y-72838164D01*
X189821423Y-72851997D01*
X189830277Y-72866770D01*
X189837641Y-72882339D01*
X189843443Y-72898555D01*
X189847628Y-72915262D01*
X189850155Y-72932298D01*
X189851000Y-72949500D01*
X189851000Y-73300500D01*
X189850155Y-73317702D01*
X189847628Y-73334738D01*
X189843443Y-73351445D01*
X189837641Y-73367661D01*
X189830277Y-73383230D01*
X189821423Y-73398003D01*
X189811163Y-73411836D01*
X189799597Y-73424597D01*
X189786836Y-73436163D01*
X189773003Y-73446423D01*
X189758230Y-73455277D01*
X189742661Y-73462641D01*
X189726445Y-73468443D01*
X189709738Y-73472628D01*
X189692702Y-73475155D01*
X189675500Y-73476000D01*
X188224500Y-73476000D01*
X188207298Y-73475155D01*
X188190262Y-73472628D01*
X188173555Y-73468443D01*
X188157339Y-73462641D01*
X188141770Y-73455277D01*
X188126997Y-73446423D01*
X188113164Y-73436163D01*
X188100403Y-73424597D01*
X188088837Y-73411836D01*
X188078577Y-73398003D01*
X188069723Y-73383230D01*
X188062359Y-73367661D01*
X188056557Y-73351445D01*
X188052372Y-73334738D01*
X188049845Y-73317702D01*
X188049000Y-73300500D01*
X188049000Y-72949500D01*
X188049845Y-72932298D01*
X188052372Y-72915262D01*
X188056557Y-72898555D01*
X188062359Y-72882339D01*
X188069723Y-72866770D01*
X188078577Y-72851997D01*
X188088837Y-72838164D01*
X188100403Y-72825403D01*
X188113164Y-72813837D01*
X188126997Y-72803577D01*
X188141770Y-72794723D01*
X188157339Y-72787359D01*
X188173555Y-72781557D01*
X188190262Y-72777372D01*
X188207298Y-72774845D01*
X188224500Y-72774000D01*
X189675500Y-72774000D01*
X189692702Y-72774845D01*
G37*
G36*
X189692702Y-74024845D02*
G01*
X189709738Y-74027372D01*
X189726445Y-74031557D01*
X189742661Y-74037359D01*
X189758230Y-74044723D01*
X189773003Y-74053577D01*
X189786836Y-74063837D01*
X189799597Y-74075403D01*
X189811163Y-74088164D01*
X189821423Y-74101997D01*
X189830277Y-74116770D01*
X189837641Y-74132339D01*
X189843443Y-74148555D01*
X189847628Y-74165262D01*
X189850155Y-74182298D01*
X189851000Y-74199500D01*
X189851000Y-74550500D01*
X189850155Y-74567702D01*
X189847628Y-74584738D01*
X189843443Y-74601445D01*
X189837641Y-74617661D01*
X189830277Y-74633230D01*
X189821423Y-74648003D01*
X189811163Y-74661836D01*
X189799597Y-74674597D01*
X189786836Y-74686163D01*
X189773003Y-74696423D01*
X189758230Y-74705277D01*
X189742661Y-74712641D01*
X189726445Y-74718443D01*
X189709738Y-74722628D01*
X189692702Y-74725155D01*
X189675500Y-74726000D01*
X188224500Y-74726000D01*
X188207298Y-74725155D01*
X188190262Y-74722628D01*
X188173555Y-74718443D01*
X188157339Y-74712641D01*
X188141770Y-74705277D01*
X188126997Y-74696423D01*
X188113164Y-74686163D01*
X188100403Y-74674597D01*
X188088837Y-74661836D01*
X188078577Y-74648003D01*
X188069723Y-74633230D01*
X188062359Y-74617661D01*
X188056557Y-74601445D01*
X188052372Y-74584738D01*
X188049845Y-74567702D01*
X188049000Y-74550500D01*
X188049000Y-74199500D01*
X188049845Y-74182298D01*
X188052372Y-74165262D01*
X188056557Y-74148555D01*
X188062359Y-74132339D01*
X188069723Y-74116770D01*
X188078577Y-74101997D01*
X188088837Y-74088164D01*
X188100403Y-74075403D01*
X188113164Y-74063837D01*
X188126997Y-74053577D01*
X188141770Y-74044723D01*
X188157339Y-74037359D01*
X188173555Y-74031557D01*
X188190262Y-74027372D01*
X188207298Y-74024845D01*
X188224500Y-74024000D01*
X189675500Y-74024000D01*
X189692702Y-74024845D01*
G37*
G36*
X189692702Y-75274845D02*
G01*
X189709738Y-75277372D01*
X189726445Y-75281557D01*
X189742661Y-75287359D01*
X189758230Y-75294723D01*
X189773003Y-75303577D01*
X189786836Y-75313837D01*
X189799597Y-75325403D01*
X189811163Y-75338164D01*
X189821423Y-75351997D01*
X189830277Y-75366770D01*
X189837641Y-75382339D01*
X189843443Y-75398555D01*
X189847628Y-75415262D01*
X189850155Y-75432298D01*
X189851000Y-75449500D01*
X189851000Y-75800500D01*
X189850155Y-75817702D01*
X189847628Y-75834738D01*
X189843443Y-75851445D01*
X189837641Y-75867661D01*
X189830277Y-75883230D01*
X189821423Y-75898003D01*
X189811163Y-75911836D01*
X189799597Y-75924597D01*
X189786836Y-75936163D01*
X189773003Y-75946423D01*
X189758230Y-75955277D01*
X189742661Y-75962641D01*
X189726445Y-75968443D01*
X189709738Y-75972628D01*
X189692702Y-75975155D01*
X189675500Y-75976000D01*
X188224500Y-75976000D01*
X188207298Y-75975155D01*
X188190262Y-75972628D01*
X188173555Y-75968443D01*
X188157339Y-75962641D01*
X188141770Y-75955277D01*
X188126997Y-75946423D01*
X188113164Y-75936163D01*
X188100403Y-75924597D01*
X188088837Y-75911836D01*
X188078577Y-75898003D01*
X188069723Y-75883230D01*
X188062359Y-75867661D01*
X188056557Y-75851445D01*
X188052372Y-75834738D01*
X188049845Y-75817702D01*
X188049000Y-75800500D01*
X188049000Y-75449500D01*
X188049845Y-75432298D01*
X188052372Y-75415262D01*
X188056557Y-75398555D01*
X188062359Y-75382339D01*
X188069723Y-75366770D01*
X188078577Y-75351997D01*
X188088837Y-75338164D01*
X188100403Y-75325403D01*
X188113164Y-75313837D01*
X188126997Y-75303577D01*
X188141770Y-75294723D01*
X188157339Y-75287359D01*
X188173555Y-75281557D01*
X188190262Y-75277372D01*
X188207298Y-75274845D01*
X188224500Y-75274000D01*
X189675500Y-75274000D01*
X189692702Y-75274845D01*
G37*
G36*
X189692702Y-76524845D02*
G01*
X189709738Y-76527372D01*
X189726445Y-76531557D01*
X189742661Y-76537359D01*
X189758230Y-76544723D01*
X189773003Y-76553577D01*
X189786836Y-76563837D01*
X189799597Y-76575403D01*
X189811163Y-76588164D01*
X189821423Y-76601997D01*
X189830277Y-76616770D01*
X189837641Y-76632339D01*
X189843443Y-76648555D01*
X189847628Y-76665262D01*
X189850155Y-76682298D01*
X189851000Y-76699500D01*
X189851000Y-77050500D01*
X189850155Y-77067702D01*
X189847628Y-77084738D01*
X189843443Y-77101445D01*
X189837641Y-77117661D01*
X189830277Y-77133230D01*
X189821423Y-77148003D01*
X189811163Y-77161836D01*
X189799597Y-77174597D01*
X189786836Y-77186163D01*
X189773003Y-77196423D01*
X189758230Y-77205277D01*
X189742661Y-77212641D01*
X189726445Y-77218443D01*
X189709738Y-77222628D01*
X189692702Y-77225155D01*
X189675500Y-77226000D01*
X188224500Y-77226000D01*
X188207298Y-77225155D01*
X188190262Y-77222628D01*
X188173555Y-77218443D01*
X188157339Y-77212641D01*
X188141770Y-77205277D01*
X188126997Y-77196423D01*
X188113164Y-77186163D01*
X188100403Y-77174597D01*
X188088837Y-77161836D01*
X188078577Y-77148003D01*
X188069723Y-77133230D01*
X188062359Y-77117661D01*
X188056557Y-77101445D01*
X188052372Y-77084738D01*
X188049845Y-77067702D01*
X188049000Y-77050500D01*
X188049000Y-76699500D01*
X188049845Y-76682298D01*
X188052372Y-76665262D01*
X188056557Y-76648555D01*
X188062359Y-76632339D01*
X188069723Y-76616770D01*
X188078577Y-76601997D01*
X188088837Y-76588164D01*
X188100403Y-76575403D01*
X188113164Y-76563837D01*
X188126997Y-76553577D01*
X188141770Y-76544723D01*
X188157339Y-76537359D01*
X188173555Y-76531557D01*
X188190262Y-76527372D01*
X188207298Y-76524845D01*
X188224500Y-76524000D01*
X189675500Y-76524000D01*
X189692702Y-76524845D01*
G37*
G36*
X189692702Y-77774845D02*
G01*
X189709738Y-77777372D01*
X189726445Y-77781557D01*
X189742661Y-77787359D01*
X189758230Y-77794723D01*
X189773003Y-77803577D01*
X189786836Y-77813837D01*
X189799597Y-77825403D01*
X189811163Y-77838164D01*
X189821423Y-77851997D01*
X189830277Y-77866770D01*
X189837641Y-77882339D01*
X189843443Y-77898555D01*
X189847628Y-77915262D01*
X189850155Y-77932298D01*
X189851000Y-77949500D01*
X189851000Y-78300500D01*
X189850155Y-78317702D01*
X189847628Y-78334738D01*
X189843443Y-78351445D01*
X189837641Y-78367661D01*
X189830277Y-78383230D01*
X189821423Y-78398003D01*
X189811163Y-78411836D01*
X189799597Y-78424597D01*
X189786836Y-78436163D01*
X189773003Y-78446423D01*
X189758230Y-78455277D01*
X189742661Y-78462641D01*
X189726445Y-78468443D01*
X189709738Y-78472628D01*
X189692702Y-78475155D01*
X189675500Y-78476000D01*
X188224500Y-78476000D01*
X188207298Y-78475155D01*
X188190262Y-78472628D01*
X188173555Y-78468443D01*
X188157339Y-78462641D01*
X188141770Y-78455277D01*
X188126997Y-78446423D01*
X188113164Y-78436163D01*
X188100403Y-78424597D01*
X188088837Y-78411836D01*
X188078577Y-78398003D01*
X188069723Y-78383230D01*
X188062359Y-78367661D01*
X188056557Y-78351445D01*
X188052372Y-78334738D01*
X188049845Y-78317702D01*
X188049000Y-78300500D01*
X188049000Y-77949500D01*
X188049845Y-77932298D01*
X188052372Y-77915262D01*
X188056557Y-77898555D01*
X188062359Y-77882339D01*
X188069723Y-77866770D01*
X188078577Y-77851997D01*
X188088837Y-77838164D01*
X188100403Y-77825403D01*
X188113164Y-77813837D01*
X188126997Y-77803577D01*
X188141770Y-77794723D01*
X188157339Y-77787359D01*
X188173555Y-77781557D01*
X188190262Y-77777372D01*
X188207298Y-77774845D01*
X188224500Y-77774000D01*
X189675500Y-77774000D01*
X189692702Y-77774845D01*
G37*
G36*
X179302504Y-69475327D02*
G01*
X179329247Y-69479294D01*
X179355473Y-69485863D01*
X179380929Y-69494971D01*
X179405370Y-69506531D01*
X179428560Y-69520430D01*
X179450275Y-69536536D01*
X179470308Y-69554692D01*
X179488464Y-69574725D01*
X179504570Y-69596440D01*
X179518469Y-69619630D01*
X179530029Y-69644071D01*
X179539137Y-69669527D01*
X179545706Y-69695753D01*
X179549673Y-69722496D01*
X179551000Y-69749500D01*
X179551000Y-70300500D01*
X179549673Y-70327504D01*
X179545706Y-70354247D01*
X179539137Y-70380473D01*
X179530029Y-70405929D01*
X179518469Y-70430370D01*
X179504570Y-70453560D01*
X179488464Y-70475275D01*
X179470308Y-70495308D01*
X179450275Y-70513464D01*
X179428560Y-70529570D01*
X179405370Y-70543469D01*
X179380929Y-70555029D01*
X179355473Y-70564137D01*
X179329247Y-70570706D01*
X179302504Y-70574673D01*
X179275500Y-70576000D01*
X176924500Y-70576000D01*
X176897496Y-70574673D01*
X176870753Y-70570706D01*
X176844527Y-70564137D01*
X176819071Y-70555029D01*
X176794630Y-70543469D01*
X176771440Y-70529570D01*
X176749725Y-70513464D01*
X176729692Y-70495308D01*
X176711536Y-70475275D01*
X176695430Y-70453560D01*
X176681531Y-70430370D01*
X176669971Y-70405929D01*
X176660863Y-70380473D01*
X176654294Y-70354247D01*
X176650327Y-70327504D01*
X176649000Y-70300500D01*
X176649000Y-69749500D01*
X176650327Y-69722496D01*
X176654294Y-69695753D01*
X176660863Y-69669527D01*
X176669971Y-69644071D01*
X176681531Y-69619630D01*
X176695430Y-69596440D01*
X176711536Y-69574725D01*
X176729692Y-69554692D01*
X176749725Y-69536536D01*
X176771440Y-69520430D01*
X176794630Y-69506531D01*
X176819071Y-69494971D01*
X176844527Y-69485863D01*
X176870753Y-69479294D01*
X176897496Y-69475327D01*
X176924500Y-69474000D01*
X179275500Y-69474000D01*
X179302504Y-69475327D01*
G37*
G36*
X179302504Y-79425327D02*
G01*
X179329247Y-79429294D01*
X179355473Y-79435863D01*
X179380929Y-79444971D01*
X179405370Y-79456531D01*
X179428560Y-79470430D01*
X179450275Y-79486536D01*
X179470308Y-79504692D01*
X179488464Y-79524725D01*
X179504570Y-79546440D01*
X179518469Y-79569630D01*
X179530029Y-79594071D01*
X179539137Y-79619527D01*
X179545706Y-79645753D01*
X179549673Y-79672496D01*
X179551000Y-79699500D01*
X179551000Y-80250500D01*
X179549673Y-80277504D01*
X179545706Y-80304247D01*
X179539137Y-80330473D01*
X179530029Y-80355929D01*
X179518469Y-80380370D01*
X179504570Y-80403560D01*
X179488464Y-80425275D01*
X179470308Y-80445308D01*
X179450275Y-80463464D01*
X179428560Y-80479570D01*
X179405370Y-80493469D01*
X179380929Y-80505029D01*
X179355473Y-80514137D01*
X179329247Y-80520706D01*
X179302504Y-80524673D01*
X179275500Y-80526000D01*
X176924500Y-80526000D01*
X176897496Y-80524673D01*
X176870753Y-80520706D01*
X176844527Y-80514137D01*
X176819071Y-80505029D01*
X176794630Y-80493469D01*
X176771440Y-80479570D01*
X176749725Y-80463464D01*
X176729692Y-80445308D01*
X176711536Y-80425275D01*
X176695430Y-80403560D01*
X176681531Y-80380370D01*
X176669971Y-80355929D01*
X176660863Y-80330473D01*
X176654294Y-80304247D01*
X176650327Y-80277504D01*
X176649000Y-80250500D01*
X176649000Y-79699500D01*
X176650327Y-79672496D01*
X176654294Y-79645753D01*
X176660863Y-79619527D01*
X176669971Y-79594071D01*
X176681531Y-79569630D01*
X176695430Y-79546440D01*
X176711536Y-79524725D01*
X176729692Y-79504692D01*
X176749725Y-79486536D01*
X176771440Y-79470430D01*
X176794630Y-79456531D01*
X176819071Y-79444971D01*
X176844527Y-79435863D01*
X176870753Y-79429294D01*
X176897496Y-79425327D01*
X176924500Y-79424000D01*
X179275500Y-79424000D01*
X179302504Y-79425327D01*
G37*
G36*
X182192702Y-71524845D02*
G01*
X182209738Y-71527372D01*
X182226445Y-71531557D01*
X182242661Y-71537359D01*
X182258230Y-71544723D01*
X182273003Y-71553577D01*
X182286836Y-71563837D01*
X182299597Y-71575403D01*
X182311163Y-71588164D01*
X182321423Y-71601997D01*
X182330277Y-71616770D01*
X182337641Y-71632339D01*
X182343443Y-71648555D01*
X182347628Y-71665262D01*
X182350155Y-71682298D01*
X182351000Y-71699500D01*
X182351000Y-72050500D01*
X182350155Y-72067702D01*
X182347628Y-72084738D01*
X182343443Y-72101445D01*
X182337641Y-72117661D01*
X182330277Y-72133230D01*
X182321423Y-72148003D01*
X182311163Y-72161836D01*
X182299597Y-72174597D01*
X182286836Y-72186163D01*
X182273003Y-72196423D01*
X182258230Y-72205277D01*
X182242661Y-72212641D01*
X182226445Y-72218443D01*
X182209738Y-72222628D01*
X182192702Y-72225155D01*
X182175500Y-72226000D01*
X180724500Y-72226000D01*
X180707298Y-72225155D01*
X180690262Y-72222628D01*
X180673555Y-72218443D01*
X180657339Y-72212641D01*
X180641770Y-72205277D01*
X180626997Y-72196423D01*
X180613164Y-72186163D01*
X180600403Y-72174597D01*
X180588837Y-72161836D01*
X180578577Y-72148003D01*
X180569723Y-72133230D01*
X180562359Y-72117661D01*
X180556557Y-72101445D01*
X180552372Y-72084738D01*
X180549845Y-72067702D01*
X180549000Y-72050500D01*
X180549000Y-71699500D01*
X180549845Y-71682298D01*
X180552372Y-71665262D01*
X180556557Y-71648555D01*
X180562359Y-71632339D01*
X180569723Y-71616770D01*
X180578577Y-71601997D01*
X180588837Y-71588164D01*
X180600403Y-71575403D01*
X180613164Y-71563837D01*
X180626997Y-71553577D01*
X180641770Y-71544723D01*
X180657339Y-71537359D01*
X180673555Y-71531557D01*
X180690262Y-71527372D01*
X180707298Y-71524845D01*
X180724500Y-71524000D01*
X182175500Y-71524000D01*
X182192702Y-71524845D01*
G37*
G36*
X182192702Y-72774845D02*
G01*
X182209738Y-72777372D01*
X182226445Y-72781557D01*
X182242661Y-72787359D01*
X182258230Y-72794723D01*
X182273003Y-72803577D01*
X182286836Y-72813837D01*
X182299597Y-72825403D01*
X182311163Y-72838164D01*
X182321423Y-72851997D01*
X182330277Y-72866770D01*
X182337641Y-72882339D01*
X182343443Y-72898555D01*
X182347628Y-72915262D01*
X182350155Y-72932298D01*
X182351000Y-72949500D01*
X182351000Y-73300500D01*
X182350155Y-73317702D01*
X182347628Y-73334738D01*
X182343443Y-73351445D01*
X182337641Y-73367661D01*
X182330277Y-73383230D01*
X182321423Y-73398003D01*
X182311163Y-73411836D01*
X182299597Y-73424597D01*
X182286836Y-73436163D01*
X182273003Y-73446423D01*
X182258230Y-73455277D01*
X182242661Y-73462641D01*
X182226445Y-73468443D01*
X182209738Y-73472628D01*
X182192702Y-73475155D01*
X182175500Y-73476000D01*
X180724500Y-73476000D01*
X180707298Y-73475155D01*
X180690262Y-73472628D01*
X180673555Y-73468443D01*
X180657339Y-73462641D01*
X180641770Y-73455277D01*
X180626997Y-73446423D01*
X180613164Y-73436163D01*
X180600403Y-73424597D01*
X180588837Y-73411836D01*
X180578577Y-73398003D01*
X180569723Y-73383230D01*
X180562359Y-73367661D01*
X180556557Y-73351445D01*
X180552372Y-73334738D01*
X180549845Y-73317702D01*
X180549000Y-73300500D01*
X180549000Y-72949500D01*
X180549845Y-72932298D01*
X180552372Y-72915262D01*
X180556557Y-72898555D01*
X180562359Y-72882339D01*
X180569723Y-72866770D01*
X180578577Y-72851997D01*
X180588837Y-72838164D01*
X180600403Y-72825403D01*
X180613164Y-72813837D01*
X180626997Y-72803577D01*
X180641770Y-72794723D01*
X180657339Y-72787359D01*
X180673555Y-72781557D01*
X180690262Y-72777372D01*
X180707298Y-72774845D01*
X180724500Y-72774000D01*
X182175500Y-72774000D01*
X182192702Y-72774845D01*
G37*
G36*
X182192702Y-74024845D02*
G01*
X182209738Y-74027372D01*
X182226445Y-74031557D01*
X182242661Y-74037359D01*
X182258230Y-74044723D01*
X182273003Y-74053577D01*
X182286836Y-74063837D01*
X182299597Y-74075403D01*
X182311163Y-74088164D01*
X182321423Y-74101997D01*
X182330277Y-74116770D01*
X182337641Y-74132339D01*
X182343443Y-74148555D01*
X182347628Y-74165262D01*
X182350155Y-74182298D01*
X182351000Y-74199500D01*
X182351000Y-74550500D01*
X182350155Y-74567702D01*
X182347628Y-74584738D01*
X182343443Y-74601445D01*
X182337641Y-74617661D01*
X182330277Y-74633230D01*
X182321423Y-74648003D01*
X182311163Y-74661836D01*
X182299597Y-74674597D01*
X182286836Y-74686163D01*
X182273003Y-74696423D01*
X182258230Y-74705277D01*
X182242661Y-74712641D01*
X182226445Y-74718443D01*
X182209738Y-74722628D01*
X182192702Y-74725155D01*
X182175500Y-74726000D01*
X180724500Y-74726000D01*
X180707298Y-74725155D01*
X180690262Y-74722628D01*
X180673555Y-74718443D01*
X180657339Y-74712641D01*
X180641770Y-74705277D01*
X180626997Y-74696423D01*
X180613164Y-74686163D01*
X180600403Y-74674597D01*
X180588837Y-74661836D01*
X180578577Y-74648003D01*
X180569723Y-74633230D01*
X180562359Y-74617661D01*
X180556557Y-74601445D01*
X180552372Y-74584738D01*
X180549845Y-74567702D01*
X180549000Y-74550500D01*
X180549000Y-74199500D01*
X180549845Y-74182298D01*
X180552372Y-74165262D01*
X180556557Y-74148555D01*
X180562359Y-74132339D01*
X180569723Y-74116770D01*
X180578577Y-74101997D01*
X180588837Y-74088164D01*
X180600403Y-74075403D01*
X180613164Y-74063837D01*
X180626997Y-74053577D01*
X180641770Y-74044723D01*
X180657339Y-74037359D01*
X180673555Y-74031557D01*
X180690262Y-74027372D01*
X180707298Y-74024845D01*
X180724500Y-74024000D01*
X182175500Y-74024000D01*
X182192702Y-74024845D01*
G37*
G36*
X182192702Y-75274845D02*
G01*
X182209738Y-75277372D01*
X182226445Y-75281557D01*
X182242661Y-75287359D01*
X182258230Y-75294723D01*
X182273003Y-75303577D01*
X182286836Y-75313837D01*
X182299597Y-75325403D01*
X182311163Y-75338164D01*
X182321423Y-75351997D01*
X182330277Y-75366770D01*
X182337641Y-75382339D01*
X182343443Y-75398555D01*
X182347628Y-75415262D01*
X182350155Y-75432298D01*
X182351000Y-75449500D01*
X182351000Y-75800500D01*
X182350155Y-75817702D01*
X182347628Y-75834738D01*
X182343443Y-75851445D01*
X182337641Y-75867661D01*
X182330277Y-75883230D01*
X182321423Y-75898003D01*
X182311163Y-75911836D01*
X182299597Y-75924597D01*
X182286836Y-75936163D01*
X182273003Y-75946423D01*
X182258230Y-75955277D01*
X182242661Y-75962641D01*
X182226445Y-75968443D01*
X182209738Y-75972628D01*
X182192702Y-75975155D01*
X182175500Y-75976000D01*
X180724500Y-75976000D01*
X180707298Y-75975155D01*
X180690262Y-75972628D01*
X180673555Y-75968443D01*
X180657339Y-75962641D01*
X180641770Y-75955277D01*
X180626997Y-75946423D01*
X180613164Y-75936163D01*
X180600403Y-75924597D01*
X180588837Y-75911836D01*
X180578577Y-75898003D01*
X180569723Y-75883230D01*
X180562359Y-75867661D01*
X180556557Y-75851445D01*
X180552372Y-75834738D01*
X180549845Y-75817702D01*
X180549000Y-75800500D01*
X180549000Y-75449500D01*
X180549845Y-75432298D01*
X180552372Y-75415262D01*
X180556557Y-75398555D01*
X180562359Y-75382339D01*
X180569723Y-75366770D01*
X180578577Y-75351997D01*
X180588837Y-75338164D01*
X180600403Y-75325403D01*
X180613164Y-75313837D01*
X180626997Y-75303577D01*
X180641770Y-75294723D01*
X180657339Y-75287359D01*
X180673555Y-75281557D01*
X180690262Y-75277372D01*
X180707298Y-75274845D01*
X180724500Y-75274000D01*
X182175500Y-75274000D01*
X182192702Y-75274845D01*
G37*
G36*
X182192702Y-76524845D02*
G01*
X182209738Y-76527372D01*
X182226445Y-76531557D01*
X182242661Y-76537359D01*
X182258230Y-76544723D01*
X182273003Y-76553577D01*
X182286836Y-76563837D01*
X182299597Y-76575403D01*
X182311163Y-76588164D01*
X182321423Y-76601997D01*
X182330277Y-76616770D01*
X182337641Y-76632339D01*
X182343443Y-76648555D01*
X182347628Y-76665262D01*
X182350155Y-76682298D01*
X182351000Y-76699500D01*
X182351000Y-77050500D01*
X182350155Y-77067702D01*
X182347628Y-77084738D01*
X182343443Y-77101445D01*
X182337641Y-77117661D01*
X182330277Y-77133230D01*
X182321423Y-77148003D01*
X182311163Y-77161836D01*
X182299597Y-77174597D01*
X182286836Y-77186163D01*
X182273003Y-77196423D01*
X182258230Y-77205277D01*
X182242661Y-77212641D01*
X182226445Y-77218443D01*
X182209738Y-77222628D01*
X182192702Y-77225155D01*
X182175500Y-77226000D01*
X180724500Y-77226000D01*
X180707298Y-77225155D01*
X180690262Y-77222628D01*
X180673555Y-77218443D01*
X180657339Y-77212641D01*
X180641770Y-77205277D01*
X180626997Y-77196423D01*
X180613164Y-77186163D01*
X180600403Y-77174597D01*
X180588837Y-77161836D01*
X180578577Y-77148003D01*
X180569723Y-77133230D01*
X180562359Y-77117661D01*
X180556557Y-77101445D01*
X180552372Y-77084738D01*
X180549845Y-77067702D01*
X180549000Y-77050500D01*
X180549000Y-76699500D01*
X180549845Y-76682298D01*
X180552372Y-76665262D01*
X180556557Y-76648555D01*
X180562359Y-76632339D01*
X180569723Y-76616770D01*
X180578577Y-76601997D01*
X180588837Y-76588164D01*
X180600403Y-76575403D01*
X180613164Y-76563837D01*
X180626997Y-76553577D01*
X180641770Y-76544723D01*
X180657339Y-76537359D01*
X180673555Y-76531557D01*
X180690262Y-76527372D01*
X180707298Y-76524845D01*
X180724500Y-76524000D01*
X182175500Y-76524000D01*
X182192702Y-76524845D01*
G37*
G36*
X182192702Y-77774845D02*
G01*
X182209738Y-77777372D01*
X182226445Y-77781557D01*
X182242661Y-77787359D01*
X182258230Y-77794723D01*
X182273003Y-77803577D01*
X182286836Y-77813837D01*
X182299597Y-77825403D01*
X182311163Y-77838164D01*
X182321423Y-77851997D01*
X182330277Y-77866770D01*
X182337641Y-77882339D01*
X182343443Y-77898555D01*
X182347628Y-77915262D01*
X182350155Y-77932298D01*
X182351000Y-77949500D01*
X182351000Y-78300500D01*
X182350155Y-78317702D01*
X182347628Y-78334738D01*
X182343443Y-78351445D01*
X182337641Y-78367661D01*
X182330277Y-78383230D01*
X182321423Y-78398003D01*
X182311163Y-78411836D01*
X182299597Y-78424597D01*
X182286836Y-78436163D01*
X182273003Y-78446423D01*
X182258230Y-78455277D01*
X182242661Y-78462641D01*
X182226445Y-78468443D01*
X182209738Y-78472628D01*
X182192702Y-78475155D01*
X182175500Y-78476000D01*
X180724500Y-78476000D01*
X180707298Y-78475155D01*
X180690262Y-78472628D01*
X180673555Y-78468443D01*
X180657339Y-78462641D01*
X180641770Y-78455277D01*
X180626997Y-78446423D01*
X180613164Y-78436163D01*
X180600403Y-78424597D01*
X180588837Y-78411836D01*
X180578577Y-78398003D01*
X180569723Y-78383230D01*
X180562359Y-78367661D01*
X180556557Y-78351445D01*
X180552372Y-78334738D01*
X180549845Y-78317702D01*
X180549000Y-78300500D01*
X180549000Y-77949500D01*
X180549845Y-77932298D01*
X180552372Y-77915262D01*
X180556557Y-77898555D01*
X180562359Y-77882339D01*
X180569723Y-77866770D01*
X180578577Y-77851997D01*
X180588837Y-77838164D01*
X180600403Y-77825403D01*
X180613164Y-77813837D01*
X180626997Y-77803577D01*
X180641770Y-77794723D01*
X180657339Y-77787359D01*
X180673555Y-77781557D01*
X180690262Y-77777372D01*
X180707298Y-77774845D01*
X180724500Y-77774000D01*
X182175500Y-77774000D01*
X182192702Y-77774845D01*
G37*
G36*
X201802504Y-70725327D02*
G01*
X201829247Y-70729294D01*
X201855473Y-70735863D01*
X201880929Y-70744971D01*
X201905370Y-70756531D01*
X201928560Y-70770430D01*
X201950275Y-70786536D01*
X201970308Y-70804692D01*
X201988464Y-70824725D01*
X202004570Y-70846440D01*
X202018469Y-70869630D01*
X202030029Y-70894071D01*
X202039137Y-70919527D01*
X202045706Y-70945753D01*
X202049673Y-70972496D01*
X202051000Y-70999500D01*
X202051000Y-71550500D01*
X202049673Y-71577504D01*
X202045706Y-71604247D01*
X202039137Y-71630473D01*
X202030029Y-71655929D01*
X202018469Y-71680370D01*
X202004570Y-71703560D01*
X201988464Y-71725275D01*
X201970308Y-71745308D01*
X201950275Y-71763464D01*
X201928560Y-71779570D01*
X201905370Y-71793469D01*
X201880929Y-71805029D01*
X201855473Y-71814137D01*
X201829247Y-71820706D01*
X201802504Y-71824673D01*
X201775500Y-71826000D01*
X199424500Y-71826000D01*
X199397496Y-71824673D01*
X199370753Y-71820706D01*
X199344527Y-71814137D01*
X199319071Y-71805029D01*
X199294630Y-71793469D01*
X199271440Y-71779570D01*
X199249725Y-71763464D01*
X199229692Y-71745308D01*
X199211536Y-71725275D01*
X199195430Y-71703560D01*
X199181531Y-71680370D01*
X199169971Y-71655929D01*
X199160863Y-71630473D01*
X199154294Y-71604247D01*
X199150327Y-71577504D01*
X199149000Y-71550500D01*
X199149000Y-70999500D01*
X199150327Y-70972496D01*
X199154294Y-70945753D01*
X199160863Y-70919527D01*
X199169971Y-70894071D01*
X199181531Y-70869630D01*
X199195430Y-70846440D01*
X199211536Y-70824725D01*
X199229692Y-70804692D01*
X199249725Y-70786536D01*
X199271440Y-70770430D01*
X199294630Y-70756531D01*
X199319071Y-70744971D01*
X199344527Y-70735863D01*
X199370753Y-70729294D01*
X199397496Y-70725327D01*
X199424500Y-70724000D01*
X201775500Y-70724000D01*
X201802504Y-70725327D01*
G37*
G36*
X201802504Y-78175327D02*
G01*
X201829247Y-78179294D01*
X201855473Y-78185863D01*
X201880929Y-78194971D01*
X201905370Y-78206531D01*
X201928560Y-78220430D01*
X201950275Y-78236536D01*
X201970308Y-78254692D01*
X201988464Y-78274725D01*
X202004570Y-78296440D01*
X202018469Y-78319630D01*
X202030029Y-78344071D01*
X202039137Y-78369527D01*
X202045706Y-78395753D01*
X202049673Y-78422496D01*
X202051000Y-78449500D01*
X202051000Y-79000500D01*
X202049673Y-79027504D01*
X202045706Y-79054247D01*
X202039137Y-79080473D01*
X202030029Y-79105929D01*
X202018469Y-79130370D01*
X202004570Y-79153560D01*
X201988464Y-79175275D01*
X201970308Y-79195308D01*
X201950275Y-79213464D01*
X201928560Y-79229570D01*
X201905370Y-79243469D01*
X201880929Y-79255029D01*
X201855473Y-79264137D01*
X201829247Y-79270706D01*
X201802504Y-79274673D01*
X201775500Y-79276000D01*
X199424500Y-79276000D01*
X199397496Y-79274673D01*
X199370753Y-79270706D01*
X199344527Y-79264137D01*
X199319071Y-79255029D01*
X199294630Y-79243469D01*
X199271440Y-79229570D01*
X199249725Y-79213464D01*
X199229692Y-79195308D01*
X199211536Y-79175275D01*
X199195430Y-79153560D01*
X199181531Y-79130370D01*
X199169971Y-79105929D01*
X199160863Y-79080473D01*
X199154294Y-79054247D01*
X199150327Y-79027504D01*
X199149000Y-79000500D01*
X199149000Y-78449500D01*
X199150327Y-78422496D01*
X199154294Y-78395753D01*
X199160863Y-78369527D01*
X199169971Y-78344071D01*
X199181531Y-78319630D01*
X199195430Y-78296440D01*
X199211536Y-78274725D01*
X199229692Y-78254692D01*
X199249725Y-78236536D01*
X199271440Y-78220430D01*
X199294630Y-78206531D01*
X199319071Y-78194971D01*
X199344527Y-78185863D01*
X199370753Y-78179294D01*
X199397496Y-78175327D01*
X199424500Y-78174000D01*
X201775500Y-78174000D01*
X201802504Y-78175327D01*
G37*
G36*
X204692702Y-72774845D02*
G01*
X204709738Y-72777372D01*
X204726445Y-72781557D01*
X204742661Y-72787359D01*
X204758230Y-72794723D01*
X204773003Y-72803577D01*
X204786836Y-72813837D01*
X204799597Y-72825403D01*
X204811163Y-72838164D01*
X204821423Y-72851997D01*
X204830277Y-72866770D01*
X204837641Y-72882339D01*
X204843443Y-72898555D01*
X204847628Y-72915262D01*
X204850155Y-72932298D01*
X204851000Y-72949500D01*
X204851000Y-73300500D01*
X204850155Y-73317702D01*
X204847628Y-73334738D01*
X204843443Y-73351445D01*
X204837641Y-73367661D01*
X204830277Y-73383230D01*
X204821423Y-73398003D01*
X204811163Y-73411836D01*
X204799597Y-73424597D01*
X204786836Y-73436163D01*
X204773003Y-73446423D01*
X204758230Y-73455277D01*
X204742661Y-73462641D01*
X204726445Y-73468443D01*
X204709738Y-73472628D01*
X204692702Y-73475155D01*
X204675500Y-73476000D01*
X203224500Y-73476000D01*
X203207298Y-73475155D01*
X203190262Y-73472628D01*
X203173555Y-73468443D01*
X203157339Y-73462641D01*
X203141770Y-73455277D01*
X203126997Y-73446423D01*
X203113164Y-73436163D01*
X203100403Y-73424597D01*
X203088837Y-73411836D01*
X203078577Y-73398003D01*
X203069723Y-73383230D01*
X203062359Y-73367661D01*
X203056557Y-73351445D01*
X203052372Y-73334738D01*
X203049845Y-73317702D01*
X203049000Y-73300500D01*
X203049000Y-72949500D01*
X203049845Y-72932298D01*
X203052372Y-72915262D01*
X203056557Y-72898555D01*
X203062359Y-72882339D01*
X203069723Y-72866770D01*
X203078577Y-72851997D01*
X203088837Y-72838164D01*
X203100403Y-72825403D01*
X203113164Y-72813837D01*
X203126997Y-72803577D01*
X203141770Y-72794723D01*
X203157339Y-72787359D01*
X203173555Y-72781557D01*
X203190262Y-72777372D01*
X203207298Y-72774845D01*
X203224500Y-72774000D01*
X204675500Y-72774000D01*
X204692702Y-72774845D01*
G37*
G36*
X204692702Y-74024845D02*
G01*
X204709738Y-74027372D01*
X204726445Y-74031557D01*
X204742661Y-74037359D01*
X204758230Y-74044723D01*
X204773003Y-74053577D01*
X204786836Y-74063837D01*
X204799597Y-74075403D01*
X204811163Y-74088164D01*
X204821423Y-74101997D01*
X204830277Y-74116770D01*
X204837641Y-74132339D01*
X204843443Y-74148555D01*
X204847628Y-74165262D01*
X204850155Y-74182298D01*
X204851000Y-74199500D01*
X204851000Y-74550500D01*
X204850155Y-74567702D01*
X204847628Y-74584738D01*
X204843443Y-74601445D01*
X204837641Y-74617661D01*
X204830277Y-74633230D01*
X204821423Y-74648003D01*
X204811163Y-74661836D01*
X204799597Y-74674597D01*
X204786836Y-74686163D01*
X204773003Y-74696423D01*
X204758230Y-74705277D01*
X204742661Y-74712641D01*
X204726445Y-74718443D01*
X204709738Y-74722628D01*
X204692702Y-74725155D01*
X204675500Y-74726000D01*
X203224500Y-74726000D01*
X203207298Y-74725155D01*
X203190262Y-74722628D01*
X203173555Y-74718443D01*
X203157339Y-74712641D01*
X203141770Y-74705277D01*
X203126997Y-74696423D01*
X203113164Y-74686163D01*
X203100403Y-74674597D01*
X203088837Y-74661836D01*
X203078577Y-74648003D01*
X203069723Y-74633230D01*
X203062359Y-74617661D01*
X203056557Y-74601445D01*
X203052372Y-74584738D01*
X203049845Y-74567702D01*
X203049000Y-74550500D01*
X203049000Y-74199500D01*
X203049845Y-74182298D01*
X203052372Y-74165262D01*
X203056557Y-74148555D01*
X203062359Y-74132339D01*
X203069723Y-74116770D01*
X203078577Y-74101997D01*
X203088837Y-74088164D01*
X203100403Y-74075403D01*
X203113164Y-74063837D01*
X203126997Y-74053577D01*
X203141770Y-74044723D01*
X203157339Y-74037359D01*
X203173555Y-74031557D01*
X203190262Y-74027372D01*
X203207298Y-74024845D01*
X203224500Y-74024000D01*
X204675500Y-74024000D01*
X204692702Y-74024845D01*
G37*
G36*
X204692702Y-75274845D02*
G01*
X204709738Y-75277372D01*
X204726445Y-75281557D01*
X204742661Y-75287359D01*
X204758230Y-75294723D01*
X204773003Y-75303577D01*
X204786836Y-75313837D01*
X204799597Y-75325403D01*
X204811163Y-75338164D01*
X204821423Y-75351997D01*
X204830277Y-75366770D01*
X204837641Y-75382339D01*
X204843443Y-75398555D01*
X204847628Y-75415262D01*
X204850155Y-75432298D01*
X204851000Y-75449500D01*
X204851000Y-75800500D01*
X204850155Y-75817702D01*
X204847628Y-75834738D01*
X204843443Y-75851445D01*
X204837641Y-75867661D01*
X204830277Y-75883230D01*
X204821423Y-75898003D01*
X204811163Y-75911836D01*
X204799597Y-75924597D01*
X204786836Y-75936163D01*
X204773003Y-75946423D01*
X204758230Y-75955277D01*
X204742661Y-75962641D01*
X204726445Y-75968443D01*
X204709738Y-75972628D01*
X204692702Y-75975155D01*
X204675500Y-75976000D01*
X203224500Y-75976000D01*
X203207298Y-75975155D01*
X203190262Y-75972628D01*
X203173555Y-75968443D01*
X203157339Y-75962641D01*
X203141770Y-75955277D01*
X203126997Y-75946423D01*
X203113164Y-75936163D01*
X203100403Y-75924597D01*
X203088837Y-75911836D01*
X203078577Y-75898003D01*
X203069723Y-75883230D01*
X203062359Y-75867661D01*
X203056557Y-75851445D01*
X203052372Y-75834738D01*
X203049845Y-75817702D01*
X203049000Y-75800500D01*
X203049000Y-75449500D01*
X203049845Y-75432298D01*
X203052372Y-75415262D01*
X203056557Y-75398555D01*
X203062359Y-75382339D01*
X203069723Y-75366770D01*
X203078577Y-75351997D01*
X203088837Y-75338164D01*
X203100403Y-75325403D01*
X203113164Y-75313837D01*
X203126997Y-75303577D01*
X203141770Y-75294723D01*
X203157339Y-75287359D01*
X203173555Y-75281557D01*
X203190262Y-75277372D01*
X203207298Y-75274845D01*
X203224500Y-75274000D01*
X204675500Y-75274000D01*
X204692702Y-75274845D01*
G37*
G36*
X204692702Y-76524845D02*
G01*
X204709738Y-76527372D01*
X204726445Y-76531557D01*
X204742661Y-76537359D01*
X204758230Y-76544723D01*
X204773003Y-76553577D01*
X204786836Y-76563837D01*
X204799597Y-76575403D01*
X204811163Y-76588164D01*
X204821423Y-76601997D01*
X204830277Y-76616770D01*
X204837641Y-76632339D01*
X204843443Y-76648555D01*
X204847628Y-76665262D01*
X204850155Y-76682298D01*
X204851000Y-76699500D01*
X204851000Y-77050500D01*
X204850155Y-77067702D01*
X204847628Y-77084738D01*
X204843443Y-77101445D01*
X204837641Y-77117661D01*
X204830277Y-77133230D01*
X204821423Y-77148003D01*
X204811163Y-77161836D01*
X204799597Y-77174597D01*
X204786836Y-77186163D01*
X204773003Y-77196423D01*
X204758230Y-77205277D01*
X204742661Y-77212641D01*
X204726445Y-77218443D01*
X204709738Y-77222628D01*
X204692702Y-77225155D01*
X204675500Y-77226000D01*
X203224500Y-77226000D01*
X203207298Y-77225155D01*
X203190262Y-77222628D01*
X203173555Y-77218443D01*
X203157339Y-77212641D01*
X203141770Y-77205277D01*
X203126997Y-77196423D01*
X203113164Y-77186163D01*
X203100403Y-77174597D01*
X203088837Y-77161836D01*
X203078577Y-77148003D01*
X203069723Y-77133230D01*
X203062359Y-77117661D01*
X203056557Y-77101445D01*
X203052372Y-77084738D01*
X203049845Y-77067702D01*
X203049000Y-77050500D01*
X203049000Y-76699500D01*
X203049845Y-76682298D01*
X203052372Y-76665262D01*
X203056557Y-76648555D01*
X203062359Y-76632339D01*
X203069723Y-76616770D01*
X203078577Y-76601997D01*
X203088837Y-76588164D01*
X203100403Y-76575403D01*
X203113164Y-76563837D01*
X203126997Y-76553577D01*
X203141770Y-76544723D01*
X203157339Y-76537359D01*
X203173555Y-76531557D01*
X203190262Y-76527372D01*
X203207298Y-76524845D01*
X203224500Y-76524000D01*
X204675500Y-76524000D01*
X204692702Y-76524845D01*
G37*
G36*
X194302504Y-70725327D02*
G01*
X194329247Y-70729294D01*
X194355473Y-70735863D01*
X194380929Y-70744971D01*
X194405370Y-70756531D01*
X194428560Y-70770430D01*
X194450275Y-70786536D01*
X194470308Y-70804692D01*
X194488464Y-70824725D01*
X194504570Y-70846440D01*
X194518469Y-70869630D01*
X194530029Y-70894071D01*
X194539137Y-70919527D01*
X194545706Y-70945753D01*
X194549673Y-70972496D01*
X194551000Y-70999500D01*
X194551000Y-71550500D01*
X194549673Y-71577504D01*
X194545706Y-71604247D01*
X194539137Y-71630473D01*
X194530029Y-71655929D01*
X194518469Y-71680370D01*
X194504570Y-71703560D01*
X194488464Y-71725275D01*
X194470308Y-71745308D01*
X194450275Y-71763464D01*
X194428560Y-71779570D01*
X194405370Y-71793469D01*
X194380929Y-71805029D01*
X194355473Y-71814137D01*
X194329247Y-71820706D01*
X194302504Y-71824673D01*
X194275500Y-71826000D01*
X191924500Y-71826000D01*
X191897496Y-71824673D01*
X191870753Y-71820706D01*
X191844527Y-71814137D01*
X191819071Y-71805029D01*
X191794630Y-71793469D01*
X191771440Y-71779570D01*
X191749725Y-71763464D01*
X191729692Y-71745308D01*
X191711536Y-71725275D01*
X191695430Y-71703560D01*
X191681531Y-71680370D01*
X191669971Y-71655929D01*
X191660863Y-71630473D01*
X191654294Y-71604247D01*
X191650327Y-71577504D01*
X191649000Y-71550500D01*
X191649000Y-70999500D01*
X191650327Y-70972496D01*
X191654294Y-70945753D01*
X191660863Y-70919527D01*
X191669971Y-70894071D01*
X191681531Y-70869630D01*
X191695430Y-70846440D01*
X191711536Y-70824725D01*
X191729692Y-70804692D01*
X191749725Y-70786536D01*
X191771440Y-70770430D01*
X191794630Y-70756531D01*
X191819071Y-70744971D01*
X191844527Y-70735863D01*
X191870753Y-70729294D01*
X191897496Y-70725327D01*
X191924500Y-70724000D01*
X194275500Y-70724000D01*
X194302504Y-70725327D01*
G37*
G36*
X194302504Y-78175327D02*
G01*
X194329247Y-78179294D01*
X194355473Y-78185863D01*
X194380929Y-78194971D01*
X194405370Y-78206531D01*
X194428560Y-78220430D01*
X194450275Y-78236536D01*
X194470308Y-78254692D01*
X194488464Y-78274725D01*
X194504570Y-78296440D01*
X194518469Y-78319630D01*
X194530029Y-78344071D01*
X194539137Y-78369527D01*
X194545706Y-78395753D01*
X194549673Y-78422496D01*
X194551000Y-78449500D01*
X194551000Y-79000500D01*
X194549673Y-79027504D01*
X194545706Y-79054247D01*
X194539137Y-79080473D01*
X194530029Y-79105929D01*
X194518469Y-79130370D01*
X194504570Y-79153560D01*
X194488464Y-79175275D01*
X194470308Y-79195308D01*
X194450275Y-79213464D01*
X194428560Y-79229570D01*
X194405370Y-79243469D01*
X194380929Y-79255029D01*
X194355473Y-79264137D01*
X194329247Y-79270706D01*
X194302504Y-79274673D01*
X194275500Y-79276000D01*
X191924500Y-79276000D01*
X191897496Y-79274673D01*
X191870753Y-79270706D01*
X191844527Y-79264137D01*
X191819071Y-79255029D01*
X191794630Y-79243469D01*
X191771440Y-79229570D01*
X191749725Y-79213464D01*
X191729692Y-79195308D01*
X191711536Y-79175275D01*
X191695430Y-79153560D01*
X191681531Y-79130370D01*
X191669971Y-79105929D01*
X191660863Y-79080473D01*
X191654294Y-79054247D01*
X191650327Y-79027504D01*
X191649000Y-79000500D01*
X191649000Y-78449500D01*
X191650327Y-78422496D01*
X191654294Y-78395753D01*
X191660863Y-78369527D01*
X191669971Y-78344071D01*
X191681531Y-78319630D01*
X191695430Y-78296440D01*
X191711536Y-78274725D01*
X191729692Y-78254692D01*
X191749725Y-78236536D01*
X191771440Y-78220430D01*
X191794630Y-78206531D01*
X191819071Y-78194971D01*
X191844527Y-78185863D01*
X191870753Y-78179294D01*
X191897496Y-78175327D01*
X191924500Y-78174000D01*
X194275500Y-78174000D01*
X194302504Y-78175327D01*
G37*
G36*
X197192702Y-72774845D02*
G01*
X197209738Y-72777372D01*
X197226445Y-72781557D01*
X197242661Y-72787359D01*
X197258230Y-72794723D01*
X197273003Y-72803577D01*
X197286836Y-72813837D01*
X197299597Y-72825403D01*
X197311163Y-72838164D01*
X197321423Y-72851997D01*
X197330277Y-72866770D01*
X197337641Y-72882339D01*
X197343443Y-72898555D01*
X197347628Y-72915262D01*
X197350155Y-72932298D01*
X197351000Y-72949500D01*
X197351000Y-73300500D01*
X197350155Y-73317702D01*
X197347628Y-73334738D01*
X197343443Y-73351445D01*
X197337641Y-73367661D01*
X197330277Y-73383230D01*
X197321423Y-73398003D01*
X197311163Y-73411836D01*
X197299597Y-73424597D01*
X197286836Y-73436163D01*
X197273003Y-73446423D01*
X197258230Y-73455277D01*
X197242661Y-73462641D01*
X197226445Y-73468443D01*
X197209738Y-73472628D01*
X197192702Y-73475155D01*
X197175500Y-73476000D01*
X195724500Y-73476000D01*
X195707298Y-73475155D01*
X195690262Y-73472628D01*
X195673555Y-73468443D01*
X195657339Y-73462641D01*
X195641770Y-73455277D01*
X195626997Y-73446423D01*
X195613164Y-73436163D01*
X195600403Y-73424597D01*
X195588837Y-73411836D01*
X195578577Y-73398003D01*
X195569723Y-73383230D01*
X195562359Y-73367661D01*
X195556557Y-73351445D01*
X195552372Y-73334738D01*
X195549845Y-73317702D01*
X195549000Y-73300500D01*
X195549000Y-72949500D01*
X195549845Y-72932298D01*
X195552372Y-72915262D01*
X195556557Y-72898555D01*
X195562359Y-72882339D01*
X195569723Y-72866770D01*
X195578577Y-72851997D01*
X195588837Y-72838164D01*
X195600403Y-72825403D01*
X195613164Y-72813837D01*
X195626997Y-72803577D01*
X195641770Y-72794723D01*
X195657339Y-72787359D01*
X195673555Y-72781557D01*
X195690262Y-72777372D01*
X195707298Y-72774845D01*
X195724500Y-72774000D01*
X197175500Y-72774000D01*
X197192702Y-72774845D01*
G37*
G36*
X197192702Y-74024845D02*
G01*
X197209738Y-74027372D01*
X197226445Y-74031557D01*
X197242661Y-74037359D01*
X197258230Y-74044723D01*
X197273003Y-74053577D01*
X197286836Y-74063837D01*
X197299597Y-74075403D01*
X197311163Y-74088164D01*
X197321423Y-74101997D01*
X197330277Y-74116770D01*
X197337641Y-74132339D01*
X197343443Y-74148555D01*
X197347628Y-74165262D01*
X197350155Y-74182298D01*
X197351000Y-74199500D01*
X197351000Y-74550500D01*
X197350155Y-74567702D01*
X197347628Y-74584738D01*
X197343443Y-74601445D01*
X197337641Y-74617661D01*
X197330277Y-74633230D01*
X197321423Y-74648003D01*
X197311163Y-74661836D01*
X197299597Y-74674597D01*
X197286836Y-74686163D01*
X197273003Y-74696423D01*
X197258230Y-74705277D01*
X197242661Y-74712641D01*
X197226445Y-74718443D01*
X197209738Y-74722628D01*
X197192702Y-74725155D01*
X197175500Y-74726000D01*
X195724500Y-74726000D01*
X195707298Y-74725155D01*
X195690262Y-74722628D01*
X195673555Y-74718443D01*
X195657339Y-74712641D01*
X195641770Y-74705277D01*
X195626997Y-74696423D01*
X195613164Y-74686163D01*
X195600403Y-74674597D01*
X195588837Y-74661836D01*
X195578577Y-74648003D01*
X195569723Y-74633230D01*
X195562359Y-74617661D01*
X195556557Y-74601445D01*
X195552372Y-74584738D01*
X195549845Y-74567702D01*
X195549000Y-74550500D01*
X195549000Y-74199500D01*
X195549845Y-74182298D01*
X195552372Y-74165262D01*
X195556557Y-74148555D01*
X195562359Y-74132339D01*
X195569723Y-74116770D01*
X195578577Y-74101997D01*
X195588837Y-74088164D01*
X195600403Y-74075403D01*
X195613164Y-74063837D01*
X195626997Y-74053577D01*
X195641770Y-74044723D01*
X195657339Y-74037359D01*
X195673555Y-74031557D01*
X195690262Y-74027372D01*
X195707298Y-74024845D01*
X195724500Y-74024000D01*
X197175500Y-74024000D01*
X197192702Y-74024845D01*
G37*
G36*
X197192702Y-75274845D02*
G01*
X197209738Y-75277372D01*
X197226445Y-75281557D01*
X197242661Y-75287359D01*
X197258230Y-75294723D01*
X197273003Y-75303577D01*
X197286836Y-75313837D01*
X197299597Y-75325403D01*
X197311163Y-75338164D01*
X197321423Y-75351997D01*
X197330277Y-75366770D01*
X197337641Y-75382339D01*
X197343443Y-75398555D01*
X197347628Y-75415262D01*
X197350155Y-75432298D01*
X197351000Y-75449500D01*
X197351000Y-75800500D01*
X197350155Y-75817702D01*
X197347628Y-75834738D01*
X197343443Y-75851445D01*
X197337641Y-75867661D01*
X197330277Y-75883230D01*
X197321423Y-75898003D01*
X197311163Y-75911836D01*
X197299597Y-75924597D01*
X197286836Y-75936163D01*
X197273003Y-75946423D01*
X197258230Y-75955277D01*
X197242661Y-75962641D01*
X197226445Y-75968443D01*
X197209738Y-75972628D01*
X197192702Y-75975155D01*
X197175500Y-75976000D01*
X195724500Y-75976000D01*
X195707298Y-75975155D01*
X195690262Y-75972628D01*
X195673555Y-75968443D01*
X195657339Y-75962641D01*
X195641770Y-75955277D01*
X195626997Y-75946423D01*
X195613164Y-75936163D01*
X195600403Y-75924597D01*
X195588837Y-75911836D01*
X195578577Y-75898003D01*
X195569723Y-75883230D01*
X195562359Y-75867661D01*
X195556557Y-75851445D01*
X195552372Y-75834738D01*
X195549845Y-75817702D01*
X195549000Y-75800500D01*
X195549000Y-75449500D01*
X195549845Y-75432298D01*
X195552372Y-75415262D01*
X195556557Y-75398555D01*
X195562359Y-75382339D01*
X195569723Y-75366770D01*
X195578577Y-75351997D01*
X195588837Y-75338164D01*
X195600403Y-75325403D01*
X195613164Y-75313837D01*
X195626997Y-75303577D01*
X195641770Y-75294723D01*
X195657339Y-75287359D01*
X195673555Y-75281557D01*
X195690262Y-75277372D01*
X195707298Y-75274845D01*
X195724500Y-75274000D01*
X197175500Y-75274000D01*
X197192702Y-75274845D01*
G37*
G36*
X197192702Y-76524845D02*
G01*
X197209738Y-76527372D01*
X197226445Y-76531557D01*
X197242661Y-76537359D01*
X197258230Y-76544723D01*
X197273003Y-76553577D01*
X197286836Y-76563837D01*
X197299597Y-76575403D01*
X197311163Y-76588164D01*
X197321423Y-76601997D01*
X197330277Y-76616770D01*
X197337641Y-76632339D01*
X197343443Y-76648555D01*
X197347628Y-76665262D01*
X197350155Y-76682298D01*
X197351000Y-76699500D01*
X197351000Y-77050500D01*
X197350155Y-77067702D01*
X197347628Y-77084738D01*
X197343443Y-77101445D01*
X197337641Y-77117661D01*
X197330277Y-77133230D01*
X197321423Y-77148003D01*
X197311163Y-77161836D01*
X197299597Y-77174597D01*
X197286836Y-77186163D01*
X197273003Y-77196423D01*
X197258230Y-77205277D01*
X197242661Y-77212641D01*
X197226445Y-77218443D01*
X197209738Y-77222628D01*
X197192702Y-77225155D01*
X197175500Y-77226000D01*
X195724500Y-77226000D01*
X195707298Y-77225155D01*
X195690262Y-77222628D01*
X195673555Y-77218443D01*
X195657339Y-77212641D01*
X195641770Y-77205277D01*
X195626997Y-77196423D01*
X195613164Y-77186163D01*
X195600403Y-77174597D01*
X195588837Y-77161836D01*
X195578577Y-77148003D01*
X195569723Y-77133230D01*
X195562359Y-77117661D01*
X195556557Y-77101445D01*
X195552372Y-77084738D01*
X195549845Y-77067702D01*
X195549000Y-77050500D01*
X195549000Y-76699500D01*
X195549845Y-76682298D01*
X195552372Y-76665262D01*
X195556557Y-76648555D01*
X195562359Y-76632339D01*
X195569723Y-76616770D01*
X195578577Y-76601997D01*
X195588837Y-76588164D01*
X195600403Y-76575403D01*
X195613164Y-76563837D01*
X195626997Y-76553577D01*
X195641770Y-76544723D01*
X195657339Y-76537359D01*
X195673555Y-76531557D01*
X195690262Y-76527372D01*
X195707298Y-76524845D01*
X195724500Y-76524000D01*
X197175500Y-76524000D01*
X197192702Y-76524845D01*
G37*
G36*
X209802504Y-71975327D02*
G01*
X209829247Y-71979294D01*
X209855473Y-71985863D01*
X209880929Y-71994971D01*
X209905370Y-72006531D01*
X209928560Y-72020430D01*
X209950275Y-72036536D01*
X209970308Y-72054692D01*
X209988464Y-72074725D01*
X210004570Y-72096440D01*
X210018469Y-72119630D01*
X210030029Y-72144071D01*
X210039137Y-72169527D01*
X210045706Y-72195753D01*
X210049673Y-72222496D01*
X210051000Y-72249500D01*
X210051000Y-72800500D01*
X210049673Y-72827504D01*
X210045706Y-72854247D01*
X210039137Y-72880473D01*
X210030029Y-72905929D01*
X210018469Y-72930370D01*
X210004570Y-72953560D01*
X209988464Y-72975275D01*
X209970308Y-72995308D01*
X209950275Y-73013464D01*
X209928560Y-73029570D01*
X209905370Y-73043469D01*
X209880929Y-73055029D01*
X209855473Y-73064137D01*
X209829247Y-73070706D01*
X209802504Y-73074673D01*
X209775500Y-73076000D01*
X207424500Y-73076000D01*
X207397496Y-73074673D01*
X207370753Y-73070706D01*
X207344527Y-73064137D01*
X207319071Y-73055029D01*
X207294630Y-73043469D01*
X207271440Y-73029570D01*
X207249725Y-73013464D01*
X207229692Y-72995308D01*
X207211536Y-72975275D01*
X207195430Y-72953560D01*
X207181531Y-72930370D01*
X207169971Y-72905929D01*
X207160863Y-72880473D01*
X207154294Y-72854247D01*
X207150327Y-72827504D01*
X207149000Y-72800500D01*
X207149000Y-72249500D01*
X207150327Y-72222496D01*
X207154294Y-72195753D01*
X207160863Y-72169527D01*
X207169971Y-72144071D01*
X207181531Y-72119630D01*
X207195430Y-72096440D01*
X207211536Y-72074725D01*
X207229692Y-72054692D01*
X207249725Y-72036536D01*
X207271440Y-72020430D01*
X207294630Y-72006531D01*
X207319071Y-71994971D01*
X207344527Y-71985863D01*
X207370753Y-71979294D01*
X207397496Y-71975327D01*
X207424500Y-71974000D01*
X209775500Y-71974000D01*
X209802504Y-71975327D01*
G37*
G36*
X209802504Y-76925327D02*
G01*
X209829247Y-76929294D01*
X209855473Y-76935863D01*
X209880929Y-76944971D01*
X209905370Y-76956531D01*
X209928560Y-76970430D01*
X209950275Y-76986536D01*
X209970308Y-77004692D01*
X209988464Y-77024725D01*
X210004570Y-77046440D01*
X210018469Y-77069630D01*
X210030029Y-77094071D01*
X210039137Y-77119527D01*
X210045706Y-77145753D01*
X210049673Y-77172496D01*
X210051000Y-77199500D01*
X210051000Y-77750500D01*
X210049673Y-77777504D01*
X210045706Y-77804247D01*
X210039137Y-77830473D01*
X210030029Y-77855929D01*
X210018469Y-77880370D01*
X210004570Y-77903560D01*
X209988464Y-77925275D01*
X209970308Y-77945308D01*
X209950275Y-77963464D01*
X209928560Y-77979570D01*
X209905370Y-77993469D01*
X209880929Y-78005029D01*
X209855473Y-78014137D01*
X209829247Y-78020706D01*
X209802504Y-78024673D01*
X209775500Y-78026000D01*
X207424500Y-78026000D01*
X207397496Y-78024673D01*
X207370753Y-78020706D01*
X207344527Y-78014137D01*
X207319071Y-78005029D01*
X207294630Y-77993469D01*
X207271440Y-77979570D01*
X207249725Y-77963464D01*
X207229692Y-77945308D01*
X207211536Y-77925275D01*
X207195430Y-77903560D01*
X207181531Y-77880370D01*
X207169971Y-77855929D01*
X207160863Y-77830473D01*
X207154294Y-77804247D01*
X207150327Y-77777504D01*
X207149000Y-77750500D01*
X207149000Y-77199500D01*
X207150327Y-77172496D01*
X207154294Y-77145753D01*
X207160863Y-77119527D01*
X207169971Y-77094071D01*
X207181531Y-77069630D01*
X207195430Y-77046440D01*
X207211536Y-77024725D01*
X207229692Y-77004692D01*
X207249725Y-76986536D01*
X207271440Y-76970430D01*
X207294630Y-76956531D01*
X207319071Y-76944971D01*
X207344527Y-76935863D01*
X207370753Y-76929294D01*
X207397496Y-76925327D01*
X207424500Y-76924000D01*
X209775500Y-76924000D01*
X209802504Y-76925327D01*
G37*
G36*
X212692702Y-74024845D02*
G01*
X212709738Y-74027372D01*
X212726445Y-74031557D01*
X212742661Y-74037359D01*
X212758230Y-74044723D01*
X212773003Y-74053577D01*
X212786836Y-74063837D01*
X212799597Y-74075403D01*
X212811163Y-74088164D01*
X212821423Y-74101997D01*
X212830277Y-74116770D01*
X212837641Y-74132339D01*
X212843443Y-74148555D01*
X212847628Y-74165262D01*
X212850155Y-74182298D01*
X212851000Y-74199500D01*
X212851000Y-74550500D01*
X212850155Y-74567702D01*
X212847628Y-74584738D01*
X212843443Y-74601445D01*
X212837641Y-74617661D01*
X212830277Y-74633230D01*
X212821423Y-74648003D01*
X212811163Y-74661836D01*
X212799597Y-74674597D01*
X212786836Y-74686163D01*
X212773003Y-74696423D01*
X212758230Y-74705277D01*
X212742661Y-74712641D01*
X212726445Y-74718443D01*
X212709738Y-74722628D01*
X212692702Y-74725155D01*
X212675500Y-74726000D01*
X211224500Y-74726000D01*
X211207298Y-74725155D01*
X211190262Y-74722628D01*
X211173555Y-74718443D01*
X211157339Y-74712641D01*
X211141770Y-74705277D01*
X211126997Y-74696423D01*
X211113164Y-74686163D01*
X211100403Y-74674597D01*
X211088837Y-74661836D01*
X211078577Y-74648003D01*
X211069723Y-74633230D01*
X211062359Y-74617661D01*
X211056557Y-74601445D01*
X211052372Y-74584738D01*
X211049845Y-74567702D01*
X211049000Y-74550500D01*
X211049000Y-74199500D01*
X211049845Y-74182298D01*
X211052372Y-74165262D01*
X211056557Y-74148555D01*
X211062359Y-74132339D01*
X211069723Y-74116770D01*
X211078577Y-74101997D01*
X211088837Y-74088164D01*
X211100403Y-74075403D01*
X211113164Y-74063837D01*
X211126997Y-74053577D01*
X211141770Y-74044723D01*
X211157339Y-74037359D01*
X211173555Y-74031557D01*
X211190262Y-74027372D01*
X211207298Y-74024845D01*
X211224500Y-74024000D01*
X212675500Y-74024000D01*
X212692702Y-74024845D01*
G37*
G36*
X212692702Y-75274845D02*
G01*
X212709738Y-75277372D01*
X212726445Y-75281557D01*
X212742661Y-75287359D01*
X212758230Y-75294723D01*
X212773003Y-75303577D01*
X212786836Y-75313837D01*
X212799597Y-75325403D01*
X212811163Y-75338164D01*
X212821423Y-75351997D01*
X212830277Y-75366770D01*
X212837641Y-75382339D01*
X212843443Y-75398555D01*
X212847628Y-75415262D01*
X212850155Y-75432298D01*
X212851000Y-75449500D01*
X212851000Y-75800500D01*
X212850155Y-75817702D01*
X212847628Y-75834738D01*
X212843443Y-75851445D01*
X212837641Y-75867661D01*
X212830277Y-75883230D01*
X212821423Y-75898003D01*
X212811163Y-75911836D01*
X212799597Y-75924597D01*
X212786836Y-75936163D01*
X212773003Y-75946423D01*
X212758230Y-75955277D01*
X212742661Y-75962641D01*
X212726445Y-75968443D01*
X212709738Y-75972628D01*
X212692702Y-75975155D01*
X212675500Y-75976000D01*
X211224500Y-75976000D01*
X211207298Y-75975155D01*
X211190262Y-75972628D01*
X211173555Y-75968443D01*
X211157339Y-75962641D01*
X211141770Y-75955277D01*
X211126997Y-75946423D01*
X211113164Y-75936163D01*
X211100403Y-75924597D01*
X211088837Y-75911836D01*
X211078577Y-75898003D01*
X211069723Y-75883230D01*
X211062359Y-75867661D01*
X211056557Y-75851445D01*
X211052372Y-75834738D01*
X211049845Y-75817702D01*
X211049000Y-75800500D01*
X211049000Y-75449500D01*
X211049845Y-75432298D01*
X211052372Y-75415262D01*
X211056557Y-75398555D01*
X211062359Y-75382339D01*
X211069723Y-75366770D01*
X211078577Y-75351997D01*
X211088837Y-75338164D01*
X211100403Y-75325403D01*
X211113164Y-75313837D01*
X211126997Y-75303577D01*
X211141770Y-75294723D01*
X211157339Y-75287359D01*
X211173555Y-75281557D01*
X211190262Y-75277372D01*
X211207298Y-75274845D01*
X211224500Y-75274000D01*
X212675500Y-75274000D01*
X212692702Y-75274845D01*
G37*
M02*
