G04 #@! TF.GenerationSoftware,KiCad,Pcbnew,(5.1.5)-3*
G04 #@! TF.CreationDate,2020-09-29T13:04:06-07:00*
G04 #@! TF.ProjectId,can_servo_x3_breakout,63616e5f-7365-4727-966f-5f78335f6272,rev?*
G04 #@! TF.SameCoordinates,Original*
G04 #@! TF.FileFunction,Copper,L2,Bot*
G04 #@! TF.FilePolarity,Positive*
%FSLAX46Y46*%
G04 Gerber Fmt 4.6, Leading zero omitted, Abs format (unit mm)*
G04 Created by KiCad (PCBNEW (5.1.5)-3) date 2020-09-29 13:04:06*
%MOMM*%
%LPD*%
G04 APERTURE LIST*
%ADD10C,0.010000*%
%ADD11O,1.700000X1.700000*%
%ADD12R,1.700000X1.700000*%
%ADD13C,0.800000*%
%ADD14C,0.250000*%
%ADD15C,0.254000*%
G04 APERTURE END LIST*
D10*
G36*
X227209350Y-76769695D02*
G01*
X227424157Y-76849749D01*
X227630025Y-76926479D01*
X227820704Y-76997558D01*
X227989947Y-77060654D01*
X228131505Y-77113438D01*
X228239131Y-77153582D01*
X228306574Y-77178755D01*
X228314250Y-77181623D01*
X228473000Y-77240963D01*
X228473000Y-76643918D01*
X228028500Y-76492100D01*
X228014616Y-75651134D01*
X228243808Y-75577889D01*
X228473000Y-75504643D01*
X228473000Y-74930436D01*
X228314250Y-74989521D01*
X228255054Y-75011574D01*
X228154511Y-75049057D01*
X228018867Y-75099640D01*
X227854368Y-75160992D01*
X227667260Y-75230784D01*
X227609400Y-75252368D01*
X227609400Y-75796302D01*
X227609400Y-76346838D01*
X227228641Y-76216269D01*
X227099358Y-76171178D01*
X226988879Y-76131202D01*
X226905315Y-76099391D01*
X226856774Y-76078797D01*
X226847824Y-76073000D01*
X226870508Y-76060820D01*
X226933208Y-76035398D01*
X227027832Y-75999809D01*
X227146288Y-75957126D01*
X227228582Y-75928301D01*
X227609400Y-75796302D01*
X227609400Y-75252368D01*
X227463792Y-75306687D01*
X227250209Y-75386370D01*
X227209350Y-75401614D01*
X226263200Y-75754623D01*
X226263200Y-76417108D01*
X227209350Y-76769695D01*
G37*
X227209350Y-76769695D02*
X227424157Y-76849749D01*
X227630025Y-76926479D01*
X227820704Y-76997558D01*
X227989947Y-77060654D01*
X228131505Y-77113438D01*
X228239131Y-77153582D01*
X228306574Y-77178755D01*
X228314250Y-77181623D01*
X228473000Y-77240963D01*
X228473000Y-76643918D01*
X228028500Y-76492100D01*
X228014616Y-75651134D01*
X228243808Y-75577889D01*
X228473000Y-75504643D01*
X228473000Y-74930436D01*
X228314250Y-74989521D01*
X228255054Y-75011574D01*
X228154511Y-75049057D01*
X228018867Y-75099640D01*
X227854368Y-75160992D01*
X227667260Y-75230784D01*
X227609400Y-75252368D01*
X227609400Y-75796302D01*
X227609400Y-76346838D01*
X227228641Y-76216269D01*
X227099358Y-76171178D01*
X226988879Y-76131202D01*
X226905315Y-76099391D01*
X226856774Y-76078797D01*
X226847824Y-76073000D01*
X226870508Y-76060820D01*
X226933208Y-76035398D01*
X227027832Y-75999809D01*
X227146288Y-75957126D01*
X227228582Y-75928301D01*
X227609400Y-75796302D01*
X227609400Y-75252368D01*
X227463792Y-75306687D01*
X227250209Y-75386370D01*
X227209350Y-75401614D01*
X226263200Y-75754623D01*
X226263200Y-76417108D01*
X227209350Y-76769695D01*
G36*
X227209350Y-72426295D02*
G01*
X227424157Y-72506349D01*
X227630025Y-72583079D01*
X227820704Y-72654158D01*
X227989947Y-72717254D01*
X228131505Y-72770038D01*
X228239131Y-72810182D01*
X228306574Y-72835355D01*
X228314250Y-72838223D01*
X228473000Y-72897563D01*
X228473000Y-72300518D01*
X228028500Y-72148700D01*
X228014616Y-71307734D01*
X228243808Y-71234489D01*
X228473000Y-71161243D01*
X228473000Y-70587036D01*
X228314250Y-70646121D01*
X228255054Y-70668174D01*
X228154511Y-70705657D01*
X228018867Y-70756240D01*
X227854368Y-70817592D01*
X227667260Y-70887384D01*
X227609400Y-70908968D01*
X227609400Y-71452902D01*
X227609400Y-72003438D01*
X227228641Y-71872869D01*
X227099358Y-71827778D01*
X226988879Y-71787802D01*
X226905315Y-71755991D01*
X226856774Y-71735397D01*
X226847824Y-71729600D01*
X226870508Y-71717420D01*
X226933208Y-71691998D01*
X227027832Y-71656409D01*
X227146288Y-71613726D01*
X227228582Y-71584901D01*
X227609400Y-71452902D01*
X227609400Y-70908968D01*
X227463792Y-70963287D01*
X227250209Y-71042970D01*
X227209350Y-71058214D01*
X226263200Y-71411223D01*
X226263200Y-72073708D01*
X227209350Y-72426295D01*
G37*
X227209350Y-72426295D02*
X227424157Y-72506349D01*
X227630025Y-72583079D01*
X227820704Y-72654158D01*
X227989947Y-72717254D01*
X228131505Y-72770038D01*
X228239131Y-72810182D01*
X228306574Y-72835355D01*
X228314250Y-72838223D01*
X228473000Y-72897563D01*
X228473000Y-72300518D01*
X228028500Y-72148700D01*
X228014616Y-71307734D01*
X228243808Y-71234489D01*
X228473000Y-71161243D01*
X228473000Y-70587036D01*
X228314250Y-70646121D01*
X228255054Y-70668174D01*
X228154511Y-70705657D01*
X228018867Y-70756240D01*
X227854368Y-70817592D01*
X227667260Y-70887384D01*
X227609400Y-70908968D01*
X227609400Y-71452902D01*
X227609400Y-72003438D01*
X227228641Y-71872869D01*
X227099358Y-71827778D01*
X226988879Y-71787802D01*
X226905315Y-71755991D01*
X226856774Y-71735397D01*
X226847824Y-71729600D01*
X226870508Y-71717420D01*
X226933208Y-71691998D01*
X227027832Y-71656409D01*
X227146288Y-71613726D01*
X227228582Y-71584901D01*
X227609400Y-71452902D01*
X227609400Y-70908968D01*
X227463792Y-70963287D01*
X227250209Y-71042970D01*
X227209350Y-71058214D01*
X226263200Y-71411223D01*
X226263200Y-72073708D01*
X227209350Y-72426295D01*
G36*
X226695000Y-74803000D02*
G01*
X226695000Y-73787000D01*
X227101400Y-73787000D01*
X227101400Y-74726800D01*
X227533200Y-74726800D01*
X227533200Y-73787000D01*
X228473000Y-73787000D01*
X228473000Y-73202800D01*
X226263200Y-73202800D01*
X226263200Y-74803000D01*
X226695000Y-74803000D01*
G37*
X226695000Y-74803000D02*
X226695000Y-73787000D01*
X227101400Y-73787000D01*
X227101400Y-74726800D01*
X227533200Y-74726800D01*
X227533200Y-73787000D01*
X228473000Y-73787000D01*
X228473000Y-73202800D01*
X226263200Y-73202800D01*
X226263200Y-74803000D01*
X226695000Y-74803000D01*
D11*
X222148400Y-87579200D03*
X222148400Y-85039200D03*
X222148400Y-82499200D03*
D12*
X222148400Y-79959200D03*
D11*
X219608400Y-87579200D03*
X219608400Y-85039200D03*
X219608400Y-82499200D03*
D12*
X219608400Y-79959200D03*
D11*
X217068400Y-87579200D03*
X217068400Y-85039200D03*
X217068400Y-82499200D03*
D12*
X217068400Y-79959200D03*
D11*
X222250000Y-71120000D03*
X222250000Y-73660000D03*
D12*
X222250000Y-76200000D03*
D13*
X228346000Y-87376000D03*
X228346000Y-82550000D03*
X208534000Y-70866000D03*
X213360000Y-75438000D03*
X208534000Y-75438000D03*
X213360000Y-70866000D03*
X209042000Y-83312000D03*
X218948000Y-75438000D03*
X219202000Y-71120000D03*
X214122000Y-86614000D03*
D14*
X215968400Y-79959200D02*
X217068400Y-79959200D01*
X214122000Y-81805600D02*
X215968400Y-79959200D01*
X214122000Y-86614000D02*
X214122000Y-81805600D01*
X219590800Y-79959200D02*
X222148400Y-79959200D01*
X217068400Y-79959200D02*
X219590800Y-79959200D01*
X222250000Y-79857600D02*
X222148400Y-79959200D01*
X222250000Y-76200000D02*
X222250000Y-79857600D01*
X221150000Y-76200000D02*
X222250000Y-76200000D01*
X220472000Y-75522000D02*
X221150000Y-76200000D01*
X220472000Y-72898000D02*
X220472000Y-75522000D01*
X222250000Y-71120000D02*
X220472000Y-72898000D01*
D15*
G36*
X232128356Y-69776580D02*
G01*
X232186405Y-69807445D01*
X232237343Y-69848989D01*
X232279248Y-69899644D01*
X232310515Y-69957471D01*
X232313534Y-69967222D01*
X232305000Y-70053866D01*
X232305001Y-89034135D01*
X232313577Y-89121210D01*
X232311420Y-89128357D01*
X232280554Y-89186406D01*
X232239011Y-89237343D01*
X232188356Y-89279248D01*
X232130529Y-89310515D01*
X232120778Y-89313534D01*
X232034135Y-89305000D01*
X208965865Y-89305000D01*
X208863756Y-89315057D01*
X208842781Y-89321420D01*
X208351874Y-89273286D01*
X207728430Y-89085057D01*
X207153427Y-88779323D01*
X206648752Y-88367721D01*
X206233638Y-87865933D01*
X205923896Y-87293077D01*
X205731318Y-86670961D01*
X205677645Y-86160301D01*
X205684943Y-86136244D01*
X205695000Y-86034135D01*
X205695000Y-80809200D01*
X215580328Y-80809200D01*
X215592588Y-80933682D01*
X215628898Y-81053380D01*
X215687863Y-81163694D01*
X215767215Y-81260385D01*
X215863906Y-81339737D01*
X215974220Y-81398702D01*
X216046780Y-81420713D01*
X215914925Y-81552568D01*
X215752410Y-81795789D01*
X215640468Y-82066042D01*
X215583400Y-82352940D01*
X215583400Y-82645460D01*
X215640468Y-82932358D01*
X215752410Y-83202611D01*
X215914925Y-83445832D01*
X216121768Y-83652675D01*
X216296160Y-83769200D01*
X216121768Y-83885725D01*
X215914925Y-84092568D01*
X215752410Y-84335789D01*
X215640468Y-84606042D01*
X215583400Y-84892940D01*
X215583400Y-85185460D01*
X215640468Y-85472358D01*
X215752410Y-85742611D01*
X215914925Y-85985832D01*
X216121768Y-86192675D01*
X216296160Y-86309200D01*
X216121768Y-86425725D01*
X215914925Y-86632568D01*
X215752410Y-86875789D01*
X215640468Y-87146042D01*
X215583400Y-87432940D01*
X215583400Y-87725460D01*
X215640468Y-88012358D01*
X215752410Y-88282611D01*
X215914925Y-88525832D01*
X216121768Y-88732675D01*
X216364989Y-88895190D01*
X216635242Y-89007132D01*
X216922140Y-89064200D01*
X217214660Y-89064200D01*
X217501558Y-89007132D01*
X217771811Y-88895190D01*
X218015032Y-88732675D01*
X218221875Y-88525832D01*
X218338400Y-88351440D01*
X218454925Y-88525832D01*
X218661768Y-88732675D01*
X218904989Y-88895190D01*
X219175242Y-89007132D01*
X219462140Y-89064200D01*
X219754660Y-89064200D01*
X220041558Y-89007132D01*
X220311811Y-88895190D01*
X220555032Y-88732675D01*
X220761875Y-88525832D01*
X220878400Y-88351440D01*
X220994925Y-88525832D01*
X221201768Y-88732675D01*
X221444989Y-88895190D01*
X221715242Y-89007132D01*
X222002140Y-89064200D01*
X222294660Y-89064200D01*
X222581558Y-89007132D01*
X222851811Y-88895190D01*
X223095032Y-88732675D01*
X223301875Y-88525832D01*
X223464390Y-88282611D01*
X223576332Y-88012358D01*
X223633400Y-87725460D01*
X223633400Y-87432940D01*
X223576332Y-87146042D01*
X223464390Y-86875789D01*
X223301875Y-86632568D01*
X223095032Y-86425725D01*
X222920640Y-86309200D01*
X223095032Y-86192675D01*
X223301875Y-85985832D01*
X223464390Y-85742611D01*
X223576332Y-85472358D01*
X223633400Y-85185460D01*
X223633400Y-84892940D01*
X223576332Y-84606042D01*
X223464390Y-84335789D01*
X223301875Y-84092568D01*
X223095032Y-83885725D01*
X222920640Y-83769200D01*
X223095032Y-83652675D01*
X223301875Y-83445832D01*
X223464390Y-83202611D01*
X223576332Y-82932358D01*
X223633400Y-82645460D01*
X223633400Y-82352940D01*
X223576332Y-82066042D01*
X223464390Y-81795789D01*
X223301875Y-81552568D01*
X223170020Y-81420713D01*
X223242580Y-81398702D01*
X223352894Y-81339737D01*
X223449585Y-81260385D01*
X223528937Y-81163694D01*
X223587902Y-81053380D01*
X223624212Y-80933682D01*
X223636472Y-80809200D01*
X223633400Y-80244950D01*
X223474650Y-80086200D01*
X222275400Y-80086200D01*
X222275400Y-80106200D01*
X222021400Y-80106200D01*
X222021400Y-80086200D01*
X219735400Y-80086200D01*
X219735400Y-80106200D01*
X219481400Y-80106200D01*
X219481400Y-80086200D01*
X217195400Y-80086200D01*
X217195400Y-80106200D01*
X216941400Y-80106200D01*
X216941400Y-80086200D01*
X215742150Y-80086200D01*
X215583400Y-80244950D01*
X215580328Y-80809200D01*
X205695000Y-80809200D01*
X205695000Y-79109200D01*
X215580328Y-79109200D01*
X215583400Y-79673450D01*
X215742150Y-79832200D01*
X216941400Y-79832200D01*
X216941400Y-78632950D01*
X217195400Y-78632950D01*
X217195400Y-79832200D01*
X219481400Y-79832200D01*
X219481400Y-78632950D01*
X219735400Y-78632950D01*
X219735400Y-79832200D01*
X222021400Y-79832200D01*
X222021400Y-78632950D01*
X222275400Y-78632950D01*
X222275400Y-79832200D01*
X223474650Y-79832200D01*
X223633400Y-79673450D01*
X223636472Y-79109200D01*
X223624212Y-78984718D01*
X223587902Y-78865020D01*
X223528937Y-78754706D01*
X223449585Y-78658015D01*
X223352894Y-78578663D01*
X223242580Y-78519698D01*
X223122882Y-78483388D01*
X222998400Y-78471128D01*
X222434150Y-78474200D01*
X222275400Y-78632950D01*
X222021400Y-78632950D01*
X221862650Y-78474200D01*
X221298400Y-78471128D01*
X221173918Y-78483388D01*
X221054220Y-78519698D01*
X220943906Y-78578663D01*
X220878400Y-78632422D01*
X220812894Y-78578663D01*
X220702580Y-78519698D01*
X220582882Y-78483388D01*
X220458400Y-78471128D01*
X219894150Y-78474200D01*
X219735400Y-78632950D01*
X219481400Y-78632950D01*
X219322650Y-78474200D01*
X218758400Y-78471128D01*
X218633918Y-78483388D01*
X218514220Y-78519698D01*
X218403906Y-78578663D01*
X218338400Y-78632422D01*
X218272894Y-78578663D01*
X218162580Y-78519698D01*
X218042882Y-78483388D01*
X217918400Y-78471128D01*
X217354150Y-78474200D01*
X217195400Y-78632950D01*
X216941400Y-78632950D01*
X216782650Y-78474200D01*
X216218400Y-78471128D01*
X216093918Y-78483388D01*
X215974220Y-78519698D01*
X215863906Y-78578663D01*
X215767215Y-78658015D01*
X215687863Y-78754706D01*
X215628898Y-78865020D01*
X215592588Y-78984718D01*
X215580328Y-79109200D01*
X205695000Y-79109200D01*
X205695000Y-77050000D01*
X220761928Y-77050000D01*
X220774188Y-77174482D01*
X220810498Y-77294180D01*
X220869463Y-77404494D01*
X220948815Y-77501185D01*
X221045506Y-77580537D01*
X221155820Y-77639502D01*
X221275518Y-77675812D01*
X221400000Y-77688072D01*
X221964250Y-77685000D01*
X222123000Y-77526250D01*
X222123000Y-76327000D01*
X222377000Y-76327000D01*
X222377000Y-77526250D01*
X222535750Y-77685000D01*
X223100000Y-77688072D01*
X223224482Y-77675812D01*
X223344180Y-77639502D01*
X223454494Y-77580537D01*
X223551185Y-77501185D01*
X223630537Y-77404494D01*
X223689502Y-77294180D01*
X223725812Y-77174482D01*
X223738072Y-77050000D01*
X223735000Y-76485750D01*
X223576250Y-76327000D01*
X222377000Y-76327000D01*
X222123000Y-76327000D01*
X220923750Y-76327000D01*
X220765000Y-76485750D01*
X220761928Y-77050000D01*
X205695000Y-77050000D01*
X205695000Y-75350000D01*
X220761928Y-75350000D01*
X220765000Y-75914250D01*
X220923750Y-76073000D01*
X222123000Y-76073000D01*
X222123000Y-76053000D01*
X222377000Y-76053000D01*
X222377000Y-76073000D01*
X223576250Y-76073000D01*
X223735000Y-75914250D01*
X223738072Y-75350000D01*
X223725812Y-75225518D01*
X223689502Y-75105820D01*
X223630537Y-74995506D01*
X223551185Y-74898815D01*
X223454494Y-74819463D01*
X223344180Y-74760498D01*
X223271620Y-74738487D01*
X223403475Y-74606632D01*
X223565990Y-74363411D01*
X223677932Y-74093158D01*
X223735000Y-73806260D01*
X223735000Y-73513740D01*
X223677932Y-73226842D01*
X223565990Y-72956589D01*
X223403475Y-72713368D01*
X223196632Y-72506525D01*
X223014466Y-72384805D01*
X223131355Y-72315178D01*
X223347588Y-72120269D01*
X223521641Y-71886920D01*
X223646825Y-71624099D01*
X223691476Y-71476890D01*
X223656822Y-71411223D01*
X225623200Y-71411223D01*
X225623200Y-72073708D01*
X225624054Y-72082421D01*
X225623438Y-72091152D01*
X225630142Y-72144507D01*
X225635389Y-72198018D01*
X225637918Y-72206396D01*
X225639010Y-72215083D01*
X225655958Y-72266144D01*
X225671491Y-72317593D01*
X225675597Y-72325315D01*
X225678357Y-72333631D01*
X225704895Y-72380418D01*
X225730130Y-72427879D01*
X225735664Y-72434664D01*
X225739982Y-72442277D01*
X225775088Y-72483003D01*
X225809075Y-72524674D01*
X225815819Y-72530253D01*
X225821535Y-72536884D01*
X225863881Y-72570013D01*
X225905317Y-72604292D01*
X225913020Y-72608457D01*
X225919912Y-72613849D01*
X225967887Y-72638123D01*
X225968178Y-72638281D01*
X225966118Y-72639376D01*
X225912760Y-72667271D01*
X225911015Y-72668674D01*
X225909029Y-72669730D01*
X225862346Y-72707805D01*
X225815415Y-72745537D01*
X225813970Y-72747259D01*
X225812234Y-72748675D01*
X225773907Y-72795004D01*
X225735127Y-72841221D01*
X225734044Y-72843191D01*
X225732616Y-72844917D01*
X225704017Y-72897809D01*
X225674953Y-72950677D01*
X225674273Y-72952820D01*
X225673208Y-72954790D01*
X225655404Y-73012305D01*
X225637186Y-73069737D01*
X225636936Y-73071965D01*
X225636272Y-73074110D01*
X225629980Y-73133977D01*
X225623262Y-73193864D01*
X225623232Y-73198179D01*
X225623216Y-73198332D01*
X225623230Y-73198485D01*
X225623200Y-73202800D01*
X225623200Y-74803000D01*
X225629077Y-74862938D01*
X225634536Y-74922924D01*
X225635170Y-74925079D01*
X225635389Y-74927310D01*
X225652774Y-74984891D01*
X225669802Y-75042748D01*
X225670843Y-75044740D01*
X225671491Y-75046885D01*
X225699776Y-75100082D01*
X225727671Y-75153440D01*
X225729074Y-75155185D01*
X225730130Y-75157171D01*
X225768205Y-75203854D01*
X225805937Y-75250785D01*
X225807659Y-75252230D01*
X225809075Y-75253966D01*
X225837930Y-75277837D01*
X225827862Y-75285496D01*
X225822144Y-75291950D01*
X225815415Y-75297360D01*
X225780761Y-75338660D01*
X225745031Y-75378988D01*
X225740672Y-75386435D01*
X225735127Y-75393044D01*
X225709160Y-75440278D01*
X225681939Y-75486788D01*
X225679111Y-75494937D01*
X225674953Y-75502500D01*
X225658658Y-75553871D01*
X225640986Y-75604790D01*
X225639794Y-75613339D01*
X225637186Y-75621560D01*
X225631178Y-75675123D01*
X225623734Y-75728498D01*
X225624224Y-75737107D01*
X225623262Y-75745687D01*
X225623200Y-75754623D01*
X225623200Y-76417108D01*
X225624054Y-76425821D01*
X225623438Y-76434552D01*
X225630142Y-76487907D01*
X225635389Y-76541418D01*
X225637918Y-76549796D01*
X225639010Y-76558483D01*
X225655958Y-76609544D01*
X225671491Y-76660993D01*
X225675597Y-76668715D01*
X225678357Y-76677031D01*
X225704895Y-76723818D01*
X225730130Y-76771279D01*
X225735664Y-76778064D01*
X225739982Y-76785677D01*
X225775088Y-76826403D01*
X225809075Y-76868074D01*
X225815819Y-76873653D01*
X225821535Y-76880284D01*
X225863881Y-76913413D01*
X225905317Y-76947692D01*
X225913020Y-76951857D01*
X225919912Y-76957249D01*
X225967887Y-76981523D01*
X226015190Y-77007100D01*
X226023550Y-77009688D01*
X226031363Y-77013641D01*
X226039715Y-77016820D01*
X226985852Y-77369402D01*
X227200630Y-77449445D01*
X227200640Y-77449449D01*
X227406426Y-77526148D01*
X227406480Y-77526169D01*
X227597135Y-77597239D01*
X227766337Y-77660320D01*
X227766343Y-77660322D01*
X227907825Y-77713077D01*
X227907840Y-77713083D01*
X228015466Y-77753227D01*
X228015469Y-77753228D01*
X228082527Y-77778257D01*
X228082574Y-77778275D01*
X228090148Y-77781105D01*
X228090164Y-77781111D01*
X228248914Y-77840451D01*
X228296891Y-77853212D01*
X228344310Y-77867891D01*
X228357151Y-77869241D01*
X228369623Y-77872558D01*
X228419153Y-77875757D01*
X228468532Y-77880947D01*
X228481389Y-77879777D01*
X228494270Y-77880609D01*
X228543490Y-77874126D01*
X228592924Y-77869627D01*
X228605304Y-77865983D01*
X228618106Y-77864297D01*
X228665129Y-77848376D01*
X228712748Y-77834361D01*
X228724190Y-77828379D01*
X228736415Y-77824240D01*
X228779441Y-77799494D01*
X228823440Y-77776492D01*
X228833502Y-77768402D01*
X228844691Y-77761967D01*
X228882086Y-77729340D01*
X228920785Y-77698226D01*
X228929086Y-77688333D01*
X228938809Y-77679850D01*
X228969153Y-77640583D01*
X229001073Y-77602542D01*
X229007294Y-77591226D01*
X229015184Y-77581016D01*
X229037320Y-77536610D01*
X229061247Y-77493086D01*
X229065152Y-77480774D01*
X229070908Y-77469228D01*
X229084003Y-77421349D01*
X229099014Y-77374026D01*
X229100452Y-77361202D01*
X229103859Y-77348747D01*
X229107405Y-77299221D01*
X229112938Y-77249899D01*
X229113000Y-77240963D01*
X229113000Y-76643918D01*
X229111284Y-76626413D01*
X229112038Y-76608834D01*
X229105200Y-76564366D01*
X229100811Y-76519608D01*
X229095728Y-76502771D01*
X229093053Y-76485379D01*
X229077705Y-76443079D01*
X229064709Y-76400033D01*
X229056454Y-76384508D01*
X229050451Y-76367962D01*
X229027181Y-76329452D01*
X229006070Y-76289747D01*
X228994952Y-76276115D01*
X228985853Y-76261057D01*
X228955550Y-76227804D01*
X228927125Y-76192952D01*
X228913573Y-76181741D01*
X228901721Y-76168735D01*
X228865535Y-76142001D01*
X228830883Y-76113334D01*
X228815410Y-76104968D01*
X228801259Y-76094513D01*
X228760572Y-76075317D01*
X228759506Y-76074741D01*
X228782526Y-76064816D01*
X228802239Y-76051256D01*
X228823440Y-76040172D01*
X228853581Y-76015939D01*
X228885436Y-75994026D01*
X228902134Y-75976901D01*
X228920785Y-75961906D01*
X228945642Y-75932282D01*
X228972637Y-75904598D01*
X228985696Y-75884548D01*
X229001073Y-75866222D01*
X229019701Y-75832338D01*
X229040806Y-75799934D01*
X229049720Y-75777733D01*
X229061247Y-75756766D01*
X229072939Y-75719908D01*
X229087348Y-75684022D01*
X229091781Y-75660507D01*
X229099014Y-75637706D01*
X229103324Y-75599282D01*
X229110489Y-75561279D01*
X229110271Y-75537357D01*
X229112938Y-75513579D01*
X229113000Y-75504643D01*
X229113000Y-74930436D01*
X229108199Y-74881476D01*
X229105441Y-74832363D01*
X229102115Y-74819422D01*
X229100811Y-74806126D01*
X229086594Y-74759038D01*
X229074347Y-74711389D01*
X229068570Y-74699340D01*
X229064709Y-74686551D01*
X229041615Y-74643117D01*
X229020348Y-74598758D01*
X229012343Y-74588064D01*
X229006070Y-74576265D01*
X228974979Y-74538144D01*
X228945501Y-74498761D01*
X228935568Y-74489822D01*
X228927125Y-74479470D01*
X228889225Y-74448116D01*
X228852656Y-74415207D01*
X228841177Y-74408368D01*
X228830883Y-74399852D01*
X228787622Y-74376461D01*
X228756258Y-74357775D01*
X228770082Y-74350424D01*
X228823440Y-74322529D01*
X228825185Y-74321126D01*
X228827171Y-74320070D01*
X228873854Y-74281995D01*
X228920785Y-74244263D01*
X228922230Y-74242541D01*
X228923966Y-74241125D01*
X228962293Y-74194796D01*
X229001073Y-74148579D01*
X229002156Y-74146609D01*
X229003584Y-74144883D01*
X229032183Y-74091991D01*
X229061247Y-74039123D01*
X229061927Y-74036980D01*
X229062992Y-74035010D01*
X229080796Y-73977495D01*
X229099014Y-73920063D01*
X229099264Y-73917835D01*
X229099928Y-73915690D01*
X229106220Y-73855823D01*
X229112938Y-73795936D01*
X229112968Y-73791621D01*
X229112984Y-73791468D01*
X229112970Y-73791315D01*
X229113000Y-73787000D01*
X229113000Y-73202800D01*
X229107123Y-73142862D01*
X229101664Y-73082876D01*
X229101030Y-73080721D01*
X229100811Y-73078490D01*
X229092531Y-73051064D01*
X229099014Y-73030626D01*
X229100452Y-73017802D01*
X229103859Y-73005347D01*
X229107405Y-72955821D01*
X229112938Y-72906499D01*
X229113000Y-72897563D01*
X229113000Y-72300518D01*
X229111284Y-72283013D01*
X229112038Y-72265434D01*
X229105200Y-72220966D01*
X229100811Y-72176208D01*
X229095728Y-72159371D01*
X229093053Y-72141979D01*
X229077705Y-72099679D01*
X229064709Y-72056633D01*
X229056454Y-72041108D01*
X229050451Y-72024562D01*
X229027181Y-71986052D01*
X229006070Y-71946347D01*
X228994952Y-71932715D01*
X228985853Y-71917657D01*
X228955550Y-71884404D01*
X228927125Y-71849552D01*
X228913573Y-71838341D01*
X228901721Y-71825335D01*
X228865535Y-71798601D01*
X228830883Y-71769934D01*
X228815410Y-71761568D01*
X228801259Y-71751113D01*
X228760572Y-71731917D01*
X228759506Y-71731341D01*
X228782526Y-71721416D01*
X228802239Y-71707856D01*
X228823440Y-71696772D01*
X228853581Y-71672539D01*
X228885436Y-71650626D01*
X228902134Y-71633501D01*
X228920785Y-71618506D01*
X228945642Y-71588882D01*
X228972637Y-71561198D01*
X228985696Y-71541148D01*
X229001073Y-71522822D01*
X229019701Y-71488938D01*
X229040806Y-71456534D01*
X229049720Y-71434333D01*
X229061247Y-71413366D01*
X229072939Y-71376508D01*
X229087348Y-71340622D01*
X229091781Y-71317107D01*
X229099014Y-71294306D01*
X229103324Y-71255882D01*
X229110489Y-71217879D01*
X229110271Y-71193957D01*
X229112938Y-71170179D01*
X229113000Y-71161243D01*
X229113000Y-70587036D01*
X229108199Y-70538076D01*
X229105441Y-70488963D01*
X229102115Y-70476022D01*
X229100811Y-70462726D01*
X229086594Y-70415638D01*
X229074347Y-70367989D01*
X229068570Y-70355940D01*
X229064709Y-70343151D01*
X229041615Y-70299717D01*
X229020348Y-70255358D01*
X229012343Y-70244664D01*
X229006070Y-70232865D01*
X228974979Y-70194744D01*
X228945501Y-70155361D01*
X228935568Y-70146422D01*
X228927125Y-70136070D01*
X228889225Y-70104716D01*
X228852656Y-70071807D01*
X228841177Y-70064968D01*
X228830883Y-70056452D01*
X228787622Y-70033061D01*
X228745350Y-70007876D01*
X228732757Y-70003395D01*
X228721010Y-69997044D01*
X228674032Y-69982502D01*
X228627671Y-69966007D01*
X228614452Y-69964058D01*
X228601690Y-69960108D01*
X228552775Y-69954967D01*
X228504100Y-69947792D01*
X228490753Y-69948448D01*
X228477468Y-69947052D01*
X228428479Y-69951510D01*
X228379344Y-69953926D01*
X228366383Y-69957161D01*
X228353076Y-69958372D01*
X228305884Y-69972261D01*
X228258156Y-69984174D01*
X228249760Y-69987233D01*
X228091010Y-70046318D01*
X228091000Y-70046323D01*
X228090824Y-70046387D01*
X228031628Y-70068440D01*
X228031618Y-70068445D01*
X228031489Y-70068492D01*
X227930946Y-70105975D01*
X227930944Y-70105976D01*
X227930892Y-70105995D01*
X227795247Y-70156578D01*
X227795238Y-70156583D01*
X227795220Y-70156589D01*
X227630720Y-70217941D01*
X227630717Y-70217942D01*
X227630699Y-70217949D01*
X227443664Y-70287714D01*
X227443573Y-70287747D01*
X227385713Y-70309331D01*
X227385706Y-70309334D01*
X227385707Y-70309334D01*
X227240159Y-70363630D01*
X227240084Y-70363658D01*
X227026525Y-70443332D01*
X227026495Y-70443343D01*
X226985636Y-70458587D01*
X226985629Y-70458590D01*
X226985630Y-70458590D01*
X226039480Y-70811599D01*
X226031732Y-70815388D01*
X226023452Y-70817825D01*
X225975679Y-70842801D01*
X225927273Y-70866473D01*
X225920406Y-70871697D01*
X225912760Y-70875694D01*
X225870742Y-70909477D01*
X225827862Y-70942096D01*
X225822144Y-70948550D01*
X225815415Y-70953960D01*
X225780761Y-70995260D01*
X225745031Y-71035588D01*
X225740672Y-71043035D01*
X225735127Y-71049644D01*
X225709160Y-71096878D01*
X225681939Y-71143388D01*
X225679111Y-71151537D01*
X225674953Y-71159100D01*
X225658658Y-71210471D01*
X225640986Y-71261390D01*
X225639794Y-71269939D01*
X225637186Y-71278160D01*
X225631178Y-71331723D01*
X225623734Y-71385098D01*
X225624224Y-71393707D01*
X225623262Y-71402287D01*
X225623200Y-71411223D01*
X223656822Y-71411223D01*
X223570155Y-71247000D01*
X222377000Y-71247000D01*
X222377000Y-71267000D01*
X222123000Y-71267000D01*
X222123000Y-71247000D01*
X220929845Y-71247000D01*
X220808524Y-71476890D01*
X220853175Y-71624099D01*
X220978359Y-71886920D01*
X221152412Y-72120269D01*
X221368645Y-72315178D01*
X221485534Y-72384805D01*
X221303368Y-72506525D01*
X221096525Y-72713368D01*
X220934010Y-72956589D01*
X220822068Y-73226842D01*
X220765000Y-73513740D01*
X220765000Y-73806260D01*
X220822068Y-74093158D01*
X220934010Y-74363411D01*
X221096525Y-74606632D01*
X221228380Y-74738487D01*
X221155820Y-74760498D01*
X221045506Y-74819463D01*
X220948815Y-74898815D01*
X220869463Y-74995506D01*
X220810498Y-75105820D01*
X220774188Y-75225518D01*
X220761928Y-75350000D01*
X205695000Y-75350000D01*
X205695000Y-73121990D01*
X205761212Y-72446703D01*
X205947456Y-71829835D01*
X206249971Y-71260886D01*
X206657233Y-70761534D01*
X207153732Y-70350794D01*
X207720552Y-70044315D01*
X208336108Y-69853769D01*
X209009425Y-69783000D01*
X221606733Y-69783000D01*
X221368645Y-69924822D01*
X221152412Y-70119731D01*
X220978359Y-70353080D01*
X220853175Y-70615901D01*
X220808524Y-70763110D01*
X220929845Y-70993000D01*
X222123000Y-70993000D01*
X222123000Y-70973000D01*
X222377000Y-70973000D01*
X222377000Y-70993000D01*
X223570155Y-70993000D01*
X223691476Y-70763110D01*
X223646825Y-70615901D01*
X223521641Y-70353080D01*
X223347588Y-70119731D01*
X223131355Y-69924822D01*
X222893267Y-69783000D01*
X232034135Y-69783000D01*
X232121213Y-69774423D01*
X232128356Y-69776580D01*
G37*
X232128356Y-69776580D02*
X232186405Y-69807445D01*
X232237343Y-69848989D01*
X232279248Y-69899644D01*
X232310515Y-69957471D01*
X232313534Y-69967222D01*
X232305000Y-70053866D01*
X232305001Y-89034135D01*
X232313577Y-89121210D01*
X232311420Y-89128357D01*
X232280554Y-89186406D01*
X232239011Y-89237343D01*
X232188356Y-89279248D01*
X232130529Y-89310515D01*
X232120778Y-89313534D01*
X232034135Y-89305000D01*
X208965865Y-89305000D01*
X208863756Y-89315057D01*
X208842781Y-89321420D01*
X208351874Y-89273286D01*
X207728430Y-89085057D01*
X207153427Y-88779323D01*
X206648752Y-88367721D01*
X206233638Y-87865933D01*
X205923896Y-87293077D01*
X205731318Y-86670961D01*
X205677645Y-86160301D01*
X205684943Y-86136244D01*
X205695000Y-86034135D01*
X205695000Y-80809200D01*
X215580328Y-80809200D01*
X215592588Y-80933682D01*
X215628898Y-81053380D01*
X215687863Y-81163694D01*
X215767215Y-81260385D01*
X215863906Y-81339737D01*
X215974220Y-81398702D01*
X216046780Y-81420713D01*
X215914925Y-81552568D01*
X215752410Y-81795789D01*
X215640468Y-82066042D01*
X215583400Y-82352940D01*
X215583400Y-82645460D01*
X215640468Y-82932358D01*
X215752410Y-83202611D01*
X215914925Y-83445832D01*
X216121768Y-83652675D01*
X216296160Y-83769200D01*
X216121768Y-83885725D01*
X215914925Y-84092568D01*
X215752410Y-84335789D01*
X215640468Y-84606042D01*
X215583400Y-84892940D01*
X215583400Y-85185460D01*
X215640468Y-85472358D01*
X215752410Y-85742611D01*
X215914925Y-85985832D01*
X216121768Y-86192675D01*
X216296160Y-86309200D01*
X216121768Y-86425725D01*
X215914925Y-86632568D01*
X215752410Y-86875789D01*
X215640468Y-87146042D01*
X215583400Y-87432940D01*
X215583400Y-87725460D01*
X215640468Y-88012358D01*
X215752410Y-88282611D01*
X215914925Y-88525832D01*
X216121768Y-88732675D01*
X216364989Y-88895190D01*
X216635242Y-89007132D01*
X216922140Y-89064200D01*
X217214660Y-89064200D01*
X217501558Y-89007132D01*
X217771811Y-88895190D01*
X218015032Y-88732675D01*
X218221875Y-88525832D01*
X218338400Y-88351440D01*
X218454925Y-88525832D01*
X218661768Y-88732675D01*
X218904989Y-88895190D01*
X219175242Y-89007132D01*
X219462140Y-89064200D01*
X219754660Y-89064200D01*
X220041558Y-89007132D01*
X220311811Y-88895190D01*
X220555032Y-88732675D01*
X220761875Y-88525832D01*
X220878400Y-88351440D01*
X220994925Y-88525832D01*
X221201768Y-88732675D01*
X221444989Y-88895190D01*
X221715242Y-89007132D01*
X222002140Y-89064200D01*
X222294660Y-89064200D01*
X222581558Y-89007132D01*
X222851811Y-88895190D01*
X223095032Y-88732675D01*
X223301875Y-88525832D01*
X223464390Y-88282611D01*
X223576332Y-88012358D01*
X223633400Y-87725460D01*
X223633400Y-87432940D01*
X223576332Y-87146042D01*
X223464390Y-86875789D01*
X223301875Y-86632568D01*
X223095032Y-86425725D01*
X222920640Y-86309200D01*
X223095032Y-86192675D01*
X223301875Y-85985832D01*
X223464390Y-85742611D01*
X223576332Y-85472358D01*
X223633400Y-85185460D01*
X223633400Y-84892940D01*
X223576332Y-84606042D01*
X223464390Y-84335789D01*
X223301875Y-84092568D01*
X223095032Y-83885725D01*
X222920640Y-83769200D01*
X223095032Y-83652675D01*
X223301875Y-83445832D01*
X223464390Y-83202611D01*
X223576332Y-82932358D01*
X223633400Y-82645460D01*
X223633400Y-82352940D01*
X223576332Y-82066042D01*
X223464390Y-81795789D01*
X223301875Y-81552568D01*
X223170020Y-81420713D01*
X223242580Y-81398702D01*
X223352894Y-81339737D01*
X223449585Y-81260385D01*
X223528937Y-81163694D01*
X223587902Y-81053380D01*
X223624212Y-80933682D01*
X223636472Y-80809200D01*
X223633400Y-80244950D01*
X223474650Y-80086200D01*
X222275400Y-80086200D01*
X222275400Y-80106200D01*
X222021400Y-80106200D01*
X222021400Y-80086200D01*
X219735400Y-80086200D01*
X219735400Y-80106200D01*
X219481400Y-80106200D01*
X219481400Y-80086200D01*
X217195400Y-80086200D01*
X217195400Y-80106200D01*
X216941400Y-80106200D01*
X216941400Y-80086200D01*
X215742150Y-80086200D01*
X215583400Y-80244950D01*
X215580328Y-80809200D01*
X205695000Y-80809200D01*
X205695000Y-79109200D01*
X215580328Y-79109200D01*
X215583400Y-79673450D01*
X215742150Y-79832200D01*
X216941400Y-79832200D01*
X216941400Y-78632950D01*
X217195400Y-78632950D01*
X217195400Y-79832200D01*
X219481400Y-79832200D01*
X219481400Y-78632950D01*
X219735400Y-78632950D01*
X219735400Y-79832200D01*
X222021400Y-79832200D01*
X222021400Y-78632950D01*
X222275400Y-78632950D01*
X222275400Y-79832200D01*
X223474650Y-79832200D01*
X223633400Y-79673450D01*
X223636472Y-79109200D01*
X223624212Y-78984718D01*
X223587902Y-78865020D01*
X223528937Y-78754706D01*
X223449585Y-78658015D01*
X223352894Y-78578663D01*
X223242580Y-78519698D01*
X223122882Y-78483388D01*
X222998400Y-78471128D01*
X222434150Y-78474200D01*
X222275400Y-78632950D01*
X222021400Y-78632950D01*
X221862650Y-78474200D01*
X221298400Y-78471128D01*
X221173918Y-78483388D01*
X221054220Y-78519698D01*
X220943906Y-78578663D01*
X220878400Y-78632422D01*
X220812894Y-78578663D01*
X220702580Y-78519698D01*
X220582882Y-78483388D01*
X220458400Y-78471128D01*
X219894150Y-78474200D01*
X219735400Y-78632950D01*
X219481400Y-78632950D01*
X219322650Y-78474200D01*
X218758400Y-78471128D01*
X218633918Y-78483388D01*
X218514220Y-78519698D01*
X218403906Y-78578663D01*
X218338400Y-78632422D01*
X218272894Y-78578663D01*
X218162580Y-78519698D01*
X218042882Y-78483388D01*
X217918400Y-78471128D01*
X217354150Y-78474200D01*
X217195400Y-78632950D01*
X216941400Y-78632950D01*
X216782650Y-78474200D01*
X216218400Y-78471128D01*
X216093918Y-78483388D01*
X215974220Y-78519698D01*
X215863906Y-78578663D01*
X215767215Y-78658015D01*
X215687863Y-78754706D01*
X215628898Y-78865020D01*
X215592588Y-78984718D01*
X215580328Y-79109200D01*
X205695000Y-79109200D01*
X205695000Y-77050000D01*
X220761928Y-77050000D01*
X220774188Y-77174482D01*
X220810498Y-77294180D01*
X220869463Y-77404494D01*
X220948815Y-77501185D01*
X221045506Y-77580537D01*
X221155820Y-77639502D01*
X221275518Y-77675812D01*
X221400000Y-77688072D01*
X221964250Y-77685000D01*
X222123000Y-77526250D01*
X222123000Y-76327000D01*
X222377000Y-76327000D01*
X222377000Y-77526250D01*
X222535750Y-77685000D01*
X223100000Y-77688072D01*
X223224482Y-77675812D01*
X223344180Y-77639502D01*
X223454494Y-77580537D01*
X223551185Y-77501185D01*
X223630537Y-77404494D01*
X223689502Y-77294180D01*
X223725812Y-77174482D01*
X223738072Y-77050000D01*
X223735000Y-76485750D01*
X223576250Y-76327000D01*
X222377000Y-76327000D01*
X222123000Y-76327000D01*
X220923750Y-76327000D01*
X220765000Y-76485750D01*
X220761928Y-77050000D01*
X205695000Y-77050000D01*
X205695000Y-75350000D01*
X220761928Y-75350000D01*
X220765000Y-75914250D01*
X220923750Y-76073000D01*
X222123000Y-76073000D01*
X222123000Y-76053000D01*
X222377000Y-76053000D01*
X222377000Y-76073000D01*
X223576250Y-76073000D01*
X223735000Y-75914250D01*
X223738072Y-75350000D01*
X223725812Y-75225518D01*
X223689502Y-75105820D01*
X223630537Y-74995506D01*
X223551185Y-74898815D01*
X223454494Y-74819463D01*
X223344180Y-74760498D01*
X223271620Y-74738487D01*
X223403475Y-74606632D01*
X223565990Y-74363411D01*
X223677932Y-74093158D01*
X223735000Y-73806260D01*
X223735000Y-73513740D01*
X223677932Y-73226842D01*
X223565990Y-72956589D01*
X223403475Y-72713368D01*
X223196632Y-72506525D01*
X223014466Y-72384805D01*
X223131355Y-72315178D01*
X223347588Y-72120269D01*
X223521641Y-71886920D01*
X223646825Y-71624099D01*
X223691476Y-71476890D01*
X223656822Y-71411223D01*
X225623200Y-71411223D01*
X225623200Y-72073708D01*
X225624054Y-72082421D01*
X225623438Y-72091152D01*
X225630142Y-72144507D01*
X225635389Y-72198018D01*
X225637918Y-72206396D01*
X225639010Y-72215083D01*
X225655958Y-72266144D01*
X225671491Y-72317593D01*
X225675597Y-72325315D01*
X225678357Y-72333631D01*
X225704895Y-72380418D01*
X225730130Y-72427879D01*
X225735664Y-72434664D01*
X225739982Y-72442277D01*
X225775088Y-72483003D01*
X225809075Y-72524674D01*
X225815819Y-72530253D01*
X225821535Y-72536884D01*
X225863881Y-72570013D01*
X225905317Y-72604292D01*
X225913020Y-72608457D01*
X225919912Y-72613849D01*
X225967887Y-72638123D01*
X225968178Y-72638281D01*
X225966118Y-72639376D01*
X225912760Y-72667271D01*
X225911015Y-72668674D01*
X225909029Y-72669730D01*
X225862346Y-72707805D01*
X225815415Y-72745537D01*
X225813970Y-72747259D01*
X225812234Y-72748675D01*
X225773907Y-72795004D01*
X225735127Y-72841221D01*
X225734044Y-72843191D01*
X225732616Y-72844917D01*
X225704017Y-72897809D01*
X225674953Y-72950677D01*
X225674273Y-72952820D01*
X225673208Y-72954790D01*
X225655404Y-73012305D01*
X225637186Y-73069737D01*
X225636936Y-73071965D01*
X225636272Y-73074110D01*
X225629980Y-73133977D01*
X225623262Y-73193864D01*
X225623232Y-73198179D01*
X225623216Y-73198332D01*
X225623230Y-73198485D01*
X225623200Y-73202800D01*
X225623200Y-74803000D01*
X225629077Y-74862938D01*
X225634536Y-74922924D01*
X225635170Y-74925079D01*
X225635389Y-74927310D01*
X225652774Y-74984891D01*
X225669802Y-75042748D01*
X225670843Y-75044740D01*
X225671491Y-75046885D01*
X225699776Y-75100082D01*
X225727671Y-75153440D01*
X225729074Y-75155185D01*
X225730130Y-75157171D01*
X225768205Y-75203854D01*
X225805937Y-75250785D01*
X225807659Y-75252230D01*
X225809075Y-75253966D01*
X225837930Y-75277837D01*
X225827862Y-75285496D01*
X225822144Y-75291950D01*
X225815415Y-75297360D01*
X225780761Y-75338660D01*
X225745031Y-75378988D01*
X225740672Y-75386435D01*
X225735127Y-75393044D01*
X225709160Y-75440278D01*
X225681939Y-75486788D01*
X225679111Y-75494937D01*
X225674953Y-75502500D01*
X225658658Y-75553871D01*
X225640986Y-75604790D01*
X225639794Y-75613339D01*
X225637186Y-75621560D01*
X225631178Y-75675123D01*
X225623734Y-75728498D01*
X225624224Y-75737107D01*
X225623262Y-75745687D01*
X225623200Y-75754623D01*
X225623200Y-76417108D01*
X225624054Y-76425821D01*
X225623438Y-76434552D01*
X225630142Y-76487907D01*
X225635389Y-76541418D01*
X225637918Y-76549796D01*
X225639010Y-76558483D01*
X225655958Y-76609544D01*
X225671491Y-76660993D01*
X225675597Y-76668715D01*
X225678357Y-76677031D01*
X225704895Y-76723818D01*
X225730130Y-76771279D01*
X225735664Y-76778064D01*
X225739982Y-76785677D01*
X225775088Y-76826403D01*
X225809075Y-76868074D01*
X225815819Y-76873653D01*
X225821535Y-76880284D01*
X225863881Y-76913413D01*
X225905317Y-76947692D01*
X225913020Y-76951857D01*
X225919912Y-76957249D01*
X225967887Y-76981523D01*
X226015190Y-77007100D01*
X226023550Y-77009688D01*
X226031363Y-77013641D01*
X226039715Y-77016820D01*
X226985852Y-77369402D01*
X227200630Y-77449445D01*
X227200640Y-77449449D01*
X227406426Y-77526148D01*
X227406480Y-77526169D01*
X227597135Y-77597239D01*
X227766337Y-77660320D01*
X227766343Y-77660322D01*
X227907825Y-77713077D01*
X227907840Y-77713083D01*
X228015466Y-77753227D01*
X228015469Y-77753228D01*
X228082527Y-77778257D01*
X228082574Y-77778275D01*
X228090148Y-77781105D01*
X228090164Y-77781111D01*
X228248914Y-77840451D01*
X228296891Y-77853212D01*
X228344310Y-77867891D01*
X228357151Y-77869241D01*
X228369623Y-77872558D01*
X228419153Y-77875757D01*
X228468532Y-77880947D01*
X228481389Y-77879777D01*
X228494270Y-77880609D01*
X228543490Y-77874126D01*
X228592924Y-77869627D01*
X228605304Y-77865983D01*
X228618106Y-77864297D01*
X228665129Y-77848376D01*
X228712748Y-77834361D01*
X228724190Y-77828379D01*
X228736415Y-77824240D01*
X228779441Y-77799494D01*
X228823440Y-77776492D01*
X228833502Y-77768402D01*
X228844691Y-77761967D01*
X228882086Y-77729340D01*
X228920785Y-77698226D01*
X228929086Y-77688333D01*
X228938809Y-77679850D01*
X228969153Y-77640583D01*
X229001073Y-77602542D01*
X229007294Y-77591226D01*
X229015184Y-77581016D01*
X229037320Y-77536610D01*
X229061247Y-77493086D01*
X229065152Y-77480774D01*
X229070908Y-77469228D01*
X229084003Y-77421349D01*
X229099014Y-77374026D01*
X229100452Y-77361202D01*
X229103859Y-77348747D01*
X229107405Y-77299221D01*
X229112938Y-77249899D01*
X229113000Y-77240963D01*
X229113000Y-76643918D01*
X229111284Y-76626413D01*
X229112038Y-76608834D01*
X229105200Y-76564366D01*
X229100811Y-76519608D01*
X229095728Y-76502771D01*
X229093053Y-76485379D01*
X229077705Y-76443079D01*
X229064709Y-76400033D01*
X229056454Y-76384508D01*
X229050451Y-76367962D01*
X229027181Y-76329452D01*
X229006070Y-76289747D01*
X228994952Y-76276115D01*
X228985853Y-76261057D01*
X228955550Y-76227804D01*
X228927125Y-76192952D01*
X228913573Y-76181741D01*
X228901721Y-76168735D01*
X228865535Y-76142001D01*
X228830883Y-76113334D01*
X228815410Y-76104968D01*
X228801259Y-76094513D01*
X228760572Y-76075317D01*
X228759506Y-76074741D01*
X228782526Y-76064816D01*
X228802239Y-76051256D01*
X228823440Y-76040172D01*
X228853581Y-76015939D01*
X228885436Y-75994026D01*
X228902134Y-75976901D01*
X228920785Y-75961906D01*
X228945642Y-75932282D01*
X228972637Y-75904598D01*
X228985696Y-75884548D01*
X229001073Y-75866222D01*
X229019701Y-75832338D01*
X229040806Y-75799934D01*
X229049720Y-75777733D01*
X229061247Y-75756766D01*
X229072939Y-75719908D01*
X229087348Y-75684022D01*
X229091781Y-75660507D01*
X229099014Y-75637706D01*
X229103324Y-75599282D01*
X229110489Y-75561279D01*
X229110271Y-75537357D01*
X229112938Y-75513579D01*
X229113000Y-75504643D01*
X229113000Y-74930436D01*
X229108199Y-74881476D01*
X229105441Y-74832363D01*
X229102115Y-74819422D01*
X229100811Y-74806126D01*
X229086594Y-74759038D01*
X229074347Y-74711389D01*
X229068570Y-74699340D01*
X229064709Y-74686551D01*
X229041615Y-74643117D01*
X229020348Y-74598758D01*
X229012343Y-74588064D01*
X229006070Y-74576265D01*
X228974979Y-74538144D01*
X228945501Y-74498761D01*
X228935568Y-74489822D01*
X228927125Y-74479470D01*
X228889225Y-74448116D01*
X228852656Y-74415207D01*
X228841177Y-74408368D01*
X228830883Y-74399852D01*
X228787622Y-74376461D01*
X228756258Y-74357775D01*
X228770082Y-74350424D01*
X228823440Y-74322529D01*
X228825185Y-74321126D01*
X228827171Y-74320070D01*
X228873854Y-74281995D01*
X228920785Y-74244263D01*
X228922230Y-74242541D01*
X228923966Y-74241125D01*
X228962293Y-74194796D01*
X229001073Y-74148579D01*
X229002156Y-74146609D01*
X229003584Y-74144883D01*
X229032183Y-74091991D01*
X229061247Y-74039123D01*
X229061927Y-74036980D01*
X229062992Y-74035010D01*
X229080796Y-73977495D01*
X229099014Y-73920063D01*
X229099264Y-73917835D01*
X229099928Y-73915690D01*
X229106220Y-73855823D01*
X229112938Y-73795936D01*
X229112968Y-73791621D01*
X229112984Y-73791468D01*
X229112970Y-73791315D01*
X229113000Y-73787000D01*
X229113000Y-73202800D01*
X229107123Y-73142862D01*
X229101664Y-73082876D01*
X229101030Y-73080721D01*
X229100811Y-73078490D01*
X229092531Y-73051064D01*
X229099014Y-73030626D01*
X229100452Y-73017802D01*
X229103859Y-73005347D01*
X229107405Y-72955821D01*
X229112938Y-72906499D01*
X229113000Y-72897563D01*
X229113000Y-72300518D01*
X229111284Y-72283013D01*
X229112038Y-72265434D01*
X229105200Y-72220966D01*
X229100811Y-72176208D01*
X229095728Y-72159371D01*
X229093053Y-72141979D01*
X229077705Y-72099679D01*
X229064709Y-72056633D01*
X229056454Y-72041108D01*
X229050451Y-72024562D01*
X229027181Y-71986052D01*
X229006070Y-71946347D01*
X228994952Y-71932715D01*
X228985853Y-71917657D01*
X228955550Y-71884404D01*
X228927125Y-71849552D01*
X228913573Y-71838341D01*
X228901721Y-71825335D01*
X228865535Y-71798601D01*
X228830883Y-71769934D01*
X228815410Y-71761568D01*
X228801259Y-71751113D01*
X228760572Y-71731917D01*
X228759506Y-71731341D01*
X228782526Y-71721416D01*
X228802239Y-71707856D01*
X228823440Y-71696772D01*
X228853581Y-71672539D01*
X228885436Y-71650626D01*
X228902134Y-71633501D01*
X228920785Y-71618506D01*
X228945642Y-71588882D01*
X228972637Y-71561198D01*
X228985696Y-71541148D01*
X229001073Y-71522822D01*
X229019701Y-71488938D01*
X229040806Y-71456534D01*
X229049720Y-71434333D01*
X229061247Y-71413366D01*
X229072939Y-71376508D01*
X229087348Y-71340622D01*
X229091781Y-71317107D01*
X229099014Y-71294306D01*
X229103324Y-71255882D01*
X229110489Y-71217879D01*
X229110271Y-71193957D01*
X229112938Y-71170179D01*
X229113000Y-71161243D01*
X229113000Y-70587036D01*
X229108199Y-70538076D01*
X229105441Y-70488963D01*
X229102115Y-70476022D01*
X229100811Y-70462726D01*
X229086594Y-70415638D01*
X229074347Y-70367989D01*
X229068570Y-70355940D01*
X229064709Y-70343151D01*
X229041615Y-70299717D01*
X229020348Y-70255358D01*
X229012343Y-70244664D01*
X229006070Y-70232865D01*
X228974979Y-70194744D01*
X228945501Y-70155361D01*
X228935568Y-70146422D01*
X228927125Y-70136070D01*
X228889225Y-70104716D01*
X228852656Y-70071807D01*
X228841177Y-70064968D01*
X228830883Y-70056452D01*
X228787622Y-70033061D01*
X228745350Y-70007876D01*
X228732757Y-70003395D01*
X228721010Y-69997044D01*
X228674032Y-69982502D01*
X228627671Y-69966007D01*
X228614452Y-69964058D01*
X228601690Y-69960108D01*
X228552775Y-69954967D01*
X228504100Y-69947792D01*
X228490753Y-69948448D01*
X228477468Y-69947052D01*
X228428479Y-69951510D01*
X228379344Y-69953926D01*
X228366383Y-69957161D01*
X228353076Y-69958372D01*
X228305884Y-69972261D01*
X228258156Y-69984174D01*
X228249760Y-69987233D01*
X228091010Y-70046318D01*
X228091000Y-70046323D01*
X228090824Y-70046387D01*
X228031628Y-70068440D01*
X228031618Y-70068445D01*
X228031489Y-70068492D01*
X227930946Y-70105975D01*
X227930944Y-70105976D01*
X227930892Y-70105995D01*
X227795247Y-70156578D01*
X227795238Y-70156583D01*
X227795220Y-70156589D01*
X227630720Y-70217941D01*
X227630717Y-70217942D01*
X227630699Y-70217949D01*
X227443664Y-70287714D01*
X227443573Y-70287747D01*
X227385713Y-70309331D01*
X227385706Y-70309334D01*
X227385707Y-70309334D01*
X227240159Y-70363630D01*
X227240084Y-70363658D01*
X227026525Y-70443332D01*
X227026495Y-70443343D01*
X226985636Y-70458587D01*
X226985629Y-70458590D01*
X226985630Y-70458590D01*
X226039480Y-70811599D01*
X226031732Y-70815388D01*
X226023452Y-70817825D01*
X225975679Y-70842801D01*
X225927273Y-70866473D01*
X225920406Y-70871697D01*
X225912760Y-70875694D01*
X225870742Y-70909477D01*
X225827862Y-70942096D01*
X225822144Y-70948550D01*
X225815415Y-70953960D01*
X225780761Y-70995260D01*
X225745031Y-71035588D01*
X225740672Y-71043035D01*
X225735127Y-71049644D01*
X225709160Y-71096878D01*
X225681939Y-71143388D01*
X225679111Y-71151537D01*
X225674953Y-71159100D01*
X225658658Y-71210471D01*
X225640986Y-71261390D01*
X225639794Y-71269939D01*
X225637186Y-71278160D01*
X225631178Y-71331723D01*
X225623734Y-71385098D01*
X225624224Y-71393707D01*
X225623262Y-71402287D01*
X225623200Y-71411223D01*
X223656822Y-71411223D01*
X223570155Y-71247000D01*
X222377000Y-71247000D01*
X222377000Y-71267000D01*
X222123000Y-71267000D01*
X222123000Y-71247000D01*
X220929845Y-71247000D01*
X220808524Y-71476890D01*
X220853175Y-71624099D01*
X220978359Y-71886920D01*
X221152412Y-72120269D01*
X221368645Y-72315178D01*
X221485534Y-72384805D01*
X221303368Y-72506525D01*
X221096525Y-72713368D01*
X220934010Y-72956589D01*
X220822068Y-73226842D01*
X220765000Y-73513740D01*
X220765000Y-73806260D01*
X220822068Y-74093158D01*
X220934010Y-74363411D01*
X221096525Y-74606632D01*
X221228380Y-74738487D01*
X221155820Y-74760498D01*
X221045506Y-74819463D01*
X220948815Y-74898815D01*
X220869463Y-74995506D01*
X220810498Y-75105820D01*
X220774188Y-75225518D01*
X220761928Y-75350000D01*
X205695000Y-75350000D01*
X205695000Y-73121990D01*
X205761212Y-72446703D01*
X205947456Y-71829835D01*
X206249971Y-71260886D01*
X206657233Y-70761534D01*
X207153732Y-70350794D01*
X207720552Y-70044315D01*
X208336108Y-69853769D01*
X209009425Y-69783000D01*
X221606733Y-69783000D01*
X221368645Y-69924822D01*
X221152412Y-70119731D01*
X220978359Y-70353080D01*
X220853175Y-70615901D01*
X220808524Y-70763110D01*
X220929845Y-70993000D01*
X222123000Y-70993000D01*
X222123000Y-70973000D01*
X222377000Y-70973000D01*
X222377000Y-70993000D01*
X223570155Y-70993000D01*
X223691476Y-70763110D01*
X223646825Y-70615901D01*
X223521641Y-70353080D01*
X223347588Y-70119731D01*
X223131355Y-69924822D01*
X222893267Y-69783000D01*
X232034135Y-69783000D01*
X232121213Y-69774423D01*
X232128356Y-69776580D01*
M02*
