M48
METRIC,TZ
T1C0.400
T2C1.000
%
G90
G05
T1
X208534Y-70866
X208534Y-75438
X209042Y-83312
X213360Y-70866
X213360Y-75438
X214122Y-86614
X218948Y-75438
X219202Y-71120
X228346Y-82550
X228346Y-87376
T2
X222250Y-71120
X222250Y-73660
X222250Y-76200
X219608Y-79959
X219608Y-82499
X219608Y-85039
X219608Y-87579
X222148Y-79959
X222148Y-82499
X222148Y-85039
X222148Y-87579
X217068Y-79959
X217068Y-82499
X217068Y-85039
X217068Y-87579
T0
M30
