G04 #@! TF.GenerationSoftware,KiCad,Pcbnew,(5.1.5)-3*
G04 #@! TF.CreationDate,2020-09-29T13:04:06-07:00*
G04 #@! TF.ProjectId,can_servo_x3_breakout,63616e5f-7365-4727-966f-5f78335f6272,rev?*
G04 #@! TF.SameCoordinates,Original*
G04 #@! TF.FileFunction,Copper,L1,Top*
G04 #@! TF.FilePolarity,Positive*
%FSLAX46Y46*%
G04 Gerber Fmt 4.6, Leading zero omitted, Abs format (unit mm)*
G04 Created by KiCad (PCBNEW (5.1.5)-3) date 2020-09-29 13:04:06*
%MOMM*%
%LPD*%
G04 APERTURE LIST*
%ADD10O,1.700000X1.700000*%
%ADD11R,1.700000X1.700000*%
%ADD12C,0.100000*%
%ADD13C,0.800000*%
%ADD14C,0.250000*%
%ADD15C,1.500000*%
%ADD16C,0.254000*%
G04 APERTURE END LIST*
D10*
X222148400Y-87579200D03*
X222148400Y-85039200D03*
X222148400Y-82499200D03*
D11*
X222148400Y-79959200D03*
D10*
X219608400Y-87579200D03*
X219608400Y-85039200D03*
X219608400Y-82499200D03*
D11*
X219608400Y-79959200D03*
D10*
X217068400Y-87579200D03*
X217068400Y-85039200D03*
X217068400Y-82499200D03*
D11*
X217068400Y-79959200D03*
D10*
X222250000Y-71120000D03*
X222250000Y-73660000D03*
D11*
X222250000Y-76200000D03*
G04 #@! TA.AperFunction,SMDPad,CuDef*
D12*
G36*
X211274504Y-86726204D02*
G01*
X211298773Y-86729804D01*
X211322571Y-86735765D01*
X211345671Y-86744030D01*
X211367849Y-86754520D01*
X211388893Y-86767133D01*
X211408598Y-86781747D01*
X211426777Y-86798223D01*
X211443253Y-86816402D01*
X211457867Y-86836107D01*
X211470480Y-86857151D01*
X211480970Y-86879329D01*
X211489235Y-86902429D01*
X211495196Y-86926227D01*
X211498796Y-86950496D01*
X211500000Y-86975000D01*
X211500000Y-87475000D01*
X211498796Y-87499504D01*
X211495196Y-87523773D01*
X211489235Y-87547571D01*
X211480970Y-87570671D01*
X211470480Y-87592849D01*
X211457867Y-87613893D01*
X211443253Y-87633598D01*
X211426777Y-87651777D01*
X211408598Y-87668253D01*
X211388893Y-87682867D01*
X211367849Y-87695480D01*
X211345671Y-87705970D01*
X211322571Y-87714235D01*
X211298773Y-87720196D01*
X211274504Y-87723796D01*
X211250000Y-87725000D01*
X209050000Y-87725000D01*
X209025496Y-87723796D01*
X209001227Y-87720196D01*
X208977429Y-87714235D01*
X208954329Y-87705970D01*
X208932151Y-87695480D01*
X208911107Y-87682867D01*
X208891402Y-87668253D01*
X208873223Y-87651777D01*
X208856747Y-87633598D01*
X208842133Y-87613893D01*
X208829520Y-87592849D01*
X208819030Y-87570671D01*
X208810765Y-87547571D01*
X208804804Y-87523773D01*
X208801204Y-87499504D01*
X208800000Y-87475000D01*
X208800000Y-86975000D01*
X208801204Y-86950496D01*
X208804804Y-86926227D01*
X208810765Y-86902429D01*
X208819030Y-86879329D01*
X208829520Y-86857151D01*
X208842133Y-86836107D01*
X208856747Y-86816402D01*
X208873223Y-86798223D01*
X208891402Y-86781747D01*
X208911107Y-86767133D01*
X208932151Y-86754520D01*
X208954329Y-86744030D01*
X208977429Y-86735765D01*
X209001227Y-86729804D01*
X209025496Y-86726204D01*
X209050000Y-86725000D01*
X211250000Y-86725000D01*
X211274504Y-86726204D01*
G37*
G04 #@! TD.AperFunction*
G04 #@! TA.AperFunction,SMDPad,CuDef*
G36*
X211274504Y-79276204D02*
G01*
X211298773Y-79279804D01*
X211322571Y-79285765D01*
X211345671Y-79294030D01*
X211367849Y-79304520D01*
X211388893Y-79317133D01*
X211408598Y-79331747D01*
X211426777Y-79348223D01*
X211443253Y-79366402D01*
X211457867Y-79386107D01*
X211470480Y-79407151D01*
X211480970Y-79429329D01*
X211489235Y-79452429D01*
X211495196Y-79476227D01*
X211498796Y-79500496D01*
X211500000Y-79525000D01*
X211500000Y-80025000D01*
X211498796Y-80049504D01*
X211495196Y-80073773D01*
X211489235Y-80097571D01*
X211480970Y-80120671D01*
X211470480Y-80142849D01*
X211457867Y-80163893D01*
X211443253Y-80183598D01*
X211426777Y-80201777D01*
X211408598Y-80218253D01*
X211388893Y-80232867D01*
X211367849Y-80245480D01*
X211345671Y-80255970D01*
X211322571Y-80264235D01*
X211298773Y-80270196D01*
X211274504Y-80273796D01*
X211250000Y-80275000D01*
X209050000Y-80275000D01*
X209025496Y-80273796D01*
X209001227Y-80270196D01*
X208977429Y-80264235D01*
X208954329Y-80255970D01*
X208932151Y-80245480D01*
X208911107Y-80232867D01*
X208891402Y-80218253D01*
X208873223Y-80201777D01*
X208856747Y-80183598D01*
X208842133Y-80163893D01*
X208829520Y-80142849D01*
X208819030Y-80120671D01*
X208810765Y-80097571D01*
X208804804Y-80073773D01*
X208801204Y-80049504D01*
X208800000Y-80025000D01*
X208800000Y-79525000D01*
X208801204Y-79500496D01*
X208804804Y-79476227D01*
X208810765Y-79452429D01*
X208819030Y-79429329D01*
X208829520Y-79407151D01*
X208842133Y-79386107D01*
X208856747Y-79366402D01*
X208873223Y-79348223D01*
X208891402Y-79331747D01*
X208911107Y-79317133D01*
X208932151Y-79304520D01*
X208954329Y-79294030D01*
X208977429Y-79285765D01*
X209001227Y-79279804D01*
X209025496Y-79276204D01*
X209050000Y-79275000D01*
X211250000Y-79275000D01*
X211274504Y-79276204D01*
G37*
G04 #@! TD.AperFunction*
G04 #@! TA.AperFunction,SMDPad,CuDef*
G36*
X214064703Y-85075722D02*
G01*
X214079264Y-85077882D01*
X214093543Y-85081459D01*
X214107403Y-85086418D01*
X214120710Y-85092712D01*
X214133336Y-85100280D01*
X214145159Y-85109048D01*
X214156066Y-85118934D01*
X214165952Y-85129841D01*
X214174720Y-85141664D01*
X214182288Y-85154290D01*
X214188582Y-85167597D01*
X214193541Y-85181457D01*
X214197118Y-85195736D01*
X214199278Y-85210297D01*
X214200000Y-85225000D01*
X214200000Y-85525000D01*
X214199278Y-85539703D01*
X214197118Y-85554264D01*
X214193541Y-85568543D01*
X214188582Y-85582403D01*
X214182288Y-85595710D01*
X214174720Y-85608336D01*
X214165952Y-85620159D01*
X214156066Y-85631066D01*
X214145159Y-85640952D01*
X214133336Y-85649720D01*
X214120710Y-85657288D01*
X214107403Y-85663582D01*
X214093543Y-85668541D01*
X214079264Y-85672118D01*
X214064703Y-85674278D01*
X214050000Y-85675000D01*
X212650000Y-85675000D01*
X212635297Y-85674278D01*
X212620736Y-85672118D01*
X212606457Y-85668541D01*
X212592597Y-85663582D01*
X212579290Y-85657288D01*
X212566664Y-85649720D01*
X212554841Y-85640952D01*
X212543934Y-85631066D01*
X212534048Y-85620159D01*
X212525280Y-85608336D01*
X212517712Y-85595710D01*
X212511418Y-85582403D01*
X212506459Y-85568543D01*
X212502882Y-85554264D01*
X212500722Y-85539703D01*
X212500000Y-85525000D01*
X212500000Y-85225000D01*
X212500722Y-85210297D01*
X212502882Y-85195736D01*
X212506459Y-85181457D01*
X212511418Y-85167597D01*
X212517712Y-85154290D01*
X212525280Y-85141664D01*
X212534048Y-85129841D01*
X212543934Y-85118934D01*
X212554841Y-85109048D01*
X212566664Y-85100280D01*
X212579290Y-85092712D01*
X212592597Y-85086418D01*
X212606457Y-85081459D01*
X212620736Y-85077882D01*
X212635297Y-85075722D01*
X212650000Y-85075000D01*
X214050000Y-85075000D01*
X214064703Y-85075722D01*
G37*
G04 #@! TD.AperFunction*
G04 #@! TA.AperFunction,SMDPad,CuDef*
G36*
X214064703Y-83825722D02*
G01*
X214079264Y-83827882D01*
X214093543Y-83831459D01*
X214107403Y-83836418D01*
X214120710Y-83842712D01*
X214133336Y-83850280D01*
X214145159Y-83859048D01*
X214156066Y-83868934D01*
X214165952Y-83879841D01*
X214174720Y-83891664D01*
X214182288Y-83904290D01*
X214188582Y-83917597D01*
X214193541Y-83931457D01*
X214197118Y-83945736D01*
X214199278Y-83960297D01*
X214200000Y-83975000D01*
X214200000Y-84275000D01*
X214199278Y-84289703D01*
X214197118Y-84304264D01*
X214193541Y-84318543D01*
X214188582Y-84332403D01*
X214182288Y-84345710D01*
X214174720Y-84358336D01*
X214165952Y-84370159D01*
X214156066Y-84381066D01*
X214145159Y-84390952D01*
X214133336Y-84399720D01*
X214120710Y-84407288D01*
X214107403Y-84413582D01*
X214093543Y-84418541D01*
X214079264Y-84422118D01*
X214064703Y-84424278D01*
X214050000Y-84425000D01*
X212650000Y-84425000D01*
X212635297Y-84424278D01*
X212620736Y-84422118D01*
X212606457Y-84418541D01*
X212592597Y-84413582D01*
X212579290Y-84407288D01*
X212566664Y-84399720D01*
X212554841Y-84390952D01*
X212543934Y-84381066D01*
X212534048Y-84370159D01*
X212525280Y-84358336D01*
X212517712Y-84345710D01*
X212511418Y-84332403D01*
X212506459Y-84318543D01*
X212502882Y-84304264D01*
X212500722Y-84289703D01*
X212500000Y-84275000D01*
X212500000Y-83975000D01*
X212500722Y-83960297D01*
X212502882Y-83945736D01*
X212506459Y-83931457D01*
X212511418Y-83917597D01*
X212517712Y-83904290D01*
X212525280Y-83891664D01*
X212534048Y-83879841D01*
X212543934Y-83868934D01*
X212554841Y-83859048D01*
X212566664Y-83850280D01*
X212579290Y-83842712D01*
X212592597Y-83836418D01*
X212606457Y-83831459D01*
X212620736Y-83827882D01*
X212635297Y-83825722D01*
X212650000Y-83825000D01*
X214050000Y-83825000D01*
X214064703Y-83825722D01*
G37*
G04 #@! TD.AperFunction*
G04 #@! TA.AperFunction,SMDPad,CuDef*
G36*
X214064703Y-82575722D02*
G01*
X214079264Y-82577882D01*
X214093543Y-82581459D01*
X214107403Y-82586418D01*
X214120710Y-82592712D01*
X214133336Y-82600280D01*
X214145159Y-82609048D01*
X214156066Y-82618934D01*
X214165952Y-82629841D01*
X214174720Y-82641664D01*
X214182288Y-82654290D01*
X214188582Y-82667597D01*
X214193541Y-82681457D01*
X214197118Y-82695736D01*
X214199278Y-82710297D01*
X214200000Y-82725000D01*
X214200000Y-83025000D01*
X214199278Y-83039703D01*
X214197118Y-83054264D01*
X214193541Y-83068543D01*
X214188582Y-83082403D01*
X214182288Y-83095710D01*
X214174720Y-83108336D01*
X214165952Y-83120159D01*
X214156066Y-83131066D01*
X214145159Y-83140952D01*
X214133336Y-83149720D01*
X214120710Y-83157288D01*
X214107403Y-83163582D01*
X214093543Y-83168541D01*
X214079264Y-83172118D01*
X214064703Y-83174278D01*
X214050000Y-83175000D01*
X212650000Y-83175000D01*
X212635297Y-83174278D01*
X212620736Y-83172118D01*
X212606457Y-83168541D01*
X212592597Y-83163582D01*
X212579290Y-83157288D01*
X212566664Y-83149720D01*
X212554841Y-83140952D01*
X212543934Y-83131066D01*
X212534048Y-83120159D01*
X212525280Y-83108336D01*
X212517712Y-83095710D01*
X212511418Y-83082403D01*
X212506459Y-83068543D01*
X212502882Y-83054264D01*
X212500722Y-83039703D01*
X212500000Y-83025000D01*
X212500000Y-82725000D01*
X212500722Y-82710297D01*
X212502882Y-82695736D01*
X212506459Y-82681457D01*
X212511418Y-82667597D01*
X212517712Y-82654290D01*
X212525280Y-82641664D01*
X212534048Y-82629841D01*
X212543934Y-82618934D01*
X212554841Y-82609048D01*
X212566664Y-82600280D01*
X212579290Y-82592712D01*
X212592597Y-82586418D01*
X212606457Y-82581459D01*
X212620736Y-82577882D01*
X212635297Y-82575722D01*
X212650000Y-82575000D01*
X214050000Y-82575000D01*
X214064703Y-82575722D01*
G37*
G04 #@! TD.AperFunction*
G04 #@! TA.AperFunction,SMDPad,CuDef*
G36*
X214064703Y-81325722D02*
G01*
X214079264Y-81327882D01*
X214093543Y-81331459D01*
X214107403Y-81336418D01*
X214120710Y-81342712D01*
X214133336Y-81350280D01*
X214145159Y-81359048D01*
X214156066Y-81368934D01*
X214165952Y-81379841D01*
X214174720Y-81391664D01*
X214182288Y-81404290D01*
X214188582Y-81417597D01*
X214193541Y-81431457D01*
X214197118Y-81445736D01*
X214199278Y-81460297D01*
X214200000Y-81475000D01*
X214200000Y-81775000D01*
X214199278Y-81789703D01*
X214197118Y-81804264D01*
X214193541Y-81818543D01*
X214188582Y-81832403D01*
X214182288Y-81845710D01*
X214174720Y-81858336D01*
X214165952Y-81870159D01*
X214156066Y-81881066D01*
X214145159Y-81890952D01*
X214133336Y-81899720D01*
X214120710Y-81907288D01*
X214107403Y-81913582D01*
X214093543Y-81918541D01*
X214079264Y-81922118D01*
X214064703Y-81924278D01*
X214050000Y-81925000D01*
X212650000Y-81925000D01*
X212635297Y-81924278D01*
X212620736Y-81922118D01*
X212606457Y-81918541D01*
X212592597Y-81913582D01*
X212579290Y-81907288D01*
X212566664Y-81899720D01*
X212554841Y-81890952D01*
X212543934Y-81881066D01*
X212534048Y-81870159D01*
X212525280Y-81858336D01*
X212517712Y-81845710D01*
X212511418Y-81832403D01*
X212506459Y-81818543D01*
X212502882Y-81804264D01*
X212500722Y-81789703D01*
X212500000Y-81775000D01*
X212500000Y-81475000D01*
X212500722Y-81460297D01*
X212502882Y-81445736D01*
X212506459Y-81431457D01*
X212511418Y-81417597D01*
X212517712Y-81404290D01*
X212525280Y-81391664D01*
X212534048Y-81379841D01*
X212543934Y-81368934D01*
X212554841Y-81359048D01*
X212566664Y-81350280D01*
X212579290Y-81342712D01*
X212592597Y-81336418D01*
X212606457Y-81331459D01*
X212620736Y-81327882D01*
X212635297Y-81325722D01*
X212650000Y-81325000D01*
X214050000Y-81325000D01*
X214064703Y-81325722D01*
G37*
G04 #@! TD.AperFunction*
D13*
X228346000Y-87376000D03*
X228346000Y-82550000D03*
X208534000Y-70866000D03*
X213360000Y-75438000D03*
X208534000Y-75438000D03*
X213360000Y-70866000D03*
X209042000Y-83312000D03*
X218948000Y-75438000D03*
X219202000Y-71120000D03*
X214122000Y-86614000D03*
D14*
X213350000Y-85375000D02*
X213350000Y-85842000D01*
X213350000Y-85842000D02*
X214122000Y-86614000D01*
D15*
X223452081Y-73660000D02*
X224536000Y-74743919D01*
X222250000Y-73660000D02*
X223452081Y-73660000D01*
X224536000Y-81313681D02*
X223350481Y-82499200D01*
X223350481Y-82499200D02*
X222148400Y-82499200D01*
X224536000Y-74743919D02*
X224536000Y-81313681D01*
X217068400Y-82499200D02*
X222148400Y-82499200D01*
D14*
X217068400Y-85039200D02*
X222148400Y-85039200D01*
X213350000Y-84125000D02*
X214528600Y-84125000D01*
X214528600Y-84125000D02*
X214782400Y-84378800D01*
X214782400Y-84378800D02*
X214782400Y-85648800D01*
X214782400Y-85648800D02*
X215392000Y-86258400D01*
X215849200Y-86258400D02*
X217068400Y-85039200D01*
X215392000Y-86258400D02*
X215849200Y-86258400D01*
X220946319Y-87579200D02*
X217068400Y-87579200D01*
X222148400Y-87579200D02*
X220946319Y-87579200D01*
X217068400Y-87579200D02*
X213461600Y-87579200D01*
X212500000Y-82875000D02*
X213350000Y-82875000D01*
X212174990Y-83200010D02*
X212500000Y-82875000D01*
X212174990Y-86292590D02*
X212174990Y-83200010D01*
X213461600Y-87579200D02*
X212174990Y-86292590D01*
D16*
G36*
X232128356Y-69776580D02*
G01*
X232186405Y-69807445D01*
X232237343Y-69848989D01*
X232279248Y-69899644D01*
X232310515Y-69957471D01*
X232313534Y-69967222D01*
X232305000Y-70053866D01*
X232305001Y-89034135D01*
X232313577Y-89121210D01*
X232311420Y-89128357D01*
X232280554Y-89186406D01*
X232239011Y-89237343D01*
X232188356Y-89279248D01*
X232130529Y-89310515D01*
X232120778Y-89313534D01*
X232034135Y-89305000D01*
X208965865Y-89305000D01*
X208863756Y-89315057D01*
X208842781Y-89321420D01*
X208351874Y-89273286D01*
X207728430Y-89085057D01*
X207153427Y-88779323D01*
X206648752Y-88367721D01*
X206233638Y-87865933D01*
X205923896Y-87293077D01*
X205825435Y-86975000D01*
X208161928Y-86975000D01*
X208161928Y-87475000D01*
X208178992Y-87648254D01*
X208229528Y-87814850D01*
X208311595Y-87968386D01*
X208422038Y-88102962D01*
X208556614Y-88213405D01*
X208710150Y-88295472D01*
X208876746Y-88346008D01*
X209050000Y-88363072D01*
X211250000Y-88363072D01*
X211423254Y-88346008D01*
X211589850Y-88295472D01*
X211743386Y-88213405D01*
X211877962Y-88102962D01*
X211988405Y-87968386D01*
X212070472Y-87814850D01*
X212121008Y-87648254D01*
X212138072Y-87475000D01*
X212138072Y-87330473D01*
X212897801Y-88090203D01*
X212921599Y-88119201D01*
X213037324Y-88214174D01*
X213169353Y-88284746D01*
X213312614Y-88328203D01*
X213424267Y-88339200D01*
X213424276Y-88339200D01*
X213461599Y-88342876D01*
X213498922Y-88339200D01*
X215790222Y-88339200D01*
X215914925Y-88525832D01*
X216121768Y-88732675D01*
X216364989Y-88895190D01*
X216635242Y-89007132D01*
X216922140Y-89064200D01*
X217214660Y-89064200D01*
X217501558Y-89007132D01*
X217771811Y-88895190D01*
X218015032Y-88732675D01*
X218221875Y-88525832D01*
X218338400Y-88351440D01*
X218454925Y-88525832D01*
X218661768Y-88732675D01*
X218904989Y-88895190D01*
X219175242Y-89007132D01*
X219462140Y-89064200D01*
X219754660Y-89064200D01*
X220041558Y-89007132D01*
X220311811Y-88895190D01*
X220555032Y-88732675D01*
X220761875Y-88525832D01*
X220878400Y-88351440D01*
X220994925Y-88525832D01*
X221201768Y-88732675D01*
X221444989Y-88895190D01*
X221715242Y-89007132D01*
X222002140Y-89064200D01*
X222294660Y-89064200D01*
X222581558Y-89007132D01*
X222851811Y-88895190D01*
X223095032Y-88732675D01*
X223301875Y-88525832D01*
X223464390Y-88282611D01*
X223576332Y-88012358D01*
X223633400Y-87725460D01*
X223633400Y-87432940D01*
X223576332Y-87146042D01*
X223464390Y-86875789D01*
X223301875Y-86632568D01*
X223095032Y-86425725D01*
X222920640Y-86309200D01*
X223095032Y-86192675D01*
X223301875Y-85985832D01*
X223464390Y-85742611D01*
X223576332Y-85472358D01*
X223633400Y-85185460D01*
X223633400Y-84892940D01*
X223576332Y-84606042D01*
X223464390Y-84335789D01*
X223301875Y-84092568D01*
X223095032Y-83885725D01*
X223092750Y-83884200D01*
X223282452Y-83884200D01*
X223350481Y-83890900D01*
X223418510Y-83884200D01*
X223418518Y-83884200D01*
X223621988Y-83864160D01*
X223883062Y-83784964D01*
X224123669Y-83656357D01*
X224334562Y-83483281D01*
X224377935Y-83430431D01*
X225467236Y-82341131D01*
X225520081Y-82297762D01*
X225577586Y-82227693D01*
X225693156Y-82086870D01*
X225698656Y-82076582D01*
X225821764Y-81846262D01*
X225843381Y-81775000D01*
X225900960Y-81585189D01*
X225907861Y-81515119D01*
X225921000Y-81381718D01*
X225921000Y-81381711D01*
X225927700Y-81313682D01*
X225921000Y-81245653D01*
X225921000Y-74811948D01*
X225927700Y-74743919D01*
X225921000Y-74675890D01*
X225921000Y-74675882D01*
X225900960Y-74472412D01*
X225821764Y-74211338D01*
X225693157Y-73970731D01*
X225633932Y-73898566D01*
X225563452Y-73812685D01*
X225563445Y-73812678D01*
X225520080Y-73759838D01*
X225467241Y-73716474D01*
X224479535Y-72728769D01*
X224436162Y-72675919D01*
X224225269Y-72502843D01*
X223984662Y-72374236D01*
X223723588Y-72295040D01*
X223520118Y-72275000D01*
X223520110Y-72275000D01*
X223452081Y-72268300D01*
X223384052Y-72275000D01*
X223175929Y-72275000D01*
X223347588Y-72120269D01*
X223521641Y-71886920D01*
X223646825Y-71624099D01*
X223691476Y-71476890D01*
X223570155Y-71247000D01*
X222377000Y-71247000D01*
X222377000Y-71267000D01*
X222123000Y-71267000D01*
X222123000Y-71247000D01*
X220929845Y-71247000D01*
X220808524Y-71476890D01*
X220853175Y-71624099D01*
X220978359Y-71886920D01*
X221152412Y-72120269D01*
X221368645Y-72315178D01*
X221485534Y-72384805D01*
X221303368Y-72506525D01*
X221096525Y-72713368D01*
X220934010Y-72956589D01*
X220822068Y-73226842D01*
X220765000Y-73513740D01*
X220765000Y-73806260D01*
X220822068Y-74093158D01*
X220934010Y-74363411D01*
X221096525Y-74606632D01*
X221228380Y-74738487D01*
X221155820Y-74760498D01*
X221045506Y-74819463D01*
X220948815Y-74898815D01*
X220869463Y-74995506D01*
X220810498Y-75105820D01*
X220774188Y-75225518D01*
X220761928Y-75350000D01*
X220765000Y-75914250D01*
X220923750Y-76073000D01*
X222123000Y-76073000D01*
X222123000Y-76053000D01*
X222377000Y-76053000D01*
X222377000Y-76073000D01*
X222397000Y-76073000D01*
X222397000Y-76327000D01*
X222377000Y-76327000D01*
X222377000Y-77526250D01*
X222535750Y-77685000D01*
X223100000Y-77688072D01*
X223151000Y-77683049D01*
X223151001Y-78491918D01*
X223122882Y-78483388D01*
X222998400Y-78471128D01*
X222434150Y-78474200D01*
X222275400Y-78632950D01*
X222275400Y-79832200D01*
X222295400Y-79832200D01*
X222295400Y-80086200D01*
X222275400Y-80086200D01*
X222275400Y-80106200D01*
X222021400Y-80106200D01*
X222021400Y-80086200D01*
X219735400Y-80086200D01*
X219735400Y-80106200D01*
X219481400Y-80106200D01*
X219481400Y-80086200D01*
X217195400Y-80086200D01*
X217195400Y-80106200D01*
X216941400Y-80106200D01*
X216941400Y-80086200D01*
X215742150Y-80086200D01*
X215583400Y-80244950D01*
X215580328Y-80809200D01*
X215592588Y-80933682D01*
X215628898Y-81053380D01*
X215687863Y-81163694D01*
X215767215Y-81260385D01*
X215863906Y-81339737D01*
X215974220Y-81398702D01*
X216046780Y-81420713D01*
X215914925Y-81552568D01*
X215752410Y-81795789D01*
X215640468Y-82066042D01*
X215583400Y-82352940D01*
X215583400Y-82645460D01*
X215640468Y-82932358D01*
X215752410Y-83202611D01*
X215914925Y-83445832D01*
X216121768Y-83652675D01*
X216296160Y-83769200D01*
X216121768Y-83885725D01*
X215914925Y-84092568D01*
X215752410Y-84335789D01*
X215640468Y-84606042D01*
X215583400Y-84892940D01*
X215583400Y-85185460D01*
X215627191Y-85405608D01*
X215620600Y-85412199D01*
X215542400Y-85333999D01*
X215542400Y-84416122D01*
X215546076Y-84378799D01*
X215542400Y-84341476D01*
X215542400Y-84341467D01*
X215531403Y-84229814D01*
X215487946Y-84086553D01*
X215417374Y-83954524D01*
X215322401Y-83838799D01*
X215293403Y-83815001D01*
X215092403Y-83614002D01*
X215068601Y-83584999D01*
X214952876Y-83490026D01*
X214820847Y-83419454D01*
X214741335Y-83395335D01*
X214778084Y-83326582D01*
X214822929Y-83178745D01*
X214838072Y-83025000D01*
X214838072Y-82725000D01*
X214822929Y-82571255D01*
X214778084Y-82423418D01*
X214705258Y-82287171D01*
X214674753Y-82250000D01*
X214705258Y-82212829D01*
X214778084Y-82076582D01*
X214822929Y-81928745D01*
X214838072Y-81775000D01*
X214838072Y-81475000D01*
X214822929Y-81321255D01*
X214778084Y-81173418D01*
X214705258Y-81037171D01*
X214607251Y-80917749D01*
X214487829Y-80819742D01*
X214351582Y-80746916D01*
X214203745Y-80702071D01*
X214050000Y-80686928D01*
X212650000Y-80686928D01*
X212496255Y-80702071D01*
X212348418Y-80746916D01*
X212212171Y-80819742D01*
X212092749Y-80917749D01*
X211994742Y-81037171D01*
X211921916Y-81173418D01*
X211877071Y-81321255D01*
X211861928Y-81475000D01*
X211861928Y-81775000D01*
X211877071Y-81928745D01*
X211921916Y-82076582D01*
X211994742Y-82212829D01*
X212025247Y-82250000D01*
X211994742Y-82287171D01*
X211976350Y-82321580D01*
X211959999Y-82334999D01*
X211936196Y-82364003D01*
X211663988Y-82636211D01*
X211634990Y-82660009D01*
X211611192Y-82689007D01*
X211611191Y-82689008D01*
X211540016Y-82775734D01*
X211469444Y-82907764D01*
X211425988Y-83051025D01*
X211411314Y-83200010D01*
X211414991Y-83237342D01*
X211414990Y-86103178D01*
X211250000Y-86086928D01*
X209050000Y-86086928D01*
X208876746Y-86103992D01*
X208710150Y-86154528D01*
X208556614Y-86236595D01*
X208422038Y-86347038D01*
X208311595Y-86481614D01*
X208229528Y-86635150D01*
X208178992Y-86801746D01*
X208161928Y-86975000D01*
X205825435Y-86975000D01*
X205731318Y-86670961D01*
X205677645Y-86160301D01*
X205684943Y-86136244D01*
X205695000Y-86034135D01*
X205695000Y-79525000D01*
X208161928Y-79525000D01*
X208161928Y-80025000D01*
X208178992Y-80198254D01*
X208229528Y-80364850D01*
X208311595Y-80518386D01*
X208422038Y-80652962D01*
X208556614Y-80763405D01*
X208710150Y-80845472D01*
X208876746Y-80896008D01*
X209050000Y-80913072D01*
X211250000Y-80913072D01*
X211423254Y-80896008D01*
X211589850Y-80845472D01*
X211743386Y-80763405D01*
X211877962Y-80652962D01*
X211988405Y-80518386D01*
X212070472Y-80364850D01*
X212121008Y-80198254D01*
X212138072Y-80025000D01*
X212138072Y-79525000D01*
X212121008Y-79351746D01*
X212070472Y-79185150D01*
X212029876Y-79109200D01*
X215580328Y-79109200D01*
X215583400Y-79673450D01*
X215742150Y-79832200D01*
X216941400Y-79832200D01*
X216941400Y-78632950D01*
X217195400Y-78632950D01*
X217195400Y-79832200D01*
X219481400Y-79832200D01*
X219481400Y-78632950D01*
X219735400Y-78632950D01*
X219735400Y-79832200D01*
X222021400Y-79832200D01*
X222021400Y-78632950D01*
X221862650Y-78474200D01*
X221298400Y-78471128D01*
X221173918Y-78483388D01*
X221054220Y-78519698D01*
X220943906Y-78578663D01*
X220878400Y-78632422D01*
X220812894Y-78578663D01*
X220702580Y-78519698D01*
X220582882Y-78483388D01*
X220458400Y-78471128D01*
X219894150Y-78474200D01*
X219735400Y-78632950D01*
X219481400Y-78632950D01*
X219322650Y-78474200D01*
X218758400Y-78471128D01*
X218633918Y-78483388D01*
X218514220Y-78519698D01*
X218403906Y-78578663D01*
X218338400Y-78632422D01*
X218272894Y-78578663D01*
X218162580Y-78519698D01*
X218042882Y-78483388D01*
X217918400Y-78471128D01*
X217354150Y-78474200D01*
X217195400Y-78632950D01*
X216941400Y-78632950D01*
X216782650Y-78474200D01*
X216218400Y-78471128D01*
X216093918Y-78483388D01*
X215974220Y-78519698D01*
X215863906Y-78578663D01*
X215767215Y-78658015D01*
X215687863Y-78754706D01*
X215628898Y-78865020D01*
X215592588Y-78984718D01*
X215580328Y-79109200D01*
X212029876Y-79109200D01*
X211988405Y-79031614D01*
X211877962Y-78897038D01*
X211743386Y-78786595D01*
X211589850Y-78704528D01*
X211423254Y-78653992D01*
X211250000Y-78636928D01*
X209050000Y-78636928D01*
X208876746Y-78653992D01*
X208710150Y-78704528D01*
X208556614Y-78786595D01*
X208422038Y-78897038D01*
X208311595Y-79031614D01*
X208229528Y-79185150D01*
X208178992Y-79351746D01*
X208161928Y-79525000D01*
X205695000Y-79525000D01*
X205695000Y-77050000D01*
X220761928Y-77050000D01*
X220774188Y-77174482D01*
X220810498Y-77294180D01*
X220869463Y-77404494D01*
X220948815Y-77501185D01*
X221045506Y-77580537D01*
X221155820Y-77639502D01*
X221275518Y-77675812D01*
X221400000Y-77688072D01*
X221964250Y-77685000D01*
X222123000Y-77526250D01*
X222123000Y-76327000D01*
X220923750Y-76327000D01*
X220765000Y-76485750D01*
X220761928Y-77050000D01*
X205695000Y-77050000D01*
X205695000Y-73121990D01*
X205761212Y-72446703D01*
X205947456Y-71829835D01*
X206249971Y-71260886D01*
X206657233Y-70761534D01*
X207153732Y-70350794D01*
X207720552Y-70044315D01*
X208336108Y-69853769D01*
X209009425Y-69783000D01*
X221606733Y-69783000D01*
X221368645Y-69924822D01*
X221152412Y-70119731D01*
X220978359Y-70353080D01*
X220853175Y-70615901D01*
X220808524Y-70763110D01*
X220929845Y-70993000D01*
X222123000Y-70993000D01*
X222123000Y-70973000D01*
X222377000Y-70973000D01*
X222377000Y-70993000D01*
X223570155Y-70993000D01*
X223691476Y-70763110D01*
X223646825Y-70615901D01*
X223521641Y-70353080D01*
X223347588Y-70119731D01*
X223131355Y-69924822D01*
X222893267Y-69783000D01*
X232034135Y-69783000D01*
X232121213Y-69774423D01*
X232128356Y-69776580D01*
G37*
X232128356Y-69776580D02*
X232186405Y-69807445D01*
X232237343Y-69848989D01*
X232279248Y-69899644D01*
X232310515Y-69957471D01*
X232313534Y-69967222D01*
X232305000Y-70053866D01*
X232305001Y-89034135D01*
X232313577Y-89121210D01*
X232311420Y-89128357D01*
X232280554Y-89186406D01*
X232239011Y-89237343D01*
X232188356Y-89279248D01*
X232130529Y-89310515D01*
X232120778Y-89313534D01*
X232034135Y-89305000D01*
X208965865Y-89305000D01*
X208863756Y-89315057D01*
X208842781Y-89321420D01*
X208351874Y-89273286D01*
X207728430Y-89085057D01*
X207153427Y-88779323D01*
X206648752Y-88367721D01*
X206233638Y-87865933D01*
X205923896Y-87293077D01*
X205825435Y-86975000D01*
X208161928Y-86975000D01*
X208161928Y-87475000D01*
X208178992Y-87648254D01*
X208229528Y-87814850D01*
X208311595Y-87968386D01*
X208422038Y-88102962D01*
X208556614Y-88213405D01*
X208710150Y-88295472D01*
X208876746Y-88346008D01*
X209050000Y-88363072D01*
X211250000Y-88363072D01*
X211423254Y-88346008D01*
X211589850Y-88295472D01*
X211743386Y-88213405D01*
X211877962Y-88102962D01*
X211988405Y-87968386D01*
X212070472Y-87814850D01*
X212121008Y-87648254D01*
X212138072Y-87475000D01*
X212138072Y-87330473D01*
X212897801Y-88090203D01*
X212921599Y-88119201D01*
X213037324Y-88214174D01*
X213169353Y-88284746D01*
X213312614Y-88328203D01*
X213424267Y-88339200D01*
X213424276Y-88339200D01*
X213461599Y-88342876D01*
X213498922Y-88339200D01*
X215790222Y-88339200D01*
X215914925Y-88525832D01*
X216121768Y-88732675D01*
X216364989Y-88895190D01*
X216635242Y-89007132D01*
X216922140Y-89064200D01*
X217214660Y-89064200D01*
X217501558Y-89007132D01*
X217771811Y-88895190D01*
X218015032Y-88732675D01*
X218221875Y-88525832D01*
X218338400Y-88351440D01*
X218454925Y-88525832D01*
X218661768Y-88732675D01*
X218904989Y-88895190D01*
X219175242Y-89007132D01*
X219462140Y-89064200D01*
X219754660Y-89064200D01*
X220041558Y-89007132D01*
X220311811Y-88895190D01*
X220555032Y-88732675D01*
X220761875Y-88525832D01*
X220878400Y-88351440D01*
X220994925Y-88525832D01*
X221201768Y-88732675D01*
X221444989Y-88895190D01*
X221715242Y-89007132D01*
X222002140Y-89064200D01*
X222294660Y-89064200D01*
X222581558Y-89007132D01*
X222851811Y-88895190D01*
X223095032Y-88732675D01*
X223301875Y-88525832D01*
X223464390Y-88282611D01*
X223576332Y-88012358D01*
X223633400Y-87725460D01*
X223633400Y-87432940D01*
X223576332Y-87146042D01*
X223464390Y-86875789D01*
X223301875Y-86632568D01*
X223095032Y-86425725D01*
X222920640Y-86309200D01*
X223095032Y-86192675D01*
X223301875Y-85985832D01*
X223464390Y-85742611D01*
X223576332Y-85472358D01*
X223633400Y-85185460D01*
X223633400Y-84892940D01*
X223576332Y-84606042D01*
X223464390Y-84335789D01*
X223301875Y-84092568D01*
X223095032Y-83885725D01*
X223092750Y-83884200D01*
X223282452Y-83884200D01*
X223350481Y-83890900D01*
X223418510Y-83884200D01*
X223418518Y-83884200D01*
X223621988Y-83864160D01*
X223883062Y-83784964D01*
X224123669Y-83656357D01*
X224334562Y-83483281D01*
X224377935Y-83430431D01*
X225467236Y-82341131D01*
X225520081Y-82297762D01*
X225577586Y-82227693D01*
X225693156Y-82086870D01*
X225698656Y-82076582D01*
X225821764Y-81846262D01*
X225843381Y-81775000D01*
X225900960Y-81585189D01*
X225907861Y-81515119D01*
X225921000Y-81381718D01*
X225921000Y-81381711D01*
X225927700Y-81313682D01*
X225921000Y-81245653D01*
X225921000Y-74811948D01*
X225927700Y-74743919D01*
X225921000Y-74675890D01*
X225921000Y-74675882D01*
X225900960Y-74472412D01*
X225821764Y-74211338D01*
X225693157Y-73970731D01*
X225633932Y-73898566D01*
X225563452Y-73812685D01*
X225563445Y-73812678D01*
X225520080Y-73759838D01*
X225467241Y-73716474D01*
X224479535Y-72728769D01*
X224436162Y-72675919D01*
X224225269Y-72502843D01*
X223984662Y-72374236D01*
X223723588Y-72295040D01*
X223520118Y-72275000D01*
X223520110Y-72275000D01*
X223452081Y-72268300D01*
X223384052Y-72275000D01*
X223175929Y-72275000D01*
X223347588Y-72120269D01*
X223521641Y-71886920D01*
X223646825Y-71624099D01*
X223691476Y-71476890D01*
X223570155Y-71247000D01*
X222377000Y-71247000D01*
X222377000Y-71267000D01*
X222123000Y-71267000D01*
X222123000Y-71247000D01*
X220929845Y-71247000D01*
X220808524Y-71476890D01*
X220853175Y-71624099D01*
X220978359Y-71886920D01*
X221152412Y-72120269D01*
X221368645Y-72315178D01*
X221485534Y-72384805D01*
X221303368Y-72506525D01*
X221096525Y-72713368D01*
X220934010Y-72956589D01*
X220822068Y-73226842D01*
X220765000Y-73513740D01*
X220765000Y-73806260D01*
X220822068Y-74093158D01*
X220934010Y-74363411D01*
X221096525Y-74606632D01*
X221228380Y-74738487D01*
X221155820Y-74760498D01*
X221045506Y-74819463D01*
X220948815Y-74898815D01*
X220869463Y-74995506D01*
X220810498Y-75105820D01*
X220774188Y-75225518D01*
X220761928Y-75350000D01*
X220765000Y-75914250D01*
X220923750Y-76073000D01*
X222123000Y-76073000D01*
X222123000Y-76053000D01*
X222377000Y-76053000D01*
X222377000Y-76073000D01*
X222397000Y-76073000D01*
X222397000Y-76327000D01*
X222377000Y-76327000D01*
X222377000Y-77526250D01*
X222535750Y-77685000D01*
X223100000Y-77688072D01*
X223151000Y-77683049D01*
X223151001Y-78491918D01*
X223122882Y-78483388D01*
X222998400Y-78471128D01*
X222434150Y-78474200D01*
X222275400Y-78632950D01*
X222275400Y-79832200D01*
X222295400Y-79832200D01*
X222295400Y-80086200D01*
X222275400Y-80086200D01*
X222275400Y-80106200D01*
X222021400Y-80106200D01*
X222021400Y-80086200D01*
X219735400Y-80086200D01*
X219735400Y-80106200D01*
X219481400Y-80106200D01*
X219481400Y-80086200D01*
X217195400Y-80086200D01*
X217195400Y-80106200D01*
X216941400Y-80106200D01*
X216941400Y-80086200D01*
X215742150Y-80086200D01*
X215583400Y-80244950D01*
X215580328Y-80809200D01*
X215592588Y-80933682D01*
X215628898Y-81053380D01*
X215687863Y-81163694D01*
X215767215Y-81260385D01*
X215863906Y-81339737D01*
X215974220Y-81398702D01*
X216046780Y-81420713D01*
X215914925Y-81552568D01*
X215752410Y-81795789D01*
X215640468Y-82066042D01*
X215583400Y-82352940D01*
X215583400Y-82645460D01*
X215640468Y-82932358D01*
X215752410Y-83202611D01*
X215914925Y-83445832D01*
X216121768Y-83652675D01*
X216296160Y-83769200D01*
X216121768Y-83885725D01*
X215914925Y-84092568D01*
X215752410Y-84335789D01*
X215640468Y-84606042D01*
X215583400Y-84892940D01*
X215583400Y-85185460D01*
X215627191Y-85405608D01*
X215620600Y-85412199D01*
X215542400Y-85333999D01*
X215542400Y-84416122D01*
X215546076Y-84378799D01*
X215542400Y-84341476D01*
X215542400Y-84341467D01*
X215531403Y-84229814D01*
X215487946Y-84086553D01*
X215417374Y-83954524D01*
X215322401Y-83838799D01*
X215293403Y-83815001D01*
X215092403Y-83614002D01*
X215068601Y-83584999D01*
X214952876Y-83490026D01*
X214820847Y-83419454D01*
X214741335Y-83395335D01*
X214778084Y-83326582D01*
X214822929Y-83178745D01*
X214838072Y-83025000D01*
X214838072Y-82725000D01*
X214822929Y-82571255D01*
X214778084Y-82423418D01*
X214705258Y-82287171D01*
X214674753Y-82250000D01*
X214705258Y-82212829D01*
X214778084Y-82076582D01*
X214822929Y-81928745D01*
X214838072Y-81775000D01*
X214838072Y-81475000D01*
X214822929Y-81321255D01*
X214778084Y-81173418D01*
X214705258Y-81037171D01*
X214607251Y-80917749D01*
X214487829Y-80819742D01*
X214351582Y-80746916D01*
X214203745Y-80702071D01*
X214050000Y-80686928D01*
X212650000Y-80686928D01*
X212496255Y-80702071D01*
X212348418Y-80746916D01*
X212212171Y-80819742D01*
X212092749Y-80917749D01*
X211994742Y-81037171D01*
X211921916Y-81173418D01*
X211877071Y-81321255D01*
X211861928Y-81475000D01*
X211861928Y-81775000D01*
X211877071Y-81928745D01*
X211921916Y-82076582D01*
X211994742Y-82212829D01*
X212025247Y-82250000D01*
X211994742Y-82287171D01*
X211976350Y-82321580D01*
X211959999Y-82334999D01*
X211936196Y-82364003D01*
X211663988Y-82636211D01*
X211634990Y-82660009D01*
X211611192Y-82689007D01*
X211611191Y-82689008D01*
X211540016Y-82775734D01*
X211469444Y-82907764D01*
X211425988Y-83051025D01*
X211411314Y-83200010D01*
X211414991Y-83237342D01*
X211414990Y-86103178D01*
X211250000Y-86086928D01*
X209050000Y-86086928D01*
X208876746Y-86103992D01*
X208710150Y-86154528D01*
X208556614Y-86236595D01*
X208422038Y-86347038D01*
X208311595Y-86481614D01*
X208229528Y-86635150D01*
X208178992Y-86801746D01*
X208161928Y-86975000D01*
X205825435Y-86975000D01*
X205731318Y-86670961D01*
X205677645Y-86160301D01*
X205684943Y-86136244D01*
X205695000Y-86034135D01*
X205695000Y-79525000D01*
X208161928Y-79525000D01*
X208161928Y-80025000D01*
X208178992Y-80198254D01*
X208229528Y-80364850D01*
X208311595Y-80518386D01*
X208422038Y-80652962D01*
X208556614Y-80763405D01*
X208710150Y-80845472D01*
X208876746Y-80896008D01*
X209050000Y-80913072D01*
X211250000Y-80913072D01*
X211423254Y-80896008D01*
X211589850Y-80845472D01*
X211743386Y-80763405D01*
X211877962Y-80652962D01*
X211988405Y-80518386D01*
X212070472Y-80364850D01*
X212121008Y-80198254D01*
X212138072Y-80025000D01*
X212138072Y-79525000D01*
X212121008Y-79351746D01*
X212070472Y-79185150D01*
X212029876Y-79109200D01*
X215580328Y-79109200D01*
X215583400Y-79673450D01*
X215742150Y-79832200D01*
X216941400Y-79832200D01*
X216941400Y-78632950D01*
X217195400Y-78632950D01*
X217195400Y-79832200D01*
X219481400Y-79832200D01*
X219481400Y-78632950D01*
X219735400Y-78632950D01*
X219735400Y-79832200D01*
X222021400Y-79832200D01*
X222021400Y-78632950D01*
X221862650Y-78474200D01*
X221298400Y-78471128D01*
X221173918Y-78483388D01*
X221054220Y-78519698D01*
X220943906Y-78578663D01*
X220878400Y-78632422D01*
X220812894Y-78578663D01*
X220702580Y-78519698D01*
X220582882Y-78483388D01*
X220458400Y-78471128D01*
X219894150Y-78474200D01*
X219735400Y-78632950D01*
X219481400Y-78632950D01*
X219322650Y-78474200D01*
X218758400Y-78471128D01*
X218633918Y-78483388D01*
X218514220Y-78519698D01*
X218403906Y-78578663D01*
X218338400Y-78632422D01*
X218272894Y-78578663D01*
X218162580Y-78519698D01*
X218042882Y-78483388D01*
X217918400Y-78471128D01*
X217354150Y-78474200D01*
X217195400Y-78632950D01*
X216941400Y-78632950D01*
X216782650Y-78474200D01*
X216218400Y-78471128D01*
X216093918Y-78483388D01*
X215974220Y-78519698D01*
X215863906Y-78578663D01*
X215767215Y-78658015D01*
X215687863Y-78754706D01*
X215628898Y-78865020D01*
X215592588Y-78984718D01*
X215580328Y-79109200D01*
X212029876Y-79109200D01*
X211988405Y-79031614D01*
X211877962Y-78897038D01*
X211743386Y-78786595D01*
X211589850Y-78704528D01*
X211423254Y-78653992D01*
X211250000Y-78636928D01*
X209050000Y-78636928D01*
X208876746Y-78653992D01*
X208710150Y-78704528D01*
X208556614Y-78786595D01*
X208422038Y-78897038D01*
X208311595Y-79031614D01*
X208229528Y-79185150D01*
X208178992Y-79351746D01*
X208161928Y-79525000D01*
X205695000Y-79525000D01*
X205695000Y-77050000D01*
X220761928Y-77050000D01*
X220774188Y-77174482D01*
X220810498Y-77294180D01*
X220869463Y-77404494D01*
X220948815Y-77501185D01*
X221045506Y-77580537D01*
X221155820Y-77639502D01*
X221275518Y-77675812D01*
X221400000Y-77688072D01*
X221964250Y-77685000D01*
X222123000Y-77526250D01*
X222123000Y-76327000D01*
X220923750Y-76327000D01*
X220765000Y-76485750D01*
X220761928Y-77050000D01*
X205695000Y-77050000D01*
X205695000Y-73121990D01*
X205761212Y-72446703D01*
X205947456Y-71829835D01*
X206249971Y-71260886D01*
X206657233Y-70761534D01*
X207153732Y-70350794D01*
X207720552Y-70044315D01*
X208336108Y-69853769D01*
X209009425Y-69783000D01*
X221606733Y-69783000D01*
X221368645Y-69924822D01*
X221152412Y-70119731D01*
X220978359Y-70353080D01*
X220853175Y-70615901D01*
X220808524Y-70763110D01*
X220929845Y-70993000D01*
X222123000Y-70993000D01*
X222123000Y-70973000D01*
X222377000Y-70973000D01*
X222377000Y-70993000D01*
X223570155Y-70993000D01*
X223691476Y-70763110D01*
X223646825Y-70615901D01*
X223521641Y-70353080D01*
X223347588Y-70119731D01*
X223131355Y-69924822D01*
X222893267Y-69783000D01*
X232034135Y-69783000D01*
X232121213Y-69774423D01*
X232128356Y-69776580D01*
G36*
X213477000Y-85248000D02*
G01*
X213497000Y-85248000D01*
X213497000Y-85502000D01*
X213477000Y-85502000D01*
X213477000Y-86151250D01*
X213635750Y-86310000D01*
X214200000Y-86313072D01*
X214324482Y-86300812D01*
X214351435Y-86292636D01*
X214828200Y-86769402D01*
X214851999Y-86798401D01*
X214877343Y-86819200D01*
X213776402Y-86819200D01*
X213165726Y-86208524D01*
X213223000Y-86151250D01*
X213223000Y-85502000D01*
X213203000Y-85502000D01*
X213203000Y-85248000D01*
X213223000Y-85248000D01*
X213223000Y-85228000D01*
X213477000Y-85228000D01*
X213477000Y-85248000D01*
G37*
X213477000Y-85248000D02*
X213497000Y-85248000D01*
X213497000Y-85502000D01*
X213477000Y-85502000D01*
X213477000Y-86151250D01*
X213635750Y-86310000D01*
X214200000Y-86313072D01*
X214324482Y-86300812D01*
X214351435Y-86292636D01*
X214828200Y-86769402D01*
X214851999Y-86798401D01*
X214877343Y-86819200D01*
X213776402Y-86819200D01*
X213165726Y-86208524D01*
X213223000Y-86151250D01*
X213223000Y-85502000D01*
X213203000Y-85502000D01*
X213203000Y-85248000D01*
X213223000Y-85248000D01*
X213223000Y-85228000D01*
X213477000Y-85228000D01*
X213477000Y-85248000D01*
M02*
