G04 #@! TF.GenerationSoftware,KiCad,Pcbnew,(5.1.5)-3*
G04 #@! TF.CreationDate,2020-09-29T13:04:07-07:00*
G04 #@! TF.ProjectId,can_servo_x3_breakout,63616e5f-7365-4727-966f-5f78335f6272,rev?*
G04 #@! TF.SameCoordinates,Original*
G04 #@! TF.FileFunction,Soldermask,Bot*
G04 #@! TF.FilePolarity,Negative*
%FSLAX46Y46*%
G04 Gerber Fmt 4.6, Leading zero omitted, Abs format (unit mm)*
G04 Created by KiCad (PCBNEW (5.1.5)-3) date 2020-09-29 13:04:07*
%MOMM*%
%LPD*%
G04 APERTURE LIST*
%ADD10C,0.010000*%
%ADD11C,0.100000*%
G04 APERTURE END LIST*
D10*
G36*
X225882799Y-76251316D02*
G01*
X225885121Y-76374800D01*
X225889954Y-76464813D01*
X225898085Y-76530013D01*
X225910302Y-76579061D01*
X225927392Y-76620617D01*
X225931616Y-76629089D01*
X225944108Y-76653889D01*
X225956692Y-76675591D01*
X225973234Y-76695898D01*
X225997596Y-76716515D01*
X226033643Y-76739147D01*
X226085237Y-76765497D01*
X226156243Y-76797271D01*
X226250523Y-76836172D01*
X226371943Y-76883906D01*
X226524365Y-76942176D01*
X226711653Y-77012687D01*
X226937671Y-77097144D01*
X227206282Y-77197250D01*
X227291596Y-77229041D01*
X227560513Y-77328987D01*
X227786504Y-77412029D01*
X227974123Y-77479325D01*
X228127925Y-77532034D01*
X228252464Y-77571314D01*
X228352295Y-77598324D01*
X228431971Y-77614223D01*
X228496048Y-77620167D01*
X228549079Y-77617317D01*
X228595619Y-77606830D01*
X228640223Y-77589865D01*
X228665127Y-77578408D01*
X228728827Y-77541705D01*
X228776724Y-77495727D01*
X228810952Y-77433224D01*
X228833646Y-77346944D01*
X228846938Y-77229637D01*
X228852963Y-77074051D01*
X228854000Y-76936600D01*
X228853273Y-76778061D01*
X228850492Y-76661074D01*
X228844752Y-76576403D01*
X228835151Y-76514813D01*
X228820785Y-76467068D01*
X228804583Y-76431310D01*
X228747477Y-76356322D01*
X228655391Y-76292529D01*
X228521763Y-76235861D01*
X228453950Y-76213896D01*
X228418930Y-76195973D01*
X228401926Y-76160183D01*
X228396899Y-76091637D01*
X228396800Y-76073000D01*
X228400180Y-75996251D01*
X228414349Y-75955190D01*
X228445344Y-75934927D01*
X228453950Y-75932103D01*
X228606372Y-75877171D01*
X228714579Y-75816770D01*
X228785134Y-75746831D01*
X228804583Y-75714689D01*
X228823939Y-75670475D01*
X228837569Y-75619864D01*
X228846429Y-75553370D01*
X228851475Y-75461508D01*
X228853660Y-75334791D01*
X228854000Y-75223973D01*
X228851869Y-75040315D01*
X228844023Y-74899848D01*
X228828278Y-74795088D01*
X228802454Y-74718548D01*
X228764368Y-74662744D01*
X228711838Y-74620189D01*
X228671320Y-74597310D01*
X228556644Y-74558662D01*
X228425296Y-74554012D01*
X228269833Y-74583753D01*
X228142799Y-74625200D01*
X228048622Y-74659489D01*
X227974181Y-74685774D01*
X227931066Y-74699997D01*
X227925167Y-74701400D01*
X227920664Y-74677750D01*
X227917058Y-74613795D01*
X227914779Y-74520031D01*
X227914200Y-74434700D01*
X227914200Y-74168000D01*
X228245411Y-74168000D01*
X228390217Y-74166783D01*
X228494964Y-74162322D01*
X228570352Y-74153405D01*
X228627081Y-74138818D01*
X228671320Y-74119689D01*
X228717221Y-74094768D01*
X228754655Y-74068022D01*
X228784486Y-74034300D01*
X228807575Y-73988455D01*
X228824785Y-73925339D01*
X228836979Y-73839804D01*
X228845020Y-73726700D01*
X228849770Y-73580881D01*
X228852093Y-73397196D01*
X228852850Y-73170499D01*
X228852911Y-73035997D01*
X228852753Y-72803495D01*
X228852054Y-72616142D01*
X228850526Y-72468283D01*
X228847876Y-72354268D01*
X228843814Y-72268444D01*
X228838048Y-72205159D01*
X228830289Y-72158760D01*
X228820244Y-72123597D01*
X228807624Y-72094017D01*
X228804062Y-72086890D01*
X228746526Y-72011964D01*
X228653084Y-71947951D01*
X228517484Y-71890990D01*
X228453950Y-71870496D01*
X228418930Y-71852573D01*
X228401926Y-71816783D01*
X228396899Y-71748237D01*
X228396800Y-71729600D01*
X228400180Y-71652851D01*
X228414349Y-71611790D01*
X228445344Y-71591527D01*
X228453950Y-71588703D01*
X228606372Y-71533771D01*
X228714579Y-71473370D01*
X228785134Y-71403431D01*
X228804583Y-71371289D01*
X228823721Y-71327778D01*
X228837206Y-71278300D01*
X228845947Y-71213491D01*
X228850855Y-71123984D01*
X228852837Y-71000416D01*
X228852935Y-70873361D01*
X228851656Y-70714535D01*
X228848210Y-70597504D01*
X228841730Y-70513279D01*
X228831349Y-70452873D01*
X228816198Y-70407298D01*
X228805890Y-70385994D01*
X228750509Y-70313998D01*
X228678504Y-70256415D01*
X228673605Y-70253709D01*
X228628967Y-70231796D01*
X228584540Y-70216085D01*
X228535816Y-70207703D01*
X228478282Y-70207777D01*
X228407429Y-70217432D01*
X228318745Y-70237795D01*
X228207721Y-70269992D01*
X228069846Y-70315150D01*
X227900609Y-70374394D01*
X227695500Y-70448852D01*
X227450008Y-70539649D01*
X227290360Y-70599116D01*
X227008987Y-70704054D01*
X226771308Y-70792840D01*
X226573458Y-70867180D01*
X226411573Y-70928779D01*
X226281789Y-70979344D01*
X226180242Y-71020579D01*
X226103068Y-71054192D01*
X226046402Y-71081886D01*
X226006381Y-71105369D01*
X225979140Y-71126347D01*
X225960814Y-71146524D01*
X225947540Y-71167607D01*
X225935454Y-71191301D01*
X225931616Y-71198910D01*
X225913418Y-71239996D01*
X225900255Y-71286780D01*
X225891342Y-71347922D01*
X225885890Y-71432081D01*
X225883112Y-71547917D01*
X225882221Y-71704090D01*
X225882200Y-71742300D01*
X225882787Y-71907710D01*
X225885080Y-72031013D01*
X225889874Y-72120894D01*
X225897968Y-72186037D01*
X225910156Y-72235129D01*
X225927235Y-72276852D01*
X225932120Y-72286675D01*
X225951493Y-72320648D01*
X225975719Y-72350828D01*
X226010211Y-72379865D01*
X226060378Y-72410411D01*
X226131634Y-72445117D01*
X226229389Y-72486636D01*
X226359055Y-72537619D01*
X226526044Y-72600716D01*
X226720336Y-72672872D01*
X227088572Y-72809100D01*
X226606036Y-72821800D01*
X226415898Y-72827772D01*
X226269547Y-72835665D01*
X226159972Y-72847366D01*
X226080159Y-72864765D01*
X226023095Y-72889749D01*
X225981769Y-72924207D01*
X225949168Y-72970027D01*
X225930962Y-73003593D01*
X225918028Y-73031838D01*
X225907597Y-73064252D01*
X225899402Y-73106298D01*
X225893177Y-73163439D01*
X225888653Y-73241139D01*
X225885565Y-73344860D01*
X225883644Y-73480066D01*
X225882624Y-73652219D01*
X225882238Y-73866783D01*
X225882200Y-74001026D01*
X225882416Y-74242604D01*
X225883225Y-74438777D01*
X225884864Y-74594938D01*
X225887573Y-74716481D01*
X225891590Y-74808800D01*
X225897154Y-74877287D01*
X225904504Y-74927337D01*
X225913878Y-74964343D01*
X225925515Y-74993699D01*
X225926191Y-74995127D01*
X225979311Y-75075402D01*
X226054608Y-75131379D01*
X226159677Y-75166134D01*
X226302109Y-75182743D01*
X226395538Y-75185241D01*
X226631500Y-75186483D01*
X226466400Y-75248817D01*
X226285922Y-75317175D01*
X226147025Y-75374093D01*
X226044270Y-75427362D01*
X225972220Y-75484772D01*
X225925436Y-75554114D01*
X225898480Y-75643178D01*
X225885913Y-75759755D01*
X225882296Y-75911636D01*
X225882200Y-76085700D01*
X225882799Y-76251316D01*
G37*
X225882799Y-76251316D02*
X225885121Y-76374800D01*
X225889954Y-76464813D01*
X225898085Y-76530013D01*
X225910302Y-76579061D01*
X225927392Y-76620617D01*
X225931616Y-76629089D01*
X225944108Y-76653889D01*
X225956692Y-76675591D01*
X225973234Y-76695898D01*
X225997596Y-76716515D01*
X226033643Y-76739147D01*
X226085237Y-76765497D01*
X226156243Y-76797271D01*
X226250523Y-76836172D01*
X226371943Y-76883906D01*
X226524365Y-76942176D01*
X226711653Y-77012687D01*
X226937671Y-77097144D01*
X227206282Y-77197250D01*
X227291596Y-77229041D01*
X227560513Y-77328987D01*
X227786504Y-77412029D01*
X227974123Y-77479325D01*
X228127925Y-77532034D01*
X228252464Y-77571314D01*
X228352295Y-77598324D01*
X228431971Y-77614223D01*
X228496048Y-77620167D01*
X228549079Y-77617317D01*
X228595619Y-77606830D01*
X228640223Y-77589865D01*
X228665127Y-77578408D01*
X228728827Y-77541705D01*
X228776724Y-77495727D01*
X228810952Y-77433224D01*
X228833646Y-77346944D01*
X228846938Y-77229637D01*
X228852963Y-77074051D01*
X228854000Y-76936600D01*
X228853273Y-76778061D01*
X228850492Y-76661074D01*
X228844752Y-76576403D01*
X228835151Y-76514813D01*
X228820785Y-76467068D01*
X228804583Y-76431310D01*
X228747477Y-76356322D01*
X228655391Y-76292529D01*
X228521763Y-76235861D01*
X228453950Y-76213896D01*
X228418930Y-76195973D01*
X228401926Y-76160183D01*
X228396899Y-76091637D01*
X228396800Y-76073000D01*
X228400180Y-75996251D01*
X228414349Y-75955190D01*
X228445344Y-75934927D01*
X228453950Y-75932103D01*
X228606372Y-75877171D01*
X228714579Y-75816770D01*
X228785134Y-75746831D01*
X228804583Y-75714689D01*
X228823939Y-75670475D01*
X228837569Y-75619864D01*
X228846429Y-75553370D01*
X228851475Y-75461508D01*
X228853660Y-75334791D01*
X228854000Y-75223973D01*
X228851869Y-75040315D01*
X228844023Y-74899848D01*
X228828278Y-74795088D01*
X228802454Y-74718548D01*
X228764368Y-74662744D01*
X228711838Y-74620189D01*
X228671320Y-74597310D01*
X228556644Y-74558662D01*
X228425296Y-74554012D01*
X228269833Y-74583753D01*
X228142799Y-74625200D01*
X228048622Y-74659489D01*
X227974181Y-74685774D01*
X227931066Y-74699997D01*
X227925167Y-74701400D01*
X227920664Y-74677750D01*
X227917058Y-74613795D01*
X227914779Y-74520031D01*
X227914200Y-74434700D01*
X227914200Y-74168000D01*
X228245411Y-74168000D01*
X228390217Y-74166783D01*
X228494964Y-74162322D01*
X228570352Y-74153405D01*
X228627081Y-74138818D01*
X228671320Y-74119689D01*
X228717221Y-74094768D01*
X228754655Y-74068022D01*
X228784486Y-74034300D01*
X228807575Y-73988455D01*
X228824785Y-73925339D01*
X228836979Y-73839804D01*
X228845020Y-73726700D01*
X228849770Y-73580881D01*
X228852093Y-73397196D01*
X228852850Y-73170499D01*
X228852911Y-73035997D01*
X228852753Y-72803495D01*
X228852054Y-72616142D01*
X228850526Y-72468283D01*
X228847876Y-72354268D01*
X228843814Y-72268444D01*
X228838048Y-72205159D01*
X228830289Y-72158760D01*
X228820244Y-72123597D01*
X228807624Y-72094017D01*
X228804062Y-72086890D01*
X228746526Y-72011964D01*
X228653084Y-71947951D01*
X228517484Y-71890990D01*
X228453950Y-71870496D01*
X228418930Y-71852573D01*
X228401926Y-71816783D01*
X228396899Y-71748237D01*
X228396800Y-71729600D01*
X228400180Y-71652851D01*
X228414349Y-71611790D01*
X228445344Y-71591527D01*
X228453950Y-71588703D01*
X228606372Y-71533771D01*
X228714579Y-71473370D01*
X228785134Y-71403431D01*
X228804583Y-71371289D01*
X228823721Y-71327778D01*
X228837206Y-71278300D01*
X228845947Y-71213491D01*
X228850855Y-71123984D01*
X228852837Y-71000416D01*
X228852935Y-70873361D01*
X228851656Y-70714535D01*
X228848210Y-70597504D01*
X228841730Y-70513279D01*
X228831349Y-70452873D01*
X228816198Y-70407298D01*
X228805890Y-70385994D01*
X228750509Y-70313998D01*
X228678504Y-70256415D01*
X228673605Y-70253709D01*
X228628967Y-70231796D01*
X228584540Y-70216085D01*
X228535816Y-70207703D01*
X228478282Y-70207777D01*
X228407429Y-70217432D01*
X228318745Y-70237795D01*
X228207721Y-70269992D01*
X228069846Y-70315150D01*
X227900609Y-70374394D01*
X227695500Y-70448852D01*
X227450008Y-70539649D01*
X227290360Y-70599116D01*
X227008987Y-70704054D01*
X226771308Y-70792840D01*
X226573458Y-70867180D01*
X226411573Y-70928779D01*
X226281789Y-70979344D01*
X226180242Y-71020579D01*
X226103068Y-71054192D01*
X226046402Y-71081886D01*
X226006381Y-71105369D01*
X225979140Y-71126347D01*
X225960814Y-71146524D01*
X225947540Y-71167607D01*
X225935454Y-71191301D01*
X225931616Y-71198910D01*
X225913418Y-71239996D01*
X225900255Y-71286780D01*
X225891342Y-71347922D01*
X225885890Y-71432081D01*
X225883112Y-71547917D01*
X225882221Y-71704090D01*
X225882200Y-71742300D01*
X225882787Y-71907710D01*
X225885080Y-72031013D01*
X225889874Y-72120894D01*
X225897968Y-72186037D01*
X225910156Y-72235129D01*
X225927235Y-72276852D01*
X225932120Y-72286675D01*
X225951493Y-72320648D01*
X225975719Y-72350828D01*
X226010211Y-72379865D01*
X226060378Y-72410411D01*
X226131634Y-72445117D01*
X226229389Y-72486636D01*
X226359055Y-72537619D01*
X226526044Y-72600716D01*
X226720336Y-72672872D01*
X227088572Y-72809100D01*
X226606036Y-72821800D01*
X226415898Y-72827772D01*
X226269547Y-72835665D01*
X226159972Y-72847366D01*
X226080159Y-72864765D01*
X226023095Y-72889749D01*
X225981769Y-72924207D01*
X225949168Y-72970027D01*
X225930962Y-73003593D01*
X225918028Y-73031838D01*
X225907597Y-73064252D01*
X225899402Y-73106298D01*
X225893177Y-73163439D01*
X225888653Y-73241139D01*
X225885565Y-73344860D01*
X225883644Y-73480066D01*
X225882624Y-73652219D01*
X225882238Y-73866783D01*
X225882200Y-74001026D01*
X225882416Y-74242604D01*
X225883225Y-74438777D01*
X225884864Y-74594938D01*
X225887573Y-74716481D01*
X225891590Y-74808800D01*
X225897154Y-74877287D01*
X225904504Y-74927337D01*
X225913878Y-74964343D01*
X225925515Y-74993699D01*
X225926191Y-74995127D01*
X225979311Y-75075402D01*
X226054608Y-75131379D01*
X226159677Y-75166134D01*
X226302109Y-75182743D01*
X226395538Y-75185241D01*
X226631500Y-75186483D01*
X226466400Y-75248817D01*
X226285922Y-75317175D01*
X226147025Y-75374093D01*
X226044270Y-75427362D01*
X225972220Y-75484772D01*
X225925436Y-75554114D01*
X225898480Y-75643178D01*
X225885913Y-75759755D01*
X225882296Y-75911636D01*
X225882200Y-76085700D01*
X225882799Y-76251316D01*
D11*
G36*
X219721912Y-86683127D02*
G01*
X219871212Y-86712824D01*
X220035184Y-86780744D01*
X220182754Y-86879347D01*
X220308253Y-87004846D01*
X220406856Y-87152416D01*
X220474776Y-87316388D01*
X220509400Y-87490459D01*
X220509400Y-87667941D01*
X220474776Y-87842012D01*
X220406856Y-88005984D01*
X220308253Y-88153554D01*
X220182754Y-88279053D01*
X220035184Y-88377656D01*
X219871212Y-88445576D01*
X219721912Y-88475273D01*
X219697142Y-88480200D01*
X219519658Y-88480200D01*
X219494888Y-88475273D01*
X219345588Y-88445576D01*
X219181616Y-88377656D01*
X219034046Y-88279053D01*
X218908547Y-88153554D01*
X218809944Y-88005984D01*
X218742024Y-87842012D01*
X218707400Y-87667941D01*
X218707400Y-87490459D01*
X218742024Y-87316388D01*
X218809944Y-87152416D01*
X218908547Y-87004846D01*
X219034046Y-86879347D01*
X219181616Y-86780744D01*
X219345588Y-86712824D01*
X219494888Y-86683127D01*
X219519658Y-86678200D01*
X219697142Y-86678200D01*
X219721912Y-86683127D01*
G37*
G36*
X217181912Y-86683127D02*
G01*
X217331212Y-86712824D01*
X217495184Y-86780744D01*
X217642754Y-86879347D01*
X217768253Y-87004846D01*
X217866856Y-87152416D01*
X217934776Y-87316388D01*
X217969400Y-87490459D01*
X217969400Y-87667941D01*
X217934776Y-87842012D01*
X217866856Y-88005984D01*
X217768253Y-88153554D01*
X217642754Y-88279053D01*
X217495184Y-88377656D01*
X217331212Y-88445576D01*
X217181912Y-88475273D01*
X217157142Y-88480200D01*
X216979658Y-88480200D01*
X216954888Y-88475273D01*
X216805588Y-88445576D01*
X216641616Y-88377656D01*
X216494046Y-88279053D01*
X216368547Y-88153554D01*
X216269944Y-88005984D01*
X216202024Y-87842012D01*
X216167400Y-87667941D01*
X216167400Y-87490459D01*
X216202024Y-87316388D01*
X216269944Y-87152416D01*
X216368547Y-87004846D01*
X216494046Y-86879347D01*
X216641616Y-86780744D01*
X216805588Y-86712824D01*
X216954888Y-86683127D01*
X216979658Y-86678200D01*
X217157142Y-86678200D01*
X217181912Y-86683127D01*
G37*
G36*
X222261912Y-86683127D02*
G01*
X222411212Y-86712824D01*
X222575184Y-86780744D01*
X222722754Y-86879347D01*
X222848253Y-87004846D01*
X222946856Y-87152416D01*
X223014776Y-87316388D01*
X223049400Y-87490459D01*
X223049400Y-87667941D01*
X223014776Y-87842012D01*
X222946856Y-88005984D01*
X222848253Y-88153554D01*
X222722754Y-88279053D01*
X222575184Y-88377656D01*
X222411212Y-88445576D01*
X222261912Y-88475273D01*
X222237142Y-88480200D01*
X222059658Y-88480200D01*
X222034888Y-88475273D01*
X221885588Y-88445576D01*
X221721616Y-88377656D01*
X221574046Y-88279053D01*
X221448547Y-88153554D01*
X221349944Y-88005984D01*
X221282024Y-87842012D01*
X221247400Y-87667941D01*
X221247400Y-87490459D01*
X221282024Y-87316388D01*
X221349944Y-87152416D01*
X221448547Y-87004846D01*
X221574046Y-86879347D01*
X221721616Y-86780744D01*
X221885588Y-86712824D01*
X222034888Y-86683127D01*
X222059658Y-86678200D01*
X222237142Y-86678200D01*
X222261912Y-86683127D01*
G37*
G36*
X217181912Y-84143127D02*
G01*
X217331212Y-84172824D01*
X217495184Y-84240744D01*
X217642754Y-84339347D01*
X217768253Y-84464846D01*
X217866856Y-84612416D01*
X217934776Y-84776388D01*
X217969400Y-84950459D01*
X217969400Y-85127941D01*
X217934776Y-85302012D01*
X217866856Y-85465984D01*
X217768253Y-85613554D01*
X217642754Y-85739053D01*
X217495184Y-85837656D01*
X217331212Y-85905576D01*
X217181912Y-85935273D01*
X217157142Y-85940200D01*
X216979658Y-85940200D01*
X216954888Y-85935273D01*
X216805588Y-85905576D01*
X216641616Y-85837656D01*
X216494046Y-85739053D01*
X216368547Y-85613554D01*
X216269944Y-85465984D01*
X216202024Y-85302012D01*
X216167400Y-85127941D01*
X216167400Y-84950459D01*
X216202024Y-84776388D01*
X216269944Y-84612416D01*
X216368547Y-84464846D01*
X216494046Y-84339347D01*
X216641616Y-84240744D01*
X216805588Y-84172824D01*
X216954888Y-84143127D01*
X216979658Y-84138200D01*
X217157142Y-84138200D01*
X217181912Y-84143127D01*
G37*
G36*
X219721912Y-84143127D02*
G01*
X219871212Y-84172824D01*
X220035184Y-84240744D01*
X220182754Y-84339347D01*
X220308253Y-84464846D01*
X220406856Y-84612416D01*
X220474776Y-84776388D01*
X220509400Y-84950459D01*
X220509400Y-85127941D01*
X220474776Y-85302012D01*
X220406856Y-85465984D01*
X220308253Y-85613554D01*
X220182754Y-85739053D01*
X220035184Y-85837656D01*
X219871212Y-85905576D01*
X219721912Y-85935273D01*
X219697142Y-85940200D01*
X219519658Y-85940200D01*
X219494888Y-85935273D01*
X219345588Y-85905576D01*
X219181616Y-85837656D01*
X219034046Y-85739053D01*
X218908547Y-85613554D01*
X218809944Y-85465984D01*
X218742024Y-85302012D01*
X218707400Y-85127941D01*
X218707400Y-84950459D01*
X218742024Y-84776388D01*
X218809944Y-84612416D01*
X218908547Y-84464846D01*
X219034046Y-84339347D01*
X219181616Y-84240744D01*
X219345588Y-84172824D01*
X219494888Y-84143127D01*
X219519658Y-84138200D01*
X219697142Y-84138200D01*
X219721912Y-84143127D01*
G37*
G36*
X222261912Y-84143127D02*
G01*
X222411212Y-84172824D01*
X222575184Y-84240744D01*
X222722754Y-84339347D01*
X222848253Y-84464846D01*
X222946856Y-84612416D01*
X223014776Y-84776388D01*
X223049400Y-84950459D01*
X223049400Y-85127941D01*
X223014776Y-85302012D01*
X222946856Y-85465984D01*
X222848253Y-85613554D01*
X222722754Y-85739053D01*
X222575184Y-85837656D01*
X222411212Y-85905576D01*
X222261912Y-85935273D01*
X222237142Y-85940200D01*
X222059658Y-85940200D01*
X222034888Y-85935273D01*
X221885588Y-85905576D01*
X221721616Y-85837656D01*
X221574046Y-85739053D01*
X221448547Y-85613554D01*
X221349944Y-85465984D01*
X221282024Y-85302012D01*
X221247400Y-85127941D01*
X221247400Y-84950459D01*
X221282024Y-84776388D01*
X221349944Y-84612416D01*
X221448547Y-84464846D01*
X221574046Y-84339347D01*
X221721616Y-84240744D01*
X221885588Y-84172824D01*
X222034888Y-84143127D01*
X222059658Y-84138200D01*
X222237142Y-84138200D01*
X222261912Y-84143127D01*
G37*
G36*
X222261912Y-81603127D02*
G01*
X222411212Y-81632824D01*
X222575184Y-81700744D01*
X222722754Y-81799347D01*
X222848253Y-81924846D01*
X222946856Y-82072416D01*
X223014776Y-82236388D01*
X223049400Y-82410459D01*
X223049400Y-82587941D01*
X223014776Y-82762012D01*
X222946856Y-82925984D01*
X222848253Y-83073554D01*
X222722754Y-83199053D01*
X222575184Y-83297656D01*
X222411212Y-83365576D01*
X222261912Y-83395273D01*
X222237142Y-83400200D01*
X222059658Y-83400200D01*
X222034888Y-83395273D01*
X221885588Y-83365576D01*
X221721616Y-83297656D01*
X221574046Y-83199053D01*
X221448547Y-83073554D01*
X221349944Y-82925984D01*
X221282024Y-82762012D01*
X221247400Y-82587941D01*
X221247400Y-82410459D01*
X221282024Y-82236388D01*
X221349944Y-82072416D01*
X221448547Y-81924846D01*
X221574046Y-81799347D01*
X221721616Y-81700744D01*
X221885588Y-81632824D01*
X222034888Y-81603127D01*
X222059658Y-81598200D01*
X222237142Y-81598200D01*
X222261912Y-81603127D01*
G37*
G36*
X217181912Y-81603127D02*
G01*
X217331212Y-81632824D01*
X217495184Y-81700744D01*
X217642754Y-81799347D01*
X217768253Y-81924846D01*
X217866856Y-82072416D01*
X217934776Y-82236388D01*
X217969400Y-82410459D01*
X217969400Y-82587941D01*
X217934776Y-82762012D01*
X217866856Y-82925984D01*
X217768253Y-83073554D01*
X217642754Y-83199053D01*
X217495184Y-83297656D01*
X217331212Y-83365576D01*
X217181912Y-83395273D01*
X217157142Y-83400200D01*
X216979658Y-83400200D01*
X216954888Y-83395273D01*
X216805588Y-83365576D01*
X216641616Y-83297656D01*
X216494046Y-83199053D01*
X216368547Y-83073554D01*
X216269944Y-82925984D01*
X216202024Y-82762012D01*
X216167400Y-82587941D01*
X216167400Y-82410459D01*
X216202024Y-82236388D01*
X216269944Y-82072416D01*
X216368547Y-81924846D01*
X216494046Y-81799347D01*
X216641616Y-81700744D01*
X216805588Y-81632824D01*
X216954888Y-81603127D01*
X216979658Y-81598200D01*
X217157142Y-81598200D01*
X217181912Y-81603127D01*
G37*
G36*
X219721912Y-81603127D02*
G01*
X219871212Y-81632824D01*
X220035184Y-81700744D01*
X220182754Y-81799347D01*
X220308253Y-81924846D01*
X220406856Y-82072416D01*
X220474776Y-82236388D01*
X220509400Y-82410459D01*
X220509400Y-82587941D01*
X220474776Y-82762012D01*
X220406856Y-82925984D01*
X220308253Y-83073554D01*
X220182754Y-83199053D01*
X220035184Y-83297656D01*
X219871212Y-83365576D01*
X219721912Y-83395273D01*
X219697142Y-83400200D01*
X219519658Y-83400200D01*
X219494888Y-83395273D01*
X219345588Y-83365576D01*
X219181616Y-83297656D01*
X219034046Y-83199053D01*
X218908547Y-83073554D01*
X218809944Y-82925984D01*
X218742024Y-82762012D01*
X218707400Y-82587941D01*
X218707400Y-82410459D01*
X218742024Y-82236388D01*
X218809944Y-82072416D01*
X218908547Y-81924846D01*
X219034046Y-81799347D01*
X219181616Y-81700744D01*
X219345588Y-81632824D01*
X219494888Y-81603127D01*
X219519658Y-81598200D01*
X219697142Y-81598200D01*
X219721912Y-81603127D01*
G37*
G36*
X223049400Y-80860200D02*
G01*
X221247400Y-80860200D01*
X221247400Y-79058200D01*
X223049400Y-79058200D01*
X223049400Y-80860200D01*
G37*
G36*
X217969400Y-80860200D02*
G01*
X216167400Y-80860200D01*
X216167400Y-79058200D01*
X217969400Y-79058200D01*
X217969400Y-80860200D01*
G37*
G36*
X220509400Y-80860200D02*
G01*
X218707400Y-80860200D01*
X218707400Y-79058200D01*
X220509400Y-79058200D01*
X220509400Y-80860200D01*
G37*
G36*
X223151000Y-77101000D02*
G01*
X221349000Y-77101000D01*
X221349000Y-75299000D01*
X223151000Y-75299000D01*
X223151000Y-77101000D01*
G37*
G36*
X222363512Y-72763927D02*
G01*
X222512812Y-72793624D01*
X222676784Y-72861544D01*
X222824354Y-72960147D01*
X222949853Y-73085646D01*
X223048456Y-73233216D01*
X223116376Y-73397188D01*
X223151000Y-73571259D01*
X223151000Y-73748741D01*
X223116376Y-73922812D01*
X223048456Y-74086784D01*
X222949853Y-74234354D01*
X222824354Y-74359853D01*
X222676784Y-74458456D01*
X222512812Y-74526376D01*
X222363512Y-74556073D01*
X222338742Y-74561000D01*
X222161258Y-74561000D01*
X222136488Y-74556073D01*
X221987188Y-74526376D01*
X221823216Y-74458456D01*
X221675646Y-74359853D01*
X221550147Y-74234354D01*
X221451544Y-74086784D01*
X221383624Y-73922812D01*
X221349000Y-73748741D01*
X221349000Y-73571259D01*
X221383624Y-73397188D01*
X221451544Y-73233216D01*
X221550147Y-73085646D01*
X221675646Y-72960147D01*
X221823216Y-72861544D01*
X221987188Y-72793624D01*
X222136488Y-72763927D01*
X222161258Y-72759000D01*
X222338742Y-72759000D01*
X222363512Y-72763927D01*
G37*
G36*
X222363512Y-70223927D02*
G01*
X222512812Y-70253624D01*
X222676784Y-70321544D01*
X222824354Y-70420147D01*
X222949853Y-70545646D01*
X223048456Y-70693216D01*
X223116376Y-70857188D01*
X223151000Y-71031259D01*
X223151000Y-71208741D01*
X223116376Y-71382812D01*
X223048456Y-71546784D01*
X222949853Y-71694354D01*
X222824354Y-71819853D01*
X222676784Y-71918456D01*
X222512812Y-71986376D01*
X222363512Y-72016073D01*
X222338742Y-72021000D01*
X222161258Y-72021000D01*
X222136488Y-72016073D01*
X221987188Y-71986376D01*
X221823216Y-71918456D01*
X221675646Y-71819853D01*
X221550147Y-71694354D01*
X221451544Y-71546784D01*
X221383624Y-71382812D01*
X221349000Y-71208741D01*
X221349000Y-71031259D01*
X221383624Y-70857188D01*
X221451544Y-70693216D01*
X221550147Y-70545646D01*
X221675646Y-70420147D01*
X221823216Y-70321544D01*
X221987188Y-70253624D01*
X222136488Y-70223927D01*
X222161258Y-70219000D01*
X222338742Y-70219000D01*
X222363512Y-70223927D01*
G37*
M02*
