G04 #@! TF.GenerationSoftware,KiCad,Pcbnew,(5.1.5)-3*
G04 #@! TF.CreationDate,2020-09-29T13:04:07-07:00*
G04 #@! TF.ProjectId,can_servo_x3_breakout,63616e5f-7365-4727-966f-5f78335f6272,rev?*
G04 #@! TF.SameCoordinates,Original*
G04 #@! TF.FileFunction,Soldermask,Top*
G04 #@! TF.FilePolarity,Negative*
%FSLAX46Y46*%
G04 Gerber Fmt 4.6, Leading zero omitted, Abs format (unit mm)*
G04 Created by KiCad (PCBNEW (5.1.5)-3) date 2020-09-29 13:04:07*
%MOMM*%
%LPD*%
G04 APERTURE LIST*
%ADD10C,0.100000*%
G04 APERTURE END LIST*
D10*
G36*
X217181912Y-86683127D02*
G01*
X217331212Y-86712824D01*
X217495184Y-86780744D01*
X217642754Y-86879347D01*
X217768253Y-87004846D01*
X217866856Y-87152416D01*
X217934776Y-87316388D01*
X217969400Y-87490459D01*
X217969400Y-87667941D01*
X217934776Y-87842012D01*
X217866856Y-88005984D01*
X217768253Y-88153554D01*
X217642754Y-88279053D01*
X217495184Y-88377656D01*
X217331212Y-88445576D01*
X217181912Y-88475273D01*
X217157142Y-88480200D01*
X216979658Y-88480200D01*
X216954888Y-88475273D01*
X216805588Y-88445576D01*
X216641616Y-88377656D01*
X216494046Y-88279053D01*
X216368547Y-88153554D01*
X216269944Y-88005984D01*
X216202024Y-87842012D01*
X216167400Y-87667941D01*
X216167400Y-87490459D01*
X216202024Y-87316388D01*
X216269944Y-87152416D01*
X216368547Y-87004846D01*
X216494046Y-86879347D01*
X216641616Y-86780744D01*
X216805588Y-86712824D01*
X216954888Y-86683127D01*
X216979658Y-86678200D01*
X217157142Y-86678200D01*
X217181912Y-86683127D01*
G37*
G36*
X222261912Y-86683127D02*
G01*
X222411212Y-86712824D01*
X222575184Y-86780744D01*
X222722754Y-86879347D01*
X222848253Y-87004846D01*
X222946856Y-87152416D01*
X223014776Y-87316388D01*
X223049400Y-87490459D01*
X223049400Y-87667941D01*
X223014776Y-87842012D01*
X222946856Y-88005984D01*
X222848253Y-88153554D01*
X222722754Y-88279053D01*
X222575184Y-88377656D01*
X222411212Y-88445576D01*
X222261912Y-88475273D01*
X222237142Y-88480200D01*
X222059658Y-88480200D01*
X222034888Y-88475273D01*
X221885588Y-88445576D01*
X221721616Y-88377656D01*
X221574046Y-88279053D01*
X221448547Y-88153554D01*
X221349944Y-88005984D01*
X221282024Y-87842012D01*
X221247400Y-87667941D01*
X221247400Y-87490459D01*
X221282024Y-87316388D01*
X221349944Y-87152416D01*
X221448547Y-87004846D01*
X221574046Y-86879347D01*
X221721616Y-86780744D01*
X221885588Y-86712824D01*
X222034888Y-86683127D01*
X222059658Y-86678200D01*
X222237142Y-86678200D01*
X222261912Y-86683127D01*
G37*
G36*
X219721912Y-86683127D02*
G01*
X219871212Y-86712824D01*
X220035184Y-86780744D01*
X220182754Y-86879347D01*
X220308253Y-87004846D01*
X220406856Y-87152416D01*
X220474776Y-87316388D01*
X220509400Y-87490459D01*
X220509400Y-87667941D01*
X220474776Y-87842012D01*
X220406856Y-88005984D01*
X220308253Y-88153554D01*
X220182754Y-88279053D01*
X220035184Y-88377656D01*
X219871212Y-88445576D01*
X219721912Y-88475273D01*
X219697142Y-88480200D01*
X219519658Y-88480200D01*
X219494888Y-88475273D01*
X219345588Y-88445576D01*
X219181616Y-88377656D01*
X219034046Y-88279053D01*
X218908547Y-88153554D01*
X218809944Y-88005984D01*
X218742024Y-87842012D01*
X218707400Y-87667941D01*
X218707400Y-87490459D01*
X218742024Y-87316388D01*
X218809944Y-87152416D01*
X218908547Y-87004846D01*
X219034046Y-86879347D01*
X219181616Y-86780744D01*
X219345588Y-86712824D01*
X219494888Y-86683127D01*
X219519658Y-86678200D01*
X219697142Y-86678200D01*
X219721912Y-86683127D01*
G37*
G36*
X211379434Y-86678686D02*
G01*
X211419284Y-86690774D01*
X211455999Y-86710399D01*
X211488186Y-86736814D01*
X211514601Y-86769001D01*
X211534226Y-86805716D01*
X211546314Y-86845566D01*
X211551000Y-86893141D01*
X211551000Y-87556859D01*
X211546314Y-87604434D01*
X211534226Y-87644284D01*
X211514601Y-87680999D01*
X211488186Y-87713186D01*
X211455999Y-87739601D01*
X211419284Y-87759226D01*
X211379434Y-87771314D01*
X211331859Y-87776000D01*
X208968141Y-87776000D01*
X208920566Y-87771314D01*
X208880716Y-87759226D01*
X208844001Y-87739601D01*
X208811814Y-87713186D01*
X208785399Y-87680999D01*
X208765774Y-87644284D01*
X208753686Y-87604434D01*
X208749000Y-87556859D01*
X208749000Y-86893141D01*
X208753686Y-86845566D01*
X208765774Y-86805716D01*
X208785399Y-86769001D01*
X208811814Y-86736814D01*
X208844001Y-86710399D01*
X208880716Y-86690774D01*
X208920566Y-86678686D01*
X208968141Y-86674000D01*
X211331859Y-86674000D01*
X211379434Y-86678686D01*
G37*
G36*
X219721912Y-84143127D02*
G01*
X219871212Y-84172824D01*
X220035184Y-84240744D01*
X220182754Y-84339347D01*
X220308253Y-84464846D01*
X220406856Y-84612416D01*
X220474776Y-84776388D01*
X220509400Y-84950459D01*
X220509400Y-85127941D01*
X220474776Y-85302012D01*
X220406856Y-85465984D01*
X220308253Y-85613554D01*
X220182754Y-85739053D01*
X220035184Y-85837656D01*
X219871212Y-85905576D01*
X219721912Y-85935273D01*
X219697142Y-85940200D01*
X219519658Y-85940200D01*
X219494888Y-85935273D01*
X219345588Y-85905576D01*
X219181616Y-85837656D01*
X219034046Y-85739053D01*
X218908547Y-85613554D01*
X218809944Y-85465984D01*
X218742024Y-85302012D01*
X218707400Y-85127941D01*
X218707400Y-84950459D01*
X218742024Y-84776388D01*
X218809944Y-84612416D01*
X218908547Y-84464846D01*
X219034046Y-84339347D01*
X219181616Y-84240744D01*
X219345588Y-84172824D01*
X219494888Y-84143127D01*
X219519658Y-84138200D01*
X219697142Y-84138200D01*
X219721912Y-84143127D01*
G37*
G36*
X222261912Y-84143127D02*
G01*
X222411212Y-84172824D01*
X222575184Y-84240744D01*
X222722754Y-84339347D01*
X222848253Y-84464846D01*
X222946856Y-84612416D01*
X223014776Y-84776388D01*
X223049400Y-84950459D01*
X223049400Y-85127941D01*
X223014776Y-85302012D01*
X222946856Y-85465984D01*
X222848253Y-85613554D01*
X222722754Y-85739053D01*
X222575184Y-85837656D01*
X222411212Y-85905576D01*
X222261912Y-85935273D01*
X222237142Y-85940200D01*
X222059658Y-85940200D01*
X222034888Y-85935273D01*
X221885588Y-85905576D01*
X221721616Y-85837656D01*
X221574046Y-85739053D01*
X221448547Y-85613554D01*
X221349944Y-85465984D01*
X221282024Y-85302012D01*
X221247400Y-85127941D01*
X221247400Y-84950459D01*
X221282024Y-84776388D01*
X221349944Y-84612416D01*
X221448547Y-84464846D01*
X221574046Y-84339347D01*
X221721616Y-84240744D01*
X221885588Y-84172824D01*
X222034888Y-84143127D01*
X222059658Y-84138200D01*
X222237142Y-84138200D01*
X222261912Y-84143127D01*
G37*
G36*
X217181912Y-84143127D02*
G01*
X217331212Y-84172824D01*
X217495184Y-84240744D01*
X217642754Y-84339347D01*
X217768253Y-84464846D01*
X217866856Y-84612416D01*
X217934776Y-84776388D01*
X217969400Y-84950459D01*
X217969400Y-85127941D01*
X217934776Y-85302012D01*
X217866856Y-85465984D01*
X217768253Y-85613554D01*
X217642754Y-85739053D01*
X217495184Y-85837656D01*
X217331212Y-85905576D01*
X217181912Y-85935273D01*
X217157142Y-85940200D01*
X216979658Y-85940200D01*
X216954888Y-85935273D01*
X216805588Y-85905576D01*
X216641616Y-85837656D01*
X216494046Y-85739053D01*
X216368547Y-85613554D01*
X216269944Y-85465984D01*
X216202024Y-85302012D01*
X216167400Y-85127941D01*
X216167400Y-84950459D01*
X216202024Y-84776388D01*
X216269944Y-84612416D01*
X216368547Y-84464846D01*
X216494046Y-84339347D01*
X216641616Y-84240744D01*
X216805588Y-84172824D01*
X216954888Y-84143127D01*
X216979658Y-84138200D01*
X217157142Y-84138200D01*
X217181912Y-84143127D01*
G37*
G36*
X214159928Y-85026764D02*
G01*
X214181009Y-85033160D01*
X214200445Y-85043548D01*
X214217476Y-85057524D01*
X214231452Y-85074555D01*
X214241840Y-85093991D01*
X214248236Y-85115072D01*
X214251000Y-85143140D01*
X214251000Y-85606860D01*
X214248236Y-85634928D01*
X214241840Y-85656009D01*
X214231452Y-85675445D01*
X214217476Y-85692476D01*
X214200445Y-85706452D01*
X214181009Y-85716840D01*
X214159928Y-85723236D01*
X214131860Y-85726000D01*
X212568140Y-85726000D01*
X212540072Y-85723236D01*
X212518991Y-85716840D01*
X212499555Y-85706452D01*
X212482524Y-85692476D01*
X212468548Y-85675445D01*
X212458160Y-85656009D01*
X212451764Y-85634928D01*
X212449000Y-85606860D01*
X212449000Y-85143140D01*
X212451764Y-85115072D01*
X212458160Y-85093991D01*
X212468548Y-85074555D01*
X212482524Y-85057524D01*
X212499555Y-85043548D01*
X212518991Y-85033160D01*
X212540072Y-85026764D01*
X212568140Y-85024000D01*
X214131860Y-85024000D01*
X214159928Y-85026764D01*
G37*
G36*
X214159928Y-83776764D02*
G01*
X214181009Y-83783160D01*
X214200445Y-83793548D01*
X214217476Y-83807524D01*
X214231452Y-83824555D01*
X214241840Y-83843991D01*
X214248236Y-83865072D01*
X214251000Y-83893140D01*
X214251000Y-84356860D01*
X214248236Y-84384928D01*
X214241840Y-84406009D01*
X214231452Y-84425445D01*
X214217476Y-84442476D01*
X214200445Y-84456452D01*
X214181009Y-84466840D01*
X214159928Y-84473236D01*
X214131860Y-84476000D01*
X212568140Y-84476000D01*
X212540072Y-84473236D01*
X212518991Y-84466840D01*
X212499555Y-84456452D01*
X212482524Y-84442476D01*
X212468548Y-84425445D01*
X212458160Y-84406009D01*
X212451764Y-84384928D01*
X212449000Y-84356860D01*
X212449000Y-83893140D01*
X212451764Y-83865072D01*
X212458160Y-83843991D01*
X212468548Y-83824555D01*
X212482524Y-83807524D01*
X212499555Y-83793548D01*
X212518991Y-83783160D01*
X212540072Y-83776764D01*
X212568140Y-83774000D01*
X214131860Y-83774000D01*
X214159928Y-83776764D01*
G37*
G36*
X219721912Y-81603127D02*
G01*
X219871212Y-81632824D01*
X220035184Y-81700744D01*
X220182754Y-81799347D01*
X220308253Y-81924846D01*
X220406856Y-82072416D01*
X220474776Y-82236388D01*
X220509400Y-82410459D01*
X220509400Y-82587941D01*
X220474776Y-82762012D01*
X220406856Y-82925984D01*
X220308253Y-83073554D01*
X220182754Y-83199053D01*
X220035184Y-83297656D01*
X219871212Y-83365576D01*
X219721912Y-83395273D01*
X219697142Y-83400200D01*
X219519658Y-83400200D01*
X219494888Y-83395273D01*
X219345588Y-83365576D01*
X219181616Y-83297656D01*
X219034046Y-83199053D01*
X218908547Y-83073554D01*
X218809944Y-82925984D01*
X218742024Y-82762012D01*
X218707400Y-82587941D01*
X218707400Y-82410459D01*
X218742024Y-82236388D01*
X218809944Y-82072416D01*
X218908547Y-81924846D01*
X219034046Y-81799347D01*
X219181616Y-81700744D01*
X219345588Y-81632824D01*
X219494888Y-81603127D01*
X219519658Y-81598200D01*
X219697142Y-81598200D01*
X219721912Y-81603127D01*
G37*
G36*
X222261912Y-81603127D02*
G01*
X222411212Y-81632824D01*
X222575184Y-81700744D01*
X222722754Y-81799347D01*
X222848253Y-81924846D01*
X222946856Y-82072416D01*
X223014776Y-82236388D01*
X223049400Y-82410459D01*
X223049400Y-82587941D01*
X223014776Y-82762012D01*
X222946856Y-82925984D01*
X222848253Y-83073554D01*
X222722754Y-83199053D01*
X222575184Y-83297656D01*
X222411212Y-83365576D01*
X222261912Y-83395273D01*
X222237142Y-83400200D01*
X222059658Y-83400200D01*
X222034888Y-83395273D01*
X221885588Y-83365576D01*
X221721616Y-83297656D01*
X221574046Y-83199053D01*
X221448547Y-83073554D01*
X221349944Y-82925984D01*
X221282024Y-82762012D01*
X221247400Y-82587941D01*
X221247400Y-82410459D01*
X221282024Y-82236388D01*
X221349944Y-82072416D01*
X221448547Y-81924846D01*
X221574046Y-81799347D01*
X221721616Y-81700744D01*
X221885588Y-81632824D01*
X222034888Y-81603127D01*
X222059658Y-81598200D01*
X222237142Y-81598200D01*
X222261912Y-81603127D01*
G37*
G36*
X217181912Y-81603127D02*
G01*
X217331212Y-81632824D01*
X217495184Y-81700744D01*
X217642754Y-81799347D01*
X217768253Y-81924846D01*
X217866856Y-82072416D01*
X217934776Y-82236388D01*
X217969400Y-82410459D01*
X217969400Y-82587941D01*
X217934776Y-82762012D01*
X217866856Y-82925984D01*
X217768253Y-83073554D01*
X217642754Y-83199053D01*
X217495184Y-83297656D01*
X217331212Y-83365576D01*
X217181912Y-83395273D01*
X217157142Y-83400200D01*
X216979658Y-83400200D01*
X216954888Y-83395273D01*
X216805588Y-83365576D01*
X216641616Y-83297656D01*
X216494046Y-83199053D01*
X216368547Y-83073554D01*
X216269944Y-82925984D01*
X216202024Y-82762012D01*
X216167400Y-82587941D01*
X216167400Y-82410459D01*
X216202024Y-82236388D01*
X216269944Y-82072416D01*
X216368547Y-81924846D01*
X216494046Y-81799347D01*
X216641616Y-81700744D01*
X216805588Y-81632824D01*
X216954888Y-81603127D01*
X216979658Y-81598200D01*
X217157142Y-81598200D01*
X217181912Y-81603127D01*
G37*
G36*
X214159928Y-82526764D02*
G01*
X214181009Y-82533160D01*
X214200445Y-82543548D01*
X214217476Y-82557524D01*
X214231452Y-82574555D01*
X214241840Y-82593991D01*
X214248236Y-82615072D01*
X214251000Y-82643140D01*
X214251000Y-83106860D01*
X214248236Y-83134928D01*
X214241840Y-83156009D01*
X214231452Y-83175445D01*
X214217476Y-83192476D01*
X214200445Y-83206452D01*
X214181009Y-83216840D01*
X214159928Y-83223236D01*
X214131860Y-83226000D01*
X212568140Y-83226000D01*
X212540072Y-83223236D01*
X212518991Y-83216840D01*
X212499555Y-83206452D01*
X212482524Y-83192476D01*
X212468548Y-83175445D01*
X212458160Y-83156009D01*
X212451764Y-83134928D01*
X212449000Y-83106860D01*
X212449000Y-82643140D01*
X212451764Y-82615072D01*
X212458160Y-82593991D01*
X212468548Y-82574555D01*
X212482524Y-82557524D01*
X212499555Y-82543548D01*
X212518991Y-82533160D01*
X212540072Y-82526764D01*
X212568140Y-82524000D01*
X214131860Y-82524000D01*
X214159928Y-82526764D01*
G37*
G36*
X214159928Y-81276764D02*
G01*
X214181009Y-81283160D01*
X214200445Y-81293548D01*
X214217476Y-81307524D01*
X214231452Y-81324555D01*
X214241840Y-81343991D01*
X214248236Y-81365072D01*
X214251000Y-81393140D01*
X214251000Y-81856860D01*
X214248236Y-81884928D01*
X214241840Y-81906009D01*
X214231452Y-81925445D01*
X214217476Y-81942476D01*
X214200445Y-81956452D01*
X214181009Y-81966840D01*
X214159928Y-81973236D01*
X214131860Y-81976000D01*
X212568140Y-81976000D01*
X212540072Y-81973236D01*
X212518991Y-81966840D01*
X212499555Y-81956452D01*
X212482524Y-81942476D01*
X212468548Y-81925445D01*
X212458160Y-81906009D01*
X212451764Y-81884928D01*
X212449000Y-81856860D01*
X212449000Y-81393140D01*
X212451764Y-81365072D01*
X212458160Y-81343991D01*
X212468548Y-81324555D01*
X212482524Y-81307524D01*
X212499555Y-81293548D01*
X212518991Y-81283160D01*
X212540072Y-81276764D01*
X212568140Y-81274000D01*
X214131860Y-81274000D01*
X214159928Y-81276764D01*
G37*
G36*
X220509400Y-80860200D02*
G01*
X218707400Y-80860200D01*
X218707400Y-79058200D01*
X220509400Y-79058200D01*
X220509400Y-80860200D01*
G37*
G36*
X223049400Y-80860200D02*
G01*
X221247400Y-80860200D01*
X221247400Y-79058200D01*
X223049400Y-79058200D01*
X223049400Y-80860200D01*
G37*
G36*
X217969400Y-80860200D02*
G01*
X216167400Y-80860200D01*
X216167400Y-79058200D01*
X217969400Y-79058200D01*
X217969400Y-80860200D01*
G37*
G36*
X211379434Y-79228686D02*
G01*
X211419284Y-79240774D01*
X211455999Y-79260399D01*
X211488186Y-79286814D01*
X211514601Y-79319001D01*
X211534226Y-79355716D01*
X211546314Y-79395566D01*
X211551000Y-79443141D01*
X211551000Y-80106859D01*
X211546314Y-80154434D01*
X211534226Y-80194284D01*
X211514601Y-80230999D01*
X211488186Y-80263186D01*
X211455999Y-80289601D01*
X211419284Y-80309226D01*
X211379434Y-80321314D01*
X211331859Y-80326000D01*
X208968141Y-80326000D01*
X208920566Y-80321314D01*
X208880716Y-80309226D01*
X208844001Y-80289601D01*
X208811814Y-80263186D01*
X208785399Y-80230999D01*
X208765774Y-80194284D01*
X208753686Y-80154434D01*
X208749000Y-80106859D01*
X208749000Y-79443141D01*
X208753686Y-79395566D01*
X208765774Y-79355716D01*
X208785399Y-79319001D01*
X208811814Y-79286814D01*
X208844001Y-79260399D01*
X208880716Y-79240774D01*
X208920566Y-79228686D01*
X208968141Y-79224000D01*
X211331859Y-79224000D01*
X211379434Y-79228686D01*
G37*
G36*
X223151000Y-77101000D02*
G01*
X221349000Y-77101000D01*
X221349000Y-75299000D01*
X223151000Y-75299000D01*
X223151000Y-77101000D01*
G37*
G36*
X222363512Y-72763927D02*
G01*
X222512812Y-72793624D01*
X222676784Y-72861544D01*
X222824354Y-72960147D01*
X222949853Y-73085646D01*
X223048456Y-73233216D01*
X223116376Y-73397188D01*
X223151000Y-73571259D01*
X223151000Y-73748741D01*
X223116376Y-73922812D01*
X223048456Y-74086784D01*
X222949853Y-74234354D01*
X222824354Y-74359853D01*
X222676784Y-74458456D01*
X222512812Y-74526376D01*
X222363512Y-74556073D01*
X222338742Y-74561000D01*
X222161258Y-74561000D01*
X222136488Y-74556073D01*
X221987188Y-74526376D01*
X221823216Y-74458456D01*
X221675646Y-74359853D01*
X221550147Y-74234354D01*
X221451544Y-74086784D01*
X221383624Y-73922812D01*
X221349000Y-73748741D01*
X221349000Y-73571259D01*
X221383624Y-73397188D01*
X221451544Y-73233216D01*
X221550147Y-73085646D01*
X221675646Y-72960147D01*
X221823216Y-72861544D01*
X221987188Y-72793624D01*
X222136488Y-72763927D01*
X222161258Y-72759000D01*
X222338742Y-72759000D01*
X222363512Y-72763927D01*
G37*
G36*
X222363512Y-70223927D02*
G01*
X222512812Y-70253624D01*
X222676784Y-70321544D01*
X222824354Y-70420147D01*
X222949853Y-70545646D01*
X223048456Y-70693216D01*
X223116376Y-70857188D01*
X223151000Y-71031259D01*
X223151000Y-71208741D01*
X223116376Y-71382812D01*
X223048456Y-71546784D01*
X222949853Y-71694354D01*
X222824354Y-71819853D01*
X222676784Y-71918456D01*
X222512812Y-71986376D01*
X222363512Y-72016073D01*
X222338742Y-72021000D01*
X222161258Y-72021000D01*
X222136488Y-72016073D01*
X221987188Y-71986376D01*
X221823216Y-71918456D01*
X221675646Y-71819853D01*
X221550147Y-71694354D01*
X221451544Y-71546784D01*
X221383624Y-71382812D01*
X221349000Y-71208741D01*
X221349000Y-71031259D01*
X221383624Y-70857188D01*
X221451544Y-70693216D01*
X221550147Y-70545646D01*
X221675646Y-70420147D01*
X221823216Y-70321544D01*
X221987188Y-70253624D01*
X222136488Y-70223927D01*
X222161258Y-70219000D01*
X222338742Y-70219000D01*
X222363512Y-70223927D01*
G37*
M02*
