G04 #@! TF.GenerationSoftware,KiCad,Pcbnew,(5.1.5)-3*
G04 #@! TF.CreationDate,2020-09-29T13:04:06-07:00*
G04 #@! TF.ProjectId,can_servo_x3_breakout,63616e5f-7365-4727-966f-5f78335f6272,rev?*
G04 #@! TF.SameCoordinates,Original*
G04 #@! TF.FileFunction,Legend,Top*
G04 #@! TF.FilePolarity,Positive*
%FSLAX46Y46*%
G04 Gerber Fmt 4.6, Leading zero omitted, Abs format (unit mm)*
G04 Created by KiCad (PCBNEW (5.1.5)-3) date 2020-09-29 13:04:06*
%MOMM*%
%LPD*%
G04 APERTURE LIST*
%ADD10C,0.200000*%
%ADD11C,0.187500*%
%ADD12C,0.120000*%
G04 APERTURE END LIST*
D10*
X210018380Y-75064761D02*
X211018380Y-74731428D01*
X210018380Y-74398095D01*
X211018380Y-73302857D02*
X210018380Y-73302857D01*
X210351714Y-72826666D02*
X211018380Y-72826666D01*
X210446952Y-72826666D02*
X210399333Y-72779047D01*
X210351714Y-72683809D01*
X210351714Y-72540952D01*
X210399333Y-72445714D01*
X210494571Y-72398095D01*
X211018380Y-72398095D01*
D11*
X227566428Y-78372857D02*
X227530714Y-78408571D01*
X227423571Y-78444285D01*
X227352142Y-78444285D01*
X227245000Y-78408571D01*
X227173571Y-78337142D01*
X227137857Y-78265714D01*
X227102142Y-78122857D01*
X227102142Y-78015714D01*
X227137857Y-77872857D01*
X227173571Y-77801428D01*
X227245000Y-77730000D01*
X227352142Y-77694285D01*
X227423571Y-77694285D01*
X227530714Y-77730000D01*
X227566428Y-77765714D01*
X227852142Y-78230000D02*
X228209285Y-78230000D01*
X227780714Y-78444285D02*
X228030714Y-77694285D01*
X228280714Y-78444285D01*
X228530714Y-78444285D02*
X228530714Y-77694285D01*
X228959285Y-78444285D01*
X228959285Y-77694285D01*
X229852142Y-78408571D02*
X229959285Y-78444285D01*
X230137857Y-78444285D01*
X230209285Y-78408571D01*
X230245000Y-78372857D01*
X230280714Y-78301428D01*
X230280714Y-78230000D01*
X230245000Y-78158571D01*
X230209285Y-78122857D01*
X230137857Y-78087142D01*
X229995000Y-78051428D01*
X229923571Y-78015714D01*
X229887857Y-77980000D01*
X229852142Y-77908571D01*
X229852142Y-77837142D01*
X229887857Y-77765714D01*
X229923571Y-77730000D01*
X229995000Y-77694285D01*
X230173571Y-77694285D01*
X230280714Y-77730000D01*
X230887857Y-78408571D02*
X230816428Y-78444285D01*
X230673571Y-78444285D01*
X230602142Y-78408571D01*
X230566428Y-78337142D01*
X230566428Y-78051428D01*
X230602142Y-77980000D01*
X230673571Y-77944285D01*
X230816428Y-77944285D01*
X230887857Y-77980000D01*
X230923571Y-78051428D01*
X230923571Y-78122857D01*
X230566428Y-78194285D01*
X231245000Y-78444285D02*
X231245000Y-77944285D01*
X231245000Y-78087142D02*
X231280714Y-78015714D01*
X231316428Y-77980000D01*
X231387857Y-77944285D01*
X231459285Y-77944285D01*
X231637857Y-77944285D02*
X231816428Y-78444285D01*
X231995000Y-77944285D01*
X232387857Y-78444285D02*
X232316428Y-78408571D01*
X232280714Y-78372857D01*
X232245000Y-78301428D01*
X232245000Y-78087142D01*
X232280714Y-78015714D01*
X232316428Y-77980000D01*
X232387857Y-77944285D01*
X232495000Y-77944285D01*
X232566428Y-77980000D01*
X232602142Y-78015714D01*
X232637857Y-78087142D01*
X232637857Y-78301428D01*
X232602142Y-78372857D01*
X232566428Y-78408571D01*
X232495000Y-78444285D01*
X232387857Y-78444285D01*
D10*
X206547619Y-78428571D02*
X207547619Y-78428571D01*
X207547619Y-78809523D01*
X207500000Y-78904761D01*
X207452380Y-78952380D01*
X207357142Y-79000000D01*
X207214285Y-79000000D01*
X207119047Y-78952380D01*
X207071428Y-78904761D01*
X207023809Y-78809523D01*
X207023809Y-78428571D01*
X206547619Y-79428571D02*
X207214285Y-79428571D01*
X207547619Y-79428571D02*
X207500000Y-79380952D01*
X207452380Y-79428571D01*
X207500000Y-79476190D01*
X207547619Y-79428571D01*
X207452380Y-79428571D01*
X206547619Y-79809523D02*
X207214285Y-80333333D01*
X207214285Y-79809523D02*
X206547619Y-80333333D01*
X206547619Y-80714285D02*
X207547619Y-80714285D01*
X206547619Y-81142857D02*
X207071428Y-81142857D01*
X207166666Y-81095238D01*
X207214285Y-81000000D01*
X207214285Y-80857142D01*
X207166666Y-80761904D01*
X207119047Y-80714285D01*
X206547619Y-82047619D02*
X207071428Y-82047619D01*
X207166666Y-82000000D01*
X207214285Y-81904761D01*
X207214285Y-81714285D01*
X207166666Y-81619047D01*
X206595238Y-82047619D02*
X206547619Y-81952380D01*
X206547619Y-81714285D01*
X206595238Y-81619047D01*
X206690476Y-81571428D01*
X206785714Y-81571428D01*
X206880952Y-81619047D01*
X206928571Y-81714285D01*
X206928571Y-81952380D01*
X206976190Y-82047619D01*
X207214285Y-82428571D02*
X206547619Y-82619047D01*
X207023809Y-82809523D01*
X206547619Y-83000000D01*
X207214285Y-83190476D01*
X206547619Y-83571428D02*
X207547619Y-83571428D01*
X206928571Y-83666666D02*
X206547619Y-83952380D01*
X207214285Y-83952380D02*
X206833333Y-83571428D01*
X206642857Y-85714285D02*
X206595238Y-85666666D01*
X206547619Y-85523809D01*
X206547619Y-85428571D01*
X206595238Y-85285714D01*
X206690476Y-85190476D01*
X206785714Y-85142857D01*
X206976190Y-85095238D01*
X207119047Y-85095238D01*
X207309523Y-85142857D01*
X207404761Y-85190476D01*
X207500000Y-85285714D01*
X207547619Y-85428571D01*
X207547619Y-85523809D01*
X207500000Y-85666666D01*
X207452380Y-85714285D01*
X206833333Y-86095238D02*
X206833333Y-86571428D01*
X206547619Y-86000000D02*
X207547619Y-86333333D01*
X206547619Y-86666666D01*
X206547619Y-87000000D02*
X207547619Y-87000000D01*
X206547619Y-87571428D01*
X207547619Y-87571428D01*
D12*
X220878400Y-78689200D02*
X222148400Y-78689200D01*
X220878400Y-79959200D02*
X220878400Y-78689200D01*
X223191329Y-87959200D02*
X223588400Y-87959200D01*
X223191329Y-87199200D02*
X223588400Y-87199200D01*
X232248400Y-87959200D02*
X226248400Y-87959200D01*
X232248400Y-87199200D02*
X232248400Y-87959200D01*
X226248400Y-87199200D02*
X232248400Y-87199200D01*
X223588400Y-86309200D02*
X226248400Y-86309200D01*
X223191329Y-85419200D02*
X223588400Y-85419200D01*
X223191329Y-84659200D02*
X223588400Y-84659200D01*
X232248400Y-85419200D02*
X226248400Y-85419200D01*
X232248400Y-84659200D02*
X232248400Y-85419200D01*
X226248400Y-84659200D02*
X232248400Y-84659200D01*
X223588400Y-83769200D02*
X226248400Y-83769200D01*
X223191329Y-82879200D02*
X223588400Y-82879200D01*
X223191329Y-82119200D02*
X223588400Y-82119200D01*
X232248400Y-82879200D02*
X226248400Y-82879200D01*
X232248400Y-82119200D02*
X232248400Y-82879200D01*
X226248400Y-82119200D02*
X232248400Y-82119200D01*
X223588400Y-81229200D02*
X226248400Y-81229200D01*
X223258400Y-80339200D02*
X223588400Y-80339200D01*
X223258400Y-79579200D02*
X223588400Y-79579200D01*
X226248400Y-80239200D02*
X232248400Y-80239200D01*
X226248400Y-80119200D02*
X232248400Y-80119200D01*
X226248400Y-79999200D02*
X232248400Y-79999200D01*
X226248400Y-79879200D02*
X232248400Y-79879200D01*
X226248400Y-79759200D02*
X232248400Y-79759200D01*
X226248400Y-79639200D02*
X232248400Y-79639200D01*
X232248400Y-80339200D02*
X226248400Y-80339200D01*
X232248400Y-79579200D02*
X232248400Y-80339200D01*
X226248400Y-79579200D02*
X232248400Y-79579200D01*
X226248400Y-78629200D02*
X223588400Y-78629200D01*
X226248400Y-88909200D02*
X226248400Y-78629200D01*
X223588400Y-88909200D02*
X226248400Y-88909200D01*
X223588400Y-78629200D02*
X223588400Y-88909200D01*
X218278400Y-78629200D02*
X219608400Y-78629200D01*
X218278400Y-79959200D02*
X218278400Y-78629200D01*
X218278400Y-81229200D02*
X220938400Y-81229200D01*
X220938400Y-81229200D02*
X220938400Y-88909200D01*
X218278400Y-81229200D02*
X218278400Y-88909200D01*
X218278400Y-88909200D02*
X220938400Y-88909200D01*
X215738400Y-78629200D02*
X217068400Y-78629200D01*
X215738400Y-79959200D02*
X215738400Y-78629200D01*
X215738400Y-81229200D02*
X218398400Y-81229200D01*
X218398400Y-81229200D02*
X218398400Y-88909200D01*
X215738400Y-81229200D02*
X215738400Y-88909200D01*
X215738400Y-88909200D02*
X218398400Y-88909200D01*
X223520000Y-77470000D02*
X222250000Y-77470000D01*
X223520000Y-76200000D02*
X223520000Y-77470000D01*
X221207071Y-70740000D02*
X220810000Y-70740000D01*
X221207071Y-71500000D02*
X220810000Y-71500000D01*
X212150000Y-70740000D02*
X218150000Y-70740000D01*
X212150000Y-71500000D02*
X212150000Y-70740000D01*
X218150000Y-71500000D02*
X212150000Y-71500000D01*
X220810000Y-72390000D02*
X218150000Y-72390000D01*
X221207071Y-73280000D02*
X220810000Y-73280000D01*
X221207071Y-74040000D02*
X220810000Y-74040000D01*
X212150000Y-73280000D02*
X218150000Y-73280000D01*
X212150000Y-74040000D02*
X212150000Y-73280000D01*
X218150000Y-74040000D02*
X212150000Y-74040000D01*
X220810000Y-74930000D02*
X218150000Y-74930000D01*
X221140000Y-75820000D02*
X220810000Y-75820000D01*
X221140000Y-76580000D02*
X220810000Y-76580000D01*
X218150000Y-75920000D02*
X212150000Y-75920000D01*
X218150000Y-76040000D02*
X212150000Y-76040000D01*
X218150000Y-76160000D02*
X212150000Y-76160000D01*
X218150000Y-76280000D02*
X212150000Y-76280000D01*
X218150000Y-76400000D02*
X212150000Y-76400000D01*
X218150000Y-76520000D02*
X212150000Y-76520000D01*
X212150000Y-75820000D02*
X218150000Y-75820000D01*
X212150000Y-76580000D02*
X212150000Y-75820000D01*
X218150000Y-76580000D02*
X212150000Y-76580000D01*
X218150000Y-77530000D02*
X220810000Y-77530000D01*
X218150000Y-69790000D02*
X218150000Y-77530000D01*
X220810000Y-69790000D02*
X218150000Y-69790000D01*
X220810000Y-77530000D02*
X220810000Y-69790000D01*
X208940000Y-80535000D02*
X208940000Y-86465000D01*
X213210000Y-87735000D02*
X213210000Y-85935000D01*
X211760000Y-87735000D02*
X213210000Y-87735000D01*
X213210000Y-81065000D02*
X214200000Y-81065000D01*
X213210000Y-79265000D02*
X213210000Y-81065000D01*
X211760000Y-79265000D02*
X213210000Y-79265000D01*
M02*
