G04 #@! TF.GenerationSoftware,KiCad,Pcbnew,(5.1.5)-3*
G04 #@! TF.CreationDate,2021-12-28T18:28:46-08:00*
G04 #@! TF.ProjectId,i2c_breakout,6932635f-6272-4656-916b-6f75742e6b69,rev?*
G04 #@! TF.SameCoordinates,Original*
G04 #@! TF.FileFunction,Soldermask,Top*
G04 #@! TF.FilePolarity,Negative*
%FSLAX46Y46*%
G04 Gerber Fmt 4.6, Leading zero omitted, Abs format (unit mm)*
G04 Created by KiCad (PCBNEW (5.1.5)-3) date 2021-12-28 18:28:46*
%MOMM*%
%LPD*%
G04 APERTURE LIST*
%ADD10C,0.100000*%
G04 APERTURE END LIST*
D10*
G36*
X209879434Y-78178686D02*
G01*
X209919284Y-78190774D01*
X209955999Y-78210399D01*
X209988186Y-78236814D01*
X210014601Y-78269001D01*
X210034226Y-78305716D01*
X210046314Y-78345566D01*
X210051000Y-78393141D01*
X210051000Y-79056859D01*
X210046314Y-79104434D01*
X210034226Y-79144284D01*
X210014601Y-79180999D01*
X209988186Y-79213186D01*
X209955999Y-79239601D01*
X209919284Y-79259226D01*
X209879434Y-79271314D01*
X209831859Y-79276000D01*
X207368141Y-79276000D01*
X207320566Y-79271314D01*
X207280716Y-79259226D01*
X207244001Y-79239601D01*
X207211814Y-79213186D01*
X207185399Y-79180999D01*
X207165774Y-79144284D01*
X207153686Y-79104434D01*
X207149000Y-79056859D01*
X207149000Y-78393141D01*
X207153686Y-78345566D01*
X207165774Y-78305716D01*
X207185399Y-78269001D01*
X207211814Y-78236814D01*
X207244001Y-78210399D01*
X207280716Y-78190774D01*
X207320566Y-78178686D01*
X207368141Y-78174000D01*
X209831859Y-78174000D01*
X209879434Y-78178686D01*
G37*
G36*
X179879434Y-78178686D02*
G01*
X179919284Y-78190774D01*
X179955999Y-78210399D01*
X179988186Y-78236814D01*
X180014601Y-78269001D01*
X180034226Y-78305716D01*
X180046314Y-78345566D01*
X180051000Y-78393141D01*
X180051000Y-79056859D01*
X180046314Y-79104434D01*
X180034226Y-79144284D01*
X180014601Y-79180999D01*
X179988186Y-79213186D01*
X179955999Y-79239601D01*
X179919284Y-79259226D01*
X179879434Y-79271314D01*
X179831859Y-79276000D01*
X177368141Y-79276000D01*
X177320566Y-79271314D01*
X177280716Y-79259226D01*
X177244001Y-79239601D01*
X177211814Y-79213186D01*
X177185399Y-79180999D01*
X177165774Y-79144284D01*
X177153686Y-79104434D01*
X177149000Y-79056859D01*
X177149000Y-78393141D01*
X177153686Y-78345566D01*
X177165774Y-78305716D01*
X177185399Y-78269001D01*
X177211814Y-78236814D01*
X177244001Y-78210399D01*
X177280716Y-78190774D01*
X177320566Y-78178686D01*
X177368141Y-78174000D01*
X179831859Y-78174000D01*
X179879434Y-78178686D01*
G37*
G36*
X194879434Y-78178686D02*
G01*
X194919284Y-78190774D01*
X194955999Y-78210399D01*
X194988186Y-78236814D01*
X195014601Y-78269001D01*
X195034226Y-78305716D01*
X195046314Y-78345566D01*
X195051000Y-78393141D01*
X195051000Y-79056859D01*
X195046314Y-79104434D01*
X195034226Y-79144284D01*
X195014601Y-79180999D01*
X194988186Y-79213186D01*
X194955999Y-79239601D01*
X194919284Y-79259226D01*
X194879434Y-79271314D01*
X194831859Y-79276000D01*
X192368141Y-79276000D01*
X192320566Y-79271314D01*
X192280716Y-79259226D01*
X192244001Y-79239601D01*
X192211814Y-79213186D01*
X192185399Y-79180999D01*
X192165774Y-79144284D01*
X192153686Y-79104434D01*
X192149000Y-79056859D01*
X192149000Y-78393141D01*
X192153686Y-78345566D01*
X192165774Y-78305716D01*
X192185399Y-78269001D01*
X192211814Y-78236814D01*
X192244001Y-78210399D01*
X192280716Y-78190774D01*
X192320566Y-78178686D01*
X192368141Y-78174000D01*
X194831859Y-78174000D01*
X194879434Y-78178686D01*
G37*
G36*
X172379434Y-78178686D02*
G01*
X172419284Y-78190774D01*
X172455999Y-78210399D01*
X172488186Y-78236814D01*
X172514601Y-78269001D01*
X172534226Y-78305716D01*
X172546314Y-78345566D01*
X172551000Y-78393141D01*
X172551000Y-79056859D01*
X172546314Y-79104434D01*
X172534226Y-79144284D01*
X172514601Y-79180999D01*
X172488186Y-79213186D01*
X172455999Y-79239601D01*
X172419284Y-79259226D01*
X172379434Y-79271314D01*
X172331859Y-79276000D01*
X169868141Y-79276000D01*
X169820566Y-79271314D01*
X169780716Y-79259226D01*
X169744001Y-79239601D01*
X169711814Y-79213186D01*
X169685399Y-79180999D01*
X169665774Y-79144284D01*
X169653686Y-79104434D01*
X169649000Y-79056859D01*
X169649000Y-78393141D01*
X169653686Y-78345566D01*
X169665774Y-78305716D01*
X169685399Y-78269001D01*
X169711814Y-78236814D01*
X169744001Y-78210399D01*
X169780716Y-78190774D01*
X169820566Y-78178686D01*
X169868141Y-78174000D01*
X172331859Y-78174000D01*
X172379434Y-78178686D01*
G37*
G36*
X187379434Y-78178686D02*
G01*
X187419284Y-78190774D01*
X187455999Y-78210399D01*
X187488186Y-78236814D01*
X187514601Y-78269001D01*
X187534226Y-78305716D01*
X187546314Y-78345566D01*
X187551000Y-78393141D01*
X187551000Y-79056859D01*
X187546314Y-79104434D01*
X187534226Y-79144284D01*
X187514601Y-79180999D01*
X187488186Y-79213186D01*
X187455999Y-79239601D01*
X187419284Y-79259226D01*
X187379434Y-79271314D01*
X187331859Y-79276000D01*
X184868141Y-79276000D01*
X184820566Y-79271314D01*
X184780716Y-79259226D01*
X184744001Y-79239601D01*
X184711814Y-79213186D01*
X184685399Y-79180999D01*
X184665774Y-79144284D01*
X184653686Y-79104434D01*
X184649000Y-79056859D01*
X184649000Y-78393141D01*
X184653686Y-78345566D01*
X184665774Y-78305716D01*
X184685399Y-78269001D01*
X184711814Y-78236814D01*
X184744001Y-78210399D01*
X184780716Y-78190774D01*
X184820566Y-78178686D01*
X184868141Y-78174000D01*
X187331859Y-78174000D01*
X187379434Y-78178686D01*
G37*
G36*
X202379434Y-78178686D02*
G01*
X202419284Y-78190774D01*
X202455999Y-78210399D01*
X202488186Y-78236814D01*
X202514601Y-78269001D01*
X202534226Y-78305716D01*
X202546314Y-78345566D01*
X202551000Y-78393141D01*
X202551000Y-79056859D01*
X202546314Y-79104434D01*
X202534226Y-79144284D01*
X202514601Y-79180999D01*
X202488186Y-79213186D01*
X202455999Y-79239601D01*
X202419284Y-79259226D01*
X202379434Y-79271314D01*
X202331859Y-79276000D01*
X199868141Y-79276000D01*
X199820566Y-79271314D01*
X199780716Y-79259226D01*
X199744001Y-79239601D01*
X199711814Y-79213186D01*
X199685399Y-79180999D01*
X199665774Y-79144284D01*
X199653686Y-79104434D01*
X199649000Y-79056859D01*
X199649000Y-78393141D01*
X199653686Y-78345566D01*
X199665774Y-78305716D01*
X199685399Y-78269001D01*
X199711814Y-78236814D01*
X199744001Y-78210399D01*
X199780716Y-78190774D01*
X199820566Y-78178686D01*
X199868141Y-78174000D01*
X202331859Y-78174000D01*
X202379434Y-78178686D01*
G37*
G36*
X182759928Y-76526764D02*
G01*
X182781009Y-76533160D01*
X182800445Y-76543548D01*
X182817476Y-76557524D01*
X182831452Y-76574555D01*
X182841840Y-76593991D01*
X182848236Y-76615072D01*
X182851000Y-76643140D01*
X182851000Y-77106860D01*
X182848236Y-77134928D01*
X182841840Y-77156009D01*
X182831452Y-77175445D01*
X182817476Y-77192476D01*
X182800445Y-77206452D01*
X182781009Y-77216840D01*
X182759928Y-77223236D01*
X182731860Y-77226000D01*
X181168140Y-77226000D01*
X181140072Y-77223236D01*
X181118991Y-77216840D01*
X181099555Y-77206452D01*
X181082524Y-77192476D01*
X181068548Y-77175445D01*
X181058160Y-77156009D01*
X181051764Y-77134928D01*
X181049000Y-77106860D01*
X181049000Y-76643140D01*
X181051764Y-76615072D01*
X181058160Y-76593991D01*
X181068548Y-76574555D01*
X181082524Y-76557524D01*
X181099555Y-76543548D01*
X181118991Y-76533160D01*
X181140072Y-76526764D01*
X181168140Y-76524000D01*
X182731860Y-76524000D01*
X182759928Y-76526764D01*
G37*
G36*
X212759928Y-76526764D02*
G01*
X212781009Y-76533160D01*
X212800445Y-76543548D01*
X212817476Y-76557524D01*
X212831452Y-76574555D01*
X212841840Y-76593991D01*
X212848236Y-76615072D01*
X212851000Y-76643140D01*
X212851000Y-77106860D01*
X212848236Y-77134928D01*
X212841840Y-77156009D01*
X212831452Y-77175445D01*
X212817476Y-77192476D01*
X212800445Y-77206452D01*
X212781009Y-77216840D01*
X212759928Y-77223236D01*
X212731860Y-77226000D01*
X211168140Y-77226000D01*
X211140072Y-77223236D01*
X211118991Y-77216840D01*
X211099555Y-77206452D01*
X211082524Y-77192476D01*
X211068548Y-77175445D01*
X211058160Y-77156009D01*
X211051764Y-77134928D01*
X211049000Y-77106860D01*
X211049000Y-76643140D01*
X211051764Y-76615072D01*
X211058160Y-76593991D01*
X211068548Y-76574555D01*
X211082524Y-76557524D01*
X211099555Y-76543548D01*
X211118991Y-76533160D01*
X211140072Y-76526764D01*
X211168140Y-76524000D01*
X212731860Y-76524000D01*
X212759928Y-76526764D01*
G37*
G36*
X197759928Y-76526764D02*
G01*
X197781009Y-76533160D01*
X197800445Y-76543548D01*
X197817476Y-76557524D01*
X197831452Y-76574555D01*
X197841840Y-76593991D01*
X197848236Y-76615072D01*
X197851000Y-76643140D01*
X197851000Y-77106860D01*
X197848236Y-77134928D01*
X197841840Y-77156009D01*
X197831452Y-77175445D01*
X197817476Y-77192476D01*
X197800445Y-77206452D01*
X197781009Y-77216840D01*
X197759928Y-77223236D01*
X197731860Y-77226000D01*
X196168140Y-77226000D01*
X196140072Y-77223236D01*
X196118991Y-77216840D01*
X196099555Y-77206452D01*
X196082524Y-77192476D01*
X196068548Y-77175445D01*
X196058160Y-77156009D01*
X196051764Y-77134928D01*
X196049000Y-77106860D01*
X196049000Y-76643140D01*
X196051764Y-76615072D01*
X196058160Y-76593991D01*
X196068548Y-76574555D01*
X196082524Y-76557524D01*
X196099555Y-76543548D01*
X196118991Y-76533160D01*
X196140072Y-76526764D01*
X196168140Y-76524000D01*
X197731860Y-76524000D01*
X197759928Y-76526764D01*
G37*
G36*
X175259928Y-76526764D02*
G01*
X175281009Y-76533160D01*
X175300445Y-76543548D01*
X175317476Y-76557524D01*
X175331452Y-76574555D01*
X175341840Y-76593991D01*
X175348236Y-76615072D01*
X175351000Y-76643140D01*
X175351000Y-77106860D01*
X175348236Y-77134928D01*
X175341840Y-77156009D01*
X175331452Y-77175445D01*
X175317476Y-77192476D01*
X175300445Y-77206452D01*
X175281009Y-77216840D01*
X175259928Y-77223236D01*
X175231860Y-77226000D01*
X173668140Y-77226000D01*
X173640072Y-77223236D01*
X173618991Y-77216840D01*
X173599555Y-77206452D01*
X173582524Y-77192476D01*
X173568548Y-77175445D01*
X173558160Y-77156009D01*
X173551764Y-77134928D01*
X173549000Y-77106860D01*
X173549000Y-76643140D01*
X173551764Y-76615072D01*
X173558160Y-76593991D01*
X173568548Y-76574555D01*
X173582524Y-76557524D01*
X173599555Y-76543548D01*
X173618991Y-76533160D01*
X173640072Y-76526764D01*
X173668140Y-76524000D01*
X175231860Y-76524000D01*
X175259928Y-76526764D01*
G37*
G36*
X190259928Y-76526764D02*
G01*
X190281009Y-76533160D01*
X190300445Y-76543548D01*
X190317476Y-76557524D01*
X190331452Y-76574555D01*
X190341840Y-76593991D01*
X190348236Y-76615072D01*
X190351000Y-76643140D01*
X190351000Y-77106860D01*
X190348236Y-77134928D01*
X190341840Y-77156009D01*
X190331452Y-77175445D01*
X190317476Y-77192476D01*
X190300445Y-77206452D01*
X190281009Y-77216840D01*
X190259928Y-77223236D01*
X190231860Y-77226000D01*
X188668140Y-77226000D01*
X188640072Y-77223236D01*
X188618991Y-77216840D01*
X188599555Y-77206452D01*
X188582524Y-77192476D01*
X188568548Y-77175445D01*
X188558160Y-77156009D01*
X188551764Y-77134928D01*
X188549000Y-77106860D01*
X188549000Y-76643140D01*
X188551764Y-76615072D01*
X188558160Y-76593991D01*
X188568548Y-76574555D01*
X188582524Y-76557524D01*
X188599555Y-76543548D01*
X188618991Y-76533160D01*
X188640072Y-76526764D01*
X188668140Y-76524000D01*
X190231860Y-76524000D01*
X190259928Y-76526764D01*
G37*
G36*
X205259928Y-76526764D02*
G01*
X205281009Y-76533160D01*
X205300445Y-76543548D01*
X205317476Y-76557524D01*
X205331452Y-76574555D01*
X205341840Y-76593991D01*
X205348236Y-76615072D01*
X205351000Y-76643140D01*
X205351000Y-77106860D01*
X205348236Y-77134928D01*
X205341840Y-77156009D01*
X205331452Y-77175445D01*
X205317476Y-77192476D01*
X205300445Y-77206452D01*
X205281009Y-77216840D01*
X205259928Y-77223236D01*
X205231860Y-77226000D01*
X203668140Y-77226000D01*
X203640072Y-77223236D01*
X203618991Y-77216840D01*
X203599555Y-77206452D01*
X203582524Y-77192476D01*
X203568548Y-77175445D01*
X203558160Y-77156009D01*
X203551764Y-77134928D01*
X203549000Y-77106860D01*
X203549000Y-76643140D01*
X203551764Y-76615072D01*
X203558160Y-76593991D01*
X203568548Y-76574555D01*
X203582524Y-76557524D01*
X203599555Y-76543548D01*
X203618991Y-76533160D01*
X203640072Y-76526764D01*
X203668140Y-76524000D01*
X205231860Y-76524000D01*
X205259928Y-76526764D01*
G37*
G36*
X197759928Y-75276764D02*
G01*
X197781009Y-75283160D01*
X197800445Y-75293548D01*
X197817476Y-75307524D01*
X197831452Y-75324555D01*
X197841840Y-75343991D01*
X197848236Y-75365072D01*
X197851000Y-75393140D01*
X197851000Y-75856860D01*
X197848236Y-75884928D01*
X197841840Y-75906009D01*
X197831452Y-75925445D01*
X197817476Y-75942476D01*
X197800445Y-75956452D01*
X197781009Y-75966840D01*
X197759928Y-75973236D01*
X197731860Y-75976000D01*
X196168140Y-75976000D01*
X196140072Y-75973236D01*
X196118991Y-75966840D01*
X196099555Y-75956452D01*
X196082524Y-75942476D01*
X196068548Y-75925445D01*
X196058160Y-75906009D01*
X196051764Y-75884928D01*
X196049000Y-75856860D01*
X196049000Y-75393140D01*
X196051764Y-75365072D01*
X196058160Y-75343991D01*
X196068548Y-75324555D01*
X196082524Y-75307524D01*
X196099555Y-75293548D01*
X196118991Y-75283160D01*
X196140072Y-75276764D01*
X196168140Y-75274000D01*
X197731860Y-75274000D01*
X197759928Y-75276764D01*
G37*
G36*
X182759928Y-75276764D02*
G01*
X182781009Y-75283160D01*
X182800445Y-75293548D01*
X182817476Y-75307524D01*
X182831452Y-75324555D01*
X182841840Y-75343991D01*
X182848236Y-75365072D01*
X182851000Y-75393140D01*
X182851000Y-75856860D01*
X182848236Y-75884928D01*
X182841840Y-75906009D01*
X182831452Y-75925445D01*
X182817476Y-75942476D01*
X182800445Y-75956452D01*
X182781009Y-75966840D01*
X182759928Y-75973236D01*
X182731860Y-75976000D01*
X181168140Y-75976000D01*
X181140072Y-75973236D01*
X181118991Y-75966840D01*
X181099555Y-75956452D01*
X181082524Y-75942476D01*
X181068548Y-75925445D01*
X181058160Y-75906009D01*
X181051764Y-75884928D01*
X181049000Y-75856860D01*
X181049000Y-75393140D01*
X181051764Y-75365072D01*
X181058160Y-75343991D01*
X181068548Y-75324555D01*
X181082524Y-75307524D01*
X181099555Y-75293548D01*
X181118991Y-75283160D01*
X181140072Y-75276764D01*
X181168140Y-75274000D01*
X182731860Y-75274000D01*
X182759928Y-75276764D01*
G37*
G36*
X212759928Y-75276764D02*
G01*
X212781009Y-75283160D01*
X212800445Y-75293548D01*
X212817476Y-75307524D01*
X212831452Y-75324555D01*
X212841840Y-75343991D01*
X212848236Y-75365072D01*
X212851000Y-75393140D01*
X212851000Y-75856860D01*
X212848236Y-75884928D01*
X212841840Y-75906009D01*
X212831452Y-75925445D01*
X212817476Y-75942476D01*
X212800445Y-75956452D01*
X212781009Y-75966840D01*
X212759928Y-75973236D01*
X212731860Y-75976000D01*
X211168140Y-75976000D01*
X211140072Y-75973236D01*
X211118991Y-75966840D01*
X211099555Y-75956452D01*
X211082524Y-75942476D01*
X211068548Y-75925445D01*
X211058160Y-75906009D01*
X211051764Y-75884928D01*
X211049000Y-75856860D01*
X211049000Y-75393140D01*
X211051764Y-75365072D01*
X211058160Y-75343991D01*
X211068548Y-75324555D01*
X211082524Y-75307524D01*
X211099555Y-75293548D01*
X211118991Y-75283160D01*
X211140072Y-75276764D01*
X211168140Y-75274000D01*
X212731860Y-75274000D01*
X212759928Y-75276764D01*
G37*
G36*
X190259928Y-75276764D02*
G01*
X190281009Y-75283160D01*
X190300445Y-75293548D01*
X190317476Y-75307524D01*
X190331452Y-75324555D01*
X190341840Y-75343991D01*
X190348236Y-75365072D01*
X190351000Y-75393140D01*
X190351000Y-75856860D01*
X190348236Y-75884928D01*
X190341840Y-75906009D01*
X190331452Y-75925445D01*
X190317476Y-75942476D01*
X190300445Y-75956452D01*
X190281009Y-75966840D01*
X190259928Y-75973236D01*
X190231860Y-75976000D01*
X188668140Y-75976000D01*
X188640072Y-75973236D01*
X188618991Y-75966840D01*
X188599555Y-75956452D01*
X188582524Y-75942476D01*
X188568548Y-75925445D01*
X188558160Y-75906009D01*
X188551764Y-75884928D01*
X188549000Y-75856860D01*
X188549000Y-75393140D01*
X188551764Y-75365072D01*
X188558160Y-75343991D01*
X188568548Y-75324555D01*
X188582524Y-75307524D01*
X188599555Y-75293548D01*
X188618991Y-75283160D01*
X188640072Y-75276764D01*
X188668140Y-75274000D01*
X190231860Y-75274000D01*
X190259928Y-75276764D01*
G37*
G36*
X175259928Y-75276764D02*
G01*
X175281009Y-75283160D01*
X175300445Y-75293548D01*
X175317476Y-75307524D01*
X175331452Y-75324555D01*
X175341840Y-75343991D01*
X175348236Y-75365072D01*
X175351000Y-75393140D01*
X175351000Y-75856860D01*
X175348236Y-75884928D01*
X175341840Y-75906009D01*
X175331452Y-75925445D01*
X175317476Y-75942476D01*
X175300445Y-75956452D01*
X175281009Y-75966840D01*
X175259928Y-75973236D01*
X175231860Y-75976000D01*
X173668140Y-75976000D01*
X173640072Y-75973236D01*
X173618991Y-75966840D01*
X173599555Y-75956452D01*
X173582524Y-75942476D01*
X173568548Y-75925445D01*
X173558160Y-75906009D01*
X173551764Y-75884928D01*
X173549000Y-75856860D01*
X173549000Y-75393140D01*
X173551764Y-75365072D01*
X173558160Y-75343991D01*
X173568548Y-75324555D01*
X173582524Y-75307524D01*
X173599555Y-75293548D01*
X173618991Y-75283160D01*
X173640072Y-75276764D01*
X173668140Y-75274000D01*
X175231860Y-75274000D01*
X175259928Y-75276764D01*
G37*
G36*
X205259928Y-75276764D02*
G01*
X205281009Y-75283160D01*
X205300445Y-75293548D01*
X205317476Y-75307524D01*
X205331452Y-75324555D01*
X205341840Y-75343991D01*
X205348236Y-75365072D01*
X205351000Y-75393140D01*
X205351000Y-75856860D01*
X205348236Y-75884928D01*
X205341840Y-75906009D01*
X205331452Y-75925445D01*
X205317476Y-75942476D01*
X205300445Y-75956452D01*
X205281009Y-75966840D01*
X205259928Y-75973236D01*
X205231860Y-75976000D01*
X203668140Y-75976000D01*
X203640072Y-75973236D01*
X203618991Y-75966840D01*
X203599555Y-75956452D01*
X203582524Y-75942476D01*
X203568548Y-75925445D01*
X203558160Y-75906009D01*
X203551764Y-75884928D01*
X203549000Y-75856860D01*
X203549000Y-75393140D01*
X203551764Y-75365072D01*
X203558160Y-75343991D01*
X203568548Y-75324555D01*
X203582524Y-75307524D01*
X203599555Y-75293548D01*
X203618991Y-75283160D01*
X203640072Y-75276764D01*
X203668140Y-75274000D01*
X205231860Y-75274000D01*
X205259928Y-75276764D01*
G37*
G36*
X197759928Y-74026764D02*
G01*
X197781009Y-74033160D01*
X197800445Y-74043548D01*
X197817476Y-74057524D01*
X197831452Y-74074555D01*
X197841840Y-74093991D01*
X197848236Y-74115072D01*
X197851000Y-74143140D01*
X197851000Y-74606860D01*
X197848236Y-74634928D01*
X197841840Y-74656009D01*
X197831452Y-74675445D01*
X197817476Y-74692476D01*
X197800445Y-74706452D01*
X197781009Y-74716840D01*
X197759928Y-74723236D01*
X197731860Y-74726000D01*
X196168140Y-74726000D01*
X196140072Y-74723236D01*
X196118991Y-74716840D01*
X196099555Y-74706452D01*
X196082524Y-74692476D01*
X196068548Y-74675445D01*
X196058160Y-74656009D01*
X196051764Y-74634928D01*
X196049000Y-74606860D01*
X196049000Y-74143140D01*
X196051764Y-74115072D01*
X196058160Y-74093991D01*
X196068548Y-74074555D01*
X196082524Y-74057524D01*
X196099555Y-74043548D01*
X196118991Y-74033160D01*
X196140072Y-74026764D01*
X196168140Y-74024000D01*
X197731860Y-74024000D01*
X197759928Y-74026764D01*
G37*
G36*
X205259928Y-74026764D02*
G01*
X205281009Y-74033160D01*
X205300445Y-74043548D01*
X205317476Y-74057524D01*
X205331452Y-74074555D01*
X205341840Y-74093991D01*
X205348236Y-74115072D01*
X205351000Y-74143140D01*
X205351000Y-74606860D01*
X205348236Y-74634928D01*
X205341840Y-74656009D01*
X205331452Y-74675445D01*
X205317476Y-74692476D01*
X205300445Y-74706452D01*
X205281009Y-74716840D01*
X205259928Y-74723236D01*
X205231860Y-74726000D01*
X203668140Y-74726000D01*
X203640072Y-74723236D01*
X203618991Y-74716840D01*
X203599555Y-74706452D01*
X203582524Y-74692476D01*
X203568548Y-74675445D01*
X203558160Y-74656009D01*
X203551764Y-74634928D01*
X203549000Y-74606860D01*
X203549000Y-74143140D01*
X203551764Y-74115072D01*
X203558160Y-74093991D01*
X203568548Y-74074555D01*
X203582524Y-74057524D01*
X203599555Y-74043548D01*
X203618991Y-74033160D01*
X203640072Y-74026764D01*
X203668140Y-74024000D01*
X205231860Y-74024000D01*
X205259928Y-74026764D01*
G37*
G36*
X190259928Y-74026764D02*
G01*
X190281009Y-74033160D01*
X190300445Y-74043548D01*
X190317476Y-74057524D01*
X190331452Y-74074555D01*
X190341840Y-74093991D01*
X190348236Y-74115072D01*
X190351000Y-74143140D01*
X190351000Y-74606860D01*
X190348236Y-74634928D01*
X190341840Y-74656009D01*
X190331452Y-74675445D01*
X190317476Y-74692476D01*
X190300445Y-74706452D01*
X190281009Y-74716840D01*
X190259928Y-74723236D01*
X190231860Y-74726000D01*
X188668140Y-74726000D01*
X188640072Y-74723236D01*
X188618991Y-74716840D01*
X188599555Y-74706452D01*
X188582524Y-74692476D01*
X188568548Y-74675445D01*
X188558160Y-74656009D01*
X188551764Y-74634928D01*
X188549000Y-74606860D01*
X188549000Y-74143140D01*
X188551764Y-74115072D01*
X188558160Y-74093991D01*
X188568548Y-74074555D01*
X188582524Y-74057524D01*
X188599555Y-74043548D01*
X188618991Y-74033160D01*
X188640072Y-74026764D01*
X188668140Y-74024000D01*
X190231860Y-74024000D01*
X190259928Y-74026764D01*
G37*
G36*
X212759928Y-74026764D02*
G01*
X212781009Y-74033160D01*
X212800445Y-74043548D01*
X212817476Y-74057524D01*
X212831452Y-74074555D01*
X212841840Y-74093991D01*
X212848236Y-74115072D01*
X212851000Y-74143140D01*
X212851000Y-74606860D01*
X212848236Y-74634928D01*
X212841840Y-74656009D01*
X212831452Y-74675445D01*
X212817476Y-74692476D01*
X212800445Y-74706452D01*
X212781009Y-74716840D01*
X212759928Y-74723236D01*
X212731860Y-74726000D01*
X211168140Y-74726000D01*
X211140072Y-74723236D01*
X211118991Y-74716840D01*
X211099555Y-74706452D01*
X211082524Y-74692476D01*
X211068548Y-74675445D01*
X211058160Y-74656009D01*
X211051764Y-74634928D01*
X211049000Y-74606860D01*
X211049000Y-74143140D01*
X211051764Y-74115072D01*
X211058160Y-74093991D01*
X211068548Y-74074555D01*
X211082524Y-74057524D01*
X211099555Y-74043548D01*
X211118991Y-74033160D01*
X211140072Y-74026764D01*
X211168140Y-74024000D01*
X212731860Y-74024000D01*
X212759928Y-74026764D01*
G37*
G36*
X175259928Y-74026764D02*
G01*
X175281009Y-74033160D01*
X175300445Y-74043548D01*
X175317476Y-74057524D01*
X175331452Y-74074555D01*
X175341840Y-74093991D01*
X175348236Y-74115072D01*
X175351000Y-74143140D01*
X175351000Y-74606860D01*
X175348236Y-74634928D01*
X175341840Y-74656009D01*
X175331452Y-74675445D01*
X175317476Y-74692476D01*
X175300445Y-74706452D01*
X175281009Y-74716840D01*
X175259928Y-74723236D01*
X175231860Y-74726000D01*
X173668140Y-74726000D01*
X173640072Y-74723236D01*
X173618991Y-74716840D01*
X173599555Y-74706452D01*
X173582524Y-74692476D01*
X173568548Y-74675445D01*
X173558160Y-74656009D01*
X173551764Y-74634928D01*
X173549000Y-74606860D01*
X173549000Y-74143140D01*
X173551764Y-74115072D01*
X173558160Y-74093991D01*
X173568548Y-74074555D01*
X173582524Y-74057524D01*
X173599555Y-74043548D01*
X173618991Y-74033160D01*
X173640072Y-74026764D01*
X173668140Y-74024000D01*
X175231860Y-74024000D01*
X175259928Y-74026764D01*
G37*
G36*
X182759928Y-74026764D02*
G01*
X182781009Y-74033160D01*
X182800445Y-74043548D01*
X182817476Y-74057524D01*
X182831452Y-74074555D01*
X182841840Y-74093991D01*
X182848236Y-74115072D01*
X182851000Y-74143140D01*
X182851000Y-74606860D01*
X182848236Y-74634928D01*
X182841840Y-74656009D01*
X182831452Y-74675445D01*
X182817476Y-74692476D01*
X182800445Y-74706452D01*
X182781009Y-74716840D01*
X182759928Y-74723236D01*
X182731860Y-74726000D01*
X181168140Y-74726000D01*
X181140072Y-74723236D01*
X181118991Y-74716840D01*
X181099555Y-74706452D01*
X181082524Y-74692476D01*
X181068548Y-74675445D01*
X181058160Y-74656009D01*
X181051764Y-74634928D01*
X181049000Y-74606860D01*
X181049000Y-74143140D01*
X181051764Y-74115072D01*
X181058160Y-74093991D01*
X181068548Y-74074555D01*
X181082524Y-74057524D01*
X181099555Y-74043548D01*
X181118991Y-74033160D01*
X181140072Y-74026764D01*
X181168140Y-74024000D01*
X182731860Y-74024000D01*
X182759928Y-74026764D01*
G37*
G36*
X175259928Y-72776764D02*
G01*
X175281009Y-72783160D01*
X175300445Y-72793548D01*
X175317476Y-72807524D01*
X175331452Y-72824555D01*
X175341840Y-72843991D01*
X175348236Y-72865072D01*
X175351000Y-72893140D01*
X175351000Y-73356860D01*
X175348236Y-73384928D01*
X175341840Y-73406009D01*
X175331452Y-73425445D01*
X175317476Y-73442476D01*
X175300445Y-73456452D01*
X175281009Y-73466840D01*
X175259928Y-73473236D01*
X175231860Y-73476000D01*
X173668140Y-73476000D01*
X173640072Y-73473236D01*
X173618991Y-73466840D01*
X173599555Y-73456452D01*
X173582524Y-73442476D01*
X173568548Y-73425445D01*
X173558160Y-73406009D01*
X173551764Y-73384928D01*
X173549000Y-73356860D01*
X173549000Y-72893140D01*
X173551764Y-72865072D01*
X173558160Y-72843991D01*
X173568548Y-72824555D01*
X173582524Y-72807524D01*
X173599555Y-72793548D01*
X173618991Y-72783160D01*
X173640072Y-72776764D01*
X173668140Y-72774000D01*
X175231860Y-72774000D01*
X175259928Y-72776764D01*
G37*
G36*
X212759928Y-72776764D02*
G01*
X212781009Y-72783160D01*
X212800445Y-72793548D01*
X212817476Y-72807524D01*
X212831452Y-72824555D01*
X212841840Y-72843991D01*
X212848236Y-72865072D01*
X212851000Y-72893140D01*
X212851000Y-73356860D01*
X212848236Y-73384928D01*
X212841840Y-73406009D01*
X212831452Y-73425445D01*
X212817476Y-73442476D01*
X212800445Y-73456452D01*
X212781009Y-73466840D01*
X212759928Y-73473236D01*
X212731860Y-73476000D01*
X211168140Y-73476000D01*
X211140072Y-73473236D01*
X211118991Y-73466840D01*
X211099555Y-73456452D01*
X211082524Y-73442476D01*
X211068548Y-73425445D01*
X211058160Y-73406009D01*
X211051764Y-73384928D01*
X211049000Y-73356860D01*
X211049000Y-72893140D01*
X211051764Y-72865072D01*
X211058160Y-72843991D01*
X211068548Y-72824555D01*
X211082524Y-72807524D01*
X211099555Y-72793548D01*
X211118991Y-72783160D01*
X211140072Y-72776764D01*
X211168140Y-72774000D01*
X212731860Y-72774000D01*
X212759928Y-72776764D01*
G37*
G36*
X205259928Y-72776764D02*
G01*
X205281009Y-72783160D01*
X205300445Y-72793548D01*
X205317476Y-72807524D01*
X205331452Y-72824555D01*
X205341840Y-72843991D01*
X205348236Y-72865072D01*
X205351000Y-72893140D01*
X205351000Y-73356860D01*
X205348236Y-73384928D01*
X205341840Y-73406009D01*
X205331452Y-73425445D01*
X205317476Y-73442476D01*
X205300445Y-73456452D01*
X205281009Y-73466840D01*
X205259928Y-73473236D01*
X205231860Y-73476000D01*
X203668140Y-73476000D01*
X203640072Y-73473236D01*
X203618991Y-73466840D01*
X203599555Y-73456452D01*
X203582524Y-73442476D01*
X203568548Y-73425445D01*
X203558160Y-73406009D01*
X203551764Y-73384928D01*
X203549000Y-73356860D01*
X203549000Y-72893140D01*
X203551764Y-72865072D01*
X203558160Y-72843991D01*
X203568548Y-72824555D01*
X203582524Y-72807524D01*
X203599555Y-72793548D01*
X203618991Y-72783160D01*
X203640072Y-72776764D01*
X203668140Y-72774000D01*
X205231860Y-72774000D01*
X205259928Y-72776764D01*
G37*
G36*
X197759928Y-72776764D02*
G01*
X197781009Y-72783160D01*
X197800445Y-72793548D01*
X197817476Y-72807524D01*
X197831452Y-72824555D01*
X197841840Y-72843991D01*
X197848236Y-72865072D01*
X197851000Y-72893140D01*
X197851000Y-73356860D01*
X197848236Y-73384928D01*
X197841840Y-73406009D01*
X197831452Y-73425445D01*
X197817476Y-73442476D01*
X197800445Y-73456452D01*
X197781009Y-73466840D01*
X197759928Y-73473236D01*
X197731860Y-73476000D01*
X196168140Y-73476000D01*
X196140072Y-73473236D01*
X196118991Y-73466840D01*
X196099555Y-73456452D01*
X196082524Y-73442476D01*
X196068548Y-73425445D01*
X196058160Y-73406009D01*
X196051764Y-73384928D01*
X196049000Y-73356860D01*
X196049000Y-72893140D01*
X196051764Y-72865072D01*
X196058160Y-72843991D01*
X196068548Y-72824555D01*
X196082524Y-72807524D01*
X196099555Y-72793548D01*
X196118991Y-72783160D01*
X196140072Y-72776764D01*
X196168140Y-72774000D01*
X197731860Y-72774000D01*
X197759928Y-72776764D01*
G37*
G36*
X190259928Y-72776764D02*
G01*
X190281009Y-72783160D01*
X190300445Y-72793548D01*
X190317476Y-72807524D01*
X190331452Y-72824555D01*
X190341840Y-72843991D01*
X190348236Y-72865072D01*
X190351000Y-72893140D01*
X190351000Y-73356860D01*
X190348236Y-73384928D01*
X190341840Y-73406009D01*
X190331452Y-73425445D01*
X190317476Y-73442476D01*
X190300445Y-73456452D01*
X190281009Y-73466840D01*
X190259928Y-73473236D01*
X190231860Y-73476000D01*
X188668140Y-73476000D01*
X188640072Y-73473236D01*
X188618991Y-73466840D01*
X188599555Y-73456452D01*
X188582524Y-73442476D01*
X188568548Y-73425445D01*
X188558160Y-73406009D01*
X188551764Y-73384928D01*
X188549000Y-73356860D01*
X188549000Y-72893140D01*
X188551764Y-72865072D01*
X188558160Y-72843991D01*
X188568548Y-72824555D01*
X188582524Y-72807524D01*
X188599555Y-72793548D01*
X188618991Y-72783160D01*
X188640072Y-72776764D01*
X188668140Y-72774000D01*
X190231860Y-72774000D01*
X190259928Y-72776764D01*
G37*
G36*
X182759928Y-72776764D02*
G01*
X182781009Y-72783160D01*
X182800445Y-72793548D01*
X182817476Y-72807524D01*
X182831452Y-72824555D01*
X182841840Y-72843991D01*
X182848236Y-72865072D01*
X182851000Y-72893140D01*
X182851000Y-73356860D01*
X182848236Y-73384928D01*
X182841840Y-73406009D01*
X182831452Y-73425445D01*
X182817476Y-73442476D01*
X182800445Y-73456452D01*
X182781009Y-73466840D01*
X182759928Y-73473236D01*
X182731860Y-73476000D01*
X181168140Y-73476000D01*
X181140072Y-73473236D01*
X181118991Y-73466840D01*
X181099555Y-73456452D01*
X181082524Y-73442476D01*
X181068548Y-73425445D01*
X181058160Y-73406009D01*
X181051764Y-73384928D01*
X181049000Y-73356860D01*
X181049000Y-72893140D01*
X181051764Y-72865072D01*
X181058160Y-72843991D01*
X181068548Y-72824555D01*
X181082524Y-72807524D01*
X181099555Y-72793548D01*
X181118991Y-72783160D01*
X181140072Y-72776764D01*
X181168140Y-72774000D01*
X182731860Y-72774000D01*
X182759928Y-72776764D01*
G37*
G36*
X202379434Y-70728686D02*
G01*
X202419284Y-70740774D01*
X202455999Y-70760399D01*
X202488186Y-70786814D01*
X202514601Y-70819001D01*
X202534226Y-70855716D01*
X202546314Y-70895566D01*
X202551000Y-70943141D01*
X202551000Y-71606859D01*
X202546314Y-71654434D01*
X202534226Y-71694284D01*
X202514601Y-71730999D01*
X202488186Y-71763186D01*
X202455999Y-71789601D01*
X202419284Y-71809226D01*
X202379434Y-71821314D01*
X202331859Y-71826000D01*
X199868141Y-71826000D01*
X199820566Y-71821314D01*
X199780716Y-71809226D01*
X199744001Y-71789601D01*
X199711814Y-71763186D01*
X199685399Y-71730999D01*
X199665774Y-71694284D01*
X199653686Y-71654434D01*
X199649000Y-71606859D01*
X199649000Y-70943141D01*
X199653686Y-70895566D01*
X199665774Y-70855716D01*
X199685399Y-70819001D01*
X199711814Y-70786814D01*
X199744001Y-70760399D01*
X199780716Y-70740774D01*
X199820566Y-70728686D01*
X199868141Y-70724000D01*
X202331859Y-70724000D01*
X202379434Y-70728686D01*
G37*
G36*
X187379434Y-70728686D02*
G01*
X187419284Y-70740774D01*
X187455999Y-70760399D01*
X187488186Y-70786814D01*
X187514601Y-70819001D01*
X187534226Y-70855716D01*
X187546314Y-70895566D01*
X187551000Y-70943141D01*
X187551000Y-71606859D01*
X187546314Y-71654434D01*
X187534226Y-71694284D01*
X187514601Y-71730999D01*
X187488186Y-71763186D01*
X187455999Y-71789601D01*
X187419284Y-71809226D01*
X187379434Y-71821314D01*
X187331859Y-71826000D01*
X184868141Y-71826000D01*
X184820566Y-71821314D01*
X184780716Y-71809226D01*
X184744001Y-71789601D01*
X184711814Y-71763186D01*
X184685399Y-71730999D01*
X184665774Y-71694284D01*
X184653686Y-71654434D01*
X184649000Y-71606859D01*
X184649000Y-70943141D01*
X184653686Y-70895566D01*
X184665774Y-70855716D01*
X184685399Y-70819001D01*
X184711814Y-70786814D01*
X184744001Y-70760399D01*
X184780716Y-70740774D01*
X184820566Y-70728686D01*
X184868141Y-70724000D01*
X187331859Y-70724000D01*
X187379434Y-70728686D01*
G37*
G36*
X209879434Y-70728686D02*
G01*
X209919284Y-70740774D01*
X209955999Y-70760399D01*
X209988186Y-70786814D01*
X210014601Y-70819001D01*
X210034226Y-70855716D01*
X210046314Y-70895566D01*
X210051000Y-70943141D01*
X210051000Y-71606859D01*
X210046314Y-71654434D01*
X210034226Y-71694284D01*
X210014601Y-71730999D01*
X209988186Y-71763186D01*
X209955999Y-71789601D01*
X209919284Y-71809226D01*
X209879434Y-71821314D01*
X209831859Y-71826000D01*
X207368141Y-71826000D01*
X207320566Y-71821314D01*
X207280716Y-71809226D01*
X207244001Y-71789601D01*
X207211814Y-71763186D01*
X207185399Y-71730999D01*
X207165774Y-71694284D01*
X207153686Y-71654434D01*
X207149000Y-71606859D01*
X207149000Y-70943141D01*
X207153686Y-70895566D01*
X207165774Y-70855716D01*
X207185399Y-70819001D01*
X207211814Y-70786814D01*
X207244001Y-70760399D01*
X207280716Y-70740774D01*
X207320566Y-70728686D01*
X207368141Y-70724000D01*
X209831859Y-70724000D01*
X209879434Y-70728686D01*
G37*
G36*
X172379434Y-70728686D02*
G01*
X172419284Y-70740774D01*
X172455999Y-70760399D01*
X172488186Y-70786814D01*
X172514601Y-70819001D01*
X172534226Y-70855716D01*
X172546314Y-70895566D01*
X172551000Y-70943141D01*
X172551000Y-71606859D01*
X172546314Y-71654434D01*
X172534226Y-71694284D01*
X172514601Y-71730999D01*
X172488186Y-71763186D01*
X172455999Y-71789601D01*
X172419284Y-71809226D01*
X172379434Y-71821314D01*
X172331859Y-71826000D01*
X169868141Y-71826000D01*
X169820566Y-71821314D01*
X169780716Y-71809226D01*
X169744001Y-71789601D01*
X169711814Y-71763186D01*
X169685399Y-71730999D01*
X169665774Y-71694284D01*
X169653686Y-71654434D01*
X169649000Y-71606859D01*
X169649000Y-70943141D01*
X169653686Y-70895566D01*
X169665774Y-70855716D01*
X169685399Y-70819001D01*
X169711814Y-70786814D01*
X169744001Y-70760399D01*
X169780716Y-70740774D01*
X169820566Y-70728686D01*
X169868141Y-70724000D01*
X172331859Y-70724000D01*
X172379434Y-70728686D01*
G37*
G36*
X179879434Y-70728686D02*
G01*
X179919284Y-70740774D01*
X179955999Y-70760399D01*
X179988186Y-70786814D01*
X180014601Y-70819001D01*
X180034226Y-70855716D01*
X180046314Y-70895566D01*
X180051000Y-70943141D01*
X180051000Y-71606859D01*
X180046314Y-71654434D01*
X180034226Y-71694284D01*
X180014601Y-71730999D01*
X179988186Y-71763186D01*
X179955999Y-71789601D01*
X179919284Y-71809226D01*
X179879434Y-71821314D01*
X179831859Y-71826000D01*
X177368141Y-71826000D01*
X177320566Y-71821314D01*
X177280716Y-71809226D01*
X177244001Y-71789601D01*
X177211814Y-71763186D01*
X177185399Y-71730999D01*
X177165774Y-71694284D01*
X177153686Y-71654434D01*
X177149000Y-71606859D01*
X177149000Y-70943141D01*
X177153686Y-70895566D01*
X177165774Y-70855716D01*
X177185399Y-70819001D01*
X177211814Y-70786814D01*
X177244001Y-70760399D01*
X177280716Y-70740774D01*
X177320566Y-70728686D01*
X177368141Y-70724000D01*
X179831859Y-70724000D01*
X179879434Y-70728686D01*
G37*
G36*
X194879434Y-70728686D02*
G01*
X194919284Y-70740774D01*
X194955999Y-70760399D01*
X194988186Y-70786814D01*
X195014601Y-70819001D01*
X195034226Y-70855716D01*
X195046314Y-70895566D01*
X195051000Y-70943141D01*
X195051000Y-71606859D01*
X195046314Y-71654434D01*
X195034226Y-71694284D01*
X195014601Y-71730999D01*
X194988186Y-71763186D01*
X194955999Y-71789601D01*
X194919284Y-71809226D01*
X194879434Y-71821314D01*
X194831859Y-71826000D01*
X192368141Y-71826000D01*
X192320566Y-71821314D01*
X192280716Y-71809226D01*
X192244001Y-71789601D01*
X192211814Y-71763186D01*
X192185399Y-71730999D01*
X192165774Y-71694284D01*
X192153686Y-71654434D01*
X192149000Y-71606859D01*
X192149000Y-70943141D01*
X192153686Y-70895566D01*
X192165774Y-70855716D01*
X192185399Y-70819001D01*
X192211814Y-70786814D01*
X192244001Y-70760399D01*
X192280716Y-70740774D01*
X192320566Y-70728686D01*
X192368141Y-70724000D01*
X194831859Y-70724000D01*
X194879434Y-70728686D01*
G37*
M02*
