G04 #@! TF.GenerationSoftware,KiCad,Pcbnew,(5.1.5)-3*
G04 #@! TF.CreationDate,2021-12-28T18:28:46-08:00*
G04 #@! TF.ProjectId,i2c_breakout,6932635f-6272-4656-916b-6f75742e6b69,rev?*
G04 #@! TF.SameCoordinates,Original*
G04 #@! TF.FileFunction,Copper,L2,Bot*
G04 #@! TF.FilePolarity,Positive*
%FSLAX46Y46*%
G04 Gerber Fmt 4.6, Leading zero omitted, Abs format (unit mm)*
G04 Created by KiCad (PCBNEW (5.1.5)-3) date 2021-12-28 18:28:46*
%MOMM*%
%LPD*%
G04 APERTURE LIST*
%ADD10R,2.500000X2.500000*%
%ADD11C,0.800000*%
%ADD12C,0.500000*%
%ADD13C,0.254000*%
G04 APERTURE END LIST*
D10*
X210000000Y-72250000D03*
X210000000Y-78000000D03*
D11*
X205750000Y-71500000D03*
X181800000Y-78700000D03*
X189350000Y-78600000D03*
X196800000Y-78700000D03*
X196900000Y-71450000D03*
X189400000Y-71350000D03*
X181900000Y-71400000D03*
X174400000Y-71350000D03*
X174400000Y-78450000D03*
X204350000Y-78800000D03*
X205750000Y-78750000D03*
D12*
X209000000Y-72500000D02*
X210000000Y-71500000D01*
X206500000Y-72250000D02*
X205750000Y-71500000D01*
X210000000Y-72250000D02*
X206500000Y-72250000D01*
X206500000Y-78000000D02*
X205750000Y-78750000D01*
X210000000Y-78000000D02*
X206500000Y-78000000D01*
D13*
G36*
X208160498Y-70755820D02*
G01*
X208124188Y-70875518D01*
X208111928Y-71000000D01*
X208115000Y-71964250D01*
X208273750Y-72123000D01*
X209873000Y-72123000D01*
X209873000Y-72103000D01*
X210127000Y-72103000D01*
X210127000Y-72123000D01*
X211726250Y-72123000D01*
X211885000Y-71964250D01*
X211888072Y-71000000D01*
X211875812Y-70875518D01*
X211839502Y-70755820D01*
X211788284Y-70660000D01*
X212967719Y-70660000D01*
X213016867Y-70664819D01*
X213033092Y-70669718D01*
X213048053Y-70677672D01*
X213061189Y-70688386D01*
X213071988Y-70701441D01*
X213080049Y-70716349D01*
X213085062Y-70732541D01*
X213090001Y-70779534D01*
X213090000Y-79217719D01*
X213085181Y-79266868D01*
X213080283Y-79283091D01*
X213072326Y-79298055D01*
X213061615Y-79311188D01*
X213048559Y-79321989D01*
X213033652Y-79330049D01*
X213017459Y-79335062D01*
X212970475Y-79340000D01*
X211879208Y-79340000D01*
X211888072Y-79250000D01*
X211888072Y-76750000D01*
X211875812Y-76625518D01*
X211839502Y-76505820D01*
X211780537Y-76395506D01*
X211701185Y-76298815D01*
X211604494Y-76219463D01*
X211494180Y-76160498D01*
X211374482Y-76124188D01*
X211250000Y-76111928D01*
X208750000Y-76111928D01*
X208625518Y-76124188D01*
X208505820Y-76160498D01*
X208395506Y-76219463D01*
X208298815Y-76298815D01*
X208219463Y-76395506D01*
X208160498Y-76505820D01*
X208124188Y-76625518D01*
X208111928Y-76750000D01*
X208111928Y-77115000D01*
X206543465Y-77115000D01*
X206499999Y-77110719D01*
X206456533Y-77115000D01*
X206456523Y-77115000D01*
X206326510Y-77127805D01*
X206159687Y-77178411D01*
X206005941Y-77260589D01*
X206005939Y-77260590D01*
X206005940Y-77260590D01*
X205904953Y-77343468D01*
X205904951Y-77343470D01*
X205871183Y-77371183D01*
X205843470Y-77404951D01*
X205504956Y-77743465D01*
X205448102Y-77754774D01*
X205259744Y-77832795D01*
X205090226Y-77946063D01*
X204946063Y-78090226D01*
X204832795Y-78259744D01*
X204754774Y-78448102D01*
X204715000Y-78648061D01*
X204715000Y-78851939D01*
X204754774Y-79051898D01*
X204832795Y-79240256D01*
X204899442Y-79340000D01*
X169282281Y-79340000D01*
X169233132Y-79335181D01*
X169216909Y-79330283D01*
X169201945Y-79322326D01*
X169188812Y-79311615D01*
X169178011Y-79298559D01*
X169169951Y-79283652D01*
X169164938Y-79267459D01*
X169160000Y-79220475D01*
X169160000Y-73500000D01*
X208111928Y-73500000D01*
X208124188Y-73624482D01*
X208160498Y-73744180D01*
X208219463Y-73854494D01*
X208298815Y-73951185D01*
X208395506Y-74030537D01*
X208505820Y-74089502D01*
X208625518Y-74125812D01*
X208750000Y-74138072D01*
X209714250Y-74135000D01*
X209873000Y-73976250D01*
X209873000Y-72377000D01*
X210127000Y-72377000D01*
X210127000Y-73976250D01*
X210285750Y-74135000D01*
X211250000Y-74138072D01*
X211374482Y-74125812D01*
X211494180Y-74089502D01*
X211604494Y-74030537D01*
X211701185Y-73951185D01*
X211780537Y-73854494D01*
X211839502Y-73744180D01*
X211875812Y-73624482D01*
X211888072Y-73500000D01*
X211885000Y-72535750D01*
X211726250Y-72377000D01*
X210127000Y-72377000D01*
X209873000Y-72377000D01*
X208273750Y-72377000D01*
X208115000Y-72535750D01*
X208111928Y-73500000D01*
X169160000Y-73500000D01*
X169160000Y-70782281D01*
X169164819Y-70733133D01*
X169169718Y-70716908D01*
X169177672Y-70701947D01*
X169188386Y-70688811D01*
X169201441Y-70678012D01*
X169216349Y-70669951D01*
X169232541Y-70664938D01*
X169279525Y-70660000D01*
X208211716Y-70660000D01*
X208160498Y-70755820D01*
G37*
X208160498Y-70755820D02*
X208124188Y-70875518D01*
X208111928Y-71000000D01*
X208115000Y-71964250D01*
X208273750Y-72123000D01*
X209873000Y-72123000D01*
X209873000Y-72103000D01*
X210127000Y-72103000D01*
X210127000Y-72123000D01*
X211726250Y-72123000D01*
X211885000Y-71964250D01*
X211888072Y-71000000D01*
X211875812Y-70875518D01*
X211839502Y-70755820D01*
X211788284Y-70660000D01*
X212967719Y-70660000D01*
X213016867Y-70664819D01*
X213033092Y-70669718D01*
X213048053Y-70677672D01*
X213061189Y-70688386D01*
X213071988Y-70701441D01*
X213080049Y-70716349D01*
X213085062Y-70732541D01*
X213090001Y-70779534D01*
X213090000Y-79217719D01*
X213085181Y-79266868D01*
X213080283Y-79283091D01*
X213072326Y-79298055D01*
X213061615Y-79311188D01*
X213048559Y-79321989D01*
X213033652Y-79330049D01*
X213017459Y-79335062D01*
X212970475Y-79340000D01*
X211879208Y-79340000D01*
X211888072Y-79250000D01*
X211888072Y-76750000D01*
X211875812Y-76625518D01*
X211839502Y-76505820D01*
X211780537Y-76395506D01*
X211701185Y-76298815D01*
X211604494Y-76219463D01*
X211494180Y-76160498D01*
X211374482Y-76124188D01*
X211250000Y-76111928D01*
X208750000Y-76111928D01*
X208625518Y-76124188D01*
X208505820Y-76160498D01*
X208395506Y-76219463D01*
X208298815Y-76298815D01*
X208219463Y-76395506D01*
X208160498Y-76505820D01*
X208124188Y-76625518D01*
X208111928Y-76750000D01*
X208111928Y-77115000D01*
X206543465Y-77115000D01*
X206499999Y-77110719D01*
X206456533Y-77115000D01*
X206456523Y-77115000D01*
X206326510Y-77127805D01*
X206159687Y-77178411D01*
X206005941Y-77260589D01*
X206005939Y-77260590D01*
X206005940Y-77260590D01*
X205904953Y-77343468D01*
X205904951Y-77343470D01*
X205871183Y-77371183D01*
X205843470Y-77404951D01*
X205504956Y-77743465D01*
X205448102Y-77754774D01*
X205259744Y-77832795D01*
X205090226Y-77946063D01*
X204946063Y-78090226D01*
X204832795Y-78259744D01*
X204754774Y-78448102D01*
X204715000Y-78648061D01*
X204715000Y-78851939D01*
X204754774Y-79051898D01*
X204832795Y-79240256D01*
X204899442Y-79340000D01*
X169282281Y-79340000D01*
X169233132Y-79335181D01*
X169216909Y-79330283D01*
X169201945Y-79322326D01*
X169188812Y-79311615D01*
X169178011Y-79298559D01*
X169169951Y-79283652D01*
X169164938Y-79267459D01*
X169160000Y-79220475D01*
X169160000Y-73500000D01*
X208111928Y-73500000D01*
X208124188Y-73624482D01*
X208160498Y-73744180D01*
X208219463Y-73854494D01*
X208298815Y-73951185D01*
X208395506Y-74030537D01*
X208505820Y-74089502D01*
X208625518Y-74125812D01*
X208750000Y-74138072D01*
X209714250Y-74135000D01*
X209873000Y-73976250D01*
X209873000Y-72377000D01*
X210127000Y-72377000D01*
X210127000Y-73976250D01*
X210285750Y-74135000D01*
X211250000Y-74138072D01*
X211374482Y-74125812D01*
X211494180Y-74089502D01*
X211604494Y-74030537D01*
X211701185Y-73951185D01*
X211780537Y-73854494D01*
X211839502Y-73744180D01*
X211875812Y-73624482D01*
X211888072Y-73500000D01*
X211885000Y-72535750D01*
X211726250Y-72377000D01*
X210127000Y-72377000D01*
X209873000Y-72377000D01*
X208273750Y-72377000D01*
X208115000Y-72535750D01*
X208111928Y-73500000D01*
X169160000Y-73500000D01*
X169160000Y-70782281D01*
X169164819Y-70733133D01*
X169169718Y-70716908D01*
X169177672Y-70701947D01*
X169188386Y-70688811D01*
X169201441Y-70678012D01*
X169216349Y-70669951D01*
X169232541Y-70664938D01*
X169279525Y-70660000D01*
X208211716Y-70660000D01*
X208160498Y-70755820D01*
M02*
