G04 #@! TF.GenerationSoftware,KiCad,Pcbnew,(5.1.5)-3*
G04 #@! TF.CreationDate,2021-12-28T18:28:46-08:00*
G04 #@! TF.ProjectId,i2c_breakout,6932635f-6272-4656-916b-6f75742e6b69,rev?*
G04 #@! TF.SameCoordinates,Original*
G04 #@! TF.FileFunction,Paste,Top*
G04 #@! TF.FilePolarity,Positive*
%FSLAX46Y46*%
G04 Gerber Fmt 4.6, Leading zero omitted, Abs format (unit mm)*
G04 Created by KiCad (PCBNEW (5.1.5)-3) date 2021-12-28 18:28:46*
%MOMM*%
%LPD*%
G04 APERTURE LIST*
%ADD10C,0.100000*%
G04 APERTURE END LIST*
D10*
G36*
X209774504Y-70776204D02*
G01*
X209798773Y-70779804D01*
X209822571Y-70785765D01*
X209845671Y-70794030D01*
X209867849Y-70804520D01*
X209888893Y-70817133D01*
X209908598Y-70831747D01*
X209926777Y-70848223D01*
X209943253Y-70866402D01*
X209957867Y-70886107D01*
X209970480Y-70907151D01*
X209980970Y-70929329D01*
X209989235Y-70952429D01*
X209995196Y-70976227D01*
X209998796Y-71000496D01*
X210000000Y-71025000D01*
X210000000Y-71525000D01*
X209998796Y-71549504D01*
X209995196Y-71573773D01*
X209989235Y-71597571D01*
X209980970Y-71620671D01*
X209970480Y-71642849D01*
X209957867Y-71663893D01*
X209943253Y-71683598D01*
X209926777Y-71701777D01*
X209908598Y-71718253D01*
X209888893Y-71732867D01*
X209867849Y-71745480D01*
X209845671Y-71755970D01*
X209822571Y-71764235D01*
X209798773Y-71770196D01*
X209774504Y-71773796D01*
X209750000Y-71775000D01*
X207450000Y-71775000D01*
X207425496Y-71773796D01*
X207401227Y-71770196D01*
X207377429Y-71764235D01*
X207354329Y-71755970D01*
X207332151Y-71745480D01*
X207311107Y-71732867D01*
X207291402Y-71718253D01*
X207273223Y-71701777D01*
X207256747Y-71683598D01*
X207242133Y-71663893D01*
X207229520Y-71642849D01*
X207219030Y-71620671D01*
X207210765Y-71597571D01*
X207204804Y-71573773D01*
X207201204Y-71549504D01*
X207200000Y-71525000D01*
X207200000Y-71025000D01*
X207201204Y-71000496D01*
X207204804Y-70976227D01*
X207210765Y-70952429D01*
X207219030Y-70929329D01*
X207229520Y-70907151D01*
X207242133Y-70886107D01*
X207256747Y-70866402D01*
X207273223Y-70848223D01*
X207291402Y-70831747D01*
X207311107Y-70817133D01*
X207332151Y-70804520D01*
X207354329Y-70794030D01*
X207377429Y-70785765D01*
X207401227Y-70779804D01*
X207425496Y-70776204D01*
X207450000Y-70775000D01*
X209750000Y-70775000D01*
X209774504Y-70776204D01*
G37*
G36*
X209774504Y-78226204D02*
G01*
X209798773Y-78229804D01*
X209822571Y-78235765D01*
X209845671Y-78244030D01*
X209867849Y-78254520D01*
X209888893Y-78267133D01*
X209908598Y-78281747D01*
X209926777Y-78298223D01*
X209943253Y-78316402D01*
X209957867Y-78336107D01*
X209970480Y-78357151D01*
X209980970Y-78379329D01*
X209989235Y-78402429D01*
X209995196Y-78426227D01*
X209998796Y-78450496D01*
X210000000Y-78475000D01*
X210000000Y-78975000D01*
X209998796Y-78999504D01*
X209995196Y-79023773D01*
X209989235Y-79047571D01*
X209980970Y-79070671D01*
X209970480Y-79092849D01*
X209957867Y-79113893D01*
X209943253Y-79133598D01*
X209926777Y-79151777D01*
X209908598Y-79168253D01*
X209888893Y-79182867D01*
X209867849Y-79195480D01*
X209845671Y-79205970D01*
X209822571Y-79214235D01*
X209798773Y-79220196D01*
X209774504Y-79223796D01*
X209750000Y-79225000D01*
X207450000Y-79225000D01*
X207425496Y-79223796D01*
X207401227Y-79220196D01*
X207377429Y-79214235D01*
X207354329Y-79205970D01*
X207332151Y-79195480D01*
X207311107Y-79182867D01*
X207291402Y-79168253D01*
X207273223Y-79151777D01*
X207256747Y-79133598D01*
X207242133Y-79113893D01*
X207229520Y-79092849D01*
X207219030Y-79070671D01*
X207210765Y-79047571D01*
X207204804Y-79023773D01*
X207201204Y-78999504D01*
X207200000Y-78975000D01*
X207200000Y-78475000D01*
X207201204Y-78450496D01*
X207204804Y-78426227D01*
X207210765Y-78402429D01*
X207219030Y-78379329D01*
X207229520Y-78357151D01*
X207242133Y-78336107D01*
X207256747Y-78316402D01*
X207273223Y-78298223D01*
X207291402Y-78281747D01*
X207311107Y-78267133D01*
X207332151Y-78254520D01*
X207354329Y-78244030D01*
X207377429Y-78235765D01*
X207401227Y-78229804D01*
X207425496Y-78226204D01*
X207450000Y-78225000D01*
X209750000Y-78225000D01*
X209774504Y-78226204D01*
G37*
G36*
X212664703Y-72825722D02*
G01*
X212679264Y-72827882D01*
X212693543Y-72831459D01*
X212707403Y-72836418D01*
X212720710Y-72842712D01*
X212733336Y-72850280D01*
X212745159Y-72859048D01*
X212756066Y-72868934D01*
X212765952Y-72879841D01*
X212774720Y-72891664D01*
X212782288Y-72904290D01*
X212788582Y-72917597D01*
X212793541Y-72931457D01*
X212797118Y-72945736D01*
X212799278Y-72960297D01*
X212800000Y-72975000D01*
X212800000Y-73275000D01*
X212799278Y-73289703D01*
X212797118Y-73304264D01*
X212793541Y-73318543D01*
X212788582Y-73332403D01*
X212782288Y-73345710D01*
X212774720Y-73358336D01*
X212765952Y-73370159D01*
X212756066Y-73381066D01*
X212745159Y-73390952D01*
X212733336Y-73399720D01*
X212720710Y-73407288D01*
X212707403Y-73413582D01*
X212693543Y-73418541D01*
X212679264Y-73422118D01*
X212664703Y-73424278D01*
X212650000Y-73425000D01*
X211250000Y-73425000D01*
X211235297Y-73424278D01*
X211220736Y-73422118D01*
X211206457Y-73418541D01*
X211192597Y-73413582D01*
X211179290Y-73407288D01*
X211166664Y-73399720D01*
X211154841Y-73390952D01*
X211143934Y-73381066D01*
X211134048Y-73370159D01*
X211125280Y-73358336D01*
X211117712Y-73345710D01*
X211111418Y-73332403D01*
X211106459Y-73318543D01*
X211102882Y-73304264D01*
X211100722Y-73289703D01*
X211100000Y-73275000D01*
X211100000Y-72975000D01*
X211100722Y-72960297D01*
X211102882Y-72945736D01*
X211106459Y-72931457D01*
X211111418Y-72917597D01*
X211117712Y-72904290D01*
X211125280Y-72891664D01*
X211134048Y-72879841D01*
X211143934Y-72868934D01*
X211154841Y-72859048D01*
X211166664Y-72850280D01*
X211179290Y-72842712D01*
X211192597Y-72836418D01*
X211206457Y-72831459D01*
X211220736Y-72827882D01*
X211235297Y-72825722D01*
X211250000Y-72825000D01*
X212650000Y-72825000D01*
X212664703Y-72825722D01*
G37*
G36*
X212664703Y-74075722D02*
G01*
X212679264Y-74077882D01*
X212693543Y-74081459D01*
X212707403Y-74086418D01*
X212720710Y-74092712D01*
X212733336Y-74100280D01*
X212745159Y-74109048D01*
X212756066Y-74118934D01*
X212765952Y-74129841D01*
X212774720Y-74141664D01*
X212782288Y-74154290D01*
X212788582Y-74167597D01*
X212793541Y-74181457D01*
X212797118Y-74195736D01*
X212799278Y-74210297D01*
X212800000Y-74225000D01*
X212800000Y-74525000D01*
X212799278Y-74539703D01*
X212797118Y-74554264D01*
X212793541Y-74568543D01*
X212788582Y-74582403D01*
X212782288Y-74595710D01*
X212774720Y-74608336D01*
X212765952Y-74620159D01*
X212756066Y-74631066D01*
X212745159Y-74640952D01*
X212733336Y-74649720D01*
X212720710Y-74657288D01*
X212707403Y-74663582D01*
X212693543Y-74668541D01*
X212679264Y-74672118D01*
X212664703Y-74674278D01*
X212650000Y-74675000D01*
X211250000Y-74675000D01*
X211235297Y-74674278D01*
X211220736Y-74672118D01*
X211206457Y-74668541D01*
X211192597Y-74663582D01*
X211179290Y-74657288D01*
X211166664Y-74649720D01*
X211154841Y-74640952D01*
X211143934Y-74631066D01*
X211134048Y-74620159D01*
X211125280Y-74608336D01*
X211117712Y-74595710D01*
X211111418Y-74582403D01*
X211106459Y-74568543D01*
X211102882Y-74554264D01*
X211100722Y-74539703D01*
X211100000Y-74525000D01*
X211100000Y-74225000D01*
X211100722Y-74210297D01*
X211102882Y-74195736D01*
X211106459Y-74181457D01*
X211111418Y-74167597D01*
X211117712Y-74154290D01*
X211125280Y-74141664D01*
X211134048Y-74129841D01*
X211143934Y-74118934D01*
X211154841Y-74109048D01*
X211166664Y-74100280D01*
X211179290Y-74092712D01*
X211192597Y-74086418D01*
X211206457Y-74081459D01*
X211220736Y-74077882D01*
X211235297Y-74075722D01*
X211250000Y-74075000D01*
X212650000Y-74075000D01*
X212664703Y-74075722D01*
G37*
G36*
X212664703Y-75325722D02*
G01*
X212679264Y-75327882D01*
X212693543Y-75331459D01*
X212707403Y-75336418D01*
X212720710Y-75342712D01*
X212733336Y-75350280D01*
X212745159Y-75359048D01*
X212756066Y-75368934D01*
X212765952Y-75379841D01*
X212774720Y-75391664D01*
X212782288Y-75404290D01*
X212788582Y-75417597D01*
X212793541Y-75431457D01*
X212797118Y-75445736D01*
X212799278Y-75460297D01*
X212800000Y-75475000D01*
X212800000Y-75775000D01*
X212799278Y-75789703D01*
X212797118Y-75804264D01*
X212793541Y-75818543D01*
X212788582Y-75832403D01*
X212782288Y-75845710D01*
X212774720Y-75858336D01*
X212765952Y-75870159D01*
X212756066Y-75881066D01*
X212745159Y-75890952D01*
X212733336Y-75899720D01*
X212720710Y-75907288D01*
X212707403Y-75913582D01*
X212693543Y-75918541D01*
X212679264Y-75922118D01*
X212664703Y-75924278D01*
X212650000Y-75925000D01*
X211250000Y-75925000D01*
X211235297Y-75924278D01*
X211220736Y-75922118D01*
X211206457Y-75918541D01*
X211192597Y-75913582D01*
X211179290Y-75907288D01*
X211166664Y-75899720D01*
X211154841Y-75890952D01*
X211143934Y-75881066D01*
X211134048Y-75870159D01*
X211125280Y-75858336D01*
X211117712Y-75845710D01*
X211111418Y-75832403D01*
X211106459Y-75818543D01*
X211102882Y-75804264D01*
X211100722Y-75789703D01*
X211100000Y-75775000D01*
X211100000Y-75475000D01*
X211100722Y-75460297D01*
X211102882Y-75445736D01*
X211106459Y-75431457D01*
X211111418Y-75417597D01*
X211117712Y-75404290D01*
X211125280Y-75391664D01*
X211134048Y-75379841D01*
X211143934Y-75368934D01*
X211154841Y-75359048D01*
X211166664Y-75350280D01*
X211179290Y-75342712D01*
X211192597Y-75336418D01*
X211206457Y-75331459D01*
X211220736Y-75327882D01*
X211235297Y-75325722D01*
X211250000Y-75325000D01*
X212650000Y-75325000D01*
X212664703Y-75325722D01*
G37*
G36*
X212664703Y-76575722D02*
G01*
X212679264Y-76577882D01*
X212693543Y-76581459D01*
X212707403Y-76586418D01*
X212720710Y-76592712D01*
X212733336Y-76600280D01*
X212745159Y-76609048D01*
X212756066Y-76618934D01*
X212765952Y-76629841D01*
X212774720Y-76641664D01*
X212782288Y-76654290D01*
X212788582Y-76667597D01*
X212793541Y-76681457D01*
X212797118Y-76695736D01*
X212799278Y-76710297D01*
X212800000Y-76725000D01*
X212800000Y-77025000D01*
X212799278Y-77039703D01*
X212797118Y-77054264D01*
X212793541Y-77068543D01*
X212788582Y-77082403D01*
X212782288Y-77095710D01*
X212774720Y-77108336D01*
X212765952Y-77120159D01*
X212756066Y-77131066D01*
X212745159Y-77140952D01*
X212733336Y-77149720D01*
X212720710Y-77157288D01*
X212707403Y-77163582D01*
X212693543Y-77168541D01*
X212679264Y-77172118D01*
X212664703Y-77174278D01*
X212650000Y-77175000D01*
X211250000Y-77175000D01*
X211235297Y-77174278D01*
X211220736Y-77172118D01*
X211206457Y-77168541D01*
X211192597Y-77163582D01*
X211179290Y-77157288D01*
X211166664Y-77149720D01*
X211154841Y-77140952D01*
X211143934Y-77131066D01*
X211134048Y-77120159D01*
X211125280Y-77108336D01*
X211117712Y-77095710D01*
X211111418Y-77082403D01*
X211106459Y-77068543D01*
X211102882Y-77054264D01*
X211100722Y-77039703D01*
X211100000Y-77025000D01*
X211100000Y-76725000D01*
X211100722Y-76710297D01*
X211102882Y-76695736D01*
X211106459Y-76681457D01*
X211111418Y-76667597D01*
X211117712Y-76654290D01*
X211125280Y-76641664D01*
X211134048Y-76629841D01*
X211143934Y-76618934D01*
X211154841Y-76609048D01*
X211166664Y-76600280D01*
X211179290Y-76592712D01*
X211192597Y-76586418D01*
X211206457Y-76581459D01*
X211220736Y-76577882D01*
X211235297Y-76575722D01*
X211250000Y-76575000D01*
X212650000Y-76575000D01*
X212664703Y-76575722D01*
G37*
G36*
X179774504Y-70776204D02*
G01*
X179798773Y-70779804D01*
X179822571Y-70785765D01*
X179845671Y-70794030D01*
X179867849Y-70804520D01*
X179888893Y-70817133D01*
X179908598Y-70831747D01*
X179926777Y-70848223D01*
X179943253Y-70866402D01*
X179957867Y-70886107D01*
X179970480Y-70907151D01*
X179980970Y-70929329D01*
X179989235Y-70952429D01*
X179995196Y-70976227D01*
X179998796Y-71000496D01*
X180000000Y-71025000D01*
X180000000Y-71525000D01*
X179998796Y-71549504D01*
X179995196Y-71573773D01*
X179989235Y-71597571D01*
X179980970Y-71620671D01*
X179970480Y-71642849D01*
X179957867Y-71663893D01*
X179943253Y-71683598D01*
X179926777Y-71701777D01*
X179908598Y-71718253D01*
X179888893Y-71732867D01*
X179867849Y-71745480D01*
X179845671Y-71755970D01*
X179822571Y-71764235D01*
X179798773Y-71770196D01*
X179774504Y-71773796D01*
X179750000Y-71775000D01*
X177450000Y-71775000D01*
X177425496Y-71773796D01*
X177401227Y-71770196D01*
X177377429Y-71764235D01*
X177354329Y-71755970D01*
X177332151Y-71745480D01*
X177311107Y-71732867D01*
X177291402Y-71718253D01*
X177273223Y-71701777D01*
X177256747Y-71683598D01*
X177242133Y-71663893D01*
X177229520Y-71642849D01*
X177219030Y-71620671D01*
X177210765Y-71597571D01*
X177204804Y-71573773D01*
X177201204Y-71549504D01*
X177200000Y-71525000D01*
X177200000Y-71025000D01*
X177201204Y-71000496D01*
X177204804Y-70976227D01*
X177210765Y-70952429D01*
X177219030Y-70929329D01*
X177229520Y-70907151D01*
X177242133Y-70886107D01*
X177256747Y-70866402D01*
X177273223Y-70848223D01*
X177291402Y-70831747D01*
X177311107Y-70817133D01*
X177332151Y-70804520D01*
X177354329Y-70794030D01*
X177377429Y-70785765D01*
X177401227Y-70779804D01*
X177425496Y-70776204D01*
X177450000Y-70775000D01*
X179750000Y-70775000D01*
X179774504Y-70776204D01*
G37*
G36*
X179774504Y-78226204D02*
G01*
X179798773Y-78229804D01*
X179822571Y-78235765D01*
X179845671Y-78244030D01*
X179867849Y-78254520D01*
X179888893Y-78267133D01*
X179908598Y-78281747D01*
X179926777Y-78298223D01*
X179943253Y-78316402D01*
X179957867Y-78336107D01*
X179970480Y-78357151D01*
X179980970Y-78379329D01*
X179989235Y-78402429D01*
X179995196Y-78426227D01*
X179998796Y-78450496D01*
X180000000Y-78475000D01*
X180000000Y-78975000D01*
X179998796Y-78999504D01*
X179995196Y-79023773D01*
X179989235Y-79047571D01*
X179980970Y-79070671D01*
X179970480Y-79092849D01*
X179957867Y-79113893D01*
X179943253Y-79133598D01*
X179926777Y-79151777D01*
X179908598Y-79168253D01*
X179888893Y-79182867D01*
X179867849Y-79195480D01*
X179845671Y-79205970D01*
X179822571Y-79214235D01*
X179798773Y-79220196D01*
X179774504Y-79223796D01*
X179750000Y-79225000D01*
X177450000Y-79225000D01*
X177425496Y-79223796D01*
X177401227Y-79220196D01*
X177377429Y-79214235D01*
X177354329Y-79205970D01*
X177332151Y-79195480D01*
X177311107Y-79182867D01*
X177291402Y-79168253D01*
X177273223Y-79151777D01*
X177256747Y-79133598D01*
X177242133Y-79113893D01*
X177229520Y-79092849D01*
X177219030Y-79070671D01*
X177210765Y-79047571D01*
X177204804Y-79023773D01*
X177201204Y-78999504D01*
X177200000Y-78975000D01*
X177200000Y-78475000D01*
X177201204Y-78450496D01*
X177204804Y-78426227D01*
X177210765Y-78402429D01*
X177219030Y-78379329D01*
X177229520Y-78357151D01*
X177242133Y-78336107D01*
X177256747Y-78316402D01*
X177273223Y-78298223D01*
X177291402Y-78281747D01*
X177311107Y-78267133D01*
X177332151Y-78254520D01*
X177354329Y-78244030D01*
X177377429Y-78235765D01*
X177401227Y-78229804D01*
X177425496Y-78226204D01*
X177450000Y-78225000D01*
X179750000Y-78225000D01*
X179774504Y-78226204D01*
G37*
G36*
X182664703Y-72825722D02*
G01*
X182679264Y-72827882D01*
X182693543Y-72831459D01*
X182707403Y-72836418D01*
X182720710Y-72842712D01*
X182733336Y-72850280D01*
X182745159Y-72859048D01*
X182756066Y-72868934D01*
X182765952Y-72879841D01*
X182774720Y-72891664D01*
X182782288Y-72904290D01*
X182788582Y-72917597D01*
X182793541Y-72931457D01*
X182797118Y-72945736D01*
X182799278Y-72960297D01*
X182800000Y-72975000D01*
X182800000Y-73275000D01*
X182799278Y-73289703D01*
X182797118Y-73304264D01*
X182793541Y-73318543D01*
X182788582Y-73332403D01*
X182782288Y-73345710D01*
X182774720Y-73358336D01*
X182765952Y-73370159D01*
X182756066Y-73381066D01*
X182745159Y-73390952D01*
X182733336Y-73399720D01*
X182720710Y-73407288D01*
X182707403Y-73413582D01*
X182693543Y-73418541D01*
X182679264Y-73422118D01*
X182664703Y-73424278D01*
X182650000Y-73425000D01*
X181250000Y-73425000D01*
X181235297Y-73424278D01*
X181220736Y-73422118D01*
X181206457Y-73418541D01*
X181192597Y-73413582D01*
X181179290Y-73407288D01*
X181166664Y-73399720D01*
X181154841Y-73390952D01*
X181143934Y-73381066D01*
X181134048Y-73370159D01*
X181125280Y-73358336D01*
X181117712Y-73345710D01*
X181111418Y-73332403D01*
X181106459Y-73318543D01*
X181102882Y-73304264D01*
X181100722Y-73289703D01*
X181100000Y-73275000D01*
X181100000Y-72975000D01*
X181100722Y-72960297D01*
X181102882Y-72945736D01*
X181106459Y-72931457D01*
X181111418Y-72917597D01*
X181117712Y-72904290D01*
X181125280Y-72891664D01*
X181134048Y-72879841D01*
X181143934Y-72868934D01*
X181154841Y-72859048D01*
X181166664Y-72850280D01*
X181179290Y-72842712D01*
X181192597Y-72836418D01*
X181206457Y-72831459D01*
X181220736Y-72827882D01*
X181235297Y-72825722D01*
X181250000Y-72825000D01*
X182650000Y-72825000D01*
X182664703Y-72825722D01*
G37*
G36*
X182664703Y-74075722D02*
G01*
X182679264Y-74077882D01*
X182693543Y-74081459D01*
X182707403Y-74086418D01*
X182720710Y-74092712D01*
X182733336Y-74100280D01*
X182745159Y-74109048D01*
X182756066Y-74118934D01*
X182765952Y-74129841D01*
X182774720Y-74141664D01*
X182782288Y-74154290D01*
X182788582Y-74167597D01*
X182793541Y-74181457D01*
X182797118Y-74195736D01*
X182799278Y-74210297D01*
X182800000Y-74225000D01*
X182800000Y-74525000D01*
X182799278Y-74539703D01*
X182797118Y-74554264D01*
X182793541Y-74568543D01*
X182788582Y-74582403D01*
X182782288Y-74595710D01*
X182774720Y-74608336D01*
X182765952Y-74620159D01*
X182756066Y-74631066D01*
X182745159Y-74640952D01*
X182733336Y-74649720D01*
X182720710Y-74657288D01*
X182707403Y-74663582D01*
X182693543Y-74668541D01*
X182679264Y-74672118D01*
X182664703Y-74674278D01*
X182650000Y-74675000D01*
X181250000Y-74675000D01*
X181235297Y-74674278D01*
X181220736Y-74672118D01*
X181206457Y-74668541D01*
X181192597Y-74663582D01*
X181179290Y-74657288D01*
X181166664Y-74649720D01*
X181154841Y-74640952D01*
X181143934Y-74631066D01*
X181134048Y-74620159D01*
X181125280Y-74608336D01*
X181117712Y-74595710D01*
X181111418Y-74582403D01*
X181106459Y-74568543D01*
X181102882Y-74554264D01*
X181100722Y-74539703D01*
X181100000Y-74525000D01*
X181100000Y-74225000D01*
X181100722Y-74210297D01*
X181102882Y-74195736D01*
X181106459Y-74181457D01*
X181111418Y-74167597D01*
X181117712Y-74154290D01*
X181125280Y-74141664D01*
X181134048Y-74129841D01*
X181143934Y-74118934D01*
X181154841Y-74109048D01*
X181166664Y-74100280D01*
X181179290Y-74092712D01*
X181192597Y-74086418D01*
X181206457Y-74081459D01*
X181220736Y-74077882D01*
X181235297Y-74075722D01*
X181250000Y-74075000D01*
X182650000Y-74075000D01*
X182664703Y-74075722D01*
G37*
G36*
X182664703Y-75325722D02*
G01*
X182679264Y-75327882D01*
X182693543Y-75331459D01*
X182707403Y-75336418D01*
X182720710Y-75342712D01*
X182733336Y-75350280D01*
X182745159Y-75359048D01*
X182756066Y-75368934D01*
X182765952Y-75379841D01*
X182774720Y-75391664D01*
X182782288Y-75404290D01*
X182788582Y-75417597D01*
X182793541Y-75431457D01*
X182797118Y-75445736D01*
X182799278Y-75460297D01*
X182800000Y-75475000D01*
X182800000Y-75775000D01*
X182799278Y-75789703D01*
X182797118Y-75804264D01*
X182793541Y-75818543D01*
X182788582Y-75832403D01*
X182782288Y-75845710D01*
X182774720Y-75858336D01*
X182765952Y-75870159D01*
X182756066Y-75881066D01*
X182745159Y-75890952D01*
X182733336Y-75899720D01*
X182720710Y-75907288D01*
X182707403Y-75913582D01*
X182693543Y-75918541D01*
X182679264Y-75922118D01*
X182664703Y-75924278D01*
X182650000Y-75925000D01*
X181250000Y-75925000D01*
X181235297Y-75924278D01*
X181220736Y-75922118D01*
X181206457Y-75918541D01*
X181192597Y-75913582D01*
X181179290Y-75907288D01*
X181166664Y-75899720D01*
X181154841Y-75890952D01*
X181143934Y-75881066D01*
X181134048Y-75870159D01*
X181125280Y-75858336D01*
X181117712Y-75845710D01*
X181111418Y-75832403D01*
X181106459Y-75818543D01*
X181102882Y-75804264D01*
X181100722Y-75789703D01*
X181100000Y-75775000D01*
X181100000Y-75475000D01*
X181100722Y-75460297D01*
X181102882Y-75445736D01*
X181106459Y-75431457D01*
X181111418Y-75417597D01*
X181117712Y-75404290D01*
X181125280Y-75391664D01*
X181134048Y-75379841D01*
X181143934Y-75368934D01*
X181154841Y-75359048D01*
X181166664Y-75350280D01*
X181179290Y-75342712D01*
X181192597Y-75336418D01*
X181206457Y-75331459D01*
X181220736Y-75327882D01*
X181235297Y-75325722D01*
X181250000Y-75325000D01*
X182650000Y-75325000D01*
X182664703Y-75325722D01*
G37*
G36*
X182664703Y-76575722D02*
G01*
X182679264Y-76577882D01*
X182693543Y-76581459D01*
X182707403Y-76586418D01*
X182720710Y-76592712D01*
X182733336Y-76600280D01*
X182745159Y-76609048D01*
X182756066Y-76618934D01*
X182765952Y-76629841D01*
X182774720Y-76641664D01*
X182782288Y-76654290D01*
X182788582Y-76667597D01*
X182793541Y-76681457D01*
X182797118Y-76695736D01*
X182799278Y-76710297D01*
X182800000Y-76725000D01*
X182800000Y-77025000D01*
X182799278Y-77039703D01*
X182797118Y-77054264D01*
X182793541Y-77068543D01*
X182788582Y-77082403D01*
X182782288Y-77095710D01*
X182774720Y-77108336D01*
X182765952Y-77120159D01*
X182756066Y-77131066D01*
X182745159Y-77140952D01*
X182733336Y-77149720D01*
X182720710Y-77157288D01*
X182707403Y-77163582D01*
X182693543Y-77168541D01*
X182679264Y-77172118D01*
X182664703Y-77174278D01*
X182650000Y-77175000D01*
X181250000Y-77175000D01*
X181235297Y-77174278D01*
X181220736Y-77172118D01*
X181206457Y-77168541D01*
X181192597Y-77163582D01*
X181179290Y-77157288D01*
X181166664Y-77149720D01*
X181154841Y-77140952D01*
X181143934Y-77131066D01*
X181134048Y-77120159D01*
X181125280Y-77108336D01*
X181117712Y-77095710D01*
X181111418Y-77082403D01*
X181106459Y-77068543D01*
X181102882Y-77054264D01*
X181100722Y-77039703D01*
X181100000Y-77025000D01*
X181100000Y-76725000D01*
X181100722Y-76710297D01*
X181102882Y-76695736D01*
X181106459Y-76681457D01*
X181111418Y-76667597D01*
X181117712Y-76654290D01*
X181125280Y-76641664D01*
X181134048Y-76629841D01*
X181143934Y-76618934D01*
X181154841Y-76609048D01*
X181166664Y-76600280D01*
X181179290Y-76592712D01*
X181192597Y-76586418D01*
X181206457Y-76581459D01*
X181220736Y-76577882D01*
X181235297Y-76575722D01*
X181250000Y-76575000D01*
X182650000Y-76575000D01*
X182664703Y-76575722D01*
G37*
G36*
X194774504Y-70776204D02*
G01*
X194798773Y-70779804D01*
X194822571Y-70785765D01*
X194845671Y-70794030D01*
X194867849Y-70804520D01*
X194888893Y-70817133D01*
X194908598Y-70831747D01*
X194926777Y-70848223D01*
X194943253Y-70866402D01*
X194957867Y-70886107D01*
X194970480Y-70907151D01*
X194980970Y-70929329D01*
X194989235Y-70952429D01*
X194995196Y-70976227D01*
X194998796Y-71000496D01*
X195000000Y-71025000D01*
X195000000Y-71525000D01*
X194998796Y-71549504D01*
X194995196Y-71573773D01*
X194989235Y-71597571D01*
X194980970Y-71620671D01*
X194970480Y-71642849D01*
X194957867Y-71663893D01*
X194943253Y-71683598D01*
X194926777Y-71701777D01*
X194908598Y-71718253D01*
X194888893Y-71732867D01*
X194867849Y-71745480D01*
X194845671Y-71755970D01*
X194822571Y-71764235D01*
X194798773Y-71770196D01*
X194774504Y-71773796D01*
X194750000Y-71775000D01*
X192450000Y-71775000D01*
X192425496Y-71773796D01*
X192401227Y-71770196D01*
X192377429Y-71764235D01*
X192354329Y-71755970D01*
X192332151Y-71745480D01*
X192311107Y-71732867D01*
X192291402Y-71718253D01*
X192273223Y-71701777D01*
X192256747Y-71683598D01*
X192242133Y-71663893D01*
X192229520Y-71642849D01*
X192219030Y-71620671D01*
X192210765Y-71597571D01*
X192204804Y-71573773D01*
X192201204Y-71549504D01*
X192200000Y-71525000D01*
X192200000Y-71025000D01*
X192201204Y-71000496D01*
X192204804Y-70976227D01*
X192210765Y-70952429D01*
X192219030Y-70929329D01*
X192229520Y-70907151D01*
X192242133Y-70886107D01*
X192256747Y-70866402D01*
X192273223Y-70848223D01*
X192291402Y-70831747D01*
X192311107Y-70817133D01*
X192332151Y-70804520D01*
X192354329Y-70794030D01*
X192377429Y-70785765D01*
X192401227Y-70779804D01*
X192425496Y-70776204D01*
X192450000Y-70775000D01*
X194750000Y-70775000D01*
X194774504Y-70776204D01*
G37*
G36*
X194774504Y-78226204D02*
G01*
X194798773Y-78229804D01*
X194822571Y-78235765D01*
X194845671Y-78244030D01*
X194867849Y-78254520D01*
X194888893Y-78267133D01*
X194908598Y-78281747D01*
X194926777Y-78298223D01*
X194943253Y-78316402D01*
X194957867Y-78336107D01*
X194970480Y-78357151D01*
X194980970Y-78379329D01*
X194989235Y-78402429D01*
X194995196Y-78426227D01*
X194998796Y-78450496D01*
X195000000Y-78475000D01*
X195000000Y-78975000D01*
X194998796Y-78999504D01*
X194995196Y-79023773D01*
X194989235Y-79047571D01*
X194980970Y-79070671D01*
X194970480Y-79092849D01*
X194957867Y-79113893D01*
X194943253Y-79133598D01*
X194926777Y-79151777D01*
X194908598Y-79168253D01*
X194888893Y-79182867D01*
X194867849Y-79195480D01*
X194845671Y-79205970D01*
X194822571Y-79214235D01*
X194798773Y-79220196D01*
X194774504Y-79223796D01*
X194750000Y-79225000D01*
X192450000Y-79225000D01*
X192425496Y-79223796D01*
X192401227Y-79220196D01*
X192377429Y-79214235D01*
X192354329Y-79205970D01*
X192332151Y-79195480D01*
X192311107Y-79182867D01*
X192291402Y-79168253D01*
X192273223Y-79151777D01*
X192256747Y-79133598D01*
X192242133Y-79113893D01*
X192229520Y-79092849D01*
X192219030Y-79070671D01*
X192210765Y-79047571D01*
X192204804Y-79023773D01*
X192201204Y-78999504D01*
X192200000Y-78975000D01*
X192200000Y-78475000D01*
X192201204Y-78450496D01*
X192204804Y-78426227D01*
X192210765Y-78402429D01*
X192219030Y-78379329D01*
X192229520Y-78357151D01*
X192242133Y-78336107D01*
X192256747Y-78316402D01*
X192273223Y-78298223D01*
X192291402Y-78281747D01*
X192311107Y-78267133D01*
X192332151Y-78254520D01*
X192354329Y-78244030D01*
X192377429Y-78235765D01*
X192401227Y-78229804D01*
X192425496Y-78226204D01*
X192450000Y-78225000D01*
X194750000Y-78225000D01*
X194774504Y-78226204D01*
G37*
G36*
X197664703Y-72825722D02*
G01*
X197679264Y-72827882D01*
X197693543Y-72831459D01*
X197707403Y-72836418D01*
X197720710Y-72842712D01*
X197733336Y-72850280D01*
X197745159Y-72859048D01*
X197756066Y-72868934D01*
X197765952Y-72879841D01*
X197774720Y-72891664D01*
X197782288Y-72904290D01*
X197788582Y-72917597D01*
X197793541Y-72931457D01*
X197797118Y-72945736D01*
X197799278Y-72960297D01*
X197800000Y-72975000D01*
X197800000Y-73275000D01*
X197799278Y-73289703D01*
X197797118Y-73304264D01*
X197793541Y-73318543D01*
X197788582Y-73332403D01*
X197782288Y-73345710D01*
X197774720Y-73358336D01*
X197765952Y-73370159D01*
X197756066Y-73381066D01*
X197745159Y-73390952D01*
X197733336Y-73399720D01*
X197720710Y-73407288D01*
X197707403Y-73413582D01*
X197693543Y-73418541D01*
X197679264Y-73422118D01*
X197664703Y-73424278D01*
X197650000Y-73425000D01*
X196250000Y-73425000D01*
X196235297Y-73424278D01*
X196220736Y-73422118D01*
X196206457Y-73418541D01*
X196192597Y-73413582D01*
X196179290Y-73407288D01*
X196166664Y-73399720D01*
X196154841Y-73390952D01*
X196143934Y-73381066D01*
X196134048Y-73370159D01*
X196125280Y-73358336D01*
X196117712Y-73345710D01*
X196111418Y-73332403D01*
X196106459Y-73318543D01*
X196102882Y-73304264D01*
X196100722Y-73289703D01*
X196100000Y-73275000D01*
X196100000Y-72975000D01*
X196100722Y-72960297D01*
X196102882Y-72945736D01*
X196106459Y-72931457D01*
X196111418Y-72917597D01*
X196117712Y-72904290D01*
X196125280Y-72891664D01*
X196134048Y-72879841D01*
X196143934Y-72868934D01*
X196154841Y-72859048D01*
X196166664Y-72850280D01*
X196179290Y-72842712D01*
X196192597Y-72836418D01*
X196206457Y-72831459D01*
X196220736Y-72827882D01*
X196235297Y-72825722D01*
X196250000Y-72825000D01*
X197650000Y-72825000D01*
X197664703Y-72825722D01*
G37*
G36*
X197664703Y-74075722D02*
G01*
X197679264Y-74077882D01*
X197693543Y-74081459D01*
X197707403Y-74086418D01*
X197720710Y-74092712D01*
X197733336Y-74100280D01*
X197745159Y-74109048D01*
X197756066Y-74118934D01*
X197765952Y-74129841D01*
X197774720Y-74141664D01*
X197782288Y-74154290D01*
X197788582Y-74167597D01*
X197793541Y-74181457D01*
X197797118Y-74195736D01*
X197799278Y-74210297D01*
X197800000Y-74225000D01*
X197800000Y-74525000D01*
X197799278Y-74539703D01*
X197797118Y-74554264D01*
X197793541Y-74568543D01*
X197788582Y-74582403D01*
X197782288Y-74595710D01*
X197774720Y-74608336D01*
X197765952Y-74620159D01*
X197756066Y-74631066D01*
X197745159Y-74640952D01*
X197733336Y-74649720D01*
X197720710Y-74657288D01*
X197707403Y-74663582D01*
X197693543Y-74668541D01*
X197679264Y-74672118D01*
X197664703Y-74674278D01*
X197650000Y-74675000D01*
X196250000Y-74675000D01*
X196235297Y-74674278D01*
X196220736Y-74672118D01*
X196206457Y-74668541D01*
X196192597Y-74663582D01*
X196179290Y-74657288D01*
X196166664Y-74649720D01*
X196154841Y-74640952D01*
X196143934Y-74631066D01*
X196134048Y-74620159D01*
X196125280Y-74608336D01*
X196117712Y-74595710D01*
X196111418Y-74582403D01*
X196106459Y-74568543D01*
X196102882Y-74554264D01*
X196100722Y-74539703D01*
X196100000Y-74525000D01*
X196100000Y-74225000D01*
X196100722Y-74210297D01*
X196102882Y-74195736D01*
X196106459Y-74181457D01*
X196111418Y-74167597D01*
X196117712Y-74154290D01*
X196125280Y-74141664D01*
X196134048Y-74129841D01*
X196143934Y-74118934D01*
X196154841Y-74109048D01*
X196166664Y-74100280D01*
X196179290Y-74092712D01*
X196192597Y-74086418D01*
X196206457Y-74081459D01*
X196220736Y-74077882D01*
X196235297Y-74075722D01*
X196250000Y-74075000D01*
X197650000Y-74075000D01*
X197664703Y-74075722D01*
G37*
G36*
X197664703Y-75325722D02*
G01*
X197679264Y-75327882D01*
X197693543Y-75331459D01*
X197707403Y-75336418D01*
X197720710Y-75342712D01*
X197733336Y-75350280D01*
X197745159Y-75359048D01*
X197756066Y-75368934D01*
X197765952Y-75379841D01*
X197774720Y-75391664D01*
X197782288Y-75404290D01*
X197788582Y-75417597D01*
X197793541Y-75431457D01*
X197797118Y-75445736D01*
X197799278Y-75460297D01*
X197800000Y-75475000D01*
X197800000Y-75775000D01*
X197799278Y-75789703D01*
X197797118Y-75804264D01*
X197793541Y-75818543D01*
X197788582Y-75832403D01*
X197782288Y-75845710D01*
X197774720Y-75858336D01*
X197765952Y-75870159D01*
X197756066Y-75881066D01*
X197745159Y-75890952D01*
X197733336Y-75899720D01*
X197720710Y-75907288D01*
X197707403Y-75913582D01*
X197693543Y-75918541D01*
X197679264Y-75922118D01*
X197664703Y-75924278D01*
X197650000Y-75925000D01*
X196250000Y-75925000D01*
X196235297Y-75924278D01*
X196220736Y-75922118D01*
X196206457Y-75918541D01*
X196192597Y-75913582D01*
X196179290Y-75907288D01*
X196166664Y-75899720D01*
X196154841Y-75890952D01*
X196143934Y-75881066D01*
X196134048Y-75870159D01*
X196125280Y-75858336D01*
X196117712Y-75845710D01*
X196111418Y-75832403D01*
X196106459Y-75818543D01*
X196102882Y-75804264D01*
X196100722Y-75789703D01*
X196100000Y-75775000D01*
X196100000Y-75475000D01*
X196100722Y-75460297D01*
X196102882Y-75445736D01*
X196106459Y-75431457D01*
X196111418Y-75417597D01*
X196117712Y-75404290D01*
X196125280Y-75391664D01*
X196134048Y-75379841D01*
X196143934Y-75368934D01*
X196154841Y-75359048D01*
X196166664Y-75350280D01*
X196179290Y-75342712D01*
X196192597Y-75336418D01*
X196206457Y-75331459D01*
X196220736Y-75327882D01*
X196235297Y-75325722D01*
X196250000Y-75325000D01*
X197650000Y-75325000D01*
X197664703Y-75325722D01*
G37*
G36*
X197664703Y-76575722D02*
G01*
X197679264Y-76577882D01*
X197693543Y-76581459D01*
X197707403Y-76586418D01*
X197720710Y-76592712D01*
X197733336Y-76600280D01*
X197745159Y-76609048D01*
X197756066Y-76618934D01*
X197765952Y-76629841D01*
X197774720Y-76641664D01*
X197782288Y-76654290D01*
X197788582Y-76667597D01*
X197793541Y-76681457D01*
X197797118Y-76695736D01*
X197799278Y-76710297D01*
X197800000Y-76725000D01*
X197800000Y-77025000D01*
X197799278Y-77039703D01*
X197797118Y-77054264D01*
X197793541Y-77068543D01*
X197788582Y-77082403D01*
X197782288Y-77095710D01*
X197774720Y-77108336D01*
X197765952Y-77120159D01*
X197756066Y-77131066D01*
X197745159Y-77140952D01*
X197733336Y-77149720D01*
X197720710Y-77157288D01*
X197707403Y-77163582D01*
X197693543Y-77168541D01*
X197679264Y-77172118D01*
X197664703Y-77174278D01*
X197650000Y-77175000D01*
X196250000Y-77175000D01*
X196235297Y-77174278D01*
X196220736Y-77172118D01*
X196206457Y-77168541D01*
X196192597Y-77163582D01*
X196179290Y-77157288D01*
X196166664Y-77149720D01*
X196154841Y-77140952D01*
X196143934Y-77131066D01*
X196134048Y-77120159D01*
X196125280Y-77108336D01*
X196117712Y-77095710D01*
X196111418Y-77082403D01*
X196106459Y-77068543D01*
X196102882Y-77054264D01*
X196100722Y-77039703D01*
X196100000Y-77025000D01*
X196100000Y-76725000D01*
X196100722Y-76710297D01*
X196102882Y-76695736D01*
X196106459Y-76681457D01*
X196111418Y-76667597D01*
X196117712Y-76654290D01*
X196125280Y-76641664D01*
X196134048Y-76629841D01*
X196143934Y-76618934D01*
X196154841Y-76609048D01*
X196166664Y-76600280D01*
X196179290Y-76592712D01*
X196192597Y-76586418D01*
X196206457Y-76581459D01*
X196220736Y-76577882D01*
X196235297Y-76575722D01*
X196250000Y-76575000D01*
X197650000Y-76575000D01*
X197664703Y-76575722D01*
G37*
G36*
X172274504Y-70776204D02*
G01*
X172298773Y-70779804D01*
X172322571Y-70785765D01*
X172345671Y-70794030D01*
X172367849Y-70804520D01*
X172388893Y-70817133D01*
X172408598Y-70831747D01*
X172426777Y-70848223D01*
X172443253Y-70866402D01*
X172457867Y-70886107D01*
X172470480Y-70907151D01*
X172480970Y-70929329D01*
X172489235Y-70952429D01*
X172495196Y-70976227D01*
X172498796Y-71000496D01*
X172500000Y-71025000D01*
X172500000Y-71525000D01*
X172498796Y-71549504D01*
X172495196Y-71573773D01*
X172489235Y-71597571D01*
X172480970Y-71620671D01*
X172470480Y-71642849D01*
X172457867Y-71663893D01*
X172443253Y-71683598D01*
X172426777Y-71701777D01*
X172408598Y-71718253D01*
X172388893Y-71732867D01*
X172367849Y-71745480D01*
X172345671Y-71755970D01*
X172322571Y-71764235D01*
X172298773Y-71770196D01*
X172274504Y-71773796D01*
X172250000Y-71775000D01*
X169950000Y-71775000D01*
X169925496Y-71773796D01*
X169901227Y-71770196D01*
X169877429Y-71764235D01*
X169854329Y-71755970D01*
X169832151Y-71745480D01*
X169811107Y-71732867D01*
X169791402Y-71718253D01*
X169773223Y-71701777D01*
X169756747Y-71683598D01*
X169742133Y-71663893D01*
X169729520Y-71642849D01*
X169719030Y-71620671D01*
X169710765Y-71597571D01*
X169704804Y-71573773D01*
X169701204Y-71549504D01*
X169700000Y-71525000D01*
X169700000Y-71025000D01*
X169701204Y-71000496D01*
X169704804Y-70976227D01*
X169710765Y-70952429D01*
X169719030Y-70929329D01*
X169729520Y-70907151D01*
X169742133Y-70886107D01*
X169756747Y-70866402D01*
X169773223Y-70848223D01*
X169791402Y-70831747D01*
X169811107Y-70817133D01*
X169832151Y-70804520D01*
X169854329Y-70794030D01*
X169877429Y-70785765D01*
X169901227Y-70779804D01*
X169925496Y-70776204D01*
X169950000Y-70775000D01*
X172250000Y-70775000D01*
X172274504Y-70776204D01*
G37*
G36*
X172274504Y-78226204D02*
G01*
X172298773Y-78229804D01*
X172322571Y-78235765D01*
X172345671Y-78244030D01*
X172367849Y-78254520D01*
X172388893Y-78267133D01*
X172408598Y-78281747D01*
X172426777Y-78298223D01*
X172443253Y-78316402D01*
X172457867Y-78336107D01*
X172470480Y-78357151D01*
X172480970Y-78379329D01*
X172489235Y-78402429D01*
X172495196Y-78426227D01*
X172498796Y-78450496D01*
X172500000Y-78475000D01*
X172500000Y-78975000D01*
X172498796Y-78999504D01*
X172495196Y-79023773D01*
X172489235Y-79047571D01*
X172480970Y-79070671D01*
X172470480Y-79092849D01*
X172457867Y-79113893D01*
X172443253Y-79133598D01*
X172426777Y-79151777D01*
X172408598Y-79168253D01*
X172388893Y-79182867D01*
X172367849Y-79195480D01*
X172345671Y-79205970D01*
X172322571Y-79214235D01*
X172298773Y-79220196D01*
X172274504Y-79223796D01*
X172250000Y-79225000D01*
X169950000Y-79225000D01*
X169925496Y-79223796D01*
X169901227Y-79220196D01*
X169877429Y-79214235D01*
X169854329Y-79205970D01*
X169832151Y-79195480D01*
X169811107Y-79182867D01*
X169791402Y-79168253D01*
X169773223Y-79151777D01*
X169756747Y-79133598D01*
X169742133Y-79113893D01*
X169729520Y-79092849D01*
X169719030Y-79070671D01*
X169710765Y-79047571D01*
X169704804Y-79023773D01*
X169701204Y-78999504D01*
X169700000Y-78975000D01*
X169700000Y-78475000D01*
X169701204Y-78450496D01*
X169704804Y-78426227D01*
X169710765Y-78402429D01*
X169719030Y-78379329D01*
X169729520Y-78357151D01*
X169742133Y-78336107D01*
X169756747Y-78316402D01*
X169773223Y-78298223D01*
X169791402Y-78281747D01*
X169811107Y-78267133D01*
X169832151Y-78254520D01*
X169854329Y-78244030D01*
X169877429Y-78235765D01*
X169901227Y-78229804D01*
X169925496Y-78226204D01*
X169950000Y-78225000D01*
X172250000Y-78225000D01*
X172274504Y-78226204D01*
G37*
G36*
X175164703Y-72825722D02*
G01*
X175179264Y-72827882D01*
X175193543Y-72831459D01*
X175207403Y-72836418D01*
X175220710Y-72842712D01*
X175233336Y-72850280D01*
X175245159Y-72859048D01*
X175256066Y-72868934D01*
X175265952Y-72879841D01*
X175274720Y-72891664D01*
X175282288Y-72904290D01*
X175288582Y-72917597D01*
X175293541Y-72931457D01*
X175297118Y-72945736D01*
X175299278Y-72960297D01*
X175300000Y-72975000D01*
X175300000Y-73275000D01*
X175299278Y-73289703D01*
X175297118Y-73304264D01*
X175293541Y-73318543D01*
X175288582Y-73332403D01*
X175282288Y-73345710D01*
X175274720Y-73358336D01*
X175265952Y-73370159D01*
X175256066Y-73381066D01*
X175245159Y-73390952D01*
X175233336Y-73399720D01*
X175220710Y-73407288D01*
X175207403Y-73413582D01*
X175193543Y-73418541D01*
X175179264Y-73422118D01*
X175164703Y-73424278D01*
X175150000Y-73425000D01*
X173750000Y-73425000D01*
X173735297Y-73424278D01*
X173720736Y-73422118D01*
X173706457Y-73418541D01*
X173692597Y-73413582D01*
X173679290Y-73407288D01*
X173666664Y-73399720D01*
X173654841Y-73390952D01*
X173643934Y-73381066D01*
X173634048Y-73370159D01*
X173625280Y-73358336D01*
X173617712Y-73345710D01*
X173611418Y-73332403D01*
X173606459Y-73318543D01*
X173602882Y-73304264D01*
X173600722Y-73289703D01*
X173600000Y-73275000D01*
X173600000Y-72975000D01*
X173600722Y-72960297D01*
X173602882Y-72945736D01*
X173606459Y-72931457D01*
X173611418Y-72917597D01*
X173617712Y-72904290D01*
X173625280Y-72891664D01*
X173634048Y-72879841D01*
X173643934Y-72868934D01*
X173654841Y-72859048D01*
X173666664Y-72850280D01*
X173679290Y-72842712D01*
X173692597Y-72836418D01*
X173706457Y-72831459D01*
X173720736Y-72827882D01*
X173735297Y-72825722D01*
X173750000Y-72825000D01*
X175150000Y-72825000D01*
X175164703Y-72825722D01*
G37*
G36*
X175164703Y-74075722D02*
G01*
X175179264Y-74077882D01*
X175193543Y-74081459D01*
X175207403Y-74086418D01*
X175220710Y-74092712D01*
X175233336Y-74100280D01*
X175245159Y-74109048D01*
X175256066Y-74118934D01*
X175265952Y-74129841D01*
X175274720Y-74141664D01*
X175282288Y-74154290D01*
X175288582Y-74167597D01*
X175293541Y-74181457D01*
X175297118Y-74195736D01*
X175299278Y-74210297D01*
X175300000Y-74225000D01*
X175300000Y-74525000D01*
X175299278Y-74539703D01*
X175297118Y-74554264D01*
X175293541Y-74568543D01*
X175288582Y-74582403D01*
X175282288Y-74595710D01*
X175274720Y-74608336D01*
X175265952Y-74620159D01*
X175256066Y-74631066D01*
X175245159Y-74640952D01*
X175233336Y-74649720D01*
X175220710Y-74657288D01*
X175207403Y-74663582D01*
X175193543Y-74668541D01*
X175179264Y-74672118D01*
X175164703Y-74674278D01*
X175150000Y-74675000D01*
X173750000Y-74675000D01*
X173735297Y-74674278D01*
X173720736Y-74672118D01*
X173706457Y-74668541D01*
X173692597Y-74663582D01*
X173679290Y-74657288D01*
X173666664Y-74649720D01*
X173654841Y-74640952D01*
X173643934Y-74631066D01*
X173634048Y-74620159D01*
X173625280Y-74608336D01*
X173617712Y-74595710D01*
X173611418Y-74582403D01*
X173606459Y-74568543D01*
X173602882Y-74554264D01*
X173600722Y-74539703D01*
X173600000Y-74525000D01*
X173600000Y-74225000D01*
X173600722Y-74210297D01*
X173602882Y-74195736D01*
X173606459Y-74181457D01*
X173611418Y-74167597D01*
X173617712Y-74154290D01*
X173625280Y-74141664D01*
X173634048Y-74129841D01*
X173643934Y-74118934D01*
X173654841Y-74109048D01*
X173666664Y-74100280D01*
X173679290Y-74092712D01*
X173692597Y-74086418D01*
X173706457Y-74081459D01*
X173720736Y-74077882D01*
X173735297Y-74075722D01*
X173750000Y-74075000D01*
X175150000Y-74075000D01*
X175164703Y-74075722D01*
G37*
G36*
X175164703Y-75325722D02*
G01*
X175179264Y-75327882D01*
X175193543Y-75331459D01*
X175207403Y-75336418D01*
X175220710Y-75342712D01*
X175233336Y-75350280D01*
X175245159Y-75359048D01*
X175256066Y-75368934D01*
X175265952Y-75379841D01*
X175274720Y-75391664D01*
X175282288Y-75404290D01*
X175288582Y-75417597D01*
X175293541Y-75431457D01*
X175297118Y-75445736D01*
X175299278Y-75460297D01*
X175300000Y-75475000D01*
X175300000Y-75775000D01*
X175299278Y-75789703D01*
X175297118Y-75804264D01*
X175293541Y-75818543D01*
X175288582Y-75832403D01*
X175282288Y-75845710D01*
X175274720Y-75858336D01*
X175265952Y-75870159D01*
X175256066Y-75881066D01*
X175245159Y-75890952D01*
X175233336Y-75899720D01*
X175220710Y-75907288D01*
X175207403Y-75913582D01*
X175193543Y-75918541D01*
X175179264Y-75922118D01*
X175164703Y-75924278D01*
X175150000Y-75925000D01*
X173750000Y-75925000D01*
X173735297Y-75924278D01*
X173720736Y-75922118D01*
X173706457Y-75918541D01*
X173692597Y-75913582D01*
X173679290Y-75907288D01*
X173666664Y-75899720D01*
X173654841Y-75890952D01*
X173643934Y-75881066D01*
X173634048Y-75870159D01*
X173625280Y-75858336D01*
X173617712Y-75845710D01*
X173611418Y-75832403D01*
X173606459Y-75818543D01*
X173602882Y-75804264D01*
X173600722Y-75789703D01*
X173600000Y-75775000D01*
X173600000Y-75475000D01*
X173600722Y-75460297D01*
X173602882Y-75445736D01*
X173606459Y-75431457D01*
X173611418Y-75417597D01*
X173617712Y-75404290D01*
X173625280Y-75391664D01*
X173634048Y-75379841D01*
X173643934Y-75368934D01*
X173654841Y-75359048D01*
X173666664Y-75350280D01*
X173679290Y-75342712D01*
X173692597Y-75336418D01*
X173706457Y-75331459D01*
X173720736Y-75327882D01*
X173735297Y-75325722D01*
X173750000Y-75325000D01*
X175150000Y-75325000D01*
X175164703Y-75325722D01*
G37*
G36*
X175164703Y-76575722D02*
G01*
X175179264Y-76577882D01*
X175193543Y-76581459D01*
X175207403Y-76586418D01*
X175220710Y-76592712D01*
X175233336Y-76600280D01*
X175245159Y-76609048D01*
X175256066Y-76618934D01*
X175265952Y-76629841D01*
X175274720Y-76641664D01*
X175282288Y-76654290D01*
X175288582Y-76667597D01*
X175293541Y-76681457D01*
X175297118Y-76695736D01*
X175299278Y-76710297D01*
X175300000Y-76725000D01*
X175300000Y-77025000D01*
X175299278Y-77039703D01*
X175297118Y-77054264D01*
X175293541Y-77068543D01*
X175288582Y-77082403D01*
X175282288Y-77095710D01*
X175274720Y-77108336D01*
X175265952Y-77120159D01*
X175256066Y-77131066D01*
X175245159Y-77140952D01*
X175233336Y-77149720D01*
X175220710Y-77157288D01*
X175207403Y-77163582D01*
X175193543Y-77168541D01*
X175179264Y-77172118D01*
X175164703Y-77174278D01*
X175150000Y-77175000D01*
X173750000Y-77175000D01*
X173735297Y-77174278D01*
X173720736Y-77172118D01*
X173706457Y-77168541D01*
X173692597Y-77163582D01*
X173679290Y-77157288D01*
X173666664Y-77149720D01*
X173654841Y-77140952D01*
X173643934Y-77131066D01*
X173634048Y-77120159D01*
X173625280Y-77108336D01*
X173617712Y-77095710D01*
X173611418Y-77082403D01*
X173606459Y-77068543D01*
X173602882Y-77054264D01*
X173600722Y-77039703D01*
X173600000Y-77025000D01*
X173600000Y-76725000D01*
X173600722Y-76710297D01*
X173602882Y-76695736D01*
X173606459Y-76681457D01*
X173611418Y-76667597D01*
X173617712Y-76654290D01*
X173625280Y-76641664D01*
X173634048Y-76629841D01*
X173643934Y-76618934D01*
X173654841Y-76609048D01*
X173666664Y-76600280D01*
X173679290Y-76592712D01*
X173692597Y-76586418D01*
X173706457Y-76581459D01*
X173720736Y-76577882D01*
X173735297Y-76575722D01*
X173750000Y-76575000D01*
X175150000Y-76575000D01*
X175164703Y-76575722D01*
G37*
G36*
X202274504Y-70776204D02*
G01*
X202298773Y-70779804D01*
X202322571Y-70785765D01*
X202345671Y-70794030D01*
X202367849Y-70804520D01*
X202388893Y-70817133D01*
X202408598Y-70831747D01*
X202426777Y-70848223D01*
X202443253Y-70866402D01*
X202457867Y-70886107D01*
X202470480Y-70907151D01*
X202480970Y-70929329D01*
X202489235Y-70952429D01*
X202495196Y-70976227D01*
X202498796Y-71000496D01*
X202500000Y-71025000D01*
X202500000Y-71525000D01*
X202498796Y-71549504D01*
X202495196Y-71573773D01*
X202489235Y-71597571D01*
X202480970Y-71620671D01*
X202470480Y-71642849D01*
X202457867Y-71663893D01*
X202443253Y-71683598D01*
X202426777Y-71701777D01*
X202408598Y-71718253D01*
X202388893Y-71732867D01*
X202367849Y-71745480D01*
X202345671Y-71755970D01*
X202322571Y-71764235D01*
X202298773Y-71770196D01*
X202274504Y-71773796D01*
X202250000Y-71775000D01*
X199950000Y-71775000D01*
X199925496Y-71773796D01*
X199901227Y-71770196D01*
X199877429Y-71764235D01*
X199854329Y-71755970D01*
X199832151Y-71745480D01*
X199811107Y-71732867D01*
X199791402Y-71718253D01*
X199773223Y-71701777D01*
X199756747Y-71683598D01*
X199742133Y-71663893D01*
X199729520Y-71642849D01*
X199719030Y-71620671D01*
X199710765Y-71597571D01*
X199704804Y-71573773D01*
X199701204Y-71549504D01*
X199700000Y-71525000D01*
X199700000Y-71025000D01*
X199701204Y-71000496D01*
X199704804Y-70976227D01*
X199710765Y-70952429D01*
X199719030Y-70929329D01*
X199729520Y-70907151D01*
X199742133Y-70886107D01*
X199756747Y-70866402D01*
X199773223Y-70848223D01*
X199791402Y-70831747D01*
X199811107Y-70817133D01*
X199832151Y-70804520D01*
X199854329Y-70794030D01*
X199877429Y-70785765D01*
X199901227Y-70779804D01*
X199925496Y-70776204D01*
X199950000Y-70775000D01*
X202250000Y-70775000D01*
X202274504Y-70776204D01*
G37*
G36*
X202274504Y-78226204D02*
G01*
X202298773Y-78229804D01*
X202322571Y-78235765D01*
X202345671Y-78244030D01*
X202367849Y-78254520D01*
X202388893Y-78267133D01*
X202408598Y-78281747D01*
X202426777Y-78298223D01*
X202443253Y-78316402D01*
X202457867Y-78336107D01*
X202470480Y-78357151D01*
X202480970Y-78379329D01*
X202489235Y-78402429D01*
X202495196Y-78426227D01*
X202498796Y-78450496D01*
X202500000Y-78475000D01*
X202500000Y-78975000D01*
X202498796Y-78999504D01*
X202495196Y-79023773D01*
X202489235Y-79047571D01*
X202480970Y-79070671D01*
X202470480Y-79092849D01*
X202457867Y-79113893D01*
X202443253Y-79133598D01*
X202426777Y-79151777D01*
X202408598Y-79168253D01*
X202388893Y-79182867D01*
X202367849Y-79195480D01*
X202345671Y-79205970D01*
X202322571Y-79214235D01*
X202298773Y-79220196D01*
X202274504Y-79223796D01*
X202250000Y-79225000D01*
X199950000Y-79225000D01*
X199925496Y-79223796D01*
X199901227Y-79220196D01*
X199877429Y-79214235D01*
X199854329Y-79205970D01*
X199832151Y-79195480D01*
X199811107Y-79182867D01*
X199791402Y-79168253D01*
X199773223Y-79151777D01*
X199756747Y-79133598D01*
X199742133Y-79113893D01*
X199729520Y-79092849D01*
X199719030Y-79070671D01*
X199710765Y-79047571D01*
X199704804Y-79023773D01*
X199701204Y-78999504D01*
X199700000Y-78975000D01*
X199700000Y-78475000D01*
X199701204Y-78450496D01*
X199704804Y-78426227D01*
X199710765Y-78402429D01*
X199719030Y-78379329D01*
X199729520Y-78357151D01*
X199742133Y-78336107D01*
X199756747Y-78316402D01*
X199773223Y-78298223D01*
X199791402Y-78281747D01*
X199811107Y-78267133D01*
X199832151Y-78254520D01*
X199854329Y-78244030D01*
X199877429Y-78235765D01*
X199901227Y-78229804D01*
X199925496Y-78226204D01*
X199950000Y-78225000D01*
X202250000Y-78225000D01*
X202274504Y-78226204D01*
G37*
G36*
X205164703Y-72825722D02*
G01*
X205179264Y-72827882D01*
X205193543Y-72831459D01*
X205207403Y-72836418D01*
X205220710Y-72842712D01*
X205233336Y-72850280D01*
X205245159Y-72859048D01*
X205256066Y-72868934D01*
X205265952Y-72879841D01*
X205274720Y-72891664D01*
X205282288Y-72904290D01*
X205288582Y-72917597D01*
X205293541Y-72931457D01*
X205297118Y-72945736D01*
X205299278Y-72960297D01*
X205300000Y-72975000D01*
X205300000Y-73275000D01*
X205299278Y-73289703D01*
X205297118Y-73304264D01*
X205293541Y-73318543D01*
X205288582Y-73332403D01*
X205282288Y-73345710D01*
X205274720Y-73358336D01*
X205265952Y-73370159D01*
X205256066Y-73381066D01*
X205245159Y-73390952D01*
X205233336Y-73399720D01*
X205220710Y-73407288D01*
X205207403Y-73413582D01*
X205193543Y-73418541D01*
X205179264Y-73422118D01*
X205164703Y-73424278D01*
X205150000Y-73425000D01*
X203750000Y-73425000D01*
X203735297Y-73424278D01*
X203720736Y-73422118D01*
X203706457Y-73418541D01*
X203692597Y-73413582D01*
X203679290Y-73407288D01*
X203666664Y-73399720D01*
X203654841Y-73390952D01*
X203643934Y-73381066D01*
X203634048Y-73370159D01*
X203625280Y-73358336D01*
X203617712Y-73345710D01*
X203611418Y-73332403D01*
X203606459Y-73318543D01*
X203602882Y-73304264D01*
X203600722Y-73289703D01*
X203600000Y-73275000D01*
X203600000Y-72975000D01*
X203600722Y-72960297D01*
X203602882Y-72945736D01*
X203606459Y-72931457D01*
X203611418Y-72917597D01*
X203617712Y-72904290D01*
X203625280Y-72891664D01*
X203634048Y-72879841D01*
X203643934Y-72868934D01*
X203654841Y-72859048D01*
X203666664Y-72850280D01*
X203679290Y-72842712D01*
X203692597Y-72836418D01*
X203706457Y-72831459D01*
X203720736Y-72827882D01*
X203735297Y-72825722D01*
X203750000Y-72825000D01*
X205150000Y-72825000D01*
X205164703Y-72825722D01*
G37*
G36*
X205164703Y-74075722D02*
G01*
X205179264Y-74077882D01*
X205193543Y-74081459D01*
X205207403Y-74086418D01*
X205220710Y-74092712D01*
X205233336Y-74100280D01*
X205245159Y-74109048D01*
X205256066Y-74118934D01*
X205265952Y-74129841D01*
X205274720Y-74141664D01*
X205282288Y-74154290D01*
X205288582Y-74167597D01*
X205293541Y-74181457D01*
X205297118Y-74195736D01*
X205299278Y-74210297D01*
X205300000Y-74225000D01*
X205300000Y-74525000D01*
X205299278Y-74539703D01*
X205297118Y-74554264D01*
X205293541Y-74568543D01*
X205288582Y-74582403D01*
X205282288Y-74595710D01*
X205274720Y-74608336D01*
X205265952Y-74620159D01*
X205256066Y-74631066D01*
X205245159Y-74640952D01*
X205233336Y-74649720D01*
X205220710Y-74657288D01*
X205207403Y-74663582D01*
X205193543Y-74668541D01*
X205179264Y-74672118D01*
X205164703Y-74674278D01*
X205150000Y-74675000D01*
X203750000Y-74675000D01*
X203735297Y-74674278D01*
X203720736Y-74672118D01*
X203706457Y-74668541D01*
X203692597Y-74663582D01*
X203679290Y-74657288D01*
X203666664Y-74649720D01*
X203654841Y-74640952D01*
X203643934Y-74631066D01*
X203634048Y-74620159D01*
X203625280Y-74608336D01*
X203617712Y-74595710D01*
X203611418Y-74582403D01*
X203606459Y-74568543D01*
X203602882Y-74554264D01*
X203600722Y-74539703D01*
X203600000Y-74525000D01*
X203600000Y-74225000D01*
X203600722Y-74210297D01*
X203602882Y-74195736D01*
X203606459Y-74181457D01*
X203611418Y-74167597D01*
X203617712Y-74154290D01*
X203625280Y-74141664D01*
X203634048Y-74129841D01*
X203643934Y-74118934D01*
X203654841Y-74109048D01*
X203666664Y-74100280D01*
X203679290Y-74092712D01*
X203692597Y-74086418D01*
X203706457Y-74081459D01*
X203720736Y-74077882D01*
X203735297Y-74075722D01*
X203750000Y-74075000D01*
X205150000Y-74075000D01*
X205164703Y-74075722D01*
G37*
G36*
X205164703Y-75325722D02*
G01*
X205179264Y-75327882D01*
X205193543Y-75331459D01*
X205207403Y-75336418D01*
X205220710Y-75342712D01*
X205233336Y-75350280D01*
X205245159Y-75359048D01*
X205256066Y-75368934D01*
X205265952Y-75379841D01*
X205274720Y-75391664D01*
X205282288Y-75404290D01*
X205288582Y-75417597D01*
X205293541Y-75431457D01*
X205297118Y-75445736D01*
X205299278Y-75460297D01*
X205300000Y-75475000D01*
X205300000Y-75775000D01*
X205299278Y-75789703D01*
X205297118Y-75804264D01*
X205293541Y-75818543D01*
X205288582Y-75832403D01*
X205282288Y-75845710D01*
X205274720Y-75858336D01*
X205265952Y-75870159D01*
X205256066Y-75881066D01*
X205245159Y-75890952D01*
X205233336Y-75899720D01*
X205220710Y-75907288D01*
X205207403Y-75913582D01*
X205193543Y-75918541D01*
X205179264Y-75922118D01*
X205164703Y-75924278D01*
X205150000Y-75925000D01*
X203750000Y-75925000D01*
X203735297Y-75924278D01*
X203720736Y-75922118D01*
X203706457Y-75918541D01*
X203692597Y-75913582D01*
X203679290Y-75907288D01*
X203666664Y-75899720D01*
X203654841Y-75890952D01*
X203643934Y-75881066D01*
X203634048Y-75870159D01*
X203625280Y-75858336D01*
X203617712Y-75845710D01*
X203611418Y-75832403D01*
X203606459Y-75818543D01*
X203602882Y-75804264D01*
X203600722Y-75789703D01*
X203600000Y-75775000D01*
X203600000Y-75475000D01*
X203600722Y-75460297D01*
X203602882Y-75445736D01*
X203606459Y-75431457D01*
X203611418Y-75417597D01*
X203617712Y-75404290D01*
X203625280Y-75391664D01*
X203634048Y-75379841D01*
X203643934Y-75368934D01*
X203654841Y-75359048D01*
X203666664Y-75350280D01*
X203679290Y-75342712D01*
X203692597Y-75336418D01*
X203706457Y-75331459D01*
X203720736Y-75327882D01*
X203735297Y-75325722D01*
X203750000Y-75325000D01*
X205150000Y-75325000D01*
X205164703Y-75325722D01*
G37*
G36*
X205164703Y-76575722D02*
G01*
X205179264Y-76577882D01*
X205193543Y-76581459D01*
X205207403Y-76586418D01*
X205220710Y-76592712D01*
X205233336Y-76600280D01*
X205245159Y-76609048D01*
X205256066Y-76618934D01*
X205265952Y-76629841D01*
X205274720Y-76641664D01*
X205282288Y-76654290D01*
X205288582Y-76667597D01*
X205293541Y-76681457D01*
X205297118Y-76695736D01*
X205299278Y-76710297D01*
X205300000Y-76725000D01*
X205300000Y-77025000D01*
X205299278Y-77039703D01*
X205297118Y-77054264D01*
X205293541Y-77068543D01*
X205288582Y-77082403D01*
X205282288Y-77095710D01*
X205274720Y-77108336D01*
X205265952Y-77120159D01*
X205256066Y-77131066D01*
X205245159Y-77140952D01*
X205233336Y-77149720D01*
X205220710Y-77157288D01*
X205207403Y-77163582D01*
X205193543Y-77168541D01*
X205179264Y-77172118D01*
X205164703Y-77174278D01*
X205150000Y-77175000D01*
X203750000Y-77175000D01*
X203735297Y-77174278D01*
X203720736Y-77172118D01*
X203706457Y-77168541D01*
X203692597Y-77163582D01*
X203679290Y-77157288D01*
X203666664Y-77149720D01*
X203654841Y-77140952D01*
X203643934Y-77131066D01*
X203634048Y-77120159D01*
X203625280Y-77108336D01*
X203617712Y-77095710D01*
X203611418Y-77082403D01*
X203606459Y-77068543D01*
X203602882Y-77054264D01*
X203600722Y-77039703D01*
X203600000Y-77025000D01*
X203600000Y-76725000D01*
X203600722Y-76710297D01*
X203602882Y-76695736D01*
X203606459Y-76681457D01*
X203611418Y-76667597D01*
X203617712Y-76654290D01*
X203625280Y-76641664D01*
X203634048Y-76629841D01*
X203643934Y-76618934D01*
X203654841Y-76609048D01*
X203666664Y-76600280D01*
X203679290Y-76592712D01*
X203692597Y-76586418D01*
X203706457Y-76581459D01*
X203720736Y-76577882D01*
X203735297Y-76575722D01*
X203750000Y-76575000D01*
X205150000Y-76575000D01*
X205164703Y-76575722D01*
G37*
G36*
X187274504Y-70776204D02*
G01*
X187298773Y-70779804D01*
X187322571Y-70785765D01*
X187345671Y-70794030D01*
X187367849Y-70804520D01*
X187388893Y-70817133D01*
X187408598Y-70831747D01*
X187426777Y-70848223D01*
X187443253Y-70866402D01*
X187457867Y-70886107D01*
X187470480Y-70907151D01*
X187480970Y-70929329D01*
X187489235Y-70952429D01*
X187495196Y-70976227D01*
X187498796Y-71000496D01*
X187500000Y-71025000D01*
X187500000Y-71525000D01*
X187498796Y-71549504D01*
X187495196Y-71573773D01*
X187489235Y-71597571D01*
X187480970Y-71620671D01*
X187470480Y-71642849D01*
X187457867Y-71663893D01*
X187443253Y-71683598D01*
X187426777Y-71701777D01*
X187408598Y-71718253D01*
X187388893Y-71732867D01*
X187367849Y-71745480D01*
X187345671Y-71755970D01*
X187322571Y-71764235D01*
X187298773Y-71770196D01*
X187274504Y-71773796D01*
X187250000Y-71775000D01*
X184950000Y-71775000D01*
X184925496Y-71773796D01*
X184901227Y-71770196D01*
X184877429Y-71764235D01*
X184854329Y-71755970D01*
X184832151Y-71745480D01*
X184811107Y-71732867D01*
X184791402Y-71718253D01*
X184773223Y-71701777D01*
X184756747Y-71683598D01*
X184742133Y-71663893D01*
X184729520Y-71642849D01*
X184719030Y-71620671D01*
X184710765Y-71597571D01*
X184704804Y-71573773D01*
X184701204Y-71549504D01*
X184700000Y-71525000D01*
X184700000Y-71025000D01*
X184701204Y-71000496D01*
X184704804Y-70976227D01*
X184710765Y-70952429D01*
X184719030Y-70929329D01*
X184729520Y-70907151D01*
X184742133Y-70886107D01*
X184756747Y-70866402D01*
X184773223Y-70848223D01*
X184791402Y-70831747D01*
X184811107Y-70817133D01*
X184832151Y-70804520D01*
X184854329Y-70794030D01*
X184877429Y-70785765D01*
X184901227Y-70779804D01*
X184925496Y-70776204D01*
X184950000Y-70775000D01*
X187250000Y-70775000D01*
X187274504Y-70776204D01*
G37*
G36*
X187274504Y-78226204D02*
G01*
X187298773Y-78229804D01*
X187322571Y-78235765D01*
X187345671Y-78244030D01*
X187367849Y-78254520D01*
X187388893Y-78267133D01*
X187408598Y-78281747D01*
X187426777Y-78298223D01*
X187443253Y-78316402D01*
X187457867Y-78336107D01*
X187470480Y-78357151D01*
X187480970Y-78379329D01*
X187489235Y-78402429D01*
X187495196Y-78426227D01*
X187498796Y-78450496D01*
X187500000Y-78475000D01*
X187500000Y-78975000D01*
X187498796Y-78999504D01*
X187495196Y-79023773D01*
X187489235Y-79047571D01*
X187480970Y-79070671D01*
X187470480Y-79092849D01*
X187457867Y-79113893D01*
X187443253Y-79133598D01*
X187426777Y-79151777D01*
X187408598Y-79168253D01*
X187388893Y-79182867D01*
X187367849Y-79195480D01*
X187345671Y-79205970D01*
X187322571Y-79214235D01*
X187298773Y-79220196D01*
X187274504Y-79223796D01*
X187250000Y-79225000D01*
X184950000Y-79225000D01*
X184925496Y-79223796D01*
X184901227Y-79220196D01*
X184877429Y-79214235D01*
X184854329Y-79205970D01*
X184832151Y-79195480D01*
X184811107Y-79182867D01*
X184791402Y-79168253D01*
X184773223Y-79151777D01*
X184756747Y-79133598D01*
X184742133Y-79113893D01*
X184729520Y-79092849D01*
X184719030Y-79070671D01*
X184710765Y-79047571D01*
X184704804Y-79023773D01*
X184701204Y-78999504D01*
X184700000Y-78975000D01*
X184700000Y-78475000D01*
X184701204Y-78450496D01*
X184704804Y-78426227D01*
X184710765Y-78402429D01*
X184719030Y-78379329D01*
X184729520Y-78357151D01*
X184742133Y-78336107D01*
X184756747Y-78316402D01*
X184773223Y-78298223D01*
X184791402Y-78281747D01*
X184811107Y-78267133D01*
X184832151Y-78254520D01*
X184854329Y-78244030D01*
X184877429Y-78235765D01*
X184901227Y-78229804D01*
X184925496Y-78226204D01*
X184950000Y-78225000D01*
X187250000Y-78225000D01*
X187274504Y-78226204D01*
G37*
G36*
X190164703Y-72825722D02*
G01*
X190179264Y-72827882D01*
X190193543Y-72831459D01*
X190207403Y-72836418D01*
X190220710Y-72842712D01*
X190233336Y-72850280D01*
X190245159Y-72859048D01*
X190256066Y-72868934D01*
X190265952Y-72879841D01*
X190274720Y-72891664D01*
X190282288Y-72904290D01*
X190288582Y-72917597D01*
X190293541Y-72931457D01*
X190297118Y-72945736D01*
X190299278Y-72960297D01*
X190300000Y-72975000D01*
X190300000Y-73275000D01*
X190299278Y-73289703D01*
X190297118Y-73304264D01*
X190293541Y-73318543D01*
X190288582Y-73332403D01*
X190282288Y-73345710D01*
X190274720Y-73358336D01*
X190265952Y-73370159D01*
X190256066Y-73381066D01*
X190245159Y-73390952D01*
X190233336Y-73399720D01*
X190220710Y-73407288D01*
X190207403Y-73413582D01*
X190193543Y-73418541D01*
X190179264Y-73422118D01*
X190164703Y-73424278D01*
X190150000Y-73425000D01*
X188750000Y-73425000D01*
X188735297Y-73424278D01*
X188720736Y-73422118D01*
X188706457Y-73418541D01*
X188692597Y-73413582D01*
X188679290Y-73407288D01*
X188666664Y-73399720D01*
X188654841Y-73390952D01*
X188643934Y-73381066D01*
X188634048Y-73370159D01*
X188625280Y-73358336D01*
X188617712Y-73345710D01*
X188611418Y-73332403D01*
X188606459Y-73318543D01*
X188602882Y-73304264D01*
X188600722Y-73289703D01*
X188600000Y-73275000D01*
X188600000Y-72975000D01*
X188600722Y-72960297D01*
X188602882Y-72945736D01*
X188606459Y-72931457D01*
X188611418Y-72917597D01*
X188617712Y-72904290D01*
X188625280Y-72891664D01*
X188634048Y-72879841D01*
X188643934Y-72868934D01*
X188654841Y-72859048D01*
X188666664Y-72850280D01*
X188679290Y-72842712D01*
X188692597Y-72836418D01*
X188706457Y-72831459D01*
X188720736Y-72827882D01*
X188735297Y-72825722D01*
X188750000Y-72825000D01*
X190150000Y-72825000D01*
X190164703Y-72825722D01*
G37*
G36*
X190164703Y-74075722D02*
G01*
X190179264Y-74077882D01*
X190193543Y-74081459D01*
X190207403Y-74086418D01*
X190220710Y-74092712D01*
X190233336Y-74100280D01*
X190245159Y-74109048D01*
X190256066Y-74118934D01*
X190265952Y-74129841D01*
X190274720Y-74141664D01*
X190282288Y-74154290D01*
X190288582Y-74167597D01*
X190293541Y-74181457D01*
X190297118Y-74195736D01*
X190299278Y-74210297D01*
X190300000Y-74225000D01*
X190300000Y-74525000D01*
X190299278Y-74539703D01*
X190297118Y-74554264D01*
X190293541Y-74568543D01*
X190288582Y-74582403D01*
X190282288Y-74595710D01*
X190274720Y-74608336D01*
X190265952Y-74620159D01*
X190256066Y-74631066D01*
X190245159Y-74640952D01*
X190233336Y-74649720D01*
X190220710Y-74657288D01*
X190207403Y-74663582D01*
X190193543Y-74668541D01*
X190179264Y-74672118D01*
X190164703Y-74674278D01*
X190150000Y-74675000D01*
X188750000Y-74675000D01*
X188735297Y-74674278D01*
X188720736Y-74672118D01*
X188706457Y-74668541D01*
X188692597Y-74663582D01*
X188679290Y-74657288D01*
X188666664Y-74649720D01*
X188654841Y-74640952D01*
X188643934Y-74631066D01*
X188634048Y-74620159D01*
X188625280Y-74608336D01*
X188617712Y-74595710D01*
X188611418Y-74582403D01*
X188606459Y-74568543D01*
X188602882Y-74554264D01*
X188600722Y-74539703D01*
X188600000Y-74525000D01*
X188600000Y-74225000D01*
X188600722Y-74210297D01*
X188602882Y-74195736D01*
X188606459Y-74181457D01*
X188611418Y-74167597D01*
X188617712Y-74154290D01*
X188625280Y-74141664D01*
X188634048Y-74129841D01*
X188643934Y-74118934D01*
X188654841Y-74109048D01*
X188666664Y-74100280D01*
X188679290Y-74092712D01*
X188692597Y-74086418D01*
X188706457Y-74081459D01*
X188720736Y-74077882D01*
X188735297Y-74075722D01*
X188750000Y-74075000D01*
X190150000Y-74075000D01*
X190164703Y-74075722D01*
G37*
G36*
X190164703Y-75325722D02*
G01*
X190179264Y-75327882D01*
X190193543Y-75331459D01*
X190207403Y-75336418D01*
X190220710Y-75342712D01*
X190233336Y-75350280D01*
X190245159Y-75359048D01*
X190256066Y-75368934D01*
X190265952Y-75379841D01*
X190274720Y-75391664D01*
X190282288Y-75404290D01*
X190288582Y-75417597D01*
X190293541Y-75431457D01*
X190297118Y-75445736D01*
X190299278Y-75460297D01*
X190300000Y-75475000D01*
X190300000Y-75775000D01*
X190299278Y-75789703D01*
X190297118Y-75804264D01*
X190293541Y-75818543D01*
X190288582Y-75832403D01*
X190282288Y-75845710D01*
X190274720Y-75858336D01*
X190265952Y-75870159D01*
X190256066Y-75881066D01*
X190245159Y-75890952D01*
X190233336Y-75899720D01*
X190220710Y-75907288D01*
X190207403Y-75913582D01*
X190193543Y-75918541D01*
X190179264Y-75922118D01*
X190164703Y-75924278D01*
X190150000Y-75925000D01*
X188750000Y-75925000D01*
X188735297Y-75924278D01*
X188720736Y-75922118D01*
X188706457Y-75918541D01*
X188692597Y-75913582D01*
X188679290Y-75907288D01*
X188666664Y-75899720D01*
X188654841Y-75890952D01*
X188643934Y-75881066D01*
X188634048Y-75870159D01*
X188625280Y-75858336D01*
X188617712Y-75845710D01*
X188611418Y-75832403D01*
X188606459Y-75818543D01*
X188602882Y-75804264D01*
X188600722Y-75789703D01*
X188600000Y-75775000D01*
X188600000Y-75475000D01*
X188600722Y-75460297D01*
X188602882Y-75445736D01*
X188606459Y-75431457D01*
X188611418Y-75417597D01*
X188617712Y-75404290D01*
X188625280Y-75391664D01*
X188634048Y-75379841D01*
X188643934Y-75368934D01*
X188654841Y-75359048D01*
X188666664Y-75350280D01*
X188679290Y-75342712D01*
X188692597Y-75336418D01*
X188706457Y-75331459D01*
X188720736Y-75327882D01*
X188735297Y-75325722D01*
X188750000Y-75325000D01*
X190150000Y-75325000D01*
X190164703Y-75325722D01*
G37*
G36*
X190164703Y-76575722D02*
G01*
X190179264Y-76577882D01*
X190193543Y-76581459D01*
X190207403Y-76586418D01*
X190220710Y-76592712D01*
X190233336Y-76600280D01*
X190245159Y-76609048D01*
X190256066Y-76618934D01*
X190265952Y-76629841D01*
X190274720Y-76641664D01*
X190282288Y-76654290D01*
X190288582Y-76667597D01*
X190293541Y-76681457D01*
X190297118Y-76695736D01*
X190299278Y-76710297D01*
X190300000Y-76725000D01*
X190300000Y-77025000D01*
X190299278Y-77039703D01*
X190297118Y-77054264D01*
X190293541Y-77068543D01*
X190288582Y-77082403D01*
X190282288Y-77095710D01*
X190274720Y-77108336D01*
X190265952Y-77120159D01*
X190256066Y-77131066D01*
X190245159Y-77140952D01*
X190233336Y-77149720D01*
X190220710Y-77157288D01*
X190207403Y-77163582D01*
X190193543Y-77168541D01*
X190179264Y-77172118D01*
X190164703Y-77174278D01*
X190150000Y-77175000D01*
X188750000Y-77175000D01*
X188735297Y-77174278D01*
X188720736Y-77172118D01*
X188706457Y-77168541D01*
X188692597Y-77163582D01*
X188679290Y-77157288D01*
X188666664Y-77149720D01*
X188654841Y-77140952D01*
X188643934Y-77131066D01*
X188634048Y-77120159D01*
X188625280Y-77108336D01*
X188617712Y-77095710D01*
X188611418Y-77082403D01*
X188606459Y-77068543D01*
X188602882Y-77054264D01*
X188600722Y-77039703D01*
X188600000Y-77025000D01*
X188600000Y-76725000D01*
X188600722Y-76710297D01*
X188602882Y-76695736D01*
X188606459Y-76681457D01*
X188611418Y-76667597D01*
X188617712Y-76654290D01*
X188625280Y-76641664D01*
X188634048Y-76629841D01*
X188643934Y-76618934D01*
X188654841Y-76609048D01*
X188666664Y-76600280D01*
X188679290Y-76592712D01*
X188692597Y-76586418D01*
X188706457Y-76581459D01*
X188720736Y-76577882D01*
X188735297Y-76575722D01*
X188750000Y-76575000D01*
X190150000Y-76575000D01*
X190164703Y-76575722D01*
G37*
M02*
