G04 #@! TF.GenerationSoftware,KiCad,Pcbnew,(5.1.5)-3*
G04 #@! TF.CreationDate,2021-10-17T15:35:09-07:00*
G04 #@! TF.ProjectId,uav_i2c_breakout,7561765f-6932-4635-9f62-7265616b6f75,rev?*
G04 #@! TF.SameCoordinates,Original*
G04 #@! TF.FileFunction,Legend,Top*
G04 #@! TF.FilePolarity,Positive*
%FSLAX46Y46*%
G04 Gerber Fmt 4.6, Leading zero omitted, Abs format (unit mm)*
G04 Created by KiCad (PCBNEW (5.1.5)-3) date 2021-10-17 15:35:09*
%MOMM*%
%LPD*%
G04 APERTURE LIST*
%ADD10C,0.120000*%
%ADD11C,0.100000*%
G04 APERTURE END LIST*
D10*
X177390000Y-77965000D02*
X177390000Y-72035000D01*
X181860000Y-70765000D02*
X181860000Y-72565000D01*
X180260000Y-70765000D02*
X181860000Y-70765000D01*
X181860000Y-77435000D02*
X182800000Y-77435000D01*
X181860000Y-79235000D02*
X181860000Y-77435000D01*
X180260000Y-79235000D02*
X181860000Y-79235000D01*
X192390000Y-77965000D02*
X192390000Y-72035000D01*
X196860000Y-70765000D02*
X196860000Y-72565000D01*
X195260000Y-70765000D02*
X196860000Y-70765000D01*
X196860000Y-77435000D02*
X197800000Y-77435000D01*
X196860000Y-79235000D02*
X196860000Y-77435000D01*
X195260000Y-79235000D02*
X196860000Y-79235000D01*
X169890000Y-77965000D02*
X169890000Y-72035000D01*
X174360000Y-70765000D02*
X174360000Y-72565000D01*
X172760000Y-70765000D02*
X174360000Y-70765000D01*
X174360000Y-77435000D02*
X175300000Y-77435000D01*
X174360000Y-79235000D02*
X174360000Y-77435000D01*
X172760000Y-79235000D02*
X174360000Y-79235000D01*
X199890000Y-77965000D02*
X199890000Y-72035000D01*
X204360000Y-70765000D02*
X204360000Y-72565000D01*
X202760000Y-70765000D02*
X204360000Y-70765000D01*
X204360000Y-77435000D02*
X205300000Y-77435000D01*
X204360000Y-79235000D02*
X204360000Y-77435000D01*
X202760000Y-79235000D02*
X204360000Y-79235000D01*
X184890000Y-77965000D02*
X184890000Y-72035000D01*
X189360000Y-70765000D02*
X189360000Y-72565000D01*
X187760000Y-70765000D02*
X189360000Y-70765000D01*
X189360000Y-77435000D02*
X190300000Y-77435000D01*
X189360000Y-79235000D02*
X189360000Y-77435000D01*
X187760000Y-79235000D02*
X189360000Y-79235000D01*
X207390000Y-76715000D02*
X207390000Y-73285000D01*
X211860000Y-72015000D02*
X211860000Y-73815000D01*
X210260000Y-72015000D02*
X211860000Y-72015000D01*
X211860000Y-76185000D02*
X212800000Y-76185000D01*
X211860000Y-77985000D02*
X211860000Y-76185000D01*
X210260000Y-77985000D02*
X211860000Y-77985000D01*
%LPC*%
D11*
G36*
X179802504Y-70725327D02*
G01*
X179829247Y-70729294D01*
X179855473Y-70735863D01*
X179880929Y-70744971D01*
X179905370Y-70756531D01*
X179928560Y-70770430D01*
X179950275Y-70786536D01*
X179970308Y-70804692D01*
X179988464Y-70824725D01*
X180004570Y-70846440D01*
X180018469Y-70869630D01*
X180030029Y-70894071D01*
X180039137Y-70919527D01*
X180045706Y-70945753D01*
X180049673Y-70972496D01*
X180051000Y-70999500D01*
X180051000Y-71550500D01*
X180049673Y-71577504D01*
X180045706Y-71604247D01*
X180039137Y-71630473D01*
X180030029Y-71655929D01*
X180018469Y-71680370D01*
X180004570Y-71703560D01*
X179988464Y-71725275D01*
X179970308Y-71745308D01*
X179950275Y-71763464D01*
X179928560Y-71779570D01*
X179905370Y-71793469D01*
X179880929Y-71805029D01*
X179855473Y-71814137D01*
X179829247Y-71820706D01*
X179802504Y-71824673D01*
X179775500Y-71826000D01*
X177424500Y-71826000D01*
X177397496Y-71824673D01*
X177370753Y-71820706D01*
X177344527Y-71814137D01*
X177319071Y-71805029D01*
X177294630Y-71793469D01*
X177271440Y-71779570D01*
X177249725Y-71763464D01*
X177229692Y-71745308D01*
X177211536Y-71725275D01*
X177195430Y-71703560D01*
X177181531Y-71680370D01*
X177169971Y-71655929D01*
X177160863Y-71630473D01*
X177154294Y-71604247D01*
X177150327Y-71577504D01*
X177149000Y-71550500D01*
X177149000Y-70999500D01*
X177150327Y-70972496D01*
X177154294Y-70945753D01*
X177160863Y-70919527D01*
X177169971Y-70894071D01*
X177181531Y-70869630D01*
X177195430Y-70846440D01*
X177211536Y-70824725D01*
X177229692Y-70804692D01*
X177249725Y-70786536D01*
X177271440Y-70770430D01*
X177294630Y-70756531D01*
X177319071Y-70744971D01*
X177344527Y-70735863D01*
X177370753Y-70729294D01*
X177397496Y-70725327D01*
X177424500Y-70724000D01*
X179775500Y-70724000D01*
X179802504Y-70725327D01*
G37*
G36*
X179802504Y-78175327D02*
G01*
X179829247Y-78179294D01*
X179855473Y-78185863D01*
X179880929Y-78194971D01*
X179905370Y-78206531D01*
X179928560Y-78220430D01*
X179950275Y-78236536D01*
X179970308Y-78254692D01*
X179988464Y-78274725D01*
X180004570Y-78296440D01*
X180018469Y-78319630D01*
X180030029Y-78344071D01*
X180039137Y-78369527D01*
X180045706Y-78395753D01*
X180049673Y-78422496D01*
X180051000Y-78449500D01*
X180051000Y-79000500D01*
X180049673Y-79027504D01*
X180045706Y-79054247D01*
X180039137Y-79080473D01*
X180030029Y-79105929D01*
X180018469Y-79130370D01*
X180004570Y-79153560D01*
X179988464Y-79175275D01*
X179970308Y-79195308D01*
X179950275Y-79213464D01*
X179928560Y-79229570D01*
X179905370Y-79243469D01*
X179880929Y-79255029D01*
X179855473Y-79264137D01*
X179829247Y-79270706D01*
X179802504Y-79274673D01*
X179775500Y-79276000D01*
X177424500Y-79276000D01*
X177397496Y-79274673D01*
X177370753Y-79270706D01*
X177344527Y-79264137D01*
X177319071Y-79255029D01*
X177294630Y-79243469D01*
X177271440Y-79229570D01*
X177249725Y-79213464D01*
X177229692Y-79195308D01*
X177211536Y-79175275D01*
X177195430Y-79153560D01*
X177181531Y-79130370D01*
X177169971Y-79105929D01*
X177160863Y-79080473D01*
X177154294Y-79054247D01*
X177150327Y-79027504D01*
X177149000Y-79000500D01*
X177149000Y-78449500D01*
X177150327Y-78422496D01*
X177154294Y-78395753D01*
X177160863Y-78369527D01*
X177169971Y-78344071D01*
X177181531Y-78319630D01*
X177195430Y-78296440D01*
X177211536Y-78274725D01*
X177229692Y-78254692D01*
X177249725Y-78236536D01*
X177271440Y-78220430D01*
X177294630Y-78206531D01*
X177319071Y-78194971D01*
X177344527Y-78185863D01*
X177370753Y-78179294D01*
X177397496Y-78175327D01*
X177424500Y-78174000D01*
X179775500Y-78174000D01*
X179802504Y-78175327D01*
G37*
G36*
X182692702Y-72774845D02*
G01*
X182709738Y-72777372D01*
X182726445Y-72781557D01*
X182742661Y-72787359D01*
X182758230Y-72794723D01*
X182773003Y-72803577D01*
X182786836Y-72813837D01*
X182799597Y-72825403D01*
X182811163Y-72838164D01*
X182821423Y-72851997D01*
X182830277Y-72866770D01*
X182837641Y-72882339D01*
X182843443Y-72898555D01*
X182847628Y-72915262D01*
X182850155Y-72932298D01*
X182851000Y-72949500D01*
X182851000Y-73300500D01*
X182850155Y-73317702D01*
X182847628Y-73334738D01*
X182843443Y-73351445D01*
X182837641Y-73367661D01*
X182830277Y-73383230D01*
X182821423Y-73398003D01*
X182811163Y-73411836D01*
X182799597Y-73424597D01*
X182786836Y-73436163D01*
X182773003Y-73446423D01*
X182758230Y-73455277D01*
X182742661Y-73462641D01*
X182726445Y-73468443D01*
X182709738Y-73472628D01*
X182692702Y-73475155D01*
X182675500Y-73476000D01*
X181224500Y-73476000D01*
X181207298Y-73475155D01*
X181190262Y-73472628D01*
X181173555Y-73468443D01*
X181157339Y-73462641D01*
X181141770Y-73455277D01*
X181126997Y-73446423D01*
X181113164Y-73436163D01*
X181100403Y-73424597D01*
X181088837Y-73411836D01*
X181078577Y-73398003D01*
X181069723Y-73383230D01*
X181062359Y-73367661D01*
X181056557Y-73351445D01*
X181052372Y-73334738D01*
X181049845Y-73317702D01*
X181049000Y-73300500D01*
X181049000Y-72949500D01*
X181049845Y-72932298D01*
X181052372Y-72915262D01*
X181056557Y-72898555D01*
X181062359Y-72882339D01*
X181069723Y-72866770D01*
X181078577Y-72851997D01*
X181088837Y-72838164D01*
X181100403Y-72825403D01*
X181113164Y-72813837D01*
X181126997Y-72803577D01*
X181141770Y-72794723D01*
X181157339Y-72787359D01*
X181173555Y-72781557D01*
X181190262Y-72777372D01*
X181207298Y-72774845D01*
X181224500Y-72774000D01*
X182675500Y-72774000D01*
X182692702Y-72774845D01*
G37*
G36*
X182692702Y-74024845D02*
G01*
X182709738Y-74027372D01*
X182726445Y-74031557D01*
X182742661Y-74037359D01*
X182758230Y-74044723D01*
X182773003Y-74053577D01*
X182786836Y-74063837D01*
X182799597Y-74075403D01*
X182811163Y-74088164D01*
X182821423Y-74101997D01*
X182830277Y-74116770D01*
X182837641Y-74132339D01*
X182843443Y-74148555D01*
X182847628Y-74165262D01*
X182850155Y-74182298D01*
X182851000Y-74199500D01*
X182851000Y-74550500D01*
X182850155Y-74567702D01*
X182847628Y-74584738D01*
X182843443Y-74601445D01*
X182837641Y-74617661D01*
X182830277Y-74633230D01*
X182821423Y-74648003D01*
X182811163Y-74661836D01*
X182799597Y-74674597D01*
X182786836Y-74686163D01*
X182773003Y-74696423D01*
X182758230Y-74705277D01*
X182742661Y-74712641D01*
X182726445Y-74718443D01*
X182709738Y-74722628D01*
X182692702Y-74725155D01*
X182675500Y-74726000D01*
X181224500Y-74726000D01*
X181207298Y-74725155D01*
X181190262Y-74722628D01*
X181173555Y-74718443D01*
X181157339Y-74712641D01*
X181141770Y-74705277D01*
X181126997Y-74696423D01*
X181113164Y-74686163D01*
X181100403Y-74674597D01*
X181088837Y-74661836D01*
X181078577Y-74648003D01*
X181069723Y-74633230D01*
X181062359Y-74617661D01*
X181056557Y-74601445D01*
X181052372Y-74584738D01*
X181049845Y-74567702D01*
X181049000Y-74550500D01*
X181049000Y-74199500D01*
X181049845Y-74182298D01*
X181052372Y-74165262D01*
X181056557Y-74148555D01*
X181062359Y-74132339D01*
X181069723Y-74116770D01*
X181078577Y-74101997D01*
X181088837Y-74088164D01*
X181100403Y-74075403D01*
X181113164Y-74063837D01*
X181126997Y-74053577D01*
X181141770Y-74044723D01*
X181157339Y-74037359D01*
X181173555Y-74031557D01*
X181190262Y-74027372D01*
X181207298Y-74024845D01*
X181224500Y-74024000D01*
X182675500Y-74024000D01*
X182692702Y-74024845D01*
G37*
G36*
X182692702Y-75274845D02*
G01*
X182709738Y-75277372D01*
X182726445Y-75281557D01*
X182742661Y-75287359D01*
X182758230Y-75294723D01*
X182773003Y-75303577D01*
X182786836Y-75313837D01*
X182799597Y-75325403D01*
X182811163Y-75338164D01*
X182821423Y-75351997D01*
X182830277Y-75366770D01*
X182837641Y-75382339D01*
X182843443Y-75398555D01*
X182847628Y-75415262D01*
X182850155Y-75432298D01*
X182851000Y-75449500D01*
X182851000Y-75800500D01*
X182850155Y-75817702D01*
X182847628Y-75834738D01*
X182843443Y-75851445D01*
X182837641Y-75867661D01*
X182830277Y-75883230D01*
X182821423Y-75898003D01*
X182811163Y-75911836D01*
X182799597Y-75924597D01*
X182786836Y-75936163D01*
X182773003Y-75946423D01*
X182758230Y-75955277D01*
X182742661Y-75962641D01*
X182726445Y-75968443D01*
X182709738Y-75972628D01*
X182692702Y-75975155D01*
X182675500Y-75976000D01*
X181224500Y-75976000D01*
X181207298Y-75975155D01*
X181190262Y-75972628D01*
X181173555Y-75968443D01*
X181157339Y-75962641D01*
X181141770Y-75955277D01*
X181126997Y-75946423D01*
X181113164Y-75936163D01*
X181100403Y-75924597D01*
X181088837Y-75911836D01*
X181078577Y-75898003D01*
X181069723Y-75883230D01*
X181062359Y-75867661D01*
X181056557Y-75851445D01*
X181052372Y-75834738D01*
X181049845Y-75817702D01*
X181049000Y-75800500D01*
X181049000Y-75449500D01*
X181049845Y-75432298D01*
X181052372Y-75415262D01*
X181056557Y-75398555D01*
X181062359Y-75382339D01*
X181069723Y-75366770D01*
X181078577Y-75351997D01*
X181088837Y-75338164D01*
X181100403Y-75325403D01*
X181113164Y-75313837D01*
X181126997Y-75303577D01*
X181141770Y-75294723D01*
X181157339Y-75287359D01*
X181173555Y-75281557D01*
X181190262Y-75277372D01*
X181207298Y-75274845D01*
X181224500Y-75274000D01*
X182675500Y-75274000D01*
X182692702Y-75274845D01*
G37*
G36*
X182692702Y-76524845D02*
G01*
X182709738Y-76527372D01*
X182726445Y-76531557D01*
X182742661Y-76537359D01*
X182758230Y-76544723D01*
X182773003Y-76553577D01*
X182786836Y-76563837D01*
X182799597Y-76575403D01*
X182811163Y-76588164D01*
X182821423Y-76601997D01*
X182830277Y-76616770D01*
X182837641Y-76632339D01*
X182843443Y-76648555D01*
X182847628Y-76665262D01*
X182850155Y-76682298D01*
X182851000Y-76699500D01*
X182851000Y-77050500D01*
X182850155Y-77067702D01*
X182847628Y-77084738D01*
X182843443Y-77101445D01*
X182837641Y-77117661D01*
X182830277Y-77133230D01*
X182821423Y-77148003D01*
X182811163Y-77161836D01*
X182799597Y-77174597D01*
X182786836Y-77186163D01*
X182773003Y-77196423D01*
X182758230Y-77205277D01*
X182742661Y-77212641D01*
X182726445Y-77218443D01*
X182709738Y-77222628D01*
X182692702Y-77225155D01*
X182675500Y-77226000D01*
X181224500Y-77226000D01*
X181207298Y-77225155D01*
X181190262Y-77222628D01*
X181173555Y-77218443D01*
X181157339Y-77212641D01*
X181141770Y-77205277D01*
X181126997Y-77196423D01*
X181113164Y-77186163D01*
X181100403Y-77174597D01*
X181088837Y-77161836D01*
X181078577Y-77148003D01*
X181069723Y-77133230D01*
X181062359Y-77117661D01*
X181056557Y-77101445D01*
X181052372Y-77084738D01*
X181049845Y-77067702D01*
X181049000Y-77050500D01*
X181049000Y-76699500D01*
X181049845Y-76682298D01*
X181052372Y-76665262D01*
X181056557Y-76648555D01*
X181062359Y-76632339D01*
X181069723Y-76616770D01*
X181078577Y-76601997D01*
X181088837Y-76588164D01*
X181100403Y-76575403D01*
X181113164Y-76563837D01*
X181126997Y-76553577D01*
X181141770Y-76544723D01*
X181157339Y-76537359D01*
X181173555Y-76531557D01*
X181190262Y-76527372D01*
X181207298Y-76524845D01*
X181224500Y-76524000D01*
X182675500Y-76524000D01*
X182692702Y-76524845D01*
G37*
G36*
X194802504Y-70725327D02*
G01*
X194829247Y-70729294D01*
X194855473Y-70735863D01*
X194880929Y-70744971D01*
X194905370Y-70756531D01*
X194928560Y-70770430D01*
X194950275Y-70786536D01*
X194970308Y-70804692D01*
X194988464Y-70824725D01*
X195004570Y-70846440D01*
X195018469Y-70869630D01*
X195030029Y-70894071D01*
X195039137Y-70919527D01*
X195045706Y-70945753D01*
X195049673Y-70972496D01*
X195051000Y-70999500D01*
X195051000Y-71550500D01*
X195049673Y-71577504D01*
X195045706Y-71604247D01*
X195039137Y-71630473D01*
X195030029Y-71655929D01*
X195018469Y-71680370D01*
X195004570Y-71703560D01*
X194988464Y-71725275D01*
X194970308Y-71745308D01*
X194950275Y-71763464D01*
X194928560Y-71779570D01*
X194905370Y-71793469D01*
X194880929Y-71805029D01*
X194855473Y-71814137D01*
X194829247Y-71820706D01*
X194802504Y-71824673D01*
X194775500Y-71826000D01*
X192424500Y-71826000D01*
X192397496Y-71824673D01*
X192370753Y-71820706D01*
X192344527Y-71814137D01*
X192319071Y-71805029D01*
X192294630Y-71793469D01*
X192271440Y-71779570D01*
X192249725Y-71763464D01*
X192229692Y-71745308D01*
X192211536Y-71725275D01*
X192195430Y-71703560D01*
X192181531Y-71680370D01*
X192169971Y-71655929D01*
X192160863Y-71630473D01*
X192154294Y-71604247D01*
X192150327Y-71577504D01*
X192149000Y-71550500D01*
X192149000Y-70999500D01*
X192150327Y-70972496D01*
X192154294Y-70945753D01*
X192160863Y-70919527D01*
X192169971Y-70894071D01*
X192181531Y-70869630D01*
X192195430Y-70846440D01*
X192211536Y-70824725D01*
X192229692Y-70804692D01*
X192249725Y-70786536D01*
X192271440Y-70770430D01*
X192294630Y-70756531D01*
X192319071Y-70744971D01*
X192344527Y-70735863D01*
X192370753Y-70729294D01*
X192397496Y-70725327D01*
X192424500Y-70724000D01*
X194775500Y-70724000D01*
X194802504Y-70725327D01*
G37*
G36*
X194802504Y-78175327D02*
G01*
X194829247Y-78179294D01*
X194855473Y-78185863D01*
X194880929Y-78194971D01*
X194905370Y-78206531D01*
X194928560Y-78220430D01*
X194950275Y-78236536D01*
X194970308Y-78254692D01*
X194988464Y-78274725D01*
X195004570Y-78296440D01*
X195018469Y-78319630D01*
X195030029Y-78344071D01*
X195039137Y-78369527D01*
X195045706Y-78395753D01*
X195049673Y-78422496D01*
X195051000Y-78449500D01*
X195051000Y-79000500D01*
X195049673Y-79027504D01*
X195045706Y-79054247D01*
X195039137Y-79080473D01*
X195030029Y-79105929D01*
X195018469Y-79130370D01*
X195004570Y-79153560D01*
X194988464Y-79175275D01*
X194970308Y-79195308D01*
X194950275Y-79213464D01*
X194928560Y-79229570D01*
X194905370Y-79243469D01*
X194880929Y-79255029D01*
X194855473Y-79264137D01*
X194829247Y-79270706D01*
X194802504Y-79274673D01*
X194775500Y-79276000D01*
X192424500Y-79276000D01*
X192397496Y-79274673D01*
X192370753Y-79270706D01*
X192344527Y-79264137D01*
X192319071Y-79255029D01*
X192294630Y-79243469D01*
X192271440Y-79229570D01*
X192249725Y-79213464D01*
X192229692Y-79195308D01*
X192211536Y-79175275D01*
X192195430Y-79153560D01*
X192181531Y-79130370D01*
X192169971Y-79105929D01*
X192160863Y-79080473D01*
X192154294Y-79054247D01*
X192150327Y-79027504D01*
X192149000Y-79000500D01*
X192149000Y-78449500D01*
X192150327Y-78422496D01*
X192154294Y-78395753D01*
X192160863Y-78369527D01*
X192169971Y-78344071D01*
X192181531Y-78319630D01*
X192195430Y-78296440D01*
X192211536Y-78274725D01*
X192229692Y-78254692D01*
X192249725Y-78236536D01*
X192271440Y-78220430D01*
X192294630Y-78206531D01*
X192319071Y-78194971D01*
X192344527Y-78185863D01*
X192370753Y-78179294D01*
X192397496Y-78175327D01*
X192424500Y-78174000D01*
X194775500Y-78174000D01*
X194802504Y-78175327D01*
G37*
G36*
X197692702Y-72774845D02*
G01*
X197709738Y-72777372D01*
X197726445Y-72781557D01*
X197742661Y-72787359D01*
X197758230Y-72794723D01*
X197773003Y-72803577D01*
X197786836Y-72813837D01*
X197799597Y-72825403D01*
X197811163Y-72838164D01*
X197821423Y-72851997D01*
X197830277Y-72866770D01*
X197837641Y-72882339D01*
X197843443Y-72898555D01*
X197847628Y-72915262D01*
X197850155Y-72932298D01*
X197851000Y-72949500D01*
X197851000Y-73300500D01*
X197850155Y-73317702D01*
X197847628Y-73334738D01*
X197843443Y-73351445D01*
X197837641Y-73367661D01*
X197830277Y-73383230D01*
X197821423Y-73398003D01*
X197811163Y-73411836D01*
X197799597Y-73424597D01*
X197786836Y-73436163D01*
X197773003Y-73446423D01*
X197758230Y-73455277D01*
X197742661Y-73462641D01*
X197726445Y-73468443D01*
X197709738Y-73472628D01*
X197692702Y-73475155D01*
X197675500Y-73476000D01*
X196224500Y-73476000D01*
X196207298Y-73475155D01*
X196190262Y-73472628D01*
X196173555Y-73468443D01*
X196157339Y-73462641D01*
X196141770Y-73455277D01*
X196126997Y-73446423D01*
X196113164Y-73436163D01*
X196100403Y-73424597D01*
X196088837Y-73411836D01*
X196078577Y-73398003D01*
X196069723Y-73383230D01*
X196062359Y-73367661D01*
X196056557Y-73351445D01*
X196052372Y-73334738D01*
X196049845Y-73317702D01*
X196049000Y-73300500D01*
X196049000Y-72949500D01*
X196049845Y-72932298D01*
X196052372Y-72915262D01*
X196056557Y-72898555D01*
X196062359Y-72882339D01*
X196069723Y-72866770D01*
X196078577Y-72851997D01*
X196088837Y-72838164D01*
X196100403Y-72825403D01*
X196113164Y-72813837D01*
X196126997Y-72803577D01*
X196141770Y-72794723D01*
X196157339Y-72787359D01*
X196173555Y-72781557D01*
X196190262Y-72777372D01*
X196207298Y-72774845D01*
X196224500Y-72774000D01*
X197675500Y-72774000D01*
X197692702Y-72774845D01*
G37*
G36*
X197692702Y-74024845D02*
G01*
X197709738Y-74027372D01*
X197726445Y-74031557D01*
X197742661Y-74037359D01*
X197758230Y-74044723D01*
X197773003Y-74053577D01*
X197786836Y-74063837D01*
X197799597Y-74075403D01*
X197811163Y-74088164D01*
X197821423Y-74101997D01*
X197830277Y-74116770D01*
X197837641Y-74132339D01*
X197843443Y-74148555D01*
X197847628Y-74165262D01*
X197850155Y-74182298D01*
X197851000Y-74199500D01*
X197851000Y-74550500D01*
X197850155Y-74567702D01*
X197847628Y-74584738D01*
X197843443Y-74601445D01*
X197837641Y-74617661D01*
X197830277Y-74633230D01*
X197821423Y-74648003D01*
X197811163Y-74661836D01*
X197799597Y-74674597D01*
X197786836Y-74686163D01*
X197773003Y-74696423D01*
X197758230Y-74705277D01*
X197742661Y-74712641D01*
X197726445Y-74718443D01*
X197709738Y-74722628D01*
X197692702Y-74725155D01*
X197675500Y-74726000D01*
X196224500Y-74726000D01*
X196207298Y-74725155D01*
X196190262Y-74722628D01*
X196173555Y-74718443D01*
X196157339Y-74712641D01*
X196141770Y-74705277D01*
X196126997Y-74696423D01*
X196113164Y-74686163D01*
X196100403Y-74674597D01*
X196088837Y-74661836D01*
X196078577Y-74648003D01*
X196069723Y-74633230D01*
X196062359Y-74617661D01*
X196056557Y-74601445D01*
X196052372Y-74584738D01*
X196049845Y-74567702D01*
X196049000Y-74550500D01*
X196049000Y-74199500D01*
X196049845Y-74182298D01*
X196052372Y-74165262D01*
X196056557Y-74148555D01*
X196062359Y-74132339D01*
X196069723Y-74116770D01*
X196078577Y-74101997D01*
X196088837Y-74088164D01*
X196100403Y-74075403D01*
X196113164Y-74063837D01*
X196126997Y-74053577D01*
X196141770Y-74044723D01*
X196157339Y-74037359D01*
X196173555Y-74031557D01*
X196190262Y-74027372D01*
X196207298Y-74024845D01*
X196224500Y-74024000D01*
X197675500Y-74024000D01*
X197692702Y-74024845D01*
G37*
G36*
X197692702Y-75274845D02*
G01*
X197709738Y-75277372D01*
X197726445Y-75281557D01*
X197742661Y-75287359D01*
X197758230Y-75294723D01*
X197773003Y-75303577D01*
X197786836Y-75313837D01*
X197799597Y-75325403D01*
X197811163Y-75338164D01*
X197821423Y-75351997D01*
X197830277Y-75366770D01*
X197837641Y-75382339D01*
X197843443Y-75398555D01*
X197847628Y-75415262D01*
X197850155Y-75432298D01*
X197851000Y-75449500D01*
X197851000Y-75800500D01*
X197850155Y-75817702D01*
X197847628Y-75834738D01*
X197843443Y-75851445D01*
X197837641Y-75867661D01*
X197830277Y-75883230D01*
X197821423Y-75898003D01*
X197811163Y-75911836D01*
X197799597Y-75924597D01*
X197786836Y-75936163D01*
X197773003Y-75946423D01*
X197758230Y-75955277D01*
X197742661Y-75962641D01*
X197726445Y-75968443D01*
X197709738Y-75972628D01*
X197692702Y-75975155D01*
X197675500Y-75976000D01*
X196224500Y-75976000D01*
X196207298Y-75975155D01*
X196190262Y-75972628D01*
X196173555Y-75968443D01*
X196157339Y-75962641D01*
X196141770Y-75955277D01*
X196126997Y-75946423D01*
X196113164Y-75936163D01*
X196100403Y-75924597D01*
X196088837Y-75911836D01*
X196078577Y-75898003D01*
X196069723Y-75883230D01*
X196062359Y-75867661D01*
X196056557Y-75851445D01*
X196052372Y-75834738D01*
X196049845Y-75817702D01*
X196049000Y-75800500D01*
X196049000Y-75449500D01*
X196049845Y-75432298D01*
X196052372Y-75415262D01*
X196056557Y-75398555D01*
X196062359Y-75382339D01*
X196069723Y-75366770D01*
X196078577Y-75351997D01*
X196088837Y-75338164D01*
X196100403Y-75325403D01*
X196113164Y-75313837D01*
X196126997Y-75303577D01*
X196141770Y-75294723D01*
X196157339Y-75287359D01*
X196173555Y-75281557D01*
X196190262Y-75277372D01*
X196207298Y-75274845D01*
X196224500Y-75274000D01*
X197675500Y-75274000D01*
X197692702Y-75274845D01*
G37*
G36*
X197692702Y-76524845D02*
G01*
X197709738Y-76527372D01*
X197726445Y-76531557D01*
X197742661Y-76537359D01*
X197758230Y-76544723D01*
X197773003Y-76553577D01*
X197786836Y-76563837D01*
X197799597Y-76575403D01*
X197811163Y-76588164D01*
X197821423Y-76601997D01*
X197830277Y-76616770D01*
X197837641Y-76632339D01*
X197843443Y-76648555D01*
X197847628Y-76665262D01*
X197850155Y-76682298D01*
X197851000Y-76699500D01*
X197851000Y-77050500D01*
X197850155Y-77067702D01*
X197847628Y-77084738D01*
X197843443Y-77101445D01*
X197837641Y-77117661D01*
X197830277Y-77133230D01*
X197821423Y-77148003D01*
X197811163Y-77161836D01*
X197799597Y-77174597D01*
X197786836Y-77186163D01*
X197773003Y-77196423D01*
X197758230Y-77205277D01*
X197742661Y-77212641D01*
X197726445Y-77218443D01*
X197709738Y-77222628D01*
X197692702Y-77225155D01*
X197675500Y-77226000D01*
X196224500Y-77226000D01*
X196207298Y-77225155D01*
X196190262Y-77222628D01*
X196173555Y-77218443D01*
X196157339Y-77212641D01*
X196141770Y-77205277D01*
X196126997Y-77196423D01*
X196113164Y-77186163D01*
X196100403Y-77174597D01*
X196088837Y-77161836D01*
X196078577Y-77148003D01*
X196069723Y-77133230D01*
X196062359Y-77117661D01*
X196056557Y-77101445D01*
X196052372Y-77084738D01*
X196049845Y-77067702D01*
X196049000Y-77050500D01*
X196049000Y-76699500D01*
X196049845Y-76682298D01*
X196052372Y-76665262D01*
X196056557Y-76648555D01*
X196062359Y-76632339D01*
X196069723Y-76616770D01*
X196078577Y-76601997D01*
X196088837Y-76588164D01*
X196100403Y-76575403D01*
X196113164Y-76563837D01*
X196126997Y-76553577D01*
X196141770Y-76544723D01*
X196157339Y-76537359D01*
X196173555Y-76531557D01*
X196190262Y-76527372D01*
X196207298Y-76524845D01*
X196224500Y-76524000D01*
X197675500Y-76524000D01*
X197692702Y-76524845D01*
G37*
G36*
X172302504Y-70725327D02*
G01*
X172329247Y-70729294D01*
X172355473Y-70735863D01*
X172380929Y-70744971D01*
X172405370Y-70756531D01*
X172428560Y-70770430D01*
X172450275Y-70786536D01*
X172470308Y-70804692D01*
X172488464Y-70824725D01*
X172504570Y-70846440D01*
X172518469Y-70869630D01*
X172530029Y-70894071D01*
X172539137Y-70919527D01*
X172545706Y-70945753D01*
X172549673Y-70972496D01*
X172551000Y-70999500D01*
X172551000Y-71550500D01*
X172549673Y-71577504D01*
X172545706Y-71604247D01*
X172539137Y-71630473D01*
X172530029Y-71655929D01*
X172518469Y-71680370D01*
X172504570Y-71703560D01*
X172488464Y-71725275D01*
X172470308Y-71745308D01*
X172450275Y-71763464D01*
X172428560Y-71779570D01*
X172405370Y-71793469D01*
X172380929Y-71805029D01*
X172355473Y-71814137D01*
X172329247Y-71820706D01*
X172302504Y-71824673D01*
X172275500Y-71826000D01*
X169924500Y-71826000D01*
X169897496Y-71824673D01*
X169870753Y-71820706D01*
X169844527Y-71814137D01*
X169819071Y-71805029D01*
X169794630Y-71793469D01*
X169771440Y-71779570D01*
X169749725Y-71763464D01*
X169729692Y-71745308D01*
X169711536Y-71725275D01*
X169695430Y-71703560D01*
X169681531Y-71680370D01*
X169669971Y-71655929D01*
X169660863Y-71630473D01*
X169654294Y-71604247D01*
X169650327Y-71577504D01*
X169649000Y-71550500D01*
X169649000Y-70999500D01*
X169650327Y-70972496D01*
X169654294Y-70945753D01*
X169660863Y-70919527D01*
X169669971Y-70894071D01*
X169681531Y-70869630D01*
X169695430Y-70846440D01*
X169711536Y-70824725D01*
X169729692Y-70804692D01*
X169749725Y-70786536D01*
X169771440Y-70770430D01*
X169794630Y-70756531D01*
X169819071Y-70744971D01*
X169844527Y-70735863D01*
X169870753Y-70729294D01*
X169897496Y-70725327D01*
X169924500Y-70724000D01*
X172275500Y-70724000D01*
X172302504Y-70725327D01*
G37*
G36*
X172302504Y-78175327D02*
G01*
X172329247Y-78179294D01*
X172355473Y-78185863D01*
X172380929Y-78194971D01*
X172405370Y-78206531D01*
X172428560Y-78220430D01*
X172450275Y-78236536D01*
X172470308Y-78254692D01*
X172488464Y-78274725D01*
X172504570Y-78296440D01*
X172518469Y-78319630D01*
X172530029Y-78344071D01*
X172539137Y-78369527D01*
X172545706Y-78395753D01*
X172549673Y-78422496D01*
X172551000Y-78449500D01*
X172551000Y-79000500D01*
X172549673Y-79027504D01*
X172545706Y-79054247D01*
X172539137Y-79080473D01*
X172530029Y-79105929D01*
X172518469Y-79130370D01*
X172504570Y-79153560D01*
X172488464Y-79175275D01*
X172470308Y-79195308D01*
X172450275Y-79213464D01*
X172428560Y-79229570D01*
X172405370Y-79243469D01*
X172380929Y-79255029D01*
X172355473Y-79264137D01*
X172329247Y-79270706D01*
X172302504Y-79274673D01*
X172275500Y-79276000D01*
X169924500Y-79276000D01*
X169897496Y-79274673D01*
X169870753Y-79270706D01*
X169844527Y-79264137D01*
X169819071Y-79255029D01*
X169794630Y-79243469D01*
X169771440Y-79229570D01*
X169749725Y-79213464D01*
X169729692Y-79195308D01*
X169711536Y-79175275D01*
X169695430Y-79153560D01*
X169681531Y-79130370D01*
X169669971Y-79105929D01*
X169660863Y-79080473D01*
X169654294Y-79054247D01*
X169650327Y-79027504D01*
X169649000Y-79000500D01*
X169649000Y-78449500D01*
X169650327Y-78422496D01*
X169654294Y-78395753D01*
X169660863Y-78369527D01*
X169669971Y-78344071D01*
X169681531Y-78319630D01*
X169695430Y-78296440D01*
X169711536Y-78274725D01*
X169729692Y-78254692D01*
X169749725Y-78236536D01*
X169771440Y-78220430D01*
X169794630Y-78206531D01*
X169819071Y-78194971D01*
X169844527Y-78185863D01*
X169870753Y-78179294D01*
X169897496Y-78175327D01*
X169924500Y-78174000D01*
X172275500Y-78174000D01*
X172302504Y-78175327D01*
G37*
G36*
X175192702Y-72774845D02*
G01*
X175209738Y-72777372D01*
X175226445Y-72781557D01*
X175242661Y-72787359D01*
X175258230Y-72794723D01*
X175273003Y-72803577D01*
X175286836Y-72813837D01*
X175299597Y-72825403D01*
X175311163Y-72838164D01*
X175321423Y-72851997D01*
X175330277Y-72866770D01*
X175337641Y-72882339D01*
X175343443Y-72898555D01*
X175347628Y-72915262D01*
X175350155Y-72932298D01*
X175351000Y-72949500D01*
X175351000Y-73300500D01*
X175350155Y-73317702D01*
X175347628Y-73334738D01*
X175343443Y-73351445D01*
X175337641Y-73367661D01*
X175330277Y-73383230D01*
X175321423Y-73398003D01*
X175311163Y-73411836D01*
X175299597Y-73424597D01*
X175286836Y-73436163D01*
X175273003Y-73446423D01*
X175258230Y-73455277D01*
X175242661Y-73462641D01*
X175226445Y-73468443D01*
X175209738Y-73472628D01*
X175192702Y-73475155D01*
X175175500Y-73476000D01*
X173724500Y-73476000D01*
X173707298Y-73475155D01*
X173690262Y-73472628D01*
X173673555Y-73468443D01*
X173657339Y-73462641D01*
X173641770Y-73455277D01*
X173626997Y-73446423D01*
X173613164Y-73436163D01*
X173600403Y-73424597D01*
X173588837Y-73411836D01*
X173578577Y-73398003D01*
X173569723Y-73383230D01*
X173562359Y-73367661D01*
X173556557Y-73351445D01*
X173552372Y-73334738D01*
X173549845Y-73317702D01*
X173549000Y-73300500D01*
X173549000Y-72949500D01*
X173549845Y-72932298D01*
X173552372Y-72915262D01*
X173556557Y-72898555D01*
X173562359Y-72882339D01*
X173569723Y-72866770D01*
X173578577Y-72851997D01*
X173588837Y-72838164D01*
X173600403Y-72825403D01*
X173613164Y-72813837D01*
X173626997Y-72803577D01*
X173641770Y-72794723D01*
X173657339Y-72787359D01*
X173673555Y-72781557D01*
X173690262Y-72777372D01*
X173707298Y-72774845D01*
X173724500Y-72774000D01*
X175175500Y-72774000D01*
X175192702Y-72774845D01*
G37*
G36*
X175192702Y-74024845D02*
G01*
X175209738Y-74027372D01*
X175226445Y-74031557D01*
X175242661Y-74037359D01*
X175258230Y-74044723D01*
X175273003Y-74053577D01*
X175286836Y-74063837D01*
X175299597Y-74075403D01*
X175311163Y-74088164D01*
X175321423Y-74101997D01*
X175330277Y-74116770D01*
X175337641Y-74132339D01*
X175343443Y-74148555D01*
X175347628Y-74165262D01*
X175350155Y-74182298D01*
X175351000Y-74199500D01*
X175351000Y-74550500D01*
X175350155Y-74567702D01*
X175347628Y-74584738D01*
X175343443Y-74601445D01*
X175337641Y-74617661D01*
X175330277Y-74633230D01*
X175321423Y-74648003D01*
X175311163Y-74661836D01*
X175299597Y-74674597D01*
X175286836Y-74686163D01*
X175273003Y-74696423D01*
X175258230Y-74705277D01*
X175242661Y-74712641D01*
X175226445Y-74718443D01*
X175209738Y-74722628D01*
X175192702Y-74725155D01*
X175175500Y-74726000D01*
X173724500Y-74726000D01*
X173707298Y-74725155D01*
X173690262Y-74722628D01*
X173673555Y-74718443D01*
X173657339Y-74712641D01*
X173641770Y-74705277D01*
X173626997Y-74696423D01*
X173613164Y-74686163D01*
X173600403Y-74674597D01*
X173588837Y-74661836D01*
X173578577Y-74648003D01*
X173569723Y-74633230D01*
X173562359Y-74617661D01*
X173556557Y-74601445D01*
X173552372Y-74584738D01*
X173549845Y-74567702D01*
X173549000Y-74550500D01*
X173549000Y-74199500D01*
X173549845Y-74182298D01*
X173552372Y-74165262D01*
X173556557Y-74148555D01*
X173562359Y-74132339D01*
X173569723Y-74116770D01*
X173578577Y-74101997D01*
X173588837Y-74088164D01*
X173600403Y-74075403D01*
X173613164Y-74063837D01*
X173626997Y-74053577D01*
X173641770Y-74044723D01*
X173657339Y-74037359D01*
X173673555Y-74031557D01*
X173690262Y-74027372D01*
X173707298Y-74024845D01*
X173724500Y-74024000D01*
X175175500Y-74024000D01*
X175192702Y-74024845D01*
G37*
G36*
X175192702Y-75274845D02*
G01*
X175209738Y-75277372D01*
X175226445Y-75281557D01*
X175242661Y-75287359D01*
X175258230Y-75294723D01*
X175273003Y-75303577D01*
X175286836Y-75313837D01*
X175299597Y-75325403D01*
X175311163Y-75338164D01*
X175321423Y-75351997D01*
X175330277Y-75366770D01*
X175337641Y-75382339D01*
X175343443Y-75398555D01*
X175347628Y-75415262D01*
X175350155Y-75432298D01*
X175351000Y-75449500D01*
X175351000Y-75800500D01*
X175350155Y-75817702D01*
X175347628Y-75834738D01*
X175343443Y-75851445D01*
X175337641Y-75867661D01*
X175330277Y-75883230D01*
X175321423Y-75898003D01*
X175311163Y-75911836D01*
X175299597Y-75924597D01*
X175286836Y-75936163D01*
X175273003Y-75946423D01*
X175258230Y-75955277D01*
X175242661Y-75962641D01*
X175226445Y-75968443D01*
X175209738Y-75972628D01*
X175192702Y-75975155D01*
X175175500Y-75976000D01*
X173724500Y-75976000D01*
X173707298Y-75975155D01*
X173690262Y-75972628D01*
X173673555Y-75968443D01*
X173657339Y-75962641D01*
X173641770Y-75955277D01*
X173626997Y-75946423D01*
X173613164Y-75936163D01*
X173600403Y-75924597D01*
X173588837Y-75911836D01*
X173578577Y-75898003D01*
X173569723Y-75883230D01*
X173562359Y-75867661D01*
X173556557Y-75851445D01*
X173552372Y-75834738D01*
X173549845Y-75817702D01*
X173549000Y-75800500D01*
X173549000Y-75449500D01*
X173549845Y-75432298D01*
X173552372Y-75415262D01*
X173556557Y-75398555D01*
X173562359Y-75382339D01*
X173569723Y-75366770D01*
X173578577Y-75351997D01*
X173588837Y-75338164D01*
X173600403Y-75325403D01*
X173613164Y-75313837D01*
X173626997Y-75303577D01*
X173641770Y-75294723D01*
X173657339Y-75287359D01*
X173673555Y-75281557D01*
X173690262Y-75277372D01*
X173707298Y-75274845D01*
X173724500Y-75274000D01*
X175175500Y-75274000D01*
X175192702Y-75274845D01*
G37*
G36*
X175192702Y-76524845D02*
G01*
X175209738Y-76527372D01*
X175226445Y-76531557D01*
X175242661Y-76537359D01*
X175258230Y-76544723D01*
X175273003Y-76553577D01*
X175286836Y-76563837D01*
X175299597Y-76575403D01*
X175311163Y-76588164D01*
X175321423Y-76601997D01*
X175330277Y-76616770D01*
X175337641Y-76632339D01*
X175343443Y-76648555D01*
X175347628Y-76665262D01*
X175350155Y-76682298D01*
X175351000Y-76699500D01*
X175351000Y-77050500D01*
X175350155Y-77067702D01*
X175347628Y-77084738D01*
X175343443Y-77101445D01*
X175337641Y-77117661D01*
X175330277Y-77133230D01*
X175321423Y-77148003D01*
X175311163Y-77161836D01*
X175299597Y-77174597D01*
X175286836Y-77186163D01*
X175273003Y-77196423D01*
X175258230Y-77205277D01*
X175242661Y-77212641D01*
X175226445Y-77218443D01*
X175209738Y-77222628D01*
X175192702Y-77225155D01*
X175175500Y-77226000D01*
X173724500Y-77226000D01*
X173707298Y-77225155D01*
X173690262Y-77222628D01*
X173673555Y-77218443D01*
X173657339Y-77212641D01*
X173641770Y-77205277D01*
X173626997Y-77196423D01*
X173613164Y-77186163D01*
X173600403Y-77174597D01*
X173588837Y-77161836D01*
X173578577Y-77148003D01*
X173569723Y-77133230D01*
X173562359Y-77117661D01*
X173556557Y-77101445D01*
X173552372Y-77084738D01*
X173549845Y-77067702D01*
X173549000Y-77050500D01*
X173549000Y-76699500D01*
X173549845Y-76682298D01*
X173552372Y-76665262D01*
X173556557Y-76648555D01*
X173562359Y-76632339D01*
X173569723Y-76616770D01*
X173578577Y-76601997D01*
X173588837Y-76588164D01*
X173600403Y-76575403D01*
X173613164Y-76563837D01*
X173626997Y-76553577D01*
X173641770Y-76544723D01*
X173657339Y-76537359D01*
X173673555Y-76531557D01*
X173690262Y-76527372D01*
X173707298Y-76524845D01*
X173724500Y-76524000D01*
X175175500Y-76524000D01*
X175192702Y-76524845D01*
G37*
G36*
X202302504Y-70725327D02*
G01*
X202329247Y-70729294D01*
X202355473Y-70735863D01*
X202380929Y-70744971D01*
X202405370Y-70756531D01*
X202428560Y-70770430D01*
X202450275Y-70786536D01*
X202470308Y-70804692D01*
X202488464Y-70824725D01*
X202504570Y-70846440D01*
X202518469Y-70869630D01*
X202530029Y-70894071D01*
X202539137Y-70919527D01*
X202545706Y-70945753D01*
X202549673Y-70972496D01*
X202551000Y-70999500D01*
X202551000Y-71550500D01*
X202549673Y-71577504D01*
X202545706Y-71604247D01*
X202539137Y-71630473D01*
X202530029Y-71655929D01*
X202518469Y-71680370D01*
X202504570Y-71703560D01*
X202488464Y-71725275D01*
X202470308Y-71745308D01*
X202450275Y-71763464D01*
X202428560Y-71779570D01*
X202405370Y-71793469D01*
X202380929Y-71805029D01*
X202355473Y-71814137D01*
X202329247Y-71820706D01*
X202302504Y-71824673D01*
X202275500Y-71826000D01*
X199924500Y-71826000D01*
X199897496Y-71824673D01*
X199870753Y-71820706D01*
X199844527Y-71814137D01*
X199819071Y-71805029D01*
X199794630Y-71793469D01*
X199771440Y-71779570D01*
X199749725Y-71763464D01*
X199729692Y-71745308D01*
X199711536Y-71725275D01*
X199695430Y-71703560D01*
X199681531Y-71680370D01*
X199669971Y-71655929D01*
X199660863Y-71630473D01*
X199654294Y-71604247D01*
X199650327Y-71577504D01*
X199649000Y-71550500D01*
X199649000Y-70999500D01*
X199650327Y-70972496D01*
X199654294Y-70945753D01*
X199660863Y-70919527D01*
X199669971Y-70894071D01*
X199681531Y-70869630D01*
X199695430Y-70846440D01*
X199711536Y-70824725D01*
X199729692Y-70804692D01*
X199749725Y-70786536D01*
X199771440Y-70770430D01*
X199794630Y-70756531D01*
X199819071Y-70744971D01*
X199844527Y-70735863D01*
X199870753Y-70729294D01*
X199897496Y-70725327D01*
X199924500Y-70724000D01*
X202275500Y-70724000D01*
X202302504Y-70725327D01*
G37*
G36*
X202302504Y-78175327D02*
G01*
X202329247Y-78179294D01*
X202355473Y-78185863D01*
X202380929Y-78194971D01*
X202405370Y-78206531D01*
X202428560Y-78220430D01*
X202450275Y-78236536D01*
X202470308Y-78254692D01*
X202488464Y-78274725D01*
X202504570Y-78296440D01*
X202518469Y-78319630D01*
X202530029Y-78344071D01*
X202539137Y-78369527D01*
X202545706Y-78395753D01*
X202549673Y-78422496D01*
X202551000Y-78449500D01*
X202551000Y-79000500D01*
X202549673Y-79027504D01*
X202545706Y-79054247D01*
X202539137Y-79080473D01*
X202530029Y-79105929D01*
X202518469Y-79130370D01*
X202504570Y-79153560D01*
X202488464Y-79175275D01*
X202470308Y-79195308D01*
X202450275Y-79213464D01*
X202428560Y-79229570D01*
X202405370Y-79243469D01*
X202380929Y-79255029D01*
X202355473Y-79264137D01*
X202329247Y-79270706D01*
X202302504Y-79274673D01*
X202275500Y-79276000D01*
X199924500Y-79276000D01*
X199897496Y-79274673D01*
X199870753Y-79270706D01*
X199844527Y-79264137D01*
X199819071Y-79255029D01*
X199794630Y-79243469D01*
X199771440Y-79229570D01*
X199749725Y-79213464D01*
X199729692Y-79195308D01*
X199711536Y-79175275D01*
X199695430Y-79153560D01*
X199681531Y-79130370D01*
X199669971Y-79105929D01*
X199660863Y-79080473D01*
X199654294Y-79054247D01*
X199650327Y-79027504D01*
X199649000Y-79000500D01*
X199649000Y-78449500D01*
X199650327Y-78422496D01*
X199654294Y-78395753D01*
X199660863Y-78369527D01*
X199669971Y-78344071D01*
X199681531Y-78319630D01*
X199695430Y-78296440D01*
X199711536Y-78274725D01*
X199729692Y-78254692D01*
X199749725Y-78236536D01*
X199771440Y-78220430D01*
X199794630Y-78206531D01*
X199819071Y-78194971D01*
X199844527Y-78185863D01*
X199870753Y-78179294D01*
X199897496Y-78175327D01*
X199924500Y-78174000D01*
X202275500Y-78174000D01*
X202302504Y-78175327D01*
G37*
G36*
X205192702Y-72774845D02*
G01*
X205209738Y-72777372D01*
X205226445Y-72781557D01*
X205242661Y-72787359D01*
X205258230Y-72794723D01*
X205273003Y-72803577D01*
X205286836Y-72813837D01*
X205299597Y-72825403D01*
X205311163Y-72838164D01*
X205321423Y-72851997D01*
X205330277Y-72866770D01*
X205337641Y-72882339D01*
X205343443Y-72898555D01*
X205347628Y-72915262D01*
X205350155Y-72932298D01*
X205351000Y-72949500D01*
X205351000Y-73300500D01*
X205350155Y-73317702D01*
X205347628Y-73334738D01*
X205343443Y-73351445D01*
X205337641Y-73367661D01*
X205330277Y-73383230D01*
X205321423Y-73398003D01*
X205311163Y-73411836D01*
X205299597Y-73424597D01*
X205286836Y-73436163D01*
X205273003Y-73446423D01*
X205258230Y-73455277D01*
X205242661Y-73462641D01*
X205226445Y-73468443D01*
X205209738Y-73472628D01*
X205192702Y-73475155D01*
X205175500Y-73476000D01*
X203724500Y-73476000D01*
X203707298Y-73475155D01*
X203690262Y-73472628D01*
X203673555Y-73468443D01*
X203657339Y-73462641D01*
X203641770Y-73455277D01*
X203626997Y-73446423D01*
X203613164Y-73436163D01*
X203600403Y-73424597D01*
X203588837Y-73411836D01*
X203578577Y-73398003D01*
X203569723Y-73383230D01*
X203562359Y-73367661D01*
X203556557Y-73351445D01*
X203552372Y-73334738D01*
X203549845Y-73317702D01*
X203549000Y-73300500D01*
X203549000Y-72949500D01*
X203549845Y-72932298D01*
X203552372Y-72915262D01*
X203556557Y-72898555D01*
X203562359Y-72882339D01*
X203569723Y-72866770D01*
X203578577Y-72851997D01*
X203588837Y-72838164D01*
X203600403Y-72825403D01*
X203613164Y-72813837D01*
X203626997Y-72803577D01*
X203641770Y-72794723D01*
X203657339Y-72787359D01*
X203673555Y-72781557D01*
X203690262Y-72777372D01*
X203707298Y-72774845D01*
X203724500Y-72774000D01*
X205175500Y-72774000D01*
X205192702Y-72774845D01*
G37*
G36*
X205192702Y-74024845D02*
G01*
X205209738Y-74027372D01*
X205226445Y-74031557D01*
X205242661Y-74037359D01*
X205258230Y-74044723D01*
X205273003Y-74053577D01*
X205286836Y-74063837D01*
X205299597Y-74075403D01*
X205311163Y-74088164D01*
X205321423Y-74101997D01*
X205330277Y-74116770D01*
X205337641Y-74132339D01*
X205343443Y-74148555D01*
X205347628Y-74165262D01*
X205350155Y-74182298D01*
X205351000Y-74199500D01*
X205351000Y-74550500D01*
X205350155Y-74567702D01*
X205347628Y-74584738D01*
X205343443Y-74601445D01*
X205337641Y-74617661D01*
X205330277Y-74633230D01*
X205321423Y-74648003D01*
X205311163Y-74661836D01*
X205299597Y-74674597D01*
X205286836Y-74686163D01*
X205273003Y-74696423D01*
X205258230Y-74705277D01*
X205242661Y-74712641D01*
X205226445Y-74718443D01*
X205209738Y-74722628D01*
X205192702Y-74725155D01*
X205175500Y-74726000D01*
X203724500Y-74726000D01*
X203707298Y-74725155D01*
X203690262Y-74722628D01*
X203673555Y-74718443D01*
X203657339Y-74712641D01*
X203641770Y-74705277D01*
X203626997Y-74696423D01*
X203613164Y-74686163D01*
X203600403Y-74674597D01*
X203588837Y-74661836D01*
X203578577Y-74648003D01*
X203569723Y-74633230D01*
X203562359Y-74617661D01*
X203556557Y-74601445D01*
X203552372Y-74584738D01*
X203549845Y-74567702D01*
X203549000Y-74550500D01*
X203549000Y-74199500D01*
X203549845Y-74182298D01*
X203552372Y-74165262D01*
X203556557Y-74148555D01*
X203562359Y-74132339D01*
X203569723Y-74116770D01*
X203578577Y-74101997D01*
X203588837Y-74088164D01*
X203600403Y-74075403D01*
X203613164Y-74063837D01*
X203626997Y-74053577D01*
X203641770Y-74044723D01*
X203657339Y-74037359D01*
X203673555Y-74031557D01*
X203690262Y-74027372D01*
X203707298Y-74024845D01*
X203724500Y-74024000D01*
X205175500Y-74024000D01*
X205192702Y-74024845D01*
G37*
G36*
X205192702Y-75274845D02*
G01*
X205209738Y-75277372D01*
X205226445Y-75281557D01*
X205242661Y-75287359D01*
X205258230Y-75294723D01*
X205273003Y-75303577D01*
X205286836Y-75313837D01*
X205299597Y-75325403D01*
X205311163Y-75338164D01*
X205321423Y-75351997D01*
X205330277Y-75366770D01*
X205337641Y-75382339D01*
X205343443Y-75398555D01*
X205347628Y-75415262D01*
X205350155Y-75432298D01*
X205351000Y-75449500D01*
X205351000Y-75800500D01*
X205350155Y-75817702D01*
X205347628Y-75834738D01*
X205343443Y-75851445D01*
X205337641Y-75867661D01*
X205330277Y-75883230D01*
X205321423Y-75898003D01*
X205311163Y-75911836D01*
X205299597Y-75924597D01*
X205286836Y-75936163D01*
X205273003Y-75946423D01*
X205258230Y-75955277D01*
X205242661Y-75962641D01*
X205226445Y-75968443D01*
X205209738Y-75972628D01*
X205192702Y-75975155D01*
X205175500Y-75976000D01*
X203724500Y-75976000D01*
X203707298Y-75975155D01*
X203690262Y-75972628D01*
X203673555Y-75968443D01*
X203657339Y-75962641D01*
X203641770Y-75955277D01*
X203626997Y-75946423D01*
X203613164Y-75936163D01*
X203600403Y-75924597D01*
X203588837Y-75911836D01*
X203578577Y-75898003D01*
X203569723Y-75883230D01*
X203562359Y-75867661D01*
X203556557Y-75851445D01*
X203552372Y-75834738D01*
X203549845Y-75817702D01*
X203549000Y-75800500D01*
X203549000Y-75449500D01*
X203549845Y-75432298D01*
X203552372Y-75415262D01*
X203556557Y-75398555D01*
X203562359Y-75382339D01*
X203569723Y-75366770D01*
X203578577Y-75351997D01*
X203588837Y-75338164D01*
X203600403Y-75325403D01*
X203613164Y-75313837D01*
X203626997Y-75303577D01*
X203641770Y-75294723D01*
X203657339Y-75287359D01*
X203673555Y-75281557D01*
X203690262Y-75277372D01*
X203707298Y-75274845D01*
X203724500Y-75274000D01*
X205175500Y-75274000D01*
X205192702Y-75274845D01*
G37*
G36*
X205192702Y-76524845D02*
G01*
X205209738Y-76527372D01*
X205226445Y-76531557D01*
X205242661Y-76537359D01*
X205258230Y-76544723D01*
X205273003Y-76553577D01*
X205286836Y-76563837D01*
X205299597Y-76575403D01*
X205311163Y-76588164D01*
X205321423Y-76601997D01*
X205330277Y-76616770D01*
X205337641Y-76632339D01*
X205343443Y-76648555D01*
X205347628Y-76665262D01*
X205350155Y-76682298D01*
X205351000Y-76699500D01*
X205351000Y-77050500D01*
X205350155Y-77067702D01*
X205347628Y-77084738D01*
X205343443Y-77101445D01*
X205337641Y-77117661D01*
X205330277Y-77133230D01*
X205321423Y-77148003D01*
X205311163Y-77161836D01*
X205299597Y-77174597D01*
X205286836Y-77186163D01*
X205273003Y-77196423D01*
X205258230Y-77205277D01*
X205242661Y-77212641D01*
X205226445Y-77218443D01*
X205209738Y-77222628D01*
X205192702Y-77225155D01*
X205175500Y-77226000D01*
X203724500Y-77226000D01*
X203707298Y-77225155D01*
X203690262Y-77222628D01*
X203673555Y-77218443D01*
X203657339Y-77212641D01*
X203641770Y-77205277D01*
X203626997Y-77196423D01*
X203613164Y-77186163D01*
X203600403Y-77174597D01*
X203588837Y-77161836D01*
X203578577Y-77148003D01*
X203569723Y-77133230D01*
X203562359Y-77117661D01*
X203556557Y-77101445D01*
X203552372Y-77084738D01*
X203549845Y-77067702D01*
X203549000Y-77050500D01*
X203549000Y-76699500D01*
X203549845Y-76682298D01*
X203552372Y-76665262D01*
X203556557Y-76648555D01*
X203562359Y-76632339D01*
X203569723Y-76616770D01*
X203578577Y-76601997D01*
X203588837Y-76588164D01*
X203600403Y-76575403D01*
X203613164Y-76563837D01*
X203626997Y-76553577D01*
X203641770Y-76544723D01*
X203657339Y-76537359D01*
X203673555Y-76531557D01*
X203690262Y-76527372D01*
X203707298Y-76524845D01*
X203724500Y-76524000D01*
X205175500Y-76524000D01*
X205192702Y-76524845D01*
G37*
G36*
X187302504Y-70725327D02*
G01*
X187329247Y-70729294D01*
X187355473Y-70735863D01*
X187380929Y-70744971D01*
X187405370Y-70756531D01*
X187428560Y-70770430D01*
X187450275Y-70786536D01*
X187470308Y-70804692D01*
X187488464Y-70824725D01*
X187504570Y-70846440D01*
X187518469Y-70869630D01*
X187530029Y-70894071D01*
X187539137Y-70919527D01*
X187545706Y-70945753D01*
X187549673Y-70972496D01*
X187551000Y-70999500D01*
X187551000Y-71550500D01*
X187549673Y-71577504D01*
X187545706Y-71604247D01*
X187539137Y-71630473D01*
X187530029Y-71655929D01*
X187518469Y-71680370D01*
X187504570Y-71703560D01*
X187488464Y-71725275D01*
X187470308Y-71745308D01*
X187450275Y-71763464D01*
X187428560Y-71779570D01*
X187405370Y-71793469D01*
X187380929Y-71805029D01*
X187355473Y-71814137D01*
X187329247Y-71820706D01*
X187302504Y-71824673D01*
X187275500Y-71826000D01*
X184924500Y-71826000D01*
X184897496Y-71824673D01*
X184870753Y-71820706D01*
X184844527Y-71814137D01*
X184819071Y-71805029D01*
X184794630Y-71793469D01*
X184771440Y-71779570D01*
X184749725Y-71763464D01*
X184729692Y-71745308D01*
X184711536Y-71725275D01*
X184695430Y-71703560D01*
X184681531Y-71680370D01*
X184669971Y-71655929D01*
X184660863Y-71630473D01*
X184654294Y-71604247D01*
X184650327Y-71577504D01*
X184649000Y-71550500D01*
X184649000Y-70999500D01*
X184650327Y-70972496D01*
X184654294Y-70945753D01*
X184660863Y-70919527D01*
X184669971Y-70894071D01*
X184681531Y-70869630D01*
X184695430Y-70846440D01*
X184711536Y-70824725D01*
X184729692Y-70804692D01*
X184749725Y-70786536D01*
X184771440Y-70770430D01*
X184794630Y-70756531D01*
X184819071Y-70744971D01*
X184844527Y-70735863D01*
X184870753Y-70729294D01*
X184897496Y-70725327D01*
X184924500Y-70724000D01*
X187275500Y-70724000D01*
X187302504Y-70725327D01*
G37*
G36*
X187302504Y-78175327D02*
G01*
X187329247Y-78179294D01*
X187355473Y-78185863D01*
X187380929Y-78194971D01*
X187405370Y-78206531D01*
X187428560Y-78220430D01*
X187450275Y-78236536D01*
X187470308Y-78254692D01*
X187488464Y-78274725D01*
X187504570Y-78296440D01*
X187518469Y-78319630D01*
X187530029Y-78344071D01*
X187539137Y-78369527D01*
X187545706Y-78395753D01*
X187549673Y-78422496D01*
X187551000Y-78449500D01*
X187551000Y-79000500D01*
X187549673Y-79027504D01*
X187545706Y-79054247D01*
X187539137Y-79080473D01*
X187530029Y-79105929D01*
X187518469Y-79130370D01*
X187504570Y-79153560D01*
X187488464Y-79175275D01*
X187470308Y-79195308D01*
X187450275Y-79213464D01*
X187428560Y-79229570D01*
X187405370Y-79243469D01*
X187380929Y-79255029D01*
X187355473Y-79264137D01*
X187329247Y-79270706D01*
X187302504Y-79274673D01*
X187275500Y-79276000D01*
X184924500Y-79276000D01*
X184897496Y-79274673D01*
X184870753Y-79270706D01*
X184844527Y-79264137D01*
X184819071Y-79255029D01*
X184794630Y-79243469D01*
X184771440Y-79229570D01*
X184749725Y-79213464D01*
X184729692Y-79195308D01*
X184711536Y-79175275D01*
X184695430Y-79153560D01*
X184681531Y-79130370D01*
X184669971Y-79105929D01*
X184660863Y-79080473D01*
X184654294Y-79054247D01*
X184650327Y-79027504D01*
X184649000Y-79000500D01*
X184649000Y-78449500D01*
X184650327Y-78422496D01*
X184654294Y-78395753D01*
X184660863Y-78369527D01*
X184669971Y-78344071D01*
X184681531Y-78319630D01*
X184695430Y-78296440D01*
X184711536Y-78274725D01*
X184729692Y-78254692D01*
X184749725Y-78236536D01*
X184771440Y-78220430D01*
X184794630Y-78206531D01*
X184819071Y-78194971D01*
X184844527Y-78185863D01*
X184870753Y-78179294D01*
X184897496Y-78175327D01*
X184924500Y-78174000D01*
X187275500Y-78174000D01*
X187302504Y-78175327D01*
G37*
G36*
X190192702Y-72774845D02*
G01*
X190209738Y-72777372D01*
X190226445Y-72781557D01*
X190242661Y-72787359D01*
X190258230Y-72794723D01*
X190273003Y-72803577D01*
X190286836Y-72813837D01*
X190299597Y-72825403D01*
X190311163Y-72838164D01*
X190321423Y-72851997D01*
X190330277Y-72866770D01*
X190337641Y-72882339D01*
X190343443Y-72898555D01*
X190347628Y-72915262D01*
X190350155Y-72932298D01*
X190351000Y-72949500D01*
X190351000Y-73300500D01*
X190350155Y-73317702D01*
X190347628Y-73334738D01*
X190343443Y-73351445D01*
X190337641Y-73367661D01*
X190330277Y-73383230D01*
X190321423Y-73398003D01*
X190311163Y-73411836D01*
X190299597Y-73424597D01*
X190286836Y-73436163D01*
X190273003Y-73446423D01*
X190258230Y-73455277D01*
X190242661Y-73462641D01*
X190226445Y-73468443D01*
X190209738Y-73472628D01*
X190192702Y-73475155D01*
X190175500Y-73476000D01*
X188724500Y-73476000D01*
X188707298Y-73475155D01*
X188690262Y-73472628D01*
X188673555Y-73468443D01*
X188657339Y-73462641D01*
X188641770Y-73455277D01*
X188626997Y-73446423D01*
X188613164Y-73436163D01*
X188600403Y-73424597D01*
X188588837Y-73411836D01*
X188578577Y-73398003D01*
X188569723Y-73383230D01*
X188562359Y-73367661D01*
X188556557Y-73351445D01*
X188552372Y-73334738D01*
X188549845Y-73317702D01*
X188549000Y-73300500D01*
X188549000Y-72949500D01*
X188549845Y-72932298D01*
X188552372Y-72915262D01*
X188556557Y-72898555D01*
X188562359Y-72882339D01*
X188569723Y-72866770D01*
X188578577Y-72851997D01*
X188588837Y-72838164D01*
X188600403Y-72825403D01*
X188613164Y-72813837D01*
X188626997Y-72803577D01*
X188641770Y-72794723D01*
X188657339Y-72787359D01*
X188673555Y-72781557D01*
X188690262Y-72777372D01*
X188707298Y-72774845D01*
X188724500Y-72774000D01*
X190175500Y-72774000D01*
X190192702Y-72774845D01*
G37*
G36*
X190192702Y-74024845D02*
G01*
X190209738Y-74027372D01*
X190226445Y-74031557D01*
X190242661Y-74037359D01*
X190258230Y-74044723D01*
X190273003Y-74053577D01*
X190286836Y-74063837D01*
X190299597Y-74075403D01*
X190311163Y-74088164D01*
X190321423Y-74101997D01*
X190330277Y-74116770D01*
X190337641Y-74132339D01*
X190343443Y-74148555D01*
X190347628Y-74165262D01*
X190350155Y-74182298D01*
X190351000Y-74199500D01*
X190351000Y-74550500D01*
X190350155Y-74567702D01*
X190347628Y-74584738D01*
X190343443Y-74601445D01*
X190337641Y-74617661D01*
X190330277Y-74633230D01*
X190321423Y-74648003D01*
X190311163Y-74661836D01*
X190299597Y-74674597D01*
X190286836Y-74686163D01*
X190273003Y-74696423D01*
X190258230Y-74705277D01*
X190242661Y-74712641D01*
X190226445Y-74718443D01*
X190209738Y-74722628D01*
X190192702Y-74725155D01*
X190175500Y-74726000D01*
X188724500Y-74726000D01*
X188707298Y-74725155D01*
X188690262Y-74722628D01*
X188673555Y-74718443D01*
X188657339Y-74712641D01*
X188641770Y-74705277D01*
X188626997Y-74696423D01*
X188613164Y-74686163D01*
X188600403Y-74674597D01*
X188588837Y-74661836D01*
X188578577Y-74648003D01*
X188569723Y-74633230D01*
X188562359Y-74617661D01*
X188556557Y-74601445D01*
X188552372Y-74584738D01*
X188549845Y-74567702D01*
X188549000Y-74550500D01*
X188549000Y-74199500D01*
X188549845Y-74182298D01*
X188552372Y-74165262D01*
X188556557Y-74148555D01*
X188562359Y-74132339D01*
X188569723Y-74116770D01*
X188578577Y-74101997D01*
X188588837Y-74088164D01*
X188600403Y-74075403D01*
X188613164Y-74063837D01*
X188626997Y-74053577D01*
X188641770Y-74044723D01*
X188657339Y-74037359D01*
X188673555Y-74031557D01*
X188690262Y-74027372D01*
X188707298Y-74024845D01*
X188724500Y-74024000D01*
X190175500Y-74024000D01*
X190192702Y-74024845D01*
G37*
G36*
X190192702Y-75274845D02*
G01*
X190209738Y-75277372D01*
X190226445Y-75281557D01*
X190242661Y-75287359D01*
X190258230Y-75294723D01*
X190273003Y-75303577D01*
X190286836Y-75313837D01*
X190299597Y-75325403D01*
X190311163Y-75338164D01*
X190321423Y-75351997D01*
X190330277Y-75366770D01*
X190337641Y-75382339D01*
X190343443Y-75398555D01*
X190347628Y-75415262D01*
X190350155Y-75432298D01*
X190351000Y-75449500D01*
X190351000Y-75800500D01*
X190350155Y-75817702D01*
X190347628Y-75834738D01*
X190343443Y-75851445D01*
X190337641Y-75867661D01*
X190330277Y-75883230D01*
X190321423Y-75898003D01*
X190311163Y-75911836D01*
X190299597Y-75924597D01*
X190286836Y-75936163D01*
X190273003Y-75946423D01*
X190258230Y-75955277D01*
X190242661Y-75962641D01*
X190226445Y-75968443D01*
X190209738Y-75972628D01*
X190192702Y-75975155D01*
X190175500Y-75976000D01*
X188724500Y-75976000D01*
X188707298Y-75975155D01*
X188690262Y-75972628D01*
X188673555Y-75968443D01*
X188657339Y-75962641D01*
X188641770Y-75955277D01*
X188626997Y-75946423D01*
X188613164Y-75936163D01*
X188600403Y-75924597D01*
X188588837Y-75911836D01*
X188578577Y-75898003D01*
X188569723Y-75883230D01*
X188562359Y-75867661D01*
X188556557Y-75851445D01*
X188552372Y-75834738D01*
X188549845Y-75817702D01*
X188549000Y-75800500D01*
X188549000Y-75449500D01*
X188549845Y-75432298D01*
X188552372Y-75415262D01*
X188556557Y-75398555D01*
X188562359Y-75382339D01*
X188569723Y-75366770D01*
X188578577Y-75351997D01*
X188588837Y-75338164D01*
X188600403Y-75325403D01*
X188613164Y-75313837D01*
X188626997Y-75303577D01*
X188641770Y-75294723D01*
X188657339Y-75287359D01*
X188673555Y-75281557D01*
X188690262Y-75277372D01*
X188707298Y-75274845D01*
X188724500Y-75274000D01*
X190175500Y-75274000D01*
X190192702Y-75274845D01*
G37*
G36*
X190192702Y-76524845D02*
G01*
X190209738Y-76527372D01*
X190226445Y-76531557D01*
X190242661Y-76537359D01*
X190258230Y-76544723D01*
X190273003Y-76553577D01*
X190286836Y-76563837D01*
X190299597Y-76575403D01*
X190311163Y-76588164D01*
X190321423Y-76601997D01*
X190330277Y-76616770D01*
X190337641Y-76632339D01*
X190343443Y-76648555D01*
X190347628Y-76665262D01*
X190350155Y-76682298D01*
X190351000Y-76699500D01*
X190351000Y-77050500D01*
X190350155Y-77067702D01*
X190347628Y-77084738D01*
X190343443Y-77101445D01*
X190337641Y-77117661D01*
X190330277Y-77133230D01*
X190321423Y-77148003D01*
X190311163Y-77161836D01*
X190299597Y-77174597D01*
X190286836Y-77186163D01*
X190273003Y-77196423D01*
X190258230Y-77205277D01*
X190242661Y-77212641D01*
X190226445Y-77218443D01*
X190209738Y-77222628D01*
X190192702Y-77225155D01*
X190175500Y-77226000D01*
X188724500Y-77226000D01*
X188707298Y-77225155D01*
X188690262Y-77222628D01*
X188673555Y-77218443D01*
X188657339Y-77212641D01*
X188641770Y-77205277D01*
X188626997Y-77196423D01*
X188613164Y-77186163D01*
X188600403Y-77174597D01*
X188588837Y-77161836D01*
X188578577Y-77148003D01*
X188569723Y-77133230D01*
X188562359Y-77117661D01*
X188556557Y-77101445D01*
X188552372Y-77084738D01*
X188549845Y-77067702D01*
X188549000Y-77050500D01*
X188549000Y-76699500D01*
X188549845Y-76682298D01*
X188552372Y-76665262D01*
X188556557Y-76648555D01*
X188562359Y-76632339D01*
X188569723Y-76616770D01*
X188578577Y-76601997D01*
X188588837Y-76588164D01*
X188600403Y-76575403D01*
X188613164Y-76563837D01*
X188626997Y-76553577D01*
X188641770Y-76544723D01*
X188657339Y-76537359D01*
X188673555Y-76531557D01*
X188690262Y-76527372D01*
X188707298Y-76524845D01*
X188724500Y-76524000D01*
X190175500Y-76524000D01*
X190192702Y-76524845D01*
G37*
G36*
X209802504Y-71975327D02*
G01*
X209829247Y-71979294D01*
X209855473Y-71985863D01*
X209880929Y-71994971D01*
X209905370Y-72006531D01*
X209928560Y-72020430D01*
X209950275Y-72036536D01*
X209970308Y-72054692D01*
X209988464Y-72074725D01*
X210004570Y-72096440D01*
X210018469Y-72119630D01*
X210030029Y-72144071D01*
X210039137Y-72169527D01*
X210045706Y-72195753D01*
X210049673Y-72222496D01*
X210051000Y-72249500D01*
X210051000Y-72800500D01*
X210049673Y-72827504D01*
X210045706Y-72854247D01*
X210039137Y-72880473D01*
X210030029Y-72905929D01*
X210018469Y-72930370D01*
X210004570Y-72953560D01*
X209988464Y-72975275D01*
X209970308Y-72995308D01*
X209950275Y-73013464D01*
X209928560Y-73029570D01*
X209905370Y-73043469D01*
X209880929Y-73055029D01*
X209855473Y-73064137D01*
X209829247Y-73070706D01*
X209802504Y-73074673D01*
X209775500Y-73076000D01*
X207424500Y-73076000D01*
X207397496Y-73074673D01*
X207370753Y-73070706D01*
X207344527Y-73064137D01*
X207319071Y-73055029D01*
X207294630Y-73043469D01*
X207271440Y-73029570D01*
X207249725Y-73013464D01*
X207229692Y-72995308D01*
X207211536Y-72975275D01*
X207195430Y-72953560D01*
X207181531Y-72930370D01*
X207169971Y-72905929D01*
X207160863Y-72880473D01*
X207154294Y-72854247D01*
X207150327Y-72827504D01*
X207149000Y-72800500D01*
X207149000Y-72249500D01*
X207150327Y-72222496D01*
X207154294Y-72195753D01*
X207160863Y-72169527D01*
X207169971Y-72144071D01*
X207181531Y-72119630D01*
X207195430Y-72096440D01*
X207211536Y-72074725D01*
X207229692Y-72054692D01*
X207249725Y-72036536D01*
X207271440Y-72020430D01*
X207294630Y-72006531D01*
X207319071Y-71994971D01*
X207344527Y-71985863D01*
X207370753Y-71979294D01*
X207397496Y-71975327D01*
X207424500Y-71974000D01*
X209775500Y-71974000D01*
X209802504Y-71975327D01*
G37*
G36*
X209802504Y-76925327D02*
G01*
X209829247Y-76929294D01*
X209855473Y-76935863D01*
X209880929Y-76944971D01*
X209905370Y-76956531D01*
X209928560Y-76970430D01*
X209950275Y-76986536D01*
X209970308Y-77004692D01*
X209988464Y-77024725D01*
X210004570Y-77046440D01*
X210018469Y-77069630D01*
X210030029Y-77094071D01*
X210039137Y-77119527D01*
X210045706Y-77145753D01*
X210049673Y-77172496D01*
X210051000Y-77199500D01*
X210051000Y-77750500D01*
X210049673Y-77777504D01*
X210045706Y-77804247D01*
X210039137Y-77830473D01*
X210030029Y-77855929D01*
X210018469Y-77880370D01*
X210004570Y-77903560D01*
X209988464Y-77925275D01*
X209970308Y-77945308D01*
X209950275Y-77963464D01*
X209928560Y-77979570D01*
X209905370Y-77993469D01*
X209880929Y-78005029D01*
X209855473Y-78014137D01*
X209829247Y-78020706D01*
X209802504Y-78024673D01*
X209775500Y-78026000D01*
X207424500Y-78026000D01*
X207397496Y-78024673D01*
X207370753Y-78020706D01*
X207344527Y-78014137D01*
X207319071Y-78005029D01*
X207294630Y-77993469D01*
X207271440Y-77979570D01*
X207249725Y-77963464D01*
X207229692Y-77945308D01*
X207211536Y-77925275D01*
X207195430Y-77903560D01*
X207181531Y-77880370D01*
X207169971Y-77855929D01*
X207160863Y-77830473D01*
X207154294Y-77804247D01*
X207150327Y-77777504D01*
X207149000Y-77750500D01*
X207149000Y-77199500D01*
X207150327Y-77172496D01*
X207154294Y-77145753D01*
X207160863Y-77119527D01*
X207169971Y-77094071D01*
X207181531Y-77069630D01*
X207195430Y-77046440D01*
X207211536Y-77024725D01*
X207229692Y-77004692D01*
X207249725Y-76986536D01*
X207271440Y-76970430D01*
X207294630Y-76956531D01*
X207319071Y-76944971D01*
X207344527Y-76935863D01*
X207370753Y-76929294D01*
X207397496Y-76925327D01*
X207424500Y-76924000D01*
X209775500Y-76924000D01*
X209802504Y-76925327D01*
G37*
G36*
X212692702Y-74024845D02*
G01*
X212709738Y-74027372D01*
X212726445Y-74031557D01*
X212742661Y-74037359D01*
X212758230Y-74044723D01*
X212773003Y-74053577D01*
X212786836Y-74063837D01*
X212799597Y-74075403D01*
X212811163Y-74088164D01*
X212821423Y-74101997D01*
X212830277Y-74116770D01*
X212837641Y-74132339D01*
X212843443Y-74148555D01*
X212847628Y-74165262D01*
X212850155Y-74182298D01*
X212851000Y-74199500D01*
X212851000Y-74550500D01*
X212850155Y-74567702D01*
X212847628Y-74584738D01*
X212843443Y-74601445D01*
X212837641Y-74617661D01*
X212830277Y-74633230D01*
X212821423Y-74648003D01*
X212811163Y-74661836D01*
X212799597Y-74674597D01*
X212786836Y-74686163D01*
X212773003Y-74696423D01*
X212758230Y-74705277D01*
X212742661Y-74712641D01*
X212726445Y-74718443D01*
X212709738Y-74722628D01*
X212692702Y-74725155D01*
X212675500Y-74726000D01*
X211224500Y-74726000D01*
X211207298Y-74725155D01*
X211190262Y-74722628D01*
X211173555Y-74718443D01*
X211157339Y-74712641D01*
X211141770Y-74705277D01*
X211126997Y-74696423D01*
X211113164Y-74686163D01*
X211100403Y-74674597D01*
X211088837Y-74661836D01*
X211078577Y-74648003D01*
X211069723Y-74633230D01*
X211062359Y-74617661D01*
X211056557Y-74601445D01*
X211052372Y-74584738D01*
X211049845Y-74567702D01*
X211049000Y-74550500D01*
X211049000Y-74199500D01*
X211049845Y-74182298D01*
X211052372Y-74165262D01*
X211056557Y-74148555D01*
X211062359Y-74132339D01*
X211069723Y-74116770D01*
X211078577Y-74101997D01*
X211088837Y-74088164D01*
X211100403Y-74075403D01*
X211113164Y-74063837D01*
X211126997Y-74053577D01*
X211141770Y-74044723D01*
X211157339Y-74037359D01*
X211173555Y-74031557D01*
X211190262Y-74027372D01*
X211207298Y-74024845D01*
X211224500Y-74024000D01*
X212675500Y-74024000D01*
X212692702Y-74024845D01*
G37*
G36*
X212692702Y-75274845D02*
G01*
X212709738Y-75277372D01*
X212726445Y-75281557D01*
X212742661Y-75287359D01*
X212758230Y-75294723D01*
X212773003Y-75303577D01*
X212786836Y-75313837D01*
X212799597Y-75325403D01*
X212811163Y-75338164D01*
X212821423Y-75351997D01*
X212830277Y-75366770D01*
X212837641Y-75382339D01*
X212843443Y-75398555D01*
X212847628Y-75415262D01*
X212850155Y-75432298D01*
X212851000Y-75449500D01*
X212851000Y-75800500D01*
X212850155Y-75817702D01*
X212847628Y-75834738D01*
X212843443Y-75851445D01*
X212837641Y-75867661D01*
X212830277Y-75883230D01*
X212821423Y-75898003D01*
X212811163Y-75911836D01*
X212799597Y-75924597D01*
X212786836Y-75936163D01*
X212773003Y-75946423D01*
X212758230Y-75955277D01*
X212742661Y-75962641D01*
X212726445Y-75968443D01*
X212709738Y-75972628D01*
X212692702Y-75975155D01*
X212675500Y-75976000D01*
X211224500Y-75976000D01*
X211207298Y-75975155D01*
X211190262Y-75972628D01*
X211173555Y-75968443D01*
X211157339Y-75962641D01*
X211141770Y-75955277D01*
X211126997Y-75946423D01*
X211113164Y-75936163D01*
X211100403Y-75924597D01*
X211088837Y-75911836D01*
X211078577Y-75898003D01*
X211069723Y-75883230D01*
X211062359Y-75867661D01*
X211056557Y-75851445D01*
X211052372Y-75834738D01*
X211049845Y-75817702D01*
X211049000Y-75800500D01*
X211049000Y-75449500D01*
X211049845Y-75432298D01*
X211052372Y-75415262D01*
X211056557Y-75398555D01*
X211062359Y-75382339D01*
X211069723Y-75366770D01*
X211078577Y-75351997D01*
X211088837Y-75338164D01*
X211100403Y-75325403D01*
X211113164Y-75313837D01*
X211126997Y-75303577D01*
X211141770Y-75294723D01*
X211157339Y-75287359D01*
X211173555Y-75281557D01*
X211190262Y-75277372D01*
X211207298Y-75274845D01*
X211224500Y-75274000D01*
X212675500Y-75274000D01*
X212692702Y-75274845D01*
G37*
M02*
