%FSLAX45Y45*%
G04 Gerber Fmt 4.5, Leading zero omitted, Abs format (unit mm)*
G04 Created by KiCad (PCBNEW (5.1.5)-3) date 2021-10-17 15:35:13*
%MOMM*%
%LPD*%
G04 APERTURE LIST*
%TA.AperFunction,Profile*%
%ADD10C,0.050000*%
%TD*%
%ADD11C,0.200000*%
%ADD12C,0.300000*%
G04 APERTURE END LIST*
D10*
X16850000Y-7075000D02*
G75*
G02X16925000Y-7000000I75000J0D01*
G01*
X16925000Y-8000000D02*
G75*
G02X16850000Y-7925000I0J75000D01*
G01*
X21375000Y-7925000D02*
G75*
G02X21300000Y-8000000I-75000J0D01*
G01*
X21300000Y-7000000D02*
G75*
G02X21375000Y-7075000I0J-75000D01*
G01*
X21300000Y-7000000D02*
X16925000Y-7000000D01*
X21375000Y-7925000D02*
X21375000Y-7075000D01*
X16925000Y-8000000D02*
X21300000Y-8000000D01*
X16850000Y-7075000D02*
X16850000Y-7925000D01*
D11*
X20880000Y-7430000D02*
X20920000Y-7470000D01*
X20920000Y-7430000D02*
X20880000Y-7470000D01*
X20980000Y-7530000D02*
X21020000Y-7570000D01*
X21020000Y-7530000D02*
X20980000Y-7570000D01*
D12*
X17133928Y-8468214D02*
X17133928Y-8168214D01*
X17205357Y-8168214D01*
X17248214Y-8182500D01*
X17276786Y-8211071D01*
X17291071Y-8239643D01*
X17305357Y-8296786D01*
X17305357Y-8339643D01*
X17291071Y-8396786D01*
X17276786Y-8425357D01*
X17248214Y-8453929D01*
X17205357Y-8468214D01*
X17133928Y-8468214D01*
X17433928Y-8468214D02*
X17433928Y-8268214D01*
X17433928Y-8325357D02*
X17448214Y-8296786D01*
X17462500Y-8282500D01*
X17491071Y-8268214D01*
X17519643Y-8268214D01*
X17619643Y-8468214D02*
X17619643Y-8268214D01*
X17619643Y-8168214D02*
X17605357Y-8182500D01*
X17619643Y-8196786D01*
X17633928Y-8182500D01*
X17619643Y-8168214D01*
X17619643Y-8196786D01*
X17805357Y-8468214D02*
X17776786Y-8453929D01*
X17762500Y-8425357D01*
X17762500Y-8168214D01*
X17962500Y-8468214D02*
X17933928Y-8453929D01*
X17919643Y-8425357D01*
X17919643Y-8168214D01*
X18305357Y-8468214D02*
X18305357Y-8168214D01*
X18405357Y-8382500D01*
X18505357Y-8168214D01*
X18505357Y-8468214D01*
X18776786Y-8468214D02*
X18776786Y-8311071D01*
X18762500Y-8282500D01*
X18733928Y-8268214D01*
X18676786Y-8268214D01*
X18648214Y-8282500D01*
X18776786Y-8453929D02*
X18748214Y-8468214D01*
X18676786Y-8468214D01*
X18648214Y-8453929D01*
X18633928Y-8425357D01*
X18633928Y-8396786D01*
X18648214Y-8368214D01*
X18676786Y-8353929D01*
X18748214Y-8353929D01*
X18776786Y-8339643D01*
X18919643Y-8268214D02*
X18919643Y-8568214D01*
X18919643Y-8282500D02*
X18948214Y-8268214D01*
X19005357Y-8268214D01*
X19033928Y-8282500D01*
X19048214Y-8296786D01*
X19062500Y-8325357D01*
X19062500Y-8411072D01*
X19048214Y-8439643D01*
X19033928Y-8453929D01*
X19005357Y-8468214D01*
X18948214Y-8468214D01*
X18919643Y-8453929D01*
X19191071Y-8439643D02*
X19205357Y-8453929D01*
X19191071Y-8468214D01*
X19176786Y-8453929D01*
X19191071Y-8439643D01*
X19191071Y-8468214D01*
X19191071Y-8282500D02*
X19205357Y-8296786D01*
X19191071Y-8311071D01*
X19176786Y-8296786D01*
X19191071Y-8282500D01*
X19191071Y-8311071D01*
X16807500Y-8942500D02*
X16847500Y-8982500D01*
X16847500Y-8942500D02*
X16807500Y-8982500D01*
X17191071Y-8798214D02*
X17219643Y-8798214D01*
X17248214Y-8812500D01*
X17262500Y-8826786D01*
X17276786Y-8855357D01*
X17291071Y-8912500D01*
X17291071Y-8983929D01*
X17276786Y-9041072D01*
X17262500Y-9069643D01*
X17248214Y-9083929D01*
X17219643Y-9098214D01*
X17191071Y-9098214D01*
X17162500Y-9083929D01*
X17148214Y-9069643D01*
X17133928Y-9041072D01*
X17119643Y-8983929D01*
X17119643Y-8912500D01*
X17133928Y-8855357D01*
X17148214Y-8826786D01*
X17162500Y-8812500D01*
X17191071Y-8798214D01*
X17419643Y-9069643D02*
X17433928Y-9083929D01*
X17419643Y-9098214D01*
X17405357Y-9083929D01*
X17419643Y-9069643D01*
X17419643Y-9098214D01*
X17691071Y-8898214D02*
X17691071Y-9098214D01*
X17619643Y-8783929D02*
X17548214Y-8998214D01*
X17733928Y-8998214D01*
X17905357Y-8798214D02*
X17933928Y-8798214D01*
X17962500Y-8812500D01*
X17976786Y-8826786D01*
X17991071Y-8855357D01*
X18005357Y-8912500D01*
X18005357Y-8983929D01*
X17991071Y-9041072D01*
X17976786Y-9069643D01*
X17962500Y-9083929D01*
X17933928Y-9098214D01*
X17905357Y-9098214D01*
X17876786Y-9083929D01*
X17862500Y-9069643D01*
X17848214Y-9041072D01*
X17833928Y-8983929D01*
X17833928Y-8912500D01*
X17848214Y-8855357D01*
X17862500Y-8826786D01*
X17876786Y-8812500D01*
X17905357Y-8798214D01*
X18133928Y-9098214D02*
X18133928Y-8898214D01*
X18133928Y-8926786D02*
X18148214Y-8912500D01*
X18176786Y-8898214D01*
X18219643Y-8898214D01*
X18248214Y-8912500D01*
X18262500Y-8941072D01*
X18262500Y-9098214D01*
X18262500Y-8941072D02*
X18276786Y-8912500D01*
X18305357Y-8898214D01*
X18348214Y-8898214D01*
X18376786Y-8912500D01*
X18391071Y-8941072D01*
X18391071Y-9098214D01*
X18533928Y-9098214D02*
X18533928Y-8898214D01*
X18533928Y-8926786D02*
X18548214Y-8912500D01*
X18576786Y-8898214D01*
X18619643Y-8898214D01*
X18648214Y-8912500D01*
X18662500Y-8941072D01*
X18662500Y-9098214D01*
X18662500Y-8941072D02*
X18676786Y-8912500D01*
X18705357Y-8898214D01*
X18748214Y-8898214D01*
X18776786Y-8912500D01*
X18791071Y-8941072D01*
X18791071Y-9098214D01*
X19376786Y-8783929D02*
X19119643Y-9169643D01*
X19762500Y-8798214D02*
X19791071Y-8798214D01*
X19819643Y-8812500D01*
X19833928Y-8826786D01*
X19848214Y-8855357D01*
X19862500Y-8912500D01*
X19862500Y-8983929D01*
X19848214Y-9041072D01*
X19833928Y-9069643D01*
X19819643Y-9083929D01*
X19791071Y-9098214D01*
X19762500Y-9098214D01*
X19733928Y-9083929D01*
X19719643Y-9069643D01*
X19705357Y-9041072D01*
X19691071Y-8983929D01*
X19691071Y-8912500D01*
X19705357Y-8855357D01*
X19719643Y-8826786D01*
X19733928Y-8812500D01*
X19762500Y-8798214D01*
X19991071Y-9069643D02*
X20005357Y-9083929D01*
X19991071Y-9098214D01*
X19976786Y-9083929D01*
X19991071Y-9069643D01*
X19991071Y-9098214D01*
X20191071Y-8798214D02*
X20219643Y-8798214D01*
X20248214Y-8812500D01*
X20262500Y-8826786D01*
X20276786Y-8855357D01*
X20291071Y-8912500D01*
X20291071Y-8983929D01*
X20276786Y-9041072D01*
X20262500Y-9069643D01*
X20248214Y-9083929D01*
X20219643Y-9098214D01*
X20191071Y-9098214D01*
X20162500Y-9083929D01*
X20148214Y-9069643D01*
X20133928Y-9041072D01*
X20119643Y-8983929D01*
X20119643Y-8912500D01*
X20133928Y-8855357D01*
X20148214Y-8826786D01*
X20162500Y-8812500D01*
X20191071Y-8798214D01*
X20576786Y-9098214D02*
X20405357Y-9098214D01*
X20491071Y-9098214D02*
X20491071Y-8798214D01*
X20462500Y-8841072D01*
X20433928Y-8869643D01*
X20405357Y-8883929D01*
X20833928Y-8798214D02*
X20776786Y-8798214D01*
X20748214Y-8812500D01*
X20733928Y-8826786D01*
X20705357Y-8869643D01*
X20691071Y-8926786D01*
X20691071Y-9041072D01*
X20705357Y-9069643D01*
X20719643Y-9083929D01*
X20748214Y-9098214D01*
X20805357Y-9098214D01*
X20833928Y-9083929D01*
X20848214Y-9069643D01*
X20862500Y-9041072D01*
X20862500Y-8969643D01*
X20848214Y-8941072D01*
X20833928Y-8926786D01*
X20805357Y-8912500D01*
X20748214Y-8912500D01*
X20719643Y-8926786D01*
X20705357Y-8941072D01*
X20691071Y-8969643D01*
X20976786Y-8798214D02*
X20976786Y-8855357D01*
X21091071Y-8798214D02*
X21091071Y-8855357D01*
X21533928Y-9212500D02*
X21519643Y-9198214D01*
X21491071Y-9155357D01*
X21476786Y-9126786D01*
X21462500Y-9083929D01*
X21448214Y-9012500D01*
X21448214Y-8955357D01*
X21462500Y-8883929D01*
X21476786Y-8841072D01*
X21491071Y-8812500D01*
X21519643Y-8769643D01*
X21533928Y-8755357D01*
X21633928Y-8826786D02*
X21648214Y-8812500D01*
X21676786Y-8798214D01*
X21748214Y-8798214D01*
X21776786Y-8812500D01*
X21791071Y-8826786D01*
X21805357Y-8855357D01*
X21805357Y-8883929D01*
X21791071Y-8926786D01*
X21619643Y-9098214D01*
X21805357Y-9098214D01*
X22162500Y-9098214D02*
X22162500Y-8798214D01*
X22291071Y-9098214D02*
X22291071Y-8941072D01*
X22276786Y-8912500D01*
X22248214Y-8898214D01*
X22205357Y-8898214D01*
X22176786Y-8912500D01*
X22162500Y-8926786D01*
X22476786Y-9098214D02*
X22448214Y-9083929D01*
X22433928Y-9069643D01*
X22419643Y-9041072D01*
X22419643Y-8955357D01*
X22433928Y-8926786D01*
X22448214Y-8912500D01*
X22476786Y-8898214D01*
X22519643Y-8898214D01*
X22548214Y-8912500D01*
X22562500Y-8926786D01*
X22576786Y-8955357D01*
X22576786Y-9041072D01*
X22562500Y-9069643D01*
X22548214Y-9083929D01*
X22519643Y-9098214D01*
X22476786Y-9098214D01*
X22748214Y-9098214D02*
X22719643Y-9083929D01*
X22705357Y-9055357D01*
X22705357Y-8798214D01*
X22976786Y-9083929D02*
X22948214Y-9098214D01*
X22891071Y-9098214D01*
X22862500Y-9083929D01*
X22848214Y-9055357D01*
X22848214Y-8941072D01*
X22862500Y-8912500D01*
X22891071Y-8898214D01*
X22948214Y-8898214D01*
X22976786Y-8912500D01*
X22991071Y-8941072D01*
X22991071Y-8969643D01*
X22848214Y-8998214D01*
X23105357Y-9083929D02*
X23133928Y-9098214D01*
X23191071Y-9098214D01*
X23219643Y-9083929D01*
X23233928Y-9055357D01*
X23233928Y-9041072D01*
X23219643Y-9012500D01*
X23191071Y-8998214D01*
X23148214Y-8998214D01*
X23119643Y-8983929D01*
X23105357Y-8955357D01*
X23105357Y-8941072D01*
X23119643Y-8912500D01*
X23148214Y-8898214D01*
X23191071Y-8898214D01*
X23219643Y-8912500D01*
X23333928Y-9212500D02*
X23348214Y-9198214D01*
X23376786Y-9155357D01*
X23391071Y-9126786D01*
X23405357Y-9083929D01*
X23419643Y-9012500D01*
X23419643Y-8955357D01*
X23405357Y-8883929D01*
X23391071Y-8841072D01*
X23376786Y-8812500D01*
X23348214Y-8769643D01*
X23333928Y-8755357D01*
M02*
